<svg width="348" height="74" viewBox="0 0 348 74" fill="none" xmlns="http://www.w3.org/2000/svg">
<g clip-path="url(#clip0)">
<path d="M346.79 15.9567C346.692 16.9753 346.534 17.9872 346.315 18.9872C346.075 19.9796 343.802 25.5586 343.636 26.4803C343.533 27.3774 343.486 28.2799 343.495 29.1827C342.805 29.4826 341.219 30.6571 340.377 30.6571C339.536 30.6571 337.53 28.7509 336.655 28.5232C336.655 26.1678 337.266 25.9731 337.054 24.7546C336.71 23.3449 336.213 21.9761 335.573 20.6721C335.331 20.0683 335.269 19.4083 335.394 18.7705C335.221 19.02 335.099 19.301 335.035 19.5974C334.971 19.8938 334.967 20.1997 335.023 20.4978C335.241 21.7995 336.288 23.7591 336.437 24.618C336.586 25.4769 336.541 26.463 336.214 26.6813C333.852 26.427 331.569 25.6903 329.508 24.5175C327.918 23.6125 326.276 22.7983 324.592 22.079C325.596 19.9823 326.858 18.0176 328.349 16.2299C329.587 14.7454 331.061 13.4723 332.713 12.4613C334.976 11.3294 337.509 10.8352 340.036 11.0324C341.579 11.2048 343.105 11.5041 344.599 11.9275C344.599 11.9275 346.061 10.7231 347.181 11.1015C346.864 11.9385 346.499 12.7958 346.499 12.7958L347.949 13.6343C347.515 14.3822 347.128 15.1562 346.791 15.952L346.79 15.9567ZM281.581 37.4421C281.605 39.226 282.246 40.9477 283.395 42.3192C283.408 42.327 283.421 42.3459 283.435 42.3569C283.072 41.1945 282.777 40.0122 282.552 38.816V36.445C282.843 34.7808 283.345 33.16 284.047 31.6212C284.034 31.6307 284.034 31.6416 284.026 31.6416C284.019 31.6416 283.971 31.6888 283.95 31.7076C283.337 32.3023 282.824 32.9916 282.432 33.7489L282.347 33.9216C281.919 34.8038 281.666 35.7598 281.603 36.737C281.589 36.9286 281.575 37.117 281.575 37.3086C281.575 37.3478 281.587 37.3918 281.587 37.4389L281.581 37.4421ZM321.267 24.8426C321.391 24.7725 321.494 24.6712 321.566 24.5489C321.774 24.2324 321.962 23.9031 322.128 23.5628C322.128 22.9347 320.804 23.0023 320.524 22.7777C320.244 22.5532 320.116 22.2281 319.676 22.0366L319.655 22.1025C319.643 22.2172 319.643 22.3726 319.643 22.5218C319.718 22.9268 319.756 23.3378 319.757 23.7497C319.766 24.2792 319.703 24.8075 319.568 25.3199C319.814 25.4096 320.054 25.5145 320.286 25.634C320.563 25.3121 320.894 25.0415 321.266 24.8347L321.267 24.8426ZM321.107 20.0502L315.957 14.3095L312.618 17.0762L312.746 17.4798C312.861 17.7642 312.994 18.0411 313.145 18.3089C313.313 18.5967 313.5 18.8736 313.704 19.1379C313.935 19.4358 314.185 19.7175 314.454 19.9812C314.494 20.0204 314.54 20.0534 314.573 20.0911C315.304 20.773 316.164 21.3041 317.104 21.6534C317.654 21.8543 318.233 21.9652 318.819 21.9816L321.115 20.0487L321.107 20.0502ZM318.603 10.5519V9.03982C318.614 8.95217 318.605 8.86337 318.577 8.7794C318.55 8.69543 318.505 8.61825 318.445 8.55305C318.249 8.45656 318.066 8.33515 317.901 8.1919C317.843 8.14793 317.787 8.0914 317.743 8.04901C317.388 8.12458 317.017 8.08325 316.688 7.93124C316.502 7.86986 316.329 7.77513 316.177 7.65174C316.087 7.57441 316.014 7.47987 315.962 7.37383C315.91 7.26778 315.881 7.15241 315.875 7.03464C315.704 7.03464 315.538 7.01423 315.378 6.99539V7.97835C315.391 8.01761 315.396 8.06471 315.407 8.09926C315.5 8.42343 315.518 8.76468 315.457 9.09659C315.397 9.42851 315.261 9.74219 315.059 10.0134C314.839 10.3196 314.55 10.5703 314.215 10.7452C313.879 10.92 313.507 11.0141 313.129 11.0199C313.096 11.3071 313.1 11.5973 313.141 11.8835C313.178 12.1442 313.458 12.857 313.564 13.2433C313.808 13.935 313.948 14.6589 313.978 15.3914L314.739 14.7554C314.581 14.1493 314.394 13.5181 314.222 12.8947C314.103 12.4661 313.981 12.0468 313.877 11.6385C314.3 11.555 314.701 11.3853 315.055 11.1402C315.409 10.8951 315.708 10.5799 315.933 10.2144C316.365 10.3626 316.808 10.4781 317.257 10.5598H318.596L318.603 10.5519ZM320.524 8.60801C320.731 8.40388 320.682 7.90455 320.293 7.05977C320.15 6.87736 319.992 6.70813 319.818 6.55415C319.515 6.71118 319.39 6.71118 319.285 6.76614C319.205 6.90038 319.115 7.02893 319.016 7.15084C318.947 7.23092 318.768 7.20109 318.7 7.25762C318.597 7.51253 318.421 7.73124 318.192 7.8857C318.486 8.15554 318.829 8.36854 319.201 8.5138C319.454 8.61272 320.309 8.80272 320.521 8.61272L320.524 8.60801ZM321.511 5.15822C322.408 4.64463 323.183 3.9439 323.781 3.10437C323.617 3.04766 323.458 2.97672 323.306 2.89239C322.689 2.5265 322.162 2.03002 321.761 1.43836C321.217 2.7312 320.362 3.87201 319.271 4.76096C319.323 4.86522 319.365 4.97403 319.397 5.086C319.409 5.11978 319.417 5.15444 319.423 5.18963C319.48 5.47439 319.484 5.76698 319.435 6.05325C320.167 5.84772 320.868 5.54675 321.52 5.15822H321.511ZM324.086 2.6176C324.086 2.6176 324.102 2.6176 324.105 2.60818C324.119 2.59561 324.13 2.57994 324.136 2.56247C324.143 2.545 324.145 2.52622 324.143 2.50768C324.024 2.02649 323.745 1.59901 323.352 1.2939C323.136 1.08356 322.9 0.894754 322.647 0.730187C322.371 0.562173 322.155 0.493085 322.03 0.537051C322.016 0.543305 322.002 0.551211 321.99 0.560603C321.978 0.578339 321.97 0.598008 321.965 0.618703C321.944 0.684987 321.949 0.756474 321.977 0.819692C322.147 1.22919 322.408 1.59491 322.741 1.88902C323.306 2.42917 323.899 2.75735 324.088 2.61603L324.086 2.6176ZM318.695 4.84261C318.695 4.83004 317.393 4.94468 317.393 4.94468C317.393 4.94468 316.761 5.38905 316.677 5.77375C316.659 6.03987 316.659 6.30688 316.677 6.573L318.711 6.61226C318.872 6.34461 318.956 6.03795 318.954 5.72601C318.951 5.41407 318.861 5.10893 318.695 4.84418V4.84261ZM317.254 7.60621C318.32 7.68315 318.263 7.07076 318.263 7.07076L316.421 7.04249C316.421 7.04249 316.186 7.5434 317.254 7.60621V7.60621ZM314.579 5.44243C314.415 5.26433 314.219 5.11747 314.002 5.00905C313.774 5.21632 313.467 5.50524 313.176 5.72507C313.164 5.73607 313.164 5.74549 313.148 5.74549C313.045 5.83825 312.93 5.91646 312.806 5.97788C312.599 5.77558 312.45 5.52258 312.374 5.24459C312.353 5.18063 312.341 5.11404 312.338 5.04674C312.328 4.9503 312.349 4.85332 312.397 4.76902C312.445 4.68472 312.519 4.61721 312.607 4.57567C312.824 4.49386 313.036 4.39732 313.24 4.28675C313.267 4.13226 313.338 3.98858 313.444 3.87221C313.35 3.64968 313.23 3.43887 313.086 3.24412L312.532 2.91908C312.318 2.8089 312.112 2.68403 311.915 2.54537C311.915 2.89239 311.947 3.10437 311.944 3.35874V3.44668C311.944 3.58957 311.957 3.74031 311.965 3.88477C311.965 4.15642 311.977 4.42493 311.977 4.69501H311.503C311.505 4.6048 311.5 4.51456 311.49 4.42493C311.49 4.26791 311.49 4.136 311.477 3.98212C311.465 3.82824 311.457 3.66808 311.454 3.52048C311.42 2.9128 311.368 2.33025 311.316 1.77596C311.251 1.75432 311.184 1.73959 311.117 1.73199C310.998 1.71158 310.876 1.69902 310.758 1.6786H310.694C310.599 1.6786 310.511 1.68803 310.421 1.68803C310.395 1.75555 310.604 2.96619 310.653 3.18131C310.677 3.29751 310.876 4.56939 310.881 4.64162V4.69501H310.432L310.419 4.71542C310.324 4.15642 310.22 3.61626 310.092 3.09652C309.975 2.61446 309.839 2.15438 309.699 1.71315C309.269 1.76691 308.848 1.87563 308.447 2.03662C308.434 2.04447 308.418 2.04447 308.409 2.05703C308.132 2.17548 307.872 2.32738 307.634 2.50925C307.592 2.53752 307.553 2.56892 307.518 2.59718C307.355 2.76578 307.201 2.94295 307.058 3.12792C306.841 3.42155 306.664 3.69634 306.537 3.87849C306.46 3.98841 306.46 4.13758 306.379 4.30402C306.348 4.39196 306.323 4.48161 306.303 4.57253C306.285 4.66965 306.272 4.76766 306.264 4.86616V4.88343C306.289 4.89072 306.313 4.90018 306.336 4.9117C306.495 4.95096 306.631 4.98864 306.776 5.01376C307.155 5.09322 307.542 5.13322 307.929 5.1331C307.962 5.1331 308.001 5.14095 308.034 5.14095C308.218 5.14182 308.402 5.13291 308.586 5.11426H308.598V5.14095C308.749 5.71606 309.049 6.24183 309.468 6.66564C309.793 7.01204 310.184 7.29207 310.617 7.49001C310.715 7.53566 310.817 7.57244 310.922 7.59992C310.982 7.62034 311.039 7.64075 311.104 7.6596C311.095 7.75508 311.091 7.85103 311.093 7.94694C311.093 8.09298 311.093 8.23743 311.08 8.36619L311.45 8.41016C311.45 8.28454 311.463 8.15421 311.468 8.03488C311.466 7.98222 311.47 7.9295 311.481 7.87786V7.63133C311.481 7.47431 311.48 7.32671 311.492 7.16026V6.90117C311.492 6.74415 311.492 6.58713 311.504 6.43011V6.34374C311.504 6.28565 311.517 6.22912 311.517 6.18672V6.0297H311.977V6.43796C312.01 6.47722 312.047 6.51176 312.08 6.55415C312.082 6.55393 312.083 6.55404 312.085 6.55449C312.086 6.55494 312.088 6.55571 312.089 6.55676C312.09 6.5578 312.091 6.5591 312.092 6.56054C312.092 6.56199 312.093 6.56356 312.093 6.56514C312.262 6.74572 312.434 6.94514 312.6 7.132C312.649 7.19166 312.7 7.24977 312.748 7.30158C312.761 7.31033 312.772 7.3222 312.779 7.33613C312.798 7.35716 312.816 7.37918 312.833 7.40208C312.958 7.54654 313.083 7.69571 313.194 7.84488C313.335 7.76026 313.467 7.6619 313.589 7.55125C313.7 7.45523 313.798 7.34666 313.883 7.22778C313.926 7.17236 313.966 7.1147 314.002 7.05506C314.051 6.97439 314.095 6.89103 314.135 6.80539C314.157 6.74572 314.189 6.68919 314.211 6.63109C314.227 6.60418 314.239 6.5751 314.247 6.54473C314.29 6.42646 314.34 6.31062 314.396 6.19772C314.47 6.01405 314.6 5.85844 314.769 5.75334C314.73 5.63948 314.665 5.53591 314.579 5.45029V5.44243ZM308.252 21.6236L307.982 21.3363C307.92 21.2672 307.863 21.2012 307.806 21.1431C307.806 21.1274 307.782 21.1133 307.774 21.0992L306.075 22.5124L311.303 28.3049L311.507 28.1338L314.595 25.5429C313.585 25.2562 312.613 24.848 311.702 24.3275C310.6 23.6992 309.583 22.9353 308.674 22.0539C308.652 22.0332 308.632 22.01 308.614 21.9848C308.54 21.9188 308.473 21.8544 308.409 21.7838C308.353 21.7346 308.3 21.6821 308.25 21.6267L308.252 21.6236ZM304.53 23.7261L304.506 23.7466L306.052 24.9792L309.848 28.0238L310.138 27.6878L306.257 23.3713L306.148 23.2566C306.148 23.2566 306.12 23.2456 306.131 23.2268L305.71 22.7557L304.528 23.7199L304.53 23.7261ZM304.381 25.7941L304.437 25.8098L307.836 27.1005L308.105 27.2026L304.984 24.7358L304.84 24.6259L304.381 25.7941ZM280.725 48.476C280.592 47.9076 280.455 47.3031 280.319 46.8336L279.267 43.2064L277.791 38.1141C277.469 36.9992 277.411 35.8254 277.624 34.6849C277.836 33.5443 278.311 32.4681 279.013 31.5408C279.715 30.6135 280.623 29.8604 281.668 29.3406C282.712 28.8208 283.864 28.5485 285.032 28.5452C285.395 28.5462 285.757 28.5719 286.116 28.6221C286.36 28.598 286.602 28.5614 286.842 28.5122C286.959 28.4887 287.074 28.4546 287.185 28.4101C287.272 28.3834 287.361 28.352 287.442 28.319C287.6 28.2594 287.758 28.1887 287.934 28.1102C288.214 27.9846 288.505 27.8605 288.783 27.7459C290.139 27.1474 291.57 26.7353 293.038 26.5211C294.859 26.2641 296.709 26.2933 298.521 26.6075C299.598 26.7971 300.654 27.0927 301.673 27.49C302.06 27.6258 302.457 27.7308 302.861 27.804C303.516 27.804 303.573 27.1194 304.383 27.1194C304.764 27.2055 305.133 27.3384 305.481 27.5151C305.481 27.5151 305.371 27.6721 305.367 27.6721C303.877 30.08 302.766 32.6994 302.072 35.44C302.056 35.4873 302.043 35.5356 302.032 35.5845L301.933 35.988C301.933 35.988 312.7 40.2952 312.729 40.3156C312.803 40.1319 314.682 35.6316 314.682 35.6316C314.682 35.6316 316.661 37.0008 317.688 37.6069C317.643 38.4257 317.649 39.2463 317.705 40.0643C317.884 43.2535 318.463 47.9814 318.64 49.4496C318.798 49.6333 318.909 49.8123 319.16 49.8123C319.412 49.8123 322.2 49.5202 322.964 48.498L322.49 41.487L322.142 36.3492L318.455 27.6234L317.882 26.2699L316.795 28.8576L312.333 39.4786L302.705 35.6944C302.705 35.6661 302.717 35.641 302.719 35.6127C302.718 35.6074 302.719 35.6019 302.721 35.597C302.724 35.5922 302.728 35.5884 302.733 35.5861C302.737 35.5457 302.747 35.5061 302.762 35.4683C303.48 32.5934 304.664 29.8534 306.267 27.3549C306.311 27.234 306.341 27.1712 306.341 27.1602C306.341 26.9482 306.354 26.9875 306.291 26.9388L303.777 25.9967L304.437 24.3197L303.804 23.8125L303.973 23.668L304.606 23.153L305.579 22.3538L306.757 21.3755L307.281 20.9421L307.474 20.7851L307.24 20.4632C307.24 20.4632 306.858 19.956 306.683 19.6922C306.288 19.1123 305.942 18.5009 305.648 17.8645C305.465 17.4594 305.305 17.0652 305.174 16.6695C305.11 16.5248 305.064 16.373 305.036 16.2173C304.891 15.7126 304.786 15.1976 304.72 14.6769C304.678 14.3793 304.657 14.0792 304.655 13.7788V13.6579C304.664 13.0842 304.827 12.5234 305.13 12.0342C305.223 11.8661 305.338 11.7109 305.473 11.5726L305.539 11.5145C305.638 11.4033 305.744 11.2984 305.856 11.2004C306.08 11.017 306.327 10.8634 306.591 10.7435C306.761 10.6451 306.94 10.5655 307.127 10.5064C307.13 10.5064 307.133 10.5053 307.135 10.5032C307.137 10.5011 307.138 10.4983 307.138 10.4954C307.151 10.3525 307.153 10.1971 307.164 10.0055C307.273 10.0165 307.382 10.0353 307.48 10.0542C307.768 10.0988 308.051 10.1697 308.326 10.2662C308.348 10.2699 308.369 10.2768 308.388 10.2866C308.301 9.73857 307.652 9.6318 307.439 9.32874C307.386 9.27043 307.356 9.19514 307.355 9.11676C307.356 9.04556 307.377 8.97602 307.415 8.91577C307.5 8.82145 307.552 8.70255 307.564 8.57661C307.565 8.51758 307.55 8.45935 307.52 8.40859C307.497 8.35566 307.459 8.31002 307.412 8.27669L307.398 8.26413C307.362 8.23924 307.324 8.2172 307.284 8.19818C307.235 8.15892 307.186 8.12124 307.14 8.0914C307.075 8.03331 307.015 7.9705 306.956 7.91397C306.409 7.36358 306.029 6.67057 305.862 5.91507C305.848 5.85541 305.845 5.79888 305.829 5.73136C305.813 5.66384 305.808 5.57433 305.803 5.49582C305.782 5.24061 305.786 4.98393 305.816 4.72955C305.83 4.65732 305.84 4.57253 305.854 4.49873C306.022 3.66736 306.468 2.91664 307.119 2.36793C307.301 2.21755 307.492 2.07907 307.692 1.95339C307.708 1.94438 307.722 1.93329 307.735 1.92042C307.971 1.7773 308.223 1.6594 308.485 1.56869C308.529 1.55097 308.574 1.53628 308.621 1.52472C308.649 1.5128 308.68 1.50539 308.711 1.50274C308.954 1.42612 309.203 1.36785 309.456 1.32844C309.678 1.29498 309.902 1.27557 310.126 1.27034C310.274 1.27034 310.425 1.27034 310.563 1.28134C310.623 1.28134 310.69 1.29704 310.743 1.30175L310.89 1.31588H311.253C311.384 1.31588 311.526 1.30646 311.685 1.30646C311.723 1.35828 311.759 1.40539 311.792 1.46348L311.83 1.51844C311.953 1.73042 312.052 1.92827 312.12 2.0586C312.132 2.07901 312.137 2.09 312.151 2.09785C312.184 2.15116 312.224 2.19977 312.27 2.24232C312.653 2.59405 313.29 2.69454 313.432 3.00858C313.575 3.32263 314.116 4.4108 314.116 4.4108C314.116 4.4108 315.261 5.69367 315.261 5.7502C315.261 5.99201 315.248 6.1035 315.419 6.27936C315.651 6.21559 315.879 6.14011 316.103 6.05325C316.113 5.87439 316.133 5.6962 316.163 5.51937C316.183 5.47541 316.982 4.43435 317.403 4.46733C317.51 4.46733 318.926 4.3527 318.932 4.3527C320.19 3.36928 321.063 1.98094 321.4 0.427136V0.38945C321.41 0.364824 321.417 0.338949 321.421 0.312509C321.442 0.252542 321.478 0.198653 321.525 0.155486C321.606 0.0919236 321.701 0.048964 321.803 0.0303534C321.904 0.0117428 322.009 0.0180446 322.107 0.0487096C322.323 0.0983832 322.53 0.177657 322.724 0.284243C323.069 0.481209 323.388 0.720737 323.673 0.997126C323.768 1.08977 323.849 1.17142 323.926 1.26249C324.105 1.46161 324.264 1.67778 324.401 1.90786C324.518 2.05734 324.599 2.23144 324.637 2.41681C324.676 2.60218 324.671 2.79387 324.624 2.97718L324.589 3.02586C323.587 4.58632 322.077 5.75895 320.31 6.34845C320.261 6.36957 320.214 6.39533 320.169 6.42539C320.52 6.76011 320.779 7.17854 320.921 7.64075H322.792V12.9795C322.792 13.0627 322.779 13.1365 322.775 13.2119C322.77 13.2873 322.756 13.3689 322.737 13.4553C322.724 13.504 322.718 13.5542 322.702 13.6123C322.636 13.8484 322.537 14.0741 322.408 14.2828C322.379 14.3283 322.346 14.366 322.318 14.4131C322.115 14.6868 321.86 14.918 321.567 15.0935C321.274 15.2689 320.949 15.3851 320.611 15.4353C320.487 15.4558 320.359 15.4636 320.229 15.473H317.631L321.852 20.1837C321.852 20.1837 320.595 21.2059 320.163 21.6095C320.352 21.8808 320.57 22.1314 320.813 22.3569C321.103 22.5265 322.892 22.6709 322.753 23.522C322.739 23.6204 322.716 23.7172 322.683 23.8109C322.479 24.2238 322.23 24.6134 321.941 24.9729C321.648 25.3482 321.038 25.3812 320.834 26.0045C321.141 26.2081 321.374 26.505 321.498 26.8509C322.522 25.6695 323.427 24.3916 324.2 23.0352C326.369 23.5801 331.592 26.4709 332.965 26.8949C333.941 27.1559 334.935 27.3454 335.939 27.4617C335.805 27.7819 335.712 28.1174 335.662 28.4604C335.674 28.586 336.089 28.7053 336.567 28.9911C336.822 29.1398 337.056 29.3232 337.261 29.536C337.161 30.7261 337.334 31.9233 337.767 33.0376C337.929 33.4191 338.067 33.8103 338.18 34.209C338.221 34.3346 338.25 34.4602 338.284 34.5952C338.351 34.8889 338.409 35.1919 338.46 35.5044C338.519 35.9001 338.56 36.3005 338.579 36.7056C338.579 36.8108 338.591 36.916 338.591 37.0197V37.4719C338.593 37.5673 338.589 37.6628 338.579 37.7577C338.555 38.2565 338.502 38.7535 338.42 39.2462C338.397 39.3514 338.379 39.4582 338.352 39.5729C338.324 39.7173 338.292 39.8869 338.253 40.0219C338.121 40.5678 337.944 41.102 337.723 41.6189C337.694 41.6694 337.67 41.7219 337.649 41.7759C337.634 41.8151 337.62 41.8434 337.611 41.8748C337.6 41.8892 337.592 41.9051 337.587 41.9219C337.533 41.9125 337.482 41.8889 337.429 41.8748C337.101 41.7651 336.786 41.6214 336.489 41.4461C336.296 41.3252 336.106 41.1996 335.926 41.0599C335.737 40.9106 335.559 40.7479 335.394 40.5731C335.708 41.238 336.175 41.8205 336.756 42.2736C336.855 42.3459 336.96 42.4307 337.073 42.5013C337.151 42.5398 337.233 42.5719 337.316 42.5971C337.329 42.5971 338.748 43.0493 339.034 43.1074C340.573 43.3488 342.094 43.6881 343.588 44.1234C343.833 44.205 344.284 43.6523 345.645 43.7606C346.243 43.83 346.8 44.0967 347.228 44.5181C347.655 44.9395 347.928 45.4911 348.001 46.0846C347.973 46.9796 347.589 47.1963 347.461 47.7129C347.302 48.374 346.261 54.0346 346.148 55.0239C346.073 55.652 346.054 56.5501 346.054 56.5611C346.054 56.6522 346.306 57.7168 346.328 58.078C346.328 58.1502 346.341 58.1989 346.341 58.2711C346.341 58.4342 346.327 58.5971 346.299 58.7579C346.26 59.0941 346.151 59.4188 345.981 59.7122C345.811 60.0057 345.582 60.2617 345.309 60.4647C345.297 60.4977 345.29 60.5322 345.276 60.5652C345.2 60.84 345.105 61.1148 345.01 61.3896C344.5 62.7748 343.7 64.0372 342.663 65.0937L342.634 65.0466L340.565 61.1211L340.54 61.0771C340.983 60.2567 341.55 59.5081 342.22 58.8568C342.305 58.7637 342.396 58.6751 342.491 58.5914C342.699 58.3999 342.918 58.2161 343.136 58.0371C343.136 57.9775 343.123 57.9131 343.123 57.8566C343.124 57.4816 343.202 57.1107 343.352 56.7663C343.501 56.4219 343.719 56.1112 343.993 55.853C344.073 55.7735 344.158 55.699 344.248 55.63C344.248 55.473 344.564 49.5454 344.311 47.3565C343.479 47.2291 342.683 46.9341 341.97 46.4897C341.766 46.3327 335.19 46.9608 334.99 46.9812C334.789 47.0016 334.24 46.7362 333.857 46.7425C333.474 46.7488 332.857 46.8304 332.628 46.8304C332.193 46.83 331.769 46.6931 331.416 46.4394C331.046 46.1718 330.783 45.7823 330.674 45.3403C330.644 45.2423 330.625 45.1411 330.619 45.0388V44.8143C330.622 44.7438 330.629 44.6736 330.64 44.6039L330.677 44.3903C330.726 44.2144 330.798 44.0458 330.893 43.8894C330.529 43.7838 330.176 43.6456 329.838 43.4764C329.518 43.3147 329.211 43.1305 328.918 42.9253C328.206 42.4237 327.598 41.7896 327.129 41.0583C326.969 40.8065 326.827 40.5442 326.702 40.2732C327.108 41.928 328.146 43.3619 329.595 44.2725C329.576 44.4091 329.562 44.5473 329.554 44.6918C329.545 44.9523 329.568 45.213 329.626 45.4675C329.743 46.0162 330.006 46.5237 330.388 46.9372C330.831 47.4228 331.409 47.7667 332.049 47.9249C331.525 49.8453 330.375 53.138 330.375 53.3736C329.892 54.8576 329.281 56.2976 328.548 57.6776C328.445 59.1108 328.234 60.5343 327.916 61.936C327.866 62.2435 327.84 62.5542 327.836 62.8656C327.836 63.1121 327.704 64.6305 327.613 67.0769C327.613 67.2858 327.533 67.3187 327.533 67.5637C327.545 67.7679 327.614 67.9647 327.732 68.1321C327.732 68.1415 327.753 68.1557 327.761 68.1698C327.846 68.286 327.936 68.3975 328.02 68.5121C328.134 68.6691 328.248 68.8262 328.357 68.9832C328.611 69.3604 328.84 69.7532 329.043 70.1593C329.146 70.3634 329.241 70.566 329.33 70.767C329.382 70.8538 329.425 70.9459 329.458 71.0417C329.818 71.9241 330.063 72.8486 330.185 73.7928H325.326C325.381 73.5129 325.416 73.2296 325.431 72.9449C325.462 71.8436 325.211 70.7525 324.7 69.7746C324.515 69.2788 324.248 68.8174 323.909 68.41C323.979 67.7048 324.108 67.0067 324.296 66.3232C324.59 65.5239 324.961 64.7546 325.404 64.026C325.404 64.026 325.711 58.2161 325.711 57.9712C325.711 57.7262 325.295 55.6284 325.122 54.5575C324.972 53.4354 324.652 52.3423 324.173 51.315C324.061 51.103 324.697 50.5095 324.891 50.153L324.771 50.0384C324.742 50.0394 324.714 50.0431 324.686 50.0494C324.431 50.2692 319.739 51.6714 319.739 51.6714C319.309 51.0984 318.823 50.5692 318.287 50.0918C316.223 49.9383 314.169 49.6762 312.134 49.3067C309.217 48.7829 306.348 48.0224 303.556 47.033C303.081 46.8603 302.616 46.6766 302.173 46.5038C302.152 46.5247 302.136 46.5492 302.124 46.5761V46.821C302.121 47.1404 302.098 47.4592 302.054 47.7757C301.934 48.989 301.607 50.1731 301.086 51.2773C300.865 51.7504 300.592 52.1979 300.272 52.612L300.213 52.7282C300.43 53.1588 300.589 53.6153 300.688 54.0864C300.755 54.3838 300.802 54.6855 300.827 54.9893C300.852 55.3632 300.852 55.7382 300.827 56.112C302.834 58.5133 304.67 61.0507 306.321 63.7056C306.334 63.7243 306.346 63.7437 306.357 63.7637C306.725 63.9892 307.026 64.3081 307.229 64.6877C307.432 65.0672 307.529 65.4936 307.51 65.9228C307.506 66.1911 307.47 66.4579 307.401 66.7173C307.319 67.007 307.186 67.2797 307.007 67.5229C307.078 67.8039 307.137 68.0724 307.183 68.3629C307.282 68.9743 307.318 69.594 307.292 70.2127V70.2708C307.251 71.1893 307.067 72.096 306.748 72.959C306.674 73.1299 306.588 73.2957 306.491 73.4552L302.787 70.4592L302.697 70.3917C302.865 69.9503 303.063 69.5207 303.29 69.1057C303.53 68.6672 303.794 68.242 304.081 67.8322C303.641 67.4001 303.362 66.8326 303.29 66.2227C303.278 66.1153 303.273 66.0073 303.274 65.8993C303.274 65.8082 303.287 65.703 303.29 65.6056C303.315 64.9607 303.522 64.3357 303.886 63.8014C303.434 63.0163 302.347 61.4728 302.004 61.041C301.353 60.2304 300.638 59.4732 299.865 58.7767C299.339 58.515 298.781 58.3203 298.206 58.1973C298.296 58.2083 298.162 58.1879 298.206 58.1973C297.931 58.1675 297.067 58.0277 297.067 58.0277L295.764 57.8032L295.681 57.7922L295.998 56.7794C295.998 56.7621 296.01 56.7417 296.01 56.7134C296.055 56.3374 296.055 55.9574 296.01 55.5813C295.979 55.3155 295.915 55.0545 295.821 54.804C295.787 54.7177 295.746 54.647 295.711 54.5575C295.66 54.4597 295.604 54.3648 295.542 54.2733C295.522 54.2527 295.504 54.23 295.488 54.2058C295.03 53.6044 293.974 52.2634 293.796 52.0577C293.832 52.02 293.867 51.9698 293.899 51.9368L293.951 51.8756C294.65 51.0138 295.245 50.0742 295.726 49.0759C295.959 48.586 296.165 48.0838 296.343 47.5716C296.568 46.9246 296.747 46.2624 296.877 45.59C296.944 45.2759 296.997 44.9619 297.048 44.6353C297.046 44.6054 297.051 44.5755 297.061 44.5473C297.279 44.4029 297.493 44.2443 297.693 44.0763C298.274 43.6176 298.79 43.0831 299.226 42.4872C299.502 42.1187 299.744 41.7267 299.951 41.3158L300.076 41.0567C300.027 41.1321 299.976 41.2137 299.917 41.2875C299.21 42.2788 298.296 43.1073 297.238 43.7167L297.129 43.7716C297.039 43.8293 296.946 43.8817 296.85 43.9287C296.641 44.0392 296.425 44.1372 296.203 44.2223C296.162 44.5269 296.105 44.8205 296.045 45.1095C295.952 45.5397 295.841 45.948 295.716 46.3578C295.609 46.7158 295.479 47.0675 295.344 47.4083C295.127 47.9722 294.872 48.5209 294.58 49.0507C294.254 49.6571 293.88 50.2372 293.462 50.7858C293.353 50.9209 293.258 51.0512 293.155 51.1705C292.336 52.1724 291.368 53.0435 290.283 53.7536C289.701 54.1317 289.085 54.4545 288.443 54.7177C288.255 54.793 288.074 54.8747 287.889 54.9297C287.551 55.6816 287.035 56.3414 286.385 56.8532C286.038 57.0905 285.725 57.3737 285.455 57.6948C285.004 58.4214 284.664 59.2104 284.446 60.036C284.072 61.3837 283.777 62.7515 283.561 64.1328C283.561 64.3636 283.462 65.3544 283.462 65.5962C283.462 65.838 284.167 68.1839 284.167 68.4399C284.166 68.452 284.168 68.4642 284.173 68.4756C284.177 68.487 284.184 68.4973 284.193 68.5058C285.26 69.305 286.097 70.3684 286.621 71.5898C286.938 72.2883 287.151 73.0288 287.253 73.7881H283.123C283.021 73.131 282.853 72.4856 282.622 71.8614C282.236 70.8075 281.67 69.8275 280.948 68.9643C280.792 68.7728 280.625 68.5908 280.447 68.4195C280.38 68.2998 280.344 68.1654 280.342 68.0285C280.332 68.0048 280.328 67.9789 280.33 67.9531C280.431 67.1082 280.649 66.2812 280.978 65.4957C281.108 65.2549 281.197 64.9944 281.241 64.7247C281.241 64.4845 281.654 59.6466 281.625 59.4692C281.217 58.2368 280.682 57.0496 280.028 55.9268C280.266 55.6193 280.531 55.3325 280.819 55.0694C281.451 54.5948 281.914 53.9309 282.138 53.1757C282.18 52.9637 282.361 52.9449 282.361 52.7047C282.368 52.6244 282.351 52.5437 282.31 52.4738C281.375 53.1655 280.24 53.5369 279.074 53.5322C279.778 52.9585 280.311 52.204 280.614 51.3507C280.916 50.4974 280.977 49.578 280.79 48.6927C280.776 48.6142 280.762 48.5357 280.741 48.4697" fill="#0273E8"/>
<path d="M0 73.1834V14.278H30.3266V24.2316H11.0711V37.7717H25.752V47.7253H11.0711V63.2266H31.1286V73.1802L0 73.1834Z" fill="#0273E8"/>
<path d="M59.7705 30.6776C59.1615 28.4386 58.0349 26.3713 56.4803 24.6401C55.8474 24.0201 55.0947 23.5336 54.2675 23.2098C53.4403 22.8859 52.5557 22.7315 51.6668 22.7558C50.8314 22.6999 49.9937 22.8241 49.2112 23.1198C48.4287 23.4155 47.7199 23.8757 47.1334 24.4689C46.0267 25.7928 45.4676 27.4843 45.5689 29.2016C45.5749 29.9417 45.7429 30.6716 46.0614 31.3408C46.3799 32.01 46.8412 32.6024 47.4133 33.0769C48.8142 34.3139 50.3478 35.3944 51.9864 36.299C53.8044 37.3333 55.7833 38.4324 57.9229 39.5965C60.0448 40.7549 62.035 42.1362 63.8595 43.7168C65.6974 45.3193 67.2442 47.2234 68.4325 49.346C69.719 51.7546 70.3545 54.4532 70.2769 57.1783C70.3164 59.554 69.897 61.9153 69.0415 64.1344C68.2497 66.146 67.0166 67.9573 65.4318 69.437C63.757 70.9624 61.7743 72.1164 59.6155 72.8224C57.1055 73.6432 54.4753 74.0429 51.8329 74.0048C47.5749 74.1015 43.417 72.7161 40.08 70.0887C36.7909 67.4779 34.3976 63.2624 32.9001 57.4421L43.8147 55.0758C44.0638 56.6439 44.5367 58.1687 45.2193 59.6043C45.7491 60.7132 46.4684 61.7226 47.3453 62.5877C48.0675 63.2979 48.9289 63.8532 49.8762 64.2192C50.6834 64.5318 51.5407 64.6977 52.4071 64.7091C53.7579 64.6551 55.0652 64.2198 56.1754 63.4541C57.2857 62.6885 58.1528 61.6243 58.6752 60.3865C59.1975 59.1488 59.3532 57.7888 59.1242 56.4662C58.8951 55.1436 58.2907 53.9134 57.382 52.9199C56.0289 51.4881 54.4912 50.2399 52.8089 49.2078C50.9898 48.0658 49.011 46.9373 46.8723 45.8224C44.7746 44.7355 42.7867 43.4514 40.9358 41.9879C39.1429 40.5747 37.5977 38.8769 36.3627 36.9632C35.0754 34.8511 34.4346 32.413 34.5183 29.9459C34.3952 27.7451 34.7188 25.5421 35.4698 23.4679C36.2209 21.3936 37.3841 19.4903 38.8905 17.8708C41.8042 14.9335 46.15 13.4648 51.9278 13.4648C54.1927 13.4333 56.4459 13.7919 58.5873 14.5247C60.4971 15.1925 62.2666 16.2039 63.8073 17.5081C65.3067 18.7899 66.569 20.322 67.5372 22.0351C68.545 23.8238 69.2882 25.7471 69.7438 27.746L59.7705 30.6776Z" fill="#0273E8"/>
<path d="M108.796 14.278V24.2316H95.8724V73.1834H84.7997V24.2316H71.8826V14.278H108.796Z" fill="#0273E8"/>
<path d="M101.569 73.1834L115.928 14.278H130.128L144.088 73.1834H133.499L130.691 60.7786H115.368L112.24 73.1834H101.569ZM117.373 50.8281H128.363L122.985 27.0046H122.827L117.373 50.8281Z" fill="#0273E8"/>
<path d="M146.415 14.2781H161.818C164.666 14.2356 167.504 14.6059 170.243 15.3772C172.585 16.046 174.731 17.2642 176.499 18.9291C178.3 20.7021 179.659 22.8671 180.47 25.2524C181.483 28.2925 182.011 31.4714 182.034 34.6737V52.7878C182.012 55.9901 181.484 59.1691 180.47 62.2092C179.659 64.5947 178.3 66.7597 176.499 68.5325C174.73 70.1963 172.584 71.4135 170.242 72.0812C167.502 72.8521 164.664 73.2224 161.817 73.1803H146.413L146.415 14.2781ZM157.487 63.2298H161.339C162.637 63.3084 163.937 63.1208 165.159 62.6785C166.381 62.2363 167.498 61.5489 168.44 60.6594C170.127 58.9457 170.971 55.8864 170.971 51.4814V35.9801C170.971 31.7929 170.235 28.7875 168.764 26.9639C167.293 25.1404 164.82 24.2291 161.344 24.2301H157.492L157.487 63.2298Z" fill="#0273E8"/>
<path d="M181.876 73.1867L196.237 14.2812H210.437L224.397 73.1867H213.807L210.999 60.7819H195.676L192.547 73.1867H181.876ZM217.818 0.00317383C217.563 1.26428 217.215 2.50499 216.776 3.71519C216.375 4.83192 215.821 5.88864 215.131 6.85564C214.469 7.77202 213.602 8.52432 212.6 9.05395C211.457 9.62742 210.189 9.9081 208.909 9.87047C207.839 9.86966 206.774 9.71847 205.746 9.42138C204.703 9.12304 203.701 8.79696 202.74 8.44314C201.779 8.08931 200.83 7.76323 199.893 7.46488C198.999 7.17289 198.065 7.02136 197.125 7.0158C196.672 6.9949 196.221 7.07585 195.804 7.25259C195.387 7.42933 195.016 7.6973 194.719 8.03644C194.124 8.72798 193.71 9.55493 193.515 10.4436H188.453C188.66 9.16245 188.996 7.90519 189.456 6.69076C189.883 5.54168 190.492 4.46771 191.261 3.50949C191.994 2.59956 192.91 1.85093 193.95 1.31117C195.108 0.741864 196.388 0.462099 197.68 0.496226C198.754 0.497601 199.821 0.662832 200.844 0.986134C201.887 1.31274 202.888 1.65243 203.849 2.00521C204.81 2.35799 205.719 2.69821 206.578 3.02586C207.29 3.32232 208.051 3.4883 208.824 3.51577C209.281 3.52377 209.734 3.43714 210.156 3.26141C210.577 3.08567 210.957 2.82469 211.271 2.49512C211.943 1.80892 212.402 0.945667 212.595 0.00788491L217.818 0.00317383ZM197.682 50.8314H208.672L203.294 27.0079H203.136L197.682 50.8314Z" fill="#0273E8"/>
<path d="M224.564 33.2008C224.484 30.0724 224.946 26.9537 225.929 23.9804C226.702 21.6953 227.992 19.6161 229.699 17.9021C231.329 16.3374 233.308 15.1774 235.476 14.5167C240.293 13.1025 245.42 13.1025 250.237 14.5167C252.405 15.1774 254.384 16.3374 256.014 17.9021C257.721 19.6166 259.01 21.6956 259.784 23.9804C260.766 26.9539 261.227 30.0725 261.147 33.2008V54.2559C261.227 57.3837 260.766 60.5018 259.784 63.4747C259.01 65.7597 257.721 67.8388 256.014 69.5531C254.384 71.1181 252.405 72.2782 250.237 72.9385C245.42 74.3526 240.293 74.3526 235.476 72.9385C233.308 72.2781 231.329 71.1181 229.699 69.5531C227.991 67.8392 226.702 65.76 225.929 63.4747C224.946 60.5021 224.484 57.3838 224.564 54.2559V33.2008ZM235.637 55.7194C235.637 58.9833 236.279 61.1864 237.562 62.3285C239.1 63.4417 240.954 64.0416 242.857 64.0416C244.761 64.0416 246.615 63.4417 248.152 62.3285C249.436 61.1864 250.077 58.9833 250.077 55.7194V31.7389C250.077 28.4749 249.436 26.2724 248.152 25.1314C246.615 24.0177 244.761 23.4175 242.857 23.4175C240.954 23.4175 239.1 24.0177 237.562 25.1314C236.279 26.2735 235.637 28.476 235.637 31.7389V55.7194Z" fill="#0273E8"/>
</g>
<defs>
<clipPath id="clip0">
<rect width="348" height="74" fill="white"/>
</clipPath>
</defs>
</svg>
