<svg width="32" height="32" viewBox="0 0 32 32" fill="none" xmlns="http://www.w3.org/2000/svg">
<path d="M21.8331 4.33313C23.3789 4.33774 24.8601 4.95385 25.9531 6.04689C27.0462 7.13993 27.6623 8.62109 27.6669 10.1669V21.8331C27.6623 23.3789 27.0462 24.8601 25.9531 25.9531C24.8601 27.0462 23.3789 27.6623 21.8331 27.6669H10.1669C8.62109 27.6623 7.13993 27.0462 6.04689 25.9531C4.95385 24.8601 4.33774 23.3789 4.33313 21.8331V10.1669C4.33774 8.62109 4.95385 7.13993 6.04689 6.04689C7.13993 4.95385 8.62109 4.33774 10.1669 4.33313H21.8331V4.33313ZM21.8331 2H10.1669C5.675 2 2 5.675 2 10.1669V21.8331C2 26.325 5.675 30 10.1669 30H21.8331C26.325 30 30 26.325 30 21.8331V10.1669C30 5.675 26.325 2 21.8331 2V2Z" fill="white"/>
<path d="M23.5831 10.1669C23.237 10.1669 22.8987 10.0643 22.6109 9.872C22.3231 9.67971 22.0988 9.4064 21.9663 9.08663C21.8339 8.76686 21.7992 8.41499 21.8668 8.07552C21.9343 7.73606 22.1009 7.42424 22.3457 7.17949C22.5904 6.93475 22.9023 6.76808 23.2417 6.70056C23.5812 6.63303 23.9331 6.66769 24.2528 6.80014C24.5726 6.9326 24.8459 7.1569 25.0382 7.44468C25.2305 7.73247 25.3331 8.07081 25.3331 8.41693C25.3336 8.64688 25.2887 8.87467 25.2009 9.08721C25.1132 9.29976 24.9843 9.49287 24.8217 9.65547C24.6591 9.81807 24.466 9.94696 24.2534 10.0347C24.0409 10.1225 23.8131 10.1674 23.5831 10.1669V10.1669ZM16 11.3332C16.923 11.3332 17.8253 11.6069 18.5928 12.1197C19.3602 12.6325 19.9584 13.3614 20.3116 14.2141C20.6649 15.0669 20.7573 16.0052 20.5772 16.9105C20.3971 17.8158 19.9527 18.6474 19.3 19.3C18.6473 19.9527 17.8157 20.3972 16.9105 20.5773C16.0052 20.7573 15.0668 20.6649 14.2141 20.3117C13.3613 19.9585 12.6324 19.3603 12.1196 18.5928C11.6068 17.8254 11.3331 16.9231 11.3331 16.0001C11.3345 14.7627 11.8266 13.5765 12.7015 12.7015C13.5764 11.8266 14.7627 11.3345 16 11.3332V11.3332ZM16 9.00006C14.6155 9.00006 13.2622 9.4106 12.111 10.1798C10.9599 10.9489 10.0627 12.0422 9.53285 13.3213C9.00303 14.6004 8.86441 16.0078 9.13451 17.3657C9.4046 18.7236 10.0713 19.9708 11.0503 20.9498C12.0292 21.9288 13.2765 22.5955 14.6344 22.8656C15.9922 23.1357 17.3997 22.997 18.6788 22.4672C19.9579 21.9374 21.0511 21.0402 21.8203 19.889C22.5895 18.7379 23 17.3845 23 16.0001C23 14.1435 22.2625 12.3631 20.9497 11.0503C19.637 9.73756 17.8565 9.00006 16 9.00006V9.00006Z" fill="white"/>
</svg>
