<svg width="32" height="32" viewBox="0 0 32 32" fill="none" xmlns="http://www.w3.org/2000/svg">
<path d="M29.7869 14.1905L29.7769 14.1862L3.08438 3.11491C2.85986 3.02094 2.61556 2.98409 2.37332 3.00765C2.13107 3.03121 1.89845 3.11444 1.69625 3.24991C1.48262 3.38989 1.30715 3.58079 1.18561 3.80542C1.06407 4.03006 1.00029 4.28138 1 4.53679V11.6174C1.00012 11.9666 1.12204 12.3047 1.34474 12.5737C1.56744 12.8426 1.87698 13.0254 2.22 13.0905L16.7781 15.7824C16.8353 15.7933 16.887 15.8237 16.9241 15.8686C16.9612 15.9134 16.9816 15.9698 16.9816 16.028C16.9816 16.0863 16.9612 16.1427 16.9241 16.1875C16.887 16.2323 16.8353 16.2628 16.7781 16.2737L2.22063 18.9655C1.8777 19.0305 1.56818 19.2131 1.34538 19.4818C1.12258 19.7504 1.00044 20.0884 1 20.4374V27.5193C0.999834 27.7632 1.06022 28.0033 1.17574 28.2181C1.29126 28.4329 1.4583 28.6156 1.66188 28.7499C1.90675 28.9126 2.19413 28.9996 2.48813 28.9999C2.69251 28.9997 2.89481 28.9587 3.08313 28.8793L29.775 17.8712L29.7869 17.8655C30.1462 17.7111 30.4523 17.4548 30.6674 17.1282C30.8825 16.8016 30.9972 16.4191 30.9972 16.028C30.9972 15.637 30.8825 15.2545 30.6674 14.9279C30.4523 14.6013 30.1462 14.3449 29.7869 14.1905V14.1905Z" fill="white"/>
</svg>
