<svg width="33" height="32" viewBox="0 0 33 32" fill="none" xmlns="http://www.w3.org/2000/svg">
<path fill-rule="evenodd" clip-rule="evenodd" d="M30.0742 16.0843C30.0742 8.35304 23.8055 2.08429 16.0742 2.08429C8.34297 2.08429 2.07422 8.35304 2.07422 16.0843C2.07422 23.0718 7.19297 28.8637 13.8867 29.9149V20.1324H10.3311V16.0843H13.8867V12.9999C13.8867 9.49179 15.9773 7.55241 19.1748 7.55241C20.7067 7.55241 22.3092 7.82616 22.3092 7.82616V11.2718H20.543C18.8048 11.2718 18.2611 12.3505 18.2611 13.4593V16.0843H22.1436L21.5236 20.1324H18.2617V29.9162C24.9555 28.8655 30.0742 23.0737 30.0742 16.0843V16.0843Z" fill="white"/>
</svg>
