<svg width="198" height="37" viewBox="0 0 198 37" fill="none" xmlns="http://www.w3.org/2000/svg">
<path d="M78.1541 29.744L78.0904 7.344H73.8502L65.6249 21.264L57.2721 7.344H53V29.744H57.8459V16.592L64.3815 27.376H66.7088L73.2763 16.304L73.3082 29.744H78.1541Z" fill="white"/>
<path d="M99.8995 21.2C99.8995 15.664 96.01 12.272 90.9728 12.272C85.7443 12.272 81.8229 15.984 81.8229 21.136C81.8229 26.256 85.6805 30 91.6104 30C94.7029 30 97.0939 29.04 98.688 27.216L96.0419 24.336C94.8623 25.456 93.5551 26 91.7379 26C89.1237 26 87.3065 24.688 86.8282 22.544H99.8038C99.8357 22.128 99.8995 21.584 99.8995 21.2ZM91.0047 16.048C93.2363 16.048 94.8623 17.456 95.2129 19.632H86.7645C87.1152 17.424 88.7411 16.048 91.0047 16.048Z" fill="white"/>
<path d="M107.961 14.8V12.528H103.211V29.744H108.184V21.616C108.184 18.32 110.001 16.816 112.743 16.816C113.126 16.816 113.444 16.848 113.859 16.88V12.272C111.213 12.272 109.172 13.136 107.961 14.8Z" fill="white"/>
<path d="M124.949 30C128.552 30 131.389 28.4 132.633 25.648L128.775 23.536C127.851 25.2 126.48 25.904 124.918 25.904C122.399 25.904 120.422 24.144 120.422 21.136C120.422 18.128 122.399 16.368 124.918 16.368C126.48 16.368 127.851 17.104 128.775 18.736L132.633 16.656C131.389 13.84 128.552 12.272 124.949 12.272C119.37 12.272 115.385 15.952 115.385 21.136C115.385 26.32 119.37 30 124.949 30Z" fill="white"/>
<path d="M142.415 12.272C139.673 12.272 136.899 13.008 135.018 14.352L136.803 17.84C138.047 16.848 139.928 16.24 141.745 16.24C144.423 16.24 145.698 17.488 145.698 19.632H141.745C136.517 19.632 134.381 21.744 134.381 24.784C134.381 27.76 136.772 30 140.789 30C143.307 30 145.093 29.168 146.017 27.6V29.744H150.672V19.92C150.672 14.704 147.643 12.272 142.415 12.272ZM142.032 26.64C140.278 26.64 139.226 25.808 139.226 24.56C139.226 23.408 139.96 22.544 142.287 22.544H145.698V24.304C145.124 25.872 143.69 26.64 142.032 26.64Z" fill="white"/>
<path d="M167.857 6V14.352C166.614 12.944 164.828 12.272 162.724 12.272C157.878 12.272 154.148 15.728 154.148 21.136C154.148 26.544 157.878 30 162.724 30C165.02 30 166.837 29.264 168.08 27.76V29.744H172.83V6H167.857ZM163.585 25.904C161.098 25.904 159.185 24.112 159.185 21.136C159.185 18.16 161.098 16.368 163.585 16.368C166.04 16.368 167.953 18.16 167.953 21.136C167.953 24.112 166.04 25.904 163.585 25.904Z" fill="white"/>
<path d="M185.595 30C191.047 30 195 26.32 195 21.136C195 15.952 191.047 12.272 185.595 12.272C180.143 12.272 176.158 15.952 176.158 21.136C176.158 26.32 180.143 30 185.595 30ZM185.595 25.904C183.108 25.904 181.196 24.112 181.196 21.136C181.196 18.16 183.108 16.368 185.595 16.368C188.082 16.368 189.963 18.16 189.963 21.136C189.963 24.112 188.082 25.904 185.595 25.904Z" fill="white"/>
<path d="M33.9163 7.70831C33.9163 5.1584 31.8413 3.08331 29.2913 3.08331H7.70801C5.15809 3.08331 3.08301 5.1584 3.08301 7.70831V12.0728C3.08301 13.6961 3.67192 15.1715 4.62467 16.3062V29.2916C4.62467 30.9921 6.00755 32.375 7.70801 32.375H29.2913C30.9918 32.375 32.3747 30.9921 32.3747 29.2916V16.3046C33.3274 15.1715 33.9163 13.6961 33.9163 12.0712V7.70831ZM30.833 7.70831V12.0728C30.833 13.8303 29.5241 15.3288 27.9177 15.4136L27.7497 15.4166C26.0492 15.4166 24.6663 14.0338 24.6663 12.3333V6.16665H29.2913C30.1423 6.16665 30.833 6.85885 30.833 7.70831ZM15.4163 6.16665H21.583V12.3333C21.583 14.0338 20.2001 15.4166 18.4997 15.4166C16.7992 15.4166 15.4163 14.0338 15.4163 12.3333V6.16665ZM6.16634 7.70831C6.16634 6.85885 6.85701 6.16665 7.70801 6.16665H12.333V12.3333C12.333 14.0338 10.9501 15.4166 9.24967 15.4166L9.08163 15.412C7.47522 15.3288 6.16634 13.8303 6.16634 12.0728V7.70831ZM15.4163 29.2916V24.6666H21.583V29.2916H15.4163ZM24.6663 29.2916V24.6666C24.6663 22.9662 23.2835 21.5833 21.583 21.5833H15.4163C13.7159 21.5833 12.333 22.9662 12.333 24.6666V29.2916H7.70801V18.298C8.09959 18.4013 8.50505 18.4691 8.9213 18.4907C9.85075 18.5412 10.7795 18.3799 11.6376 18.0191C12.4956 17.6583 13.2606 17.1074 13.8747 16.4079C15.0047 17.6906 16.6605 18.5 18.4997 18.5C20.3389 18.5 21.9946 17.6906 23.1247 16.4079C23.7388 17.1074 24.5037 17.6583 25.3618 18.0191C26.2198 18.3799 27.1486 18.5412 28.078 18.4907C28.4958 18.4691 28.8998 18.4013 29.2913 18.298V29.2916H24.6663Z" fill="white"/>
</svg>
