<svg width="137" height="24" viewBox="0 0 137 24" fill="none" xmlns="http://www.w3.org/2000/svg">
<g clip-path="url(#clip0)">
<path fill-rule="evenodd" clip-rule="evenodd" d="M29.7387 10.0816C31.624 9.75607 33.0599 8.11234 33.0599 6.13184C33.0599 3.9185 31.266 2.12329 29.0526 2.12329C28.1713 2.12329 27.3576 2.40747 26.6953 2.88945C28.3703 4.8787 29.4695 7.3587 29.7387 10.0816Z" fill="#0273E8"/>
<path fill-rule="evenodd" clip-rule="evenodd" d="M0 6.13355C0 8.02516 1.31198 9.61256 3.0759 10.0319C3.35882 7.27903 4.48928 4.7765 6.20687 2.78224C5.57592 2.36661 4.81978 2.125 4.0073 2.125C1.79396 2.125 0 3.91896 0 6.13355Z" fill="#0273E8"/>
<path fill-rule="evenodd" clip-rule="evenodd" d="M5.7085 8.85103C5.7085 11.475 7.41232 13.6983 9.76963 14.4645C9.30393 15.3208 9.04353 16.2797 9.04353 17.2938C9.04353 20.8942 12.3323 23.8124 16.3909 23.8124C20.4483 23.8124 23.7382 20.8942 23.7382 17.2938C23.7382 16.2935 23.4829 15.3446 23.0297 14.4971C25.4408 13.7647 27.196 11.5138 27.196 8.85103C27.196 5.59361 24.5695 2.95337 21.3308 2.95337C19.2965 2.95337 17.5051 3.99369 16.4535 5.57483C15.4006 3.99369 13.6092 2.95337 11.5761 2.95337C8.33371 2.95337 5.7085 5.59361 5.7085 8.85103ZM18.9272 8.34777C18.9272 6.80168 20.1916 5.54854 21.749 5.54854C22.4801 5.54854 23.1448 5.82395 23.6456 6.27464C23.1912 6.4136 22.8607 6.83298 22.8607 7.32873C22.8607 7.93715 23.3577 8.43039 23.9723 8.43039C24.1927 8.43039 24.3967 8.3678 24.5695 8.25888L24.572 8.34651C24.572 9.8926 23.3076 11.1457 21.749 11.1457C20.1904 11.147 18.9272 9.89385 18.9272 8.34777ZM8.33121 8.34777C8.33121 6.80168 9.59437 5.54854 11.153 5.54854C11.8828 5.54854 12.5488 5.82395 13.0496 6.27464C12.5952 6.4136 12.2647 6.83298 12.2647 7.32873C12.2647 7.93715 12.7617 8.43039 13.3763 8.43039C13.5954 8.43039 13.8007 8.3678 13.9735 8.25888L13.9747 8.34651C13.9747 9.8926 12.7116 11.1457 11.153 11.1457C9.59437 11.147 8.33121 9.89385 8.33121 8.34777ZM17.266 13.284C17.6565 12.6155 18.2737 12.2061 18.6505 12.3901C19.0449 12.5829 19.0149 13.3403 18.5754 14.0576C18.146 14.7587 17.5126 15.1105 17.1671 14.8689C16.8366 14.6385 16.8841 13.9387 17.266 13.284ZM15.6372 13.284C16.0191 13.9375 16.0654 14.6385 15.7349 14.8689C15.3894 15.1105 14.7572 14.7574 14.3265 14.0576C13.8871 13.3403 13.8571 12.5842 14.2514 12.3901C14.6295 12.2061 15.2467 12.6155 15.6372 13.284Z" fill="#0273E8"/>
<path fill-rule="evenodd" clip-rule="evenodd" d="M40.6303 18.8672V11.3333C40.6303 10.5196 40.8606 9.84731 41.3288 9.31776C41.792 8.78821 42.4292 8.52031 43.2367 8.52031C44.0943 8.52031 44.7152 8.77319 45.0933 9.2777C45.4726 9.78222 45.6629 10.3981 45.6629 11.1255V18.8659H48.6048V11.3333C48.6048 10.5509 48.8402 9.88737 49.3159 9.3428C49.7866 8.79823 50.4201 8.52031 51.2088 8.52031C52.0513 8.52031 52.6685 8.76944 53.0553 9.26518C53.4434 9.76219 53.6374 10.3794 53.6374 11.1255V18.8659H56.523V10.6335C56.523 9.79974 56.3978 9.07865 56.1462 8.46898C55.8971 7.86056 55.5666 7.36106 55.1547 6.96922C54.7441 6.57863 54.2684 6.28944 53.7351 6.0979C53.2043 5.91137 52.6522 5.81372 52.0876 5.81372C51.2563 5.81372 50.4952 5.97897 49.8029 6.31072C49.1043 6.63997 48.5084 7.2221 48.0089 8.0521C47.6622 7.30723 47.1539 6.74888 46.4854 6.37457C45.8169 6.00025 45.0657 5.81372 44.2432 5.81372C43.5384 5.81372 42.8324 5.98398 42.1275 6.32199C41.4227 6.66 40.8907 7.14698 40.5264 7.79171V6.17677H37.6646V18.8672H40.6303Z" fill="#0273E8"/>
<path fill-rule="evenodd" clip-rule="evenodd" d="M64.3263 6.29318C63.5289 6.6362 62.8391 7.1044 62.2619 7.70281C61.6848 8.30246 61.2341 9.01103 60.9086 9.82476C60.5807 10.6435 60.4204 11.5386 60.4204 12.5076C60.4204 13.4853 60.5807 14.3854 60.9086 15.2079C61.2341 16.0354 61.6861 16.7477 62.2619 17.3449C62.8391 17.9445 63.5276 18.4127 64.3263 18.7507C65.1263 19.0887 65.9913 19.259 66.9227 19.259C67.8654 19.259 68.7355 19.0887 69.5267 18.7507C70.3179 18.4127 71.0014 17.9445 71.591 17.3449C72.1744 16.7477 72.6314 16.0354 72.9568 15.2079C73.2848 14.3854 73.4501 13.4853 73.4501 12.5076C73.4501 11.5386 73.2848 10.6435 72.9568 9.82476C72.6314 9.01103 72.1744 8.30246 71.591 7.70281C71.0026 7.10566 70.3179 6.63745 69.5267 6.29318C68.7355 5.95517 67.8654 5.78491 66.9227 5.78491C65.9913 5.78491 65.125 5.95517 64.3263 6.29318ZM65.592 16.2858C65.1688 16.1155 64.7983 15.8576 64.479 15.5196C64.1598 15.1816 63.9019 14.7622 63.7054 14.259C63.5088 13.7544 63.4112 13.1698 63.4112 12.5063C63.4112 11.8478 63.5088 11.2732 63.7054 10.7762C63.9019 10.2792 64.1598 9.86357 64.479 9.52556C64.7983 9.18755 65.1688 8.93467 65.592 8.76942C66.0114 8.60542 66.4545 8.52029 66.9227 8.52029C67.3822 8.52029 67.8253 8.60542 68.2485 8.76942C68.6679 8.93467 69.0422 9.18755 69.3702 9.52556C69.6957 9.86357 69.9536 10.2792 70.1438 10.7762C70.3341 11.2732 70.4293 11.8478 70.4293 12.5063C70.4293 13.1698 70.3329 13.7532 70.1438 14.259C69.9536 14.7622 69.6957 15.1816 69.3702 15.5196C69.0422 15.8576 68.6679 16.1155 68.2485 16.2858C67.8253 16.4598 67.3834 16.5449 66.9227 16.5449C66.4545 16.5449 66.0126 16.4598 65.592 16.2858Z" fill="#0273E8"/>
<path fill-rule="evenodd" clip-rule="evenodd" d="M80.6446 11.5461C80.6446 10.7123 80.8624 10.0025 81.3018 9.42164C81.7425 8.84327 82.391 8.54907 83.2523 8.54907C84.1962 8.54907 84.8647 8.82574 85.2515 9.37281C85.6396 9.91739 85.8337 10.5821 85.8337 11.3633V18.8672H88.8244V10.8413C88.8244 10.1502 88.7268 9.498 88.539 8.88708C88.3487 8.28117 88.0708 7.74786 87.699 7.28842C87.3284 6.82897 86.8615 6.46592 86.2969 6.20553C85.7273 5.94389 85.0587 5.81494 84.2851 5.81494C83.5765 5.81494 82.8817 5.97644 82.2057 6.29442C81.5284 6.61615 80.9801 7.1432 80.5682 7.87055V6.17674H77.6538V18.8672H80.6446V11.5461Z" fill="#0273E8"/>
<path fill-rule="evenodd" clip-rule="evenodd" d="M105.413 6.17683H101.442L96.6172 11.3096V0H93.6489V18.8672H96.6172V15.3244L98.1632 13.6807L101.853 18.8672H105.518L100.253 11.5462L105.413 6.17683Z" fill="#0273E8"/>
<path fill-rule="evenodd" clip-rule="evenodd" d="M117.462 14.4355C117.252 15.0627 116.906 15.5885 116.419 16.0116C115.925 16.4398 115.226 16.6514 114.314 16.6514C113.851 16.6514 113.415 16.57 113.011 16.4022C112.609 16.2407 112.25 16.0091 111.939 15.7137C111.628 15.4207 111.379 15.0715 111.192 14.6721C111.004 14.2728 110.898 13.8296 110.882 13.3414H120.069C120.086 13.3088 120.101 13.1986 120.117 13.0159C120.134 12.8368 120.147 12.6203 120.147 12.3761C120.147 11.3696 120.005 10.462 119.73 9.65579C119.457 8.84957 119.058 8.15728 118.533 7.58266C118.009 7.01305 117.364 6.56863 116.598 6.25565C115.832 5.94268 114.965 5.78369 114.006 5.78369C113.213 5.78369 112.445 5.94769 111.709 6.26817C110.967 6.58991 110.314 7.04309 109.746 7.62522C109.177 8.20735 108.726 8.90716 108.392 9.72214C108.057 10.5359 107.892 11.4485 107.892 12.4563C107.892 13.5329 108.065 14.4918 108.42 15.3356C108.771 16.1781 109.239 16.8905 109.824 17.4726C110.407 18.0547 111.088 18.4991 111.863 18.7996C112.637 19.1013 113.45 19.2565 114.314 19.2565C115.072 19.2565 115.756 19.1501 116.379 18.9436C116.998 18.7358 117.548 18.4503 118.031 18.0848C118.511 17.723 118.912 17.2998 119.24 16.8103C119.566 16.3221 119.818 15.8001 119.989 15.243L117.462 14.4355ZM110.959 11.1268C110.975 10.8013 111.063 10.467 111.217 10.1252C111.37 9.78724 111.581 9.48303 111.839 9.21262C112.097 8.94472 112.408 8.72814 112.778 8.56164C113.149 8.40014 113.563 8.31376 114.033 8.31376C114.548 8.31376 114.995 8.39514 115.373 8.54912C115.753 8.70435 116.072 8.91091 116.33 9.17256C116.588 9.4342 116.781 9.73466 116.909 10.0727C117.038 10.4144 117.111 10.7637 117.127 11.1268H110.959Z" fill="#0273E8"/>
<path fill-rule="evenodd" clip-rule="evenodd" d="M128.167 23.9999L136.166 6.17676H132.995L129.616 14.2014L126.003 6.17676H122.622L127.987 17.3549L124.971 23.9999H128.167Z" fill="#0273E8"/>
</g>
<defs>
<clipPath id="clip0">
<rect width="136.166" height="24" fill="white"/>
</clipPath>
</defs>
</svg>
