<svg width="197" height="32" viewBox="0 0 197 32" fill="none" xmlns="http://www.w3.org/2000/svg">
<g clip-path="url(#clip0)">
<g clip-path="url(#clip1)">
<path fill-rule="evenodd" clip-rule="evenodd" d="M43.2405 11.7381C45.9818 11.2625 48.0696 8.8607 48.0696 5.96683C48.0696 2.73273 45.4612 0.109589 42.243 0.109589C40.9615 0.109589 39.7783 0.524828 38.8154 1.22909C41.2509 4.13576 42.8491 7.7595 43.2405 11.7381Z" fill="white"/>
<path fill-rule="evenodd" clip-rule="evenodd" d="M0 5.96928C0 8.73327 1.90763 11.0528 4.47236 11.6656C4.88374 7.64304 6.52743 3.98638 9.02482 1.07238C8.10741 0.465075 7.00797 0.11203 5.82663 0.11203C2.60842 0.11203 0 2.73334 0 5.96928Z" fill="white"/>
<path fill-rule="evenodd" clip-rule="evenodd" d="M8.30078 9.93994C8.30078 13.774 10.7781 17.0228 14.2057 18.1423C13.5286 19.3935 13.1499 20.7947 13.1499 22.2764C13.1499 27.5373 17.9317 31.8013 23.833 31.8013C29.7325 31.8013 34.5161 27.5373 34.5161 22.2764C34.5161 20.8148 34.1448 19.4282 33.4858 18.1898C36.9916 17.1197 39.5436 13.8307 39.5436 9.93994C39.5436 5.18024 35.7247 1.32236 31.0157 1.32236C28.0578 1.32236 25.453 2.84246 23.924 5.1528C22.3932 2.84246 19.7884 1.32236 16.8323 1.32236C12.1179 1.32236 8.30078 5.18024 8.30078 9.93994ZM27.5208 9.20458C27.5208 6.94546 29.3593 5.11438 31.6237 5.11438C32.6867 5.11438 33.6533 5.51682 34.3814 6.17535C33.7206 6.37839 33.2401 6.99119 33.2401 7.71557C33.2401 8.60459 33.9627 9.32531 34.8565 9.32531C35.1768 9.32531 35.4735 9.23385 35.7247 9.0747L35.7284 9.20275C35.7284 11.4619 33.8899 13.2929 31.6237 13.2929C29.3575 13.2948 27.5208 11.4637 27.5208 9.20458ZM12.1142 9.20458C12.1142 6.94546 13.9508 5.11438 16.2171 5.11438C17.2783 5.11438 18.2466 5.51682 18.9748 6.17535C18.314 6.37839 17.8335 6.99119 17.8335 7.71557C17.8335 8.60459 18.5561 9.32531 19.4498 9.32531C19.7684 9.32531 20.0669 9.23385 20.3181 9.0747L20.3199 9.20275C20.3199 11.4619 18.4833 13.2929 16.2171 13.2929C13.9508 13.2948 12.1142 11.4637 12.1142 9.20458ZM25.1054 16.4173C25.6733 15.4405 26.5707 14.8423 27.1186 15.1112C27.6919 15.3929 27.6483 16.4996 27.0094 17.5478C26.385 18.5722 25.464 19.0862 24.9616 18.7331C24.481 18.3965 24.5502 17.374 25.1054 16.4173ZM22.7372 16.4173C23.2924 17.3722 23.3597 18.3965 22.8792 18.7331C22.3768 19.0862 21.4576 18.5703 20.8314 17.5478C20.1925 16.4996 20.1488 15.3948 20.7222 15.1112C21.2719 14.8423 22.1693 15.4405 22.7372 16.4173Z" fill="white"/>
<path fill-rule="evenodd" clip-rule="evenodd" d="M58.4245 25.9247V14.9163C58.4245 13.7273 58.7594 12.745 59.4402 11.9713C60.1137 11.1975 61.0402 10.806 62.2143 10.806C63.4611 10.806 64.364 11.1755 64.9137 11.9127C65.4652 12.6499 65.7419 13.5499 65.7419 14.6127V25.9229H70.0195V14.9163C70.0195 13.7731 70.3617 12.8036 71.0534 12.0078C71.7378 11.2121 72.6589 10.806 73.8056 10.806C75.0306 10.806 75.928 11.17 76.4905 11.8944C77.0548 12.6206 77.3369 13.5225 77.3369 14.6127V25.9229H81.5326V13.8938C81.5326 12.6755 81.3506 11.6219 80.9847 10.731C80.6225 9.84201 80.1419 9.11214 79.5431 8.53959C78.946 7.96887 78.2543 7.54631 77.4789 7.26644C76.7071 6.99388 75.9044 6.8512 75.0834 6.8512C73.8748 6.8512 72.7681 7.09266 71.7615 7.57741C70.7458 8.0585 69.8793 8.9091 69.1531 10.1219C68.6488 9.03349 67.9098 8.21764 66.9378 7.6707C65.9658 7.12375 64.8736 6.8512 63.6777 6.8512C62.6529 6.8512 61.6263 7.09997 60.6015 7.59387C59.5767 8.08777 58.8031 8.79934 58.2734 9.74141V7.38168H54.1123V25.9247H58.4245Z" fill="white"/>
<path fill-rule="evenodd" clip-rule="evenodd" d="M92.8784 7.55176C91.7189 8.05297 90.716 8.73711 89.8768 9.61149C89.0377 10.4877 88.3824 11.523 87.9091 12.7121C87.4322 13.9084 87.1992 15.2163 87.1992 16.6321C87.1992 18.0608 87.4322 19.376 87.9091 20.5778C88.3824 21.7869 89.0395 22.8278 89.8768 23.7003C90.716 24.5765 91.7171 25.2607 92.8784 25.7546C94.0416 26.2485 95.2994 26.4973 96.6536 26.4973C98.0243 26.4973 99.2894 26.2485 100.44 25.7546C101.59 25.2607 102.584 24.5765 103.441 23.7003C104.29 22.8278 104.954 21.7869 105.427 20.5778C105.904 19.376 106.144 18.0608 106.144 16.6321C106.144 15.2163 105.904 13.9084 105.427 12.7121C104.954 11.523 104.29 10.4877 103.441 9.61149C102.586 8.73894 101.59 8.0548 100.44 7.55176C99.2894 7.05786 98.0243 6.80908 96.6536 6.80908C95.2994 6.80908 94.0397 7.05786 92.8784 7.55176ZM94.7187 22.1528C94.1034 21.904 93.5647 21.5272 93.1005 21.0333C92.6363 20.5394 92.2613 19.9266 91.9756 19.1912C91.6898 18.4541 91.5478 17.5998 91.5478 16.6303C91.5478 15.6681 91.6898 14.8285 91.9756 14.1023C92.2613 13.3761 92.6363 12.7688 93.1005 12.2749C93.5647 11.781 94.1034 11.4115 94.7187 11.17C95.3285 10.9304 95.9729 10.806 96.6536 10.806C97.3217 10.806 97.966 10.9304 98.5813 11.17C99.1911 11.4115 99.7353 11.781 100.212 12.2749C100.685 12.7688 101.06 13.3761 101.337 14.1023C101.614 14.8285 101.752 15.6681 101.752 16.6303C101.752 17.5998 101.612 18.4522 101.337 19.1912C101.06 19.9266 100.685 20.5394 100.212 21.0333C99.7353 21.5272 99.1911 21.904 98.5813 22.1528C97.966 22.4071 97.3235 22.5314 96.6536 22.5314C95.9729 22.5314 95.3303 22.4071 94.7187 22.1528Z" fill="white"/>
<path fill-rule="evenodd" clip-rule="evenodd" d="M116.605 15.2273C116.605 14.009 116.922 12.9719 117.561 12.1231C118.202 11.278 119.145 10.8481 120.397 10.8481C121.769 10.8481 122.741 11.2524 123.304 12.0517C123.868 12.8475 124.15 13.8188 124.15 14.9602V25.9248H128.499V14.1975C128.499 13.1877 128.357 12.2347 128.084 11.342C127.807 10.4566 127.403 9.67738 126.863 9.00605C126.324 8.33472 125.645 7.80424 124.824 7.42375C123.996 7.04144 123.024 6.85303 121.899 6.85303C120.868 6.85303 119.858 7.089 118.875 7.55363C117.891 8.02374 117.093 8.79386 116.494 9.85665V7.38168H112.257V25.9248H116.605V15.2273V15.2273Z" fill="white"/>
<path fill-rule="evenodd" clip-rule="evenodd" d="M152.619 7.38167H146.845L139.829 14.8816V0H135.514V25.9247H139.829V20.748L142.078 18.3462L147.442 25.9247H152.771L145.116 15.2273L152.619 7.38167Z" fill="white"/>
<path fill-rule="evenodd" clip-rule="evenodd" d="M170.138 19.4492C169.834 20.3657 169.329 21.134 168.621 21.7523C167.904 22.3779 166.887 22.687 165.562 22.687C164.888 22.687 164.255 22.5681 163.667 22.323C163.082 22.087 162.56 21.7486 162.109 21.3169C161.655 20.8889 161.293 20.3785 161.022 19.795C160.749 19.2114 160.594 18.5639 160.57 17.8505H173.929C173.953 17.8029 173.975 17.6419 173.998 17.3749C174.024 17.1133 174.042 16.7968 174.042 16.4401C174.042 14.9694 173.836 13.6432 173.436 12.4652C173.039 11.2871 172.458 10.2756 171.696 9.43594C170.933 8.60363 169.996 7.95425 168.882 7.49694C167.768 7.03963 166.508 6.80731 165.114 6.80731C163.96 6.80731 162.844 7.04694 161.774 7.51523C160.694 7.98535 159.746 8.64753 158.919 9.49813C158.091 10.3487 157.436 11.3713 156.95 12.5621C156.464 13.7511 156.224 15.0847 156.224 16.5572C156.224 18.1304 156.475 19.5316 156.992 20.7645C157.501 21.9956 158.182 23.0364 159.032 23.887C159.881 24.7376 160.871 25.387 161.997 25.826C163.122 26.2668 164.306 26.4937 165.562 26.4937C166.663 26.4937 167.658 26.3382 168.563 26.0364C169.464 25.7327 170.263 25.3156 170.966 24.7815C171.663 24.2528 172.247 23.6346 172.724 22.9193C173.198 22.2059 173.563 21.4431 173.813 20.6291L170.138 19.4492ZM160.683 14.6145C160.707 14.1389 160.834 13.6505 161.058 13.1511C161.28 12.6572 161.588 12.2127 161.963 11.8176C162.338 11.4262 162.789 11.1097 163.328 10.8664C163.867 10.6304 164.469 10.5042 165.152 10.5042C165.902 10.5042 166.552 10.6231 167.101 10.8481C167.653 11.0749 168.117 11.3768 168.492 11.7591C168.867 12.1414 169.147 12.5804 169.335 13.0743C169.522 13.5737 169.628 14.0841 169.652 14.6145H160.683V14.6145Z" fill="white"/>
<path d="M192.722 7.38168H197.333L186.437 31.7808H181.799L185.441 23.715L177.64 7.38168H182.556L187.809 19.1072L192.722 7.38168Z" fill="white"/>
</g>
</g>
<defs>
<clipPath id="clip0">
<rect width="197" height="32" fill="white"/>
</clipPath>
<clipPath id="clip1">
<rect width="197.333" height="32" fill="white"/>
</clipPath>
</defs>
</svg>
