<svg width="765" height="894" viewBox="0 0 765 894" fill="none" xmlns="http://www.w3.org/2000/svg">
<g clip-path="url(#clip0)">
<path d="M404.65 797.888V816.308H570.001V797.888H404.65Z" fill="#A15842"/>
<path d="M597.231 882.881L554.226 626.886H420.424L377.42 882.881C377.225 884.093 377.296 885.333 377.627 886.516C377.958 887.699 378.542 888.795 379.338 889.73C380.134 890.666 381.123 891.417 382.238 891.933C383.352 892.449 384.565 892.717 385.793 892.719V892.719C387.732 892.723 389.613 892.062 391.123 890.846C392.633 889.631 393.68 887.934 394.09 886.04L450.399 626.831H524.241L580.55 886.04C580.964 887.934 582.014 889.63 583.525 890.845C585.037 892.06 586.918 892.721 588.858 892.719C590.086 892.717 591.299 892.449 592.413 891.933C593.527 891.417 594.517 890.666 595.313 889.73C596.109 888.795 596.692 887.699 597.023 886.516C597.355 885.333 597.426 884.093 597.231 882.881V882.881Z" fill="#A15842"/>
<path d="M541.634 797.888V816.308H706.984V797.888H541.634Z" fill="#CA7358"/>
<path d="M734.215 882.881L691.21 626.886H557.408L514.392 882.881C514.2 884.094 514.272 885.334 514.605 886.517C514.937 887.699 515.522 888.796 516.319 889.731C517.116 890.666 518.106 891.417 519.22 891.933C520.335 892.449 521.548 892.717 522.777 892.719V892.719C524.715 892.723 526.596 892.062 528.106 890.846C529.616 889.631 530.664 887.934 531.074 886.04L587.382 626.831H661.181L717.49 886.04C717.904 887.934 718.954 889.63 720.465 890.845C721.977 892.06 723.858 892.721 725.797 892.719V892.719C727.029 892.723 728.247 892.46 729.367 891.947C730.487 891.434 731.481 890.683 732.282 889.747C733.083 888.811 733.67 887.712 734.004 886.527C734.338 885.341 734.41 884.097 734.215 882.881Z" fill="#CA7358"/>
<path d="M599.068 585.619L615.466 521.473H506.751C485.442 521.472 464.737 528.561 447.9 541.624C431.064 554.686 419.052 572.979 413.757 593.621L402.65 637.128H532.736C547.943 637.129 562.717 632.066 574.728 622.739C586.739 613.412 595.303 600.352 599.068 585.619V585.619Z" fill="#F4BDC7"/>
<path d="M662.089 637.128H402.65L407.023 619.714H520.908L564.339 449.86C570.255 426.722 583.706 406.212 602.569 391.565C621.432 376.918 644.634 368.967 668.516 368.966V368.966C726.956 368.966 769.721 424.05 755.247 480.665L728.41 585.608C724.647 600.341 716.086 613.402 704.077 622.731C692.068 632.06 677.295 637.125 662.089 637.128V637.128Z" fill="#F4BDC7"/>
<path d="M409.712 618.02H547.734" stroke="#A15842" stroke-width="6.023" stroke-linecap="round" stroke-linejoin="round"/>
<path d="M521.41 617.386L545.591 522.817" stroke="#A15842" stroke-width="6.023" stroke-linecap="round" stroke-linejoin="round"/>
<path d="M331.136 148.827C323.888 130.385 310.748 109.069 303.61 115.18C301.883 116.666 300.844 119.192 300.331 122.438C298.942 131.588 301.861 146.488 305.621 160.043L294.34 164.973C294.266 165.314 294.171 165.65 294.056 165.979C291.99 172.078 285.201 172.701 285.201 172.701C285.201 172.701 293.17 177.643 289.629 185.743C286.087 193.843 274.576 191.209 274.576 191.209C281.988 199.123 280.971 204.72 276.237 208.513C275.27 209.209 274.141 209.645 272.958 209.781C273.275 219.751 273.909 231.163 275.068 243.144L350.845 219.095C344.592 193.187 336.82 163.289 331.136 148.827Z" fill="#A15842"/>
<path d="M303.971 162.218C304.692 164.503 305.348 166.449 305.643 167.181C305.643 167.181 299.532 181.458 302.582 196.751" stroke="#1E232C" stroke-width="6.023" stroke-linecap="round" stroke-linejoin="round"/>
<path d="M276.238 208.557C280.971 204.764 281.988 199.167 274.576 191.253C274.576 191.253 286.087 193.854 289.629 185.787C293.171 177.719 285.202 172.746 285.202 172.746C285.202 172.746 293.663 172.002 294.57 163.727" stroke="#1E232C" stroke-width="12.046" stroke-linecap="round" stroke-linejoin="round"/>
<path d="M266.443 129.063C270.881 130.397 290.678 130.615 293.443 143.471C294.755 149.527 286.655 151.932 286.655 151.932C286.655 151.932 295.4 156.206 294.569 163.694C294.519 164.128 294.442 164.559 294.34 164.984L305.643 160.043C301.883 146.488 298.964 131.621 300.352 122.438L286.939 92.9233L272.575 61.2983L241.967 75.2142L256.331 106.839L261.053 117.224L266.443 129.063Z" fill="#EAA58B"/>
<path d="M286.655 151.932C286.655 151.932 294.756 149.527 293.444 143.471C290.678 130.616 270.881 130.353 266.443 129.063L261.087 117.225C260.857 117.225 250.975 118.777 246.985 124.953C240.732 134.639 248.351 141.58 248.351 141.58C248.351 141.58 232.938 146.849 240.776 161.388C240.776 161.388 231.932 172.451 242.962 181.294C242.962 181.294 234.61 188.75 245.509 198.785C254.528 207.115 266.552 210.886 272.991 209.793C274.174 209.657 275.303 209.22 276.27 208.525C281.004 204.732 282.02 199.135 274.609 191.22C274.609 191.22 286.12 193.822 289.662 185.754C293.203 177.687 285.234 172.713 285.234 172.713C285.234 172.713 292.023 172.09 294.089 165.99C294.204 165.661 294.299 165.325 294.373 164.985C294.475 164.56 294.552 164.129 294.603 163.695C295.401 156.228 286.655 151.932 286.655 151.932Z" fill="#A15842"/>
<path d="M287.191 151.79C275.746 150.697 259.556 147.953 247.4 141.438" stroke="#1E232C" stroke-width="6.023" stroke-linecap="round" stroke-linejoin="round"/>
<path d="M288.416 175.03C277.178 174.156 258.398 170.8 241.64 163.005" stroke="#1E232C" stroke-width="6.023" stroke-linecap="round" stroke-linejoin="round"/>
<path d="M279.779 194.292C272.827 192.772 254.779 188.509 242.809 183.01" stroke="#1E232C" stroke-width="6.023" stroke-linecap="round" stroke-linejoin="round"/>
<path d="M652.283 321.13C652.309 319.587 652.258 318.044 652.13 316.506L650.403 306.799C643.472 282.323 619.346 263.729 610.481 234.465L580.233 234.76V234.192L541.098 251.802L525.903 220.046H525.63L511.594 251.802L495.448 234.64V234.76C495.448 234.76 446.376 236.509 361.755 266.068C361.755 266.068 357.033 244.478 350.911 219.183L275.134 243.232C279.605 289.308 291.99 343.649 325.047 355.827C363.789 370.093 457.592 342.567 457.592 342.567L470.841 447.575H645.177V428.172C645.177 428.172 659.454 421.066 659.454 404.724C659.421 375.165 651.255 371.087 652.283 321.13Z" fill="#0273E8"/>
<path d="M525.619 220.046H497.34L495.438 234.64L511.583 251.803L525.619 220.046Z" fill="#F5EBDD"/>
<path d="M525.958 220.046L541.153 251.803L580.288 234.192C580.441 232.574 580.933 227.633 581.589 220.648V220.046H525.958Z" fill="#F5EBDD"/>
<path d="M451.438 309.915L455.296 341.321" stroke="#223446" stroke-width="6.023" stroke-linecap="round" stroke-linejoin="round"/>
<path d="M525.356 285.45C530.144 285.45 534.025 281.569 534.025 276.781C534.025 271.994 530.144 268.113 525.356 268.113C520.569 268.113 516.688 271.994 516.688 276.781C516.688 281.569 520.569 285.45 525.356 285.45Z" fill="#1E232C"/>
<path d="M299.019 271.173C303.807 271.173 307.688 267.292 307.688 262.505C307.688 257.717 303.807 253.836 299.019 253.836C294.232 253.836 290.351 257.717 290.351 262.505C290.351 267.292 294.232 271.173 299.019 271.173Z" fill="#1E232C"/>
<path d="M363.908 266.593L367.833 285.439" stroke="#223446" stroke-width="6.023" stroke-linecap="round" stroke-linejoin="round"/>
<path d="M525.63 220.046H525.969L525.871 219.839H581.622V220.046H581.698C582.157 215.116 582.715 209.235 583.305 202.884C573.729 199.67 549.8 190.072 541.404 172.341C555.539 167.63 572.013 147.603 560.25 131.107C544.64 109.244 517.847 138.18 517.847 138.18C517.847 138.18 501.351 127.577 493.109 105.2C489.578 106.369 478.974 107.55 470.732 105.2C470.732 105.2 467.19 114.623 464.84 131.107C464.512 133.381 464.148 135.568 463.747 137.666C463.747 137.666 453.067 137.021 451.897 141.733C450.432 147.559 459.779 153.758 459.779 153.758C456.117 166.875 453.078 177.031 457.778 188.793C461.932 199.167 470.743 211.17 499.012 207.639L497.427 219.806H525.761L525.63 220.046Z" fill="#A15842"/>
<path d="M493.064 105.199C501.307 127.576 517.803 138.18 517.803 138.18C517.803 138.18 544.596 109.255 560.206 131.107C571.979 147.603 555.495 167.629 541.36 172.341C549.756 190.072 573.685 199.67 583.261 202.884C585.327 180.419 587.819 151.976 588.475 138.18C589.568 115.694 587.382 82.7133 550.783 66.3269C516.622 51.0227 484.822 74.5692 484.822 74.5692C484.822 74.5692 455.777 66.2066 454.214 85.1729C453.033 99.3073 470.71 105.199 470.71 105.199C478.93 107.55 489.555 106.369 493.064 105.199Z" fill="#EAA58B"/>
<path d="M499.733 209.792C505.352 208.819 513.223 206.753 519.563 202.402" stroke="#1E232C" stroke-width="6.023" stroke-miterlimit="10" stroke-linecap="round"/>
<path d="M469.321 164.645C471.278 165.858 478.569 166.831 481.532 161.19" stroke="#1E232C" stroke-width="6.023" stroke-miterlimit="10" stroke-linecap="round"/>
<path d="M483.642 137.032C485.61 137.032 487.206 135.437 487.206 133.468C487.206 131.5 485.61 129.905 483.642 129.905C481.674 129.905 480.078 131.5 480.078 133.468C480.078 135.437 481.674 137.032 483.642 137.032Z" fill="#1E232C"/>
<path d="M544.891 145.242L531.938 153.484" stroke="#1E232C" stroke-width="6.023" stroke-miterlimit="10" stroke-linecap="round"/>
<path d="M470.808 447.543C470.808 447.543 383.126 480.173 350.561 497.5C293.958 527.572 287.06 543.642 252.177 649.547C240.524 684.659 232.665 713.277 225.242 735.6L319.505 778.681L319.625 778.44L334.929 785.6C334.929 785.6 359.624 753.44 363.581 717.038C368.697 670.032 365.636 638.254 387.116 619.835L635.765 447.51L470.808 447.543Z" fill="#1E232C"/>
<path d="M210.036 772.166L230.598 781.753C244.809 788.399 243.716 798.008 242.033 801.714C240.481 804.635 238.774 807.47 236.917 810.207L288.186 834.443C299.676 816.469 310.132 797.855 319.505 778.692L225.242 735.6C220.279 750.609 215.535 762.754 210.036 772.166Z" fill="#A15842"/>
<path d="M230.598 781.752L210.036 772.166C204.57 781.468 198.448 788.093 190.61 792.105C184.739 795.007 178.301 796.582 171.754 796.718C170.037 796.783 168.387 796.893 166.758 797.002C171.13 804.829 173.12 816.821 173.12 816.821C185.276 820.1 199.848 816.012 210.287 811.825C214.223 810.24 217.557 808.633 219.929 807.453C221.578 806.602 223.401 806.142 225.257 806.108C227.113 806.074 228.951 806.466 230.631 807.256L236.971 810.251C238.828 807.514 240.536 804.678 242.087 801.757C243.749 798.008 244.864 788.399 230.598 781.752Z" fill="#CE596D"/>
<path d="M236.916 810.208L230.576 807.212C228.896 806.423 227.058 806.03 225.202 806.064C223.347 806.098 221.524 806.559 219.874 807.409C217.502 808.633 214.168 810.24 210.233 811.782C199.848 815.968 185.276 820.068 173.065 816.777C173.065 816.777 171.076 804.753 166.703 796.958C165.61 797.035 164.637 797.122 163.631 797.221C143.856 799.112 132.094 804.468 125.098 812.438L258.998 874.857C264.562 868.112 272.433 857.956 281.594 844.434C283.78 841.275 285.966 837.963 288.153 834.443L236.916 810.208Z" fill="#1E232C"/>
<path d="M118.604 823.61L250.242 884.826C250.242 884.826 253.522 881.459 258.987 874.802L125.098 812.438C122.24 815.713 120.036 819.505 118.604 823.61V823.61Z" fill="#FF7235"/>
<path d="M573.291 447.542C573.291 447.542 465.954 476.948 413.887 508.759C359.831 541.74 359.23 568.631 367.122 656.903" stroke="black" stroke-width="6.023" stroke-linecap="round" stroke-linejoin="round"/>
<path d="M547.46 619.943L543.394 635.958" stroke="#A15842" stroke-width="6.023" stroke-linecap="round" stroke-linejoin="round"/>
<path d="M744.786 519.286H676.475" stroke="#A15842" stroke-width="6.023" stroke-linecap="round" stroke-linejoin="round"/>
<path d="M-58.8037 797.888V816.308H106.547V797.888H-58.8037Z" fill="#A15842"/>
<path d="M-86.0334 882.881L-43.0287 626.886H90.7844L133.789 882.881C133.984 884.094 133.913 885.335 133.581 886.519C133.249 887.702 132.664 888.799 131.867 889.735C131.07 890.67 130.079 891.421 128.964 891.936C127.848 892.452 126.634 892.719 125.405 892.719V892.719C123.467 892.719 121.588 892.056 120.079 890.842C118.57 889.627 117.521 887.932 117.107 886.04L60.7992 626.886H-13.0435L-69.3519 886.094C-69.7658 887.987 -70.8142 889.681 -72.3234 890.896C-73.8325 892.111 -75.7115 892.774 -77.6489 892.774V892.774C-78.8833 892.775 -80.103 892.507 -81.2233 891.988C-82.3435 891.47 -83.3373 890.713 -84.1354 889.772C-84.9334 888.83 -85.5167 887.726 -85.8445 886.535C-86.1723 885.345 -86.2367 884.098 -86.0334 882.881V882.881Z" fill="#A15842"/>
<path d="M-87.8595 585.619L-104.257 521.473H4.45737C25.7677 521.47 46.473 528.558 63.3102 541.621C80.1474 554.684 92.159 572.978 97.452 593.621L108.558 637.074H-21.5269C-36.7271 637.079 -51.4965 632.025 -63.5068 622.708C-75.5171 613.392 -84.085 600.343 -87.8595 585.619V585.619Z" fill="#0273E8"/>
<path d="M-150.891 637.128H108.548L104.175 619.714H-9.70981L-53.1518 449.86C-59.0683 426.722 -72.5188 406.212 -91.3819 391.565C-110.245 376.918 -133.447 368.967 -157.329 368.966V368.966C-215.769 368.966 -258.534 424.05 -244.06 480.665L-217.212 585.608C-213.452 600.343 -204.892 613.406 -192.882 622.736C-180.873 632.065 -166.098 637.129 -150.891 637.128V637.128Z" fill="#0273E8"/>
<path d="M101.486 618.02H-36.5361" stroke="#744DA6" stroke-width="6.023" stroke-miterlimit="10" stroke-linecap="round"/>
<path d="M-55.4036 856.109L-56.781 859.28L-429.601 863.86C-432.543 863.86 -435.455 864.439 -438.173 865.565C-440.89 866.69 -443.36 868.34 -445.44 870.42C-447.519 872.5 -449.169 874.969 -450.295 877.687C-451.421 880.405 -452 883.317 -452 886.259V893.834H-71.7134H9.8468C21.0516 883.635 -28.9055 865.281 -55.4036 856.109Z" fill="#EAA58B"/>
<path d="M525.356 285.45C530.144 285.45 534.025 281.569 534.025 276.781C534.025 271.994 530.144 268.113 525.356 268.113C520.569 268.113 516.688 271.994 516.688 276.781C516.688 281.569 520.569 285.45 525.356 285.45Z" fill="#1E232C"/>
<path d="M650.402 306.799L652.129 316.506C651.877 313.221 651.298 309.969 650.402 306.799V306.799Z" fill="#A15842"/>
<path d="M581.588 220.648L581.654 220.046H581.577L581.588 220.648Z" fill="#0273E8"/>
<path d="M497.37 219.839H497.197L497.175 220.045H497.337L497.37 219.839Z" fill="#F5EBDD"/>
<path d="M525.619 220.047L525.706 219.839H497.372L497.339 220.047H525.619Z" fill="#F5EBDD"/>
<path d="M497.175 220.046L495.272 234.465L495.436 234.64L497.339 220.046H497.175Z" fill="#F5EBDD"/>
<path d="M581.567 219.839H525.859L525.958 220.047H581.578L581.567 219.839Z" fill="#F5EBDD"/>
<path d="M-46.6689 84.0793C-49.7188 85.4786 -24.1171 24.732 -11.0648 34.2206C1.23318 43.1735 -31.2444 76.9629 -46.6689 84.0793Z" fill="#0273E8"/>
<path d="M41.975 118.984C32.4973 120.58 18.6143 117.322 18.6143 117.322C-0.384734 138.683 -20.5644 143.427 -20.5644 143.427C-33.6167 129.216 -57.3599 129.216 -60.9127 149.363C-64.859 171.696 -37.1803 177.85 -37.1803 177.85C-37.1803 177.85 -33.2559 205.769 -43.936 220.013C-45.4337 222.003 -46.811 223.752 -48.1884 225.293H4.7531L3.17895 215.837C3.17895 215.837 19.7949 221.773 34.0387 213.465C48.2825 205.157 51.8462 189.722 47.0909 165.979C44.2815 151.921 44.3799 134.529 41.975 118.984Z" fill="#EAA58B"/>
<path d="M24.2657 421.034C0.817508 434.294 -11.4258 459.775 -11.4258 459.775H70.1345L45.8774 411.13C36.2139 415.306 27.1516 419.372 24.2657 421.034Z" fill="#FF7235"/>
<path d="M-89.8165 238.783C-125.628 242.763 -138.834 255.465 -164.905 286.751C-171.344 294.48 -181.303 307.641 -187.534 315.862L-187.337 316.026C-187.337 316.026 -232.692 372.269 -230.604 415.033L-166.993 432.797L-123.573 376.215L-111.33 413.94C-111.33 413.94 -138.855 430.249 -154.149 459.852H-11.4264C-11.4264 459.852 0.816897 434.371 24.2651 421.111C27.1729 419.449 36.2133 415.404 45.8767 411.207L42.5973 404.648L52.7745 373.165L75.2498 398.614C75.2498 398.614 59.9457 405.03 45.8877 411.13L70.1448 459.776H155.793C203.706 428.172 166.998 371.088 151.716 350.69C141.189 336.665 92.5763 266.069 58.9399 247.725C36.5084 235.493 6.75277 237.198 6.75277 237.198L4.76322 225.294H-48.1892C-55.4477 233.405 -62.8921 235.788 -89.8165 238.783Z" fill="#CE596D"/>
<path d="M75.1846 396.339L93.5933 389.431" stroke="#A15842" stroke-width="6.023" stroke-miterlimit="10" stroke-linecap="round"/>
<path d="M-90.9964 405.467C-90.7121 385.44 -87.4108 334.707 -62.3994 308.876C-34.8082 280.454 27.3157 286.455 46.6864 311.937C66.0571 337.418 52.8081 373.153 52.8081 373.153L43.6366 404.756L70.1346 459.808H-167.43L-120.533 416.989L-90.9964 405.467Z" fill="#F4BDC7"/>
<path d="M-90.9424 404.724H43.5594" stroke="#F5EBDD" stroke-width="6.023" stroke-miterlimit="10" stroke-linecap="round"/>
<path d="M-32.8301 361.904H19.1603" stroke="#F5EBDD" stroke-width="6.023" stroke-miterlimit="10" stroke-linecap="round"/>
<path d="M63.0073 403.708L89.5054 464.924H38.5316C28.3434 464.924 15.0835 464.924 16.1111 459.819C7.9452 465.941 -5.30386 464.924 -4.28723 459.819C-17.5363 465.941 -21.6137 461.863 -22.6303 459.819C-23.647 457.775 -10.398 440.448 19.1609 424.051C36.3344 414.628 63.0073 403.708 63.0073 403.708Z" fill="#EAA58B"/>
<path d="M-10.3984 463.852C-10.3984 463.852 4.90567 448.548 38.5311 430.216" stroke="#A15842" stroke-width="6.023" stroke-miterlimit="10" stroke-linecap="round"/>
<path d="M47.714 441.432C30.3525 452.3 13.6692 464.215 -2.24316 477.112" stroke="#A15842" stroke-width="6.023" stroke-miterlimit="10" stroke-linecap="round"/>
<path d="M57.9016 453.664C30.4306 467.941 -0.177734 487.311 -0.177734 487.311" stroke="#A15842" stroke-width="6.023" stroke-miterlimit="10" stroke-linecap="round"/>
<path d="M26.8998 335.505C28.8331 335.728 30.7912 335.566 32.662 335.031C34.5329 334.495 36.2799 333.596 37.8029 332.385C39.3259 331.174 40.5951 329.674 41.5378 327.972C42.4806 326.269 43.0785 324.398 43.2971 322.464L52.1298 244.522C42.8291 240.905 33.0599 238.634 23.1175 237.777L13.8694 319.108C13.6471 321.04 13.808 322.998 14.3428 324.868C14.8775 326.738 15.7757 328.485 16.9858 330.008C18.196 331.53 19.6945 332.8 21.3956 333.743C23.0967 334.687 24.9671 335.285 26.8998 335.505Z" fill="#A15842"/>
<path d="M28.8455 328.268C33.6331 328.268 37.5142 324.387 37.5142 319.599C37.5142 314.812 33.6331 310.931 28.8455 310.931C24.0579 310.931 20.1768 314.812 20.1768 319.599C20.1768 324.387 24.0579 328.268 28.8455 328.268Z" fill="#1E232C"/>
<path d="M-138.068 240.761L-85.6516 225.293H-48.1892C-46.8118 223.752 -45.4345 222.014 -43.9369 220.013C-33.2568 205.802 -37.1811 177.85 -37.1811 177.85C-37.1811 177.85 -64.8598 171.696 -60.9135 149.363C-57.3608 129.194 -33.5847 129.194 -20.5652 143.427C-20.5652 143.427 -0.385568 138.683 18.6135 117.322C18.6135 117.322 32.4965 120.602 41.9742 118.984C40.3126 108.282 37.4704 98.4655 31.6657 91.2069C17.4547 73.3994 -21.7458 61.5387 -52.6056 84.0905C-83.4653 106.642 -81.0932 143.427 -79.9344 157.671C-79.9344 157.671 -113.166 146.991 -136.899 171.882C-143.768 179.009 -148.77 187.722 -151.463 197.248C-154.156 206.773 -154.455 216.816 -152.334 226.485C-152.334 226.485 -196.06 225.25 -204.554 265.653C-208.927 286.346 -202.029 300.787 -193.295 310.363L-187.829 299.234L-138.068 240.761Z" fill="#1E232C"/>
<path d="M2.32591 218.035C-2.5898 216.078 -7.38605 213.833 -12.0381 211.312" stroke="#A15842" stroke-width="6.023" stroke-linecap="round" stroke-linejoin="round"/>
<path d="M25.9162 185.536C23.9485 186.76 16.5915 187.722 13.6182 182.049" stroke="#A15842" stroke-width="6.023" stroke-linecap="round" stroke-linejoin="round"/>
<path d="M6.57834 158.841C8.54651 158.841 10.142 157.245 10.142 155.277C10.142 153.309 8.54651 151.713 6.57834 151.713C4.61017 151.713 3.01465 153.309 3.01465 155.277C3.01465 157.245 4.61017 158.841 6.57834 158.841Z" fill="#1E232C"/>
<path d="M34.0383 154.119C36.0065 154.119 37.602 152.523 37.602 150.555C37.602 148.587 36.0065 146.991 34.0383 146.991C32.0701 146.991 30.4746 148.587 30.4746 150.555C30.4746 152.523 32.0701 154.119 34.0383 154.119Z" fill="#1E232C"/>
<path d="M24.5391 160.054C24.5391 160.054 27.8186 168.165 26.9768 169.783C26.4196 170.816 25.5722 171.664 24.5391 172.221" stroke="#A15842" stroke-width="6.023" stroke-linecap="round" stroke-linejoin="round"/>
<path d="M208.32 881.853H188.796C190.161 885.707 190.734 889.797 190.479 893.878H272.892C274.357 877.71 263.611 860.077 232.664 846.008L232.019 845.702C223.525 852.075 215.895 862.624 208.32 881.853Z" fill="#CE596D"/>
<path d="M231.199 845.309C205.455 832.541 210.101 804.501 217.6 740.902C215.823 737.803 213.155 735.309 209.943 733.746C206.731 732.182 203.123 731.62 199.587 732.133C196.051 732.645 192.751 734.209 190.116 736.621C187.48 739.032 185.63 742.181 184.806 745.657C183.867 741.767 181.648 738.306 178.504 735.831C175.36 733.355 171.475 732.01 167.474 732.01C163.473 732.01 159.588 733.355 156.444 735.831C153.3 738.306 151.08 741.767 150.142 745.657C149.203 741.767 146.984 738.306 143.84 735.831C140.696 733.355 136.811 732.01 132.81 732.01C128.809 732.01 124.924 733.355 121.78 735.831C118.636 738.306 116.416 741.767 115.478 745.657C114.539 741.767 112.32 738.306 109.176 735.831C106.032 733.355 102.147 732.01 98.146 732.01C94.1447 732.01 90.2597 733.355 87.1159 735.831C83.9722 738.306 81.7526 741.767 80.8141 745.657C79.8756 741.767 77.6559 738.306 74.5122 735.831C71.3684 733.355 67.4834 732.01 63.4821 732.01C59.4808 732.01 55.5958 733.355 52.4521 735.831C49.3083 738.306 47.0887 741.767 46.1501 745.657C45.4935 742.921 44.198 740.38 42.3699 738.242C40.5417 736.103 38.2329 734.428 35.6327 733.354C33.0324 732.28 30.2146 731.838 27.4102 732.063C24.6059 732.288 21.8948 733.174 19.499 734.649C19.6083 740.279 19.827 746.16 20.1768 752.38C21.8384 781.818 28.4848 821.194 34.191 850.928C62.0009 852.414 73.2713 872.944 76.824 881.853H123.644C124.07 880.76 124.486 879.743 124.912 878.716L125.174 878.093C125.579 877.142 125.972 876.212 126.377 875.305C126.475 875.065 126.584 874.846 126.683 874.616C127.044 873.807 127.404 873.031 127.776 872.266L128.104 871.577C128.446 870.849 128.785 870.16 129.121 869.511L129.58 868.582L130.607 866.604L131.198 865.51C131.394 865.139 131.602 864.778 131.799 864.417C132.149 863.794 132.509 863.182 132.892 862.581C133.045 862.34 133.187 862.1 133.329 861.859C134.149 860.515 134.969 859.247 135.8 858.055L135.953 857.825C136.423 857.159 136.893 856.514 137.363 855.88C140.219 851.995 143.613 848.535 147.442 845.604C148.316 846.085 149.224 846.544 150.186 846.981C172.956 857.323 184.784 869.621 188.872 881.809H208.32C215.895 862.581 223.525 852.032 232.008 845.648L231.199 845.309Z" fill="#F5EBDD"/>
<path d="M188.796 881.853H188.873C184.784 869.664 172.956 857.366 150.186 847.025C149.224 846.588 148.317 846.128 147.442 845.647C143.738 848.48 140.446 851.813 137.659 855.551V855.551L137.462 855.814L137.374 855.923C136.904 856.557 136.434 857.202 135.964 857.869L135.811 858.099C134.98 859.29 134.16 860.558 133.341 861.903C133.198 862.143 133.056 862.384 132.903 862.624C132.553 863.225 132.193 863.838 131.81 864.461C131.613 864.81 131.406 865.171 131.209 865.554L130.619 866.647L129.591 868.626L129.132 869.555C128.797 870.218 128.458 870.907 128.115 871.621L127.787 872.31C127.438 873.075 127.077 873.851 126.694 874.66C126.596 874.889 126.486 875.108 126.388 875.349C125.984 876.256 125.59 877.185 125.186 878.136L124.923 878.759C124.497 879.787 124.082 880.825 123.655 881.896H76.8791C73.2826 872.987 62.0122 852.458 34.2461 850.971C39.0013 875.797 43.1116 893.91 43.1116 893.91H190.48C190.738 889.819 190.166 885.717 188.796 881.853V881.853Z" fill="#CE596D"/>
<path d="M182.707 510.662L181.046 509.721C169.415 509.273 155.16 510.399 137.921 514.28L137.648 514.345C136.259 514.652 134.849 514.99 133.417 515.34L132.619 515.537C131.242 515.876 129.853 516.237 128.443 516.63L127.601 516.849C126.06 517.264 124.508 517.712 122.923 518.172L122.442 518.303C120.671 518.827 118.867 519.396 117.042 519.942C53.3872 539.892 25.151 589.904 16.6572 620.906H35.4813C29.8625 647.054 18.3297 674.799 19.4994 734.649C21.8958 733.169 24.6089 732.28 27.416 732.052C30.223 731.825 33.044 732.266 35.6473 733.341C38.2506 734.415 40.562 736.092 42.3916 738.233C44.2212 740.374 45.5169 742.918 46.1724 745.657C47.1109 741.767 49.3305 738.306 52.4742 735.831C55.618 733.356 59.503 732.01 63.5043 732.01C67.5057 732.01 71.3906 733.356 74.5344 735.831C77.6781 738.306 79.8977 741.767 80.8363 745.657C81.7748 741.767 83.9945 738.306 87.1382 735.831C90.2819 733.356 94.167 732.01 98.1683 732.01C102.17 732.01 106.055 733.356 109.198 735.831C112.342 738.306 114.562 741.767 115.5 745.657C116.439 741.767 118.658 738.306 121.802 735.831C124.946 733.356 128.831 732.01 132.832 732.01C136.833 732.01 140.719 733.356 143.862 735.831C147.006 738.306 149.226 741.767 150.164 745.657C151.103 741.767 153.322 738.306 156.466 735.831C159.61 733.356 163.495 732.01 167.496 732.01C171.497 732.01 175.382 733.356 178.526 735.831C181.67 738.306 183.89 741.767 184.828 745.657C185.652 742.181 187.502 739.032 190.138 736.621C192.774 734.209 196.073 732.645 199.609 732.133C203.145 731.62 206.753 732.182 209.965 733.746C213.177 735.309 215.845 737.803 217.623 740.902C219.405 725.762 221.35 708.61 223.088 689.174C233.102 576.765 240.732 543.795 182.707 510.662Z" fill="#EAA58B"/>
<path d="M190.534 893.112C191.081 877.469 180.018 860.58 150.186 847.025C116.419 831.721 131.438 792.816 140.599 690.19C150.831 575.584 158.581 543.555 96.7636 509.732C42.729 480.217 -12.3223 460.803 -12.3223 460.803" stroke="#1E232C" stroke-width="6.023" stroke-miterlimit="10" stroke-linecap="round"/>
<path d="M117.041 519.932C50.5448 540.822 24.7682 590.036 16.6133 620.895C25.1508 589.915 53.387 539.925 117.041 519.932Z" fill="#A15842"/>
<path d="M80.3334 510.76C103.16 500.01 128.176 494.725 153.4 495.324C126.296 482.003 98.5017 470.136 70.1342 459.775H-154.148C-154.148 459.775 -160.27 469.974 -163.429 487.782C-163.429 487.967 -163.484 488.142 -163.517 488.328H-128.667V506.912C-128.667 511.037 -129.479 515.123 -131.058 518.935C-132.637 522.746 -134.951 526.21 -137.869 529.127C-140.786 532.044 -144.25 534.359 -148.061 535.937C-151.873 537.516 -155.958 538.329 -160.084 538.329H-161.505C-149.295 585.16 -108.509 620.939 -56.2235 620.939H-11.6446C-2.5824 587.379 17.6191 540.209 80.3334 510.76Z" fill="#F4BDC7"/>
<path d="M117.042 519.931C144.01 511.459 165.02 509.109 181.046 509.721L179.231 508.715C170.573 503.982 161.883 499.5 153.4 495.324C128.176 494.725 103.16 500.01 80.3335 510.759C17.6192 540.209 -2.58228 587.379 -11.6445 620.895H16.6135C24.7684 590.035 50.545 540.821 117.042 519.931Z" fill="#A15842"/>
<path d="M36.9902 623.715H61.1927" stroke="#A15842" stroke-width="6.023" stroke-linecap="round" stroke-linejoin="round"/>
<path d="M127.907 399.63V451.62" stroke="#1E232C" stroke-width="6.023" stroke-miterlimit="10" stroke-linecap="round"/>
<path d="M154.209 330.04C154.209 330.04 146.699 346 127.908 346C109.116 346 101.672 330.04 101.672 330.04" stroke="#1E232C" stroke-width="6.023" stroke-linecap="round" stroke-linejoin="round"/>
<path d="M105.148 364.966H150.678V369.721C150.678 375.76 148.278 381.552 144.008 385.822C139.738 390.092 133.946 392.491 127.907 392.491V392.491C121.868 392.491 116.076 390.092 111.806 385.822C107.536 381.552 105.137 375.76 105.137 369.721V364.966H105.148Z" fill="#A15842"/>
<path d="M104.492 328.258H151.334C152.007 328.258 152.674 328.39 153.296 328.648C153.918 328.906 154.483 329.283 154.959 329.759C155.435 330.236 155.813 330.801 156.07 331.423C156.328 332.045 156.46 332.711 156.46 333.385V370.06C156.46 377.63 153.453 384.89 148.101 390.242C142.748 395.595 135.488 398.602 127.918 398.602V398.602C124.17 398.602 120.458 397.864 116.996 396.43C113.533 394.995 110.386 392.893 107.736 390.242C105.085 387.592 102.983 384.446 101.549 380.983C100.114 377.52 99.376 373.808 99.376 370.06V333.385C99.376 332.025 99.9161 330.721 100.878 329.759C101.839 328.798 103.143 328.258 104.503 328.258H104.492Z" stroke="#1E232C" stroke-width="6.023" stroke-miterlimit="10" stroke-linecap="round"/>
<path d="M127.908 446.526L105.148 459.775H150.678L127.908 446.526Z" fill="#30232A"/>
<path d="M399.01 399.63V451.62" stroke="#1E232C" stroke-width="6.023" stroke-miterlimit="10" stroke-linecap="round"/>
<path d="M425.311 330.04C425.311 330.04 417.801 346 399.01 346C380.219 346 372.774 330.04 372.774 330.04" stroke="#1E232C" stroke-width="6.023" stroke-linecap="round" stroke-linejoin="round"/>
<path d="M376.25 364.966H421.78V369.721C421.78 375.76 419.381 381.552 415.111 385.822C410.84 390.092 405.049 392.491 399.01 392.491V392.491C392.971 392.491 387.179 390.092 382.909 385.822C378.638 381.552 376.239 375.76 376.239 369.721V364.966H376.25Z" fill="#FF7235"/>
<path d="M375.594 328.258H422.436C423.109 328.258 423.776 328.39 424.398 328.648C425.02 328.906 425.585 329.283 426.061 329.759C426.537 330.236 426.915 330.801 427.173 331.423C427.43 332.045 427.563 332.711 427.563 333.385V370.06C427.563 377.63 424.556 384.89 419.203 390.242C413.851 395.595 406.591 398.602 399.021 398.602V398.602C391.451 398.602 384.191 395.595 378.838 390.242C373.486 384.89 370.479 377.63 370.479 370.06V333.385C370.479 332.025 371.019 330.721 371.98 329.759C372.942 328.798 374.246 328.258 375.605 328.258H375.594Z" stroke="#1E232C" stroke-width="6.023" stroke-miterlimit="10" stroke-linecap="round"/>
<path d="M399.009 446.526L376.25 459.775H421.78L399.009 446.526Z" fill="#30232A"/>
<path d="M645.844 428.172H459.593V447.543H645.844V428.172Z" fill="#F5EBDD"/>
<path d="M268.651 392.491H230.926H193.201V426.138H230.926H268.651H306.375V392.491H268.651Z" fill="#EAA58B"/>
<path d="M268.651 426.139H230.926H193.201V459.775H230.926H268.651H306.375V426.139H268.651Z" fill="#EAA58B"/>
<path d="M268.651 358.844H230.926H193.201V392.491H230.926H268.651H306.375V358.844H268.651Z" fill="#EAA58B"/>
<path d="M268.651 291.561H230.926H193.201V325.208H230.926H268.651H306.375V291.561H268.651Z" fill="#EAA58B"/>
<path d="M268.651 224.277H230.926H193.201V257.913H230.926H268.651H306.375V224.277H268.651Z" fill="#EAA58B"/>
<path d="M268.652 325.208H230.927V358.855H268.652V325.208Z" fill="#EAA58B"/>
<path d="M268.652 257.913H230.927V291.56H268.652V257.913Z" fill="#EAA58B"/>
<path d="M268.651 426.138V392.491" stroke="#A15842" stroke-width="6.023" stroke-linejoin="round"/>
<path d="M230.927 426.138V392.491" stroke="#A15842" stroke-width="6.023" stroke-linejoin="round"/>
<path d="M268.651 189.165H230.926H193.201V222.812H230.926H268.651H306.375V189.165H268.651Z" fill="#EAA58B"/>
<path d="M268.651 222.812V189.165" stroke="#A15842" stroke-width="6.023" stroke-linejoin="round"/>
<path d="M230.927 222.812V189.165" stroke="#A15842" stroke-width="6.023" stroke-linejoin="round"/>
<path d="M193.201 426.139H230.926H268.651H306.375" stroke="#A15842" stroke-width="6.023" stroke-linejoin="round"/>
<path d="M193.201 392.491H230.926H268.651H306.375" stroke="#A15842" stroke-width="6.023" stroke-linejoin="round"/>
<path d="M193.201 224.277H230.926H268.651H306.375" stroke="#A15842" stroke-width="6.023" stroke-linejoin="round"/>
<path d="M230.927 356.811H243.498H256.08H268.652" stroke="#A15842" stroke-width="6.023" stroke-linejoin="round"/>
<path d="M230.927 327.241H243.498H256.08H268.652" stroke="#A15842" stroke-width="6.023" stroke-linejoin="round"/>
<path d="M230.927 289.527H243.498H256.08H268.652" stroke="#A15842" stroke-width="6.023" stroke-linejoin="round"/>
<path d="M230.927 259.958H243.498H256.08H268.652" stroke="#A15842" stroke-width="6.023" stroke-linejoin="round"/>
<path d="M408.181 809.476H383.519C382.973 822.965 379.999 832.432 372.949 839.242C369.924 842.07 366.437 844.358 362.64 846.009C360.137 847.102 357.808 848.315 355.622 849.507C363.274 854.448 370.926 865.554 370.926 865.554C376.869 864.351 382.495 861.92 387.444 858.416C397.37 851.748 405.404 842.336 409.307 837.264C410.443 835.796 411.901 834.61 413.57 833.796C415.238 832.983 417.071 832.565 418.927 832.574H425.934C426.472 829.316 426.837 826.032 427.027 822.736C426.972 818.68 423.966 809.476 408.181 809.476Z" fill="#CE596D"/>
<path d="M425.923 832.595H418.916C417.06 832.586 415.227 833.004 413.559 833.817C411.891 834.631 410.432 835.817 409.296 837.285C405.372 842.357 397.337 851.769 387.433 858.437C382.485 861.941 376.859 864.372 370.916 865.575C370.916 865.575 363.264 854.469 355.612 849.528C354.803 849.954 354.027 850.391 353.261 850.829C336.7 860.383 329.671 871.194 327.572 881.885H472.065C474.403 874.178 476.326 866.35 477.826 858.437C479.236 851.168 480.603 842.685 481.751 832.912L425.923 832.595Z" fill="#1E232C"/>
<path d="M327.058 893.866H467.605C469.379 889.972 470.866 885.953 472.054 881.842H327.583C326.837 885.805 326.661 889.854 327.058 893.866V893.866Z" fill="#CE596D"/>
<path d="M379.114 828.736L408.629 848.413" stroke="#F5EBDD" stroke-width="6.023" stroke-miterlimit="10" stroke-linecap="round"/>
<path d="M368.183 840.761L391.139 862.624" stroke="#F5EBDD" stroke-width="6.023" stroke-miterlimit="10" stroke-linecap="round"/>
<path d="M679.306 518.204C671.566 473.571 645.144 447.542 645.144 447.542H575.478C575.478 447.542 468.141 476.948 416.074 508.759C355.951 545.467 361.996 574.611 372.228 689.217C375.879 730.09 380.459 760.841 382.514 784.026H484.943C484.943 783.895 484.943 783.764 484.943 783.633H503.843C503.843 783.633 513.551 738.726 502.816 698.706C491.556 656.75 481.324 649.59 475.192 620.939H592.684C647.145 620.895 688.608 571.856 679.306 518.204Z" fill="#1E232C"/>
<path d="M383.52 809.475H408.192C423.923 809.475 426.984 818.647 426.984 822.724C426.794 826.021 426.429 829.305 425.891 832.563L481.707 832.847C483.336 819.15 484.538 802.927 484.91 783.95H382.481C383.356 792.429 383.703 800.954 383.52 809.475V809.475Z" fill="#A15842"/>
<path d="M474.218 622.622H449.491" stroke="black" stroke-width="6.023" stroke-linecap="round" stroke-linejoin="round"/>
<path d="M194.371 787.196L212.955 816.711" stroke="#F5EBDD" stroke-width="6.023" stroke-miterlimit="10" stroke-linecap="round"/>
<path d="M181.253 793.755L193.278 823.271" stroke="#F5EBDD" stroke-width="6.023" stroke-miterlimit="10" stroke-linecap="round"/>
<path d="M728.388 585.619L744.785 521.473H649.156C627.846 521.47 607.14 528.558 590.303 541.621C573.466 554.684 561.454 572.978 556.161 593.621L545.044 637.074H662.055C677.255 637.077 692.023 632.022 704.033 622.706C716.043 613.39 724.612 600.342 728.388 585.619Z" fill="#F4BDC7"/>
<path d="M594.171 459.775H-85.8477C-93.1649 459.775 -99.0967 465.707 -99.0967 473.024V473.035C-99.0967 480.352 -93.1649 486.284 -85.8477 486.284H594.171C601.488 486.284 607.42 480.352 607.42 473.035V473.024C607.42 465.707 601.488 459.775 594.171 459.775Z" fill="#A15842"/>
<path d="M-3.25981 398.613C-12.7156 394.317 -36.9071 390.458 -60.3552 390.458C-64.8153 390.458 -69.6143 390.534 -74.6318 390.677V456.769C-63.0225 453.161 -53.4574 449.751 -47.1062 447.542C-47.1062 447.542 -0.428532 483.201 7.89037 466.891C7.89037 466.891 20.0681 471.811 23.1945 459.775C23.1945 459.775 37.4712 459.775 32.3771 449.587C28.9446 442.634 14.0339 427.155 14.0339 427.155C14.0339 427.155 31.743 437.835 40.5429 431.233C48.7306 425.144 7.94502 403.707 -3.25981 398.613Z" fill="#EAA58B"/>
<path d="M15.9794 425.942C7.95563 419.536 -3.00871 410.922 -10.3984 405.74" stroke="#A15842" stroke-width="6.023" stroke-miterlimit="10" stroke-linecap="round"/>
<path d="M-22.6309 417.831C-2.59334 431.779 15.4327 450.188 23.9921 459.447" stroke="#A15842" stroke-width="6.023" stroke-miterlimit="10" stroke-linecap="round"/>
<path d="M-32.0537 432.238C-18.5861 442.077 -3.16169 456.944 6.90626 467.088" stroke="#A15842" stroke-width="6.023" stroke-miterlimit="10" stroke-linecap="round"/>
<path d="M387.204 417.984C364.783 429.2 346.932 448.592 331.136 468.958C323.997 478.129 305.993 500.976 317.876 503.622C327.058 505.655 345.412 487.312 345.412 487.312C345.412 487.312 334.361 511.241 342.352 517.92C348.462 523.025 356.563 514.87 356.563 514.87C363.701 530.175 374.917 516.904 374.917 516.904C392.91 530.175 410.597 481.223 410.597 481.223C421.087 477.49 431.017 472.341 440.112 465.919C440.112 465.919 445.928 467.427 455.329 469.286L446.846 400.526C424.666 404.626 402.595 410.288 387.204 417.984Z" fill="#A15842"/>
<path d="M341.979 490.362C345.259 481.726 351.042 467.099 356.19 457.228" stroke="#1E232C" stroke-width="6.023" stroke-miterlimit="10" stroke-linecap="round"/>
<path d="M374.971 463.853C366.445 482.228 360.203 502.364 356.727 514.859" stroke="#1E232C" stroke-width="6.023" stroke-miterlimit="10" stroke-linecap="round"/>
<path d="M394.342 469.963C387.892 484.72 381.333 504.692 377.212 517.974" stroke="#1E232C" stroke-width="6.023" stroke-miterlimit="10" stroke-linecap="round"/>
<path d="M583.971 459.775C619.313 430.337 658.525 364.551 662.471 291.561C664.515 253.836 634.945 234.465 612.525 234.465H604.337L531.959 390.458C531.959 390.458 489.053 392.721 446.934 400.505L455.416 469.264C485.817 475.287 553.658 485.038 583.971 459.775Z" fill="#0273E8"/>
<path d="M562.906 323.983L533.074 388.272" stroke="#223446" stroke-width="6.023" stroke-linecap="round" stroke-linejoin="round"/>
<path d="M614.109 426.587C621.063 416.894 627.328 406.724 632.857 396.153C636.136 389.901 639.252 383.385 642.127 376.641" stroke="#223446" stroke-width="6.023" stroke-linecap="round" stroke-linejoin="round"/>
<path d="M466.042 395.301C501.559 389.934 521.224 389.289 534.342 388.196C543.087 387.474 555.112 387.103 555.112 387.103" stroke="#223446" stroke-width="6.023" stroke-linecap="round" stroke-linejoin="round"/>
<path d="M480.494 457.742C485.281 457.742 489.163 453.861 489.163 449.073C489.163 444.285 485.281 440.404 480.494 440.404C475.706 440.404 471.825 444.285 471.825 449.073C471.825 453.861 475.706 457.742 480.494 457.742Z" fill="#1E232C"/>
<path d="M456.04 471.352C446.923 469.537 441.315 468.072 441.315 468.072C432.219 474.494 422.289 479.643 411.8 483.376C411.8 483.376 411.187 485.082 410.062 487.749" stroke="#1E232C" stroke-width="6.023" stroke-miterlimit="10" stroke-linecap="round"/>
<path d="M317.165 485.333C320.802 479.664 324.736 474.191 328.949 468.936C331.034 466.247 333.158 463.583 335.322 460.945" stroke="#1E232C" stroke-width="6.023" stroke-miterlimit="10" stroke-linecap="round"/>
<mask id="mask0" mask-type="alpha" maskUnits="userSpaceOnUse" x="0" y="48" width="765" height="846">
<rect y="48" width="765" height="846" rx="32" fill="#F5F5F5"/>
</mask>
<g mask="url(#mask0)">
</g>
</g>
<defs>
<clipPath id="clip0">
<rect width="765" height="894" fill="white"/>
</clipPath>
</defs>
</svg>
