<svg width="130" height="64" viewBox="0 0 130 64" fill="none" xmlns="http://www.w3.org/2000/svg">
<g clip-path="url(#clip0)">
<path d="M129.765 -0.259155H65.2529V64.2531H129.765V-0.259155Z" fill="white"/>
<path d="M65.2534 -0.259155H0.741211V64.2531H65.2534V-0.259155Z" fill="#FF6B00"/>
<path d="M108.808 50.2718C108.829 50.3158 108.839 50.3735 108.839 50.4433C108.839 50.5601 108.807 50.6481 108.743 50.7073C108.679 50.7664 108.587 50.7952 108.462 50.7952H107.831V50.1079H108.456C108.505 50.1079 108.553 50.1125 108.599 50.1201C108.644 50.1277 108.687 50.1444 108.722 50.1686C108.76 50.1944 108.788 50.2278 108.808 50.2718ZM113.636 53.5005H81.3799L84.7602 48.2964H110.254L113.636 53.5005ZM110.265 50.8984C110.265 49.8303 109.398 48.964 108.329 48.964C107.261 48.964 106.393 49.8303 106.393 50.8984C106.393 51.9681 107.259 52.8344 108.329 52.8344C109.398 52.8344 110.265 51.9681 110.265 50.8984ZM109.928 50.8984C109.928 51.7814 109.212 52.4976 108.329 52.4976C107.446 52.4976 106.73 51.7814 106.73 50.8984C106.73 50.0154 107.446 49.2993 108.329 49.2993C109.212 49.3008 109.928 50.0169 109.928 50.8984ZM109.307 51.9939C109.266 51.9483 109.236 51.8725 109.216 51.7678C109.197 51.6616 109.188 51.5432 109.188 51.4143C109.188 51.3278 109.177 51.2565 109.154 51.1988C109.133 51.1412 109.106 51.0941 109.072 51.0592C109.039 51.0228 109.004 50.997 108.966 50.9804C108.928 50.9637 108.892 50.9546 108.86 50.95V50.9439C108.878 50.9379 108.907 50.9257 108.948 50.906C108.987 50.8878 109.028 50.8575 109.069 50.815C109.11 50.7725 109.147 50.7179 109.177 50.6496C109.207 50.5798 109.222 50.4933 109.222 50.3886C109.222 50.202 109.162 50.0548 109.04 49.9502C108.919 49.8455 108.737 49.7939 108.496 49.7939H107.444V51.9939H107.83V51.0881H108.397C108.485 51.0881 108.558 51.1002 108.614 51.1215C108.67 51.1442 108.716 51.1791 108.748 51.2277C108.779 51.2762 108.802 51.3369 108.816 51.4097C108.828 51.4826 108.834 51.569 108.834 51.6707C108.834 51.7238 108.837 51.7799 108.842 51.8376C108.846 51.8952 108.864 51.9468 108.893 51.9954H109.307V51.9939Z" fill="#2A7050"/>
<path d="M85.5303 47.1161H109.486L107.196 43.587H87.8198L85.5303 47.1161Z" fill="#2A7050"/>
<path d="M106.551 42.584L104.915 40.0609H90.1024L88.4668 42.5825L106.551 42.584Z" fill="#2A7050"/>
<path d="M106.244 28.6378C106.244 33.4625 102.332 37.3739 97.5076 37.3739C92.6829 37.3739 88.7715 33.4625 88.7715 28.6378C88.7715 23.813 92.6829 19.9016 97.5076 19.9016C102.332 19.9016 106.244 23.813 106.244 28.6378Z" fill="#FF6B00"/>
<path d="M108.608 10.7347C108.818 10.7923 109.06 10.7544 109.189 10.5829L109.271 10.4919H109.935V12.6524H109.137C109.084 12.5037 109.016 12.3551 108.903 12.2185C108.375 11.5706 107.553 11.3173 106.678 11.3173C105.857 11.3173 105.138 11.5722 105.138 12.1669C105.138 12.3717 105.292 12.5842 105.514 12.6722C105.854 12.8072 106.106 12.836 106.406 12.877C107.105 12.9741 107.784 13.0499 108.472 13.1622C109.126 13.2684 109.541 13.3943 109.87 13.8359C110.252 14.3502 110.354 15.0011 110.151 15.5943C110.014 16.1117 109.66 16.5062 109.208 16.802C108.844 17.0205 108.433 17.1358 108.01 17.2162C107.33 17.3027 106.618 17.2921 105.981 17.1495L104.86 16.9052C104.751 16.8794 104.569 16.9234 104.482 17.0099C104.396 17.0964 104.368 17.2117 104.368 17.2117H103.61V14.9358H104.326C104.814 15.8811 105.89 16.2983 106.964 16.3332C107.565 16.3514 108.198 16.3135 108.524 15.8219C108.624 15.6065 108.627 15.3136 108.477 15.13C108.196 14.7856 107.737 14.8038 107.309 14.7614C106.521 14.6825 105.986 14.6021 105.986 14.6021C105.359 14.4943 104.713 14.3866 104.197 14.0058C103.736 13.6477 103.513 13.0075 103.572 12.484C103.607 11.9378 103.933 11.3704 104.388 10.9971C104.655 10.7771 104.969 10.6391 105.285 10.5162C105.817 10.3189 106.488 10.3083 107.08 10.3493C107.626 10.3994 108.117 10.548 108.608 10.7347Z" fill="black"/>
<path d="M101.601 11.7785C101.618 11.7345 101.627 11.6859 101.627 11.6343C101.627 11.4052 101.442 11.2201 101.213 11.2201H100.805V10.4904H103.68V11.2201H103.575C103.275 11.2156 102.996 11.3461 102.83 11.5585C102.612 11.8422 102.536 12.1669 102.393 12.4597L100.518 17.2101H99.5074L97.8916 12.6721L96.0633 17.2101H95.1515L93.214 11.7117C93.1078 11.4371 92.9667 11.2201 92.6602 11.2201H92.4326V10.4904H95.8615V11.2201C95.6461 11.2262 95.4124 11.1913 95.2607 11.34C95.0119 11.6025 95.1515 11.9484 95.2547 12.2412L96.0937 14.5975L97.6928 10.4904H99.0143C99.0204 10.5237 100.186 13.8358 100.474 14.6551L101.601 11.7785Z" fill="black"/>
<path d="M89.5668 11.6707C89.6229 11.6237 89.6593 11.5539 89.6593 11.475C89.6593 11.3354 89.5455 11.2216 89.4059 11.2216C89.4059 11.2216 89.2314 11.2216 89.2072 11.2216V10.4918H92.1157V11.2216H91.9033C91.5012 11.2216 91.1356 11.6616 90.8412 11.915L89.6639 12.9846C89.984 13.4352 92.1688 15.9295 92.1688 15.9295C92.4373 16.2087 92.6073 16.4849 93.3644 16.4849H93.4994V17.2146H92.1567H89.4044V16.4849C89.6988 16.4849 90.0599 16.5122 90.1327 16.2026C90.1752 16.0251 90.0872 15.8931 89.987 15.7642L88.5335 14.0118L87.4821 14.9661V16.016C87.4821 16.1935 87.6187 16.4849 87.954 16.4849H88.3166V17.2146H84.7617V16.4849C85.229 16.4849 85.4809 16.28 85.622 15.9311C85.71 15.7475 85.707 15.3591 85.707 15.3591L85.7024 12.1244C85.7024 11.8133 85.7069 11.2246 85.1532 11.2246H84.7617V10.4949H88.3166V11.2246H88.0268C87.5231 11.2246 87.4821 11.8346 87.4821 12.0394V13.5961L89.5668 11.6707Z" fill="black"/>
<path d="M34.6286 39.4329C34.6286 39.973 35.0489 40.1839 35.5283 40.1839C35.8409 40.1839 36.3188 40.0929 36.3188 39.6771C36.3188 39.2387 35.7104 39.1643 35.1126 39.005C34.5088 38.8457 33.9004 38.6121 33.9004 37.8504C33.9004 37.019 34.6863 36.6215 35.4191 36.6215C36.2672 36.6215 37.0471 36.9917 37.0471 37.9308H36.1822C36.1534 37.4423 35.8075 37.3163 35.3796 37.3163C35.0944 37.3163 34.7652 37.4362 34.7652 37.7776C34.7652 38.0901 34.9579 38.1296 35.9774 38.3921C36.2733 38.4664 37.1836 38.653 37.1836 39.5755C37.1836 40.3204 36.598 40.8788 35.4934 40.8788C34.5937 40.8788 33.7517 40.4357 33.7638 39.4329H34.6286Z" fill="white"/>
<path d="M37.8662 36.7185H40.9052V37.4695H38.7599V38.3404H40.7292V39.0353H38.7599V40.0306H40.9507V40.7816H37.8662V36.7185Z" fill="white"/>
<path d="M41.7109 36.7185H44.7499V37.4695H42.6046V38.3404H44.5724V39.0353H42.6046V40.0306H44.7955V40.7816H41.7109V36.7185Z" fill="white"/>
<path d="M45.5537 36.7185H47.3061C48.3591 36.7185 49.1495 37.3785 49.1495 38.7273C49.1495 39.9047 48.5457 40.7816 47.3061 40.7816H45.5537V36.7185ZM46.4474 40.0306H47.2439C47.7613 40.0306 48.2574 39.712 48.2574 38.8138C48.2574 37.9945 47.9722 37.4711 47.0846 37.4711H46.4474V40.0306Z" fill="white"/>
<path d="M50.7901 36.7185H49.8965V40.7816H50.7901V36.7185Z" fill="white"/>
<path d="M51.6943 36.7185H52.5834L54.2782 39.445H54.2903V36.7185H55.1263V40.7816H54.2326L52.5425 38.0612H52.5318V40.7816H51.6943V36.7185Z" fill="white"/>
<path d="M58.9605 40.3204C58.6479 40.724 58.2383 40.8788 57.8453 40.8788C56.5875 40.8788 55.8486 39.9396 55.8486 38.7668C55.8486 37.5606 56.589 36.6215 57.8453 36.6215C58.6767 36.6215 59.4611 37.1343 59.5582 38.0552H58.704C58.6009 37.6061 58.2656 37.3725 57.8438 37.3725C57.0412 37.3725 56.7408 38.0552 56.7408 38.7668C56.7408 39.4435 57.0427 40.1277 57.8438 40.1277C58.4249 40.1277 58.7602 39.8152 58.8118 39.2508H57.9121V38.5847H59.6189V40.7817H59.05L58.9605 40.3204Z" fill="white"/>
<path d="M24.2354 44.3379H23.0186V43.5869H26.3473V44.3379H25.129V47.65H24.2354V44.3379Z" fill="white"/>
<path d="M26.8916 43.5869H27.7852V45.1466H29.4299V43.5869H30.322V47.65H29.4299V45.8976H27.7852V47.65H26.8916V43.5869Z" fill="white"/>
<path d="M31.2354 43.5869H34.2743V44.3379H32.129V45.2088H34.0983V45.9037H32.129V46.899H34.3199V47.65H31.2354V43.5869Z" fill="white"/>
<path d="M36.7891 43.5869H39.646V44.3379H37.6827V45.2771H39.385V45.9705H37.6827V47.65H36.7891V43.5869Z" fill="white"/>
<path d="M43.6724 46.1131C43.6724 47.2116 43.023 47.7471 41.9367 47.7471C40.8443 47.7471 40.207 47.2176 40.207 46.1131V43.5869H41.1007V46.1131C41.1007 46.5576 41.2145 46.9946 41.9367 46.9946C42.5739 46.9946 42.7787 46.7154 42.7787 46.1131V43.5869H43.6724V46.1131Z" fill="white"/>
<path d="M45.4268 44.3379H44.21V43.5869H47.5387V44.3379H46.3204V47.65H45.4268V44.3379Z" fill="white"/>
<path d="M51.5395 46.1131C51.5395 47.2116 50.8902 47.7471 49.8039 47.7471C48.7115 47.7471 48.0742 47.2176 48.0742 46.1131V43.5869H48.9679V46.1131C48.9679 46.5576 49.0817 46.9946 49.8039 46.9946C50.4411 46.9946 50.6459 46.7154 50.6459 46.1131V43.5869H51.5395V46.1131Z" fill="white"/>
<path d="M52.4346 43.5869H54.6254C55.3537 43.5869 55.8149 44.0937 55.8149 44.7081C55.8149 45.1861 55.6207 45.5441 55.1716 45.7262V45.7383C55.6101 45.8521 55.7345 46.2785 55.7634 46.6881C55.78 46.9445 55.7755 47.4224 55.9348 47.65H55.0412C54.9334 47.3936 54.9441 47.0007 54.8985 46.6775C54.8363 46.2512 54.671 46.063 54.2219 46.063H53.3282V47.6515H52.4346V43.5869ZM53.3282 45.4243H54.3068C54.7058 45.4243 54.9213 45.2528 54.9213 44.8447C54.9213 44.4517 54.7043 44.2818 54.3068 44.2818H53.3282V45.4243Z" fill="white"/>
<path d="M56.6553 43.5869H59.6943V44.3379H57.5489V45.2088H59.5183V45.9037H57.5489V46.899H59.7398V47.65H56.6553V43.5869Z" fill="white"/>
<path d="M36.2096 52.49C36.2096 52.8951 36.5252 53.0529 36.8832 53.0529C37.1184 53.0529 37.4765 52.9846 37.4765 52.6736C37.4765 52.3444 37.0198 52.2898 36.5722 52.1699C36.1201 52.05 35.6634 51.8756 35.6634 51.3036C35.6634 50.68 36.2521 50.3811 36.8028 50.3811C37.4385 50.3811 38.0242 50.6588 38.0242 51.3627H37.3748C37.3536 50.9956 37.0926 50.9015 36.7725 50.9015C36.5585 50.9015 36.3112 50.991 36.3112 51.2474C36.3112 51.4826 36.4569 51.5114 37.22 51.7087C37.4416 51.7633 38.1243 51.9044 38.1243 52.5962C38.1243 53.1546 37.6843 53.5733 36.8559 53.5733C36.1823 53.5733 35.5496 53.2395 35.5587 52.4885H36.2096V52.49Z" fill="white"/>
<path d="M39.3151 50.4539H38.6445V53.5004H39.3151V50.4539Z" fill="white"/>
<path d="M39.9932 50.4539H40.6592L41.9307 52.4991H41.9382V50.4539H42.5664V53.502H41.8958L40.6289 51.4613H40.6198V53.502H39.9932V50.4539Z" fill="white"/>
<path d="M45.272 51.478C45.2295 51.1745 44.9397 50.9439 44.6059 50.9439C44.0036 50.9439 43.7775 51.4567 43.7775 51.9893C43.7775 52.4976 44.0036 53.0089 44.6059 53.0089C45.0155 53.0089 45.2462 52.7266 45.2977 52.3261H45.9456C45.8773 53.0862 45.3524 53.5717 44.6059 53.5717C43.6622 53.5717 43.1084 52.8678 43.1084 51.9878C43.1084 51.0835 43.6637 50.3795 44.6059 50.3795C45.2765 50.3795 45.8394 50.7725 45.9198 51.4765H45.272V51.478Z" fill="white"/>
<path d="M46.4775 50.4539H48.7579V51.0183H47.1482V51.6707H48.6244V52.1911H47.1482V52.9376H48.7913V53.502H46.4775V50.4539Z" fill="white"/>
<path d="M51.9155 53.5021H51.3086V51.5646H50.5576V51.1079C50.9809 51.117 51.3678 50.9713 51.4331 50.5146H51.9155V53.5021Z" fill="white"/>
<path d="M53.6602 50.4539C54.4021 50.4539 54.6585 50.9667 54.6585 51.2565C54.6585 51.5508 54.5053 51.7905 54.2231 51.8831V51.8922C54.5766 51.9726 54.7814 52.2457 54.7814 52.622C54.7814 53.2501 54.2185 53.5611 53.6632 53.5611C53.0867 53.5611 52.5283 53.2713 52.5283 52.6265C52.5283 52.2472 52.7422 51.9771 53.0912 51.8922V51.8831C52.8014 51.8012 52.6512 51.5629 52.6512 51.2686C52.6527 50.7315 53.1747 50.4539 53.6602 50.4539ZM53.6647 53.1044C53.9545 53.1044 54.1775 52.8996 54.1775 52.6007C54.1775 52.314 53.9469 52.1228 53.6647 52.1228C53.3704 52.1228 53.1352 52.2897 53.1352 52.5962C53.1352 52.9042 53.3749 53.1044 53.6647 53.1044ZM53.6602 51.7177C53.9075 51.7177 54.1077 51.5812 54.1077 51.3247C54.1077 51.1715 54.0349 50.9105 53.6602 50.9105C53.4174 50.9105 53.2035 51.0592 53.2035 51.3247C53.2035 51.5857 53.4174 51.7177 53.6602 51.7177Z" fill="white"/>
<path d="M57.1457 51.0138H55.9122L55.7923 51.692L55.8014 51.7011C55.9638 51.5342 56.1519 51.4705 56.3855 51.4705C56.9742 51.4705 57.308 51.9272 57.308 52.4855C57.308 53.1 56.7998 53.5734 56.1989 53.5612C55.6194 53.5612 55.0974 53.2411 55.0898 52.6145H55.6952C55.7256 52.8785 55.9213 53.0621 56.1868 53.0621C56.5024 53.0621 56.7026 52.7844 56.7026 52.4855C56.7026 52.1745 56.51 51.9272 56.1868 51.9272C55.9698 51.9272 55.85 52.0046 55.7301 52.1669H55.1839L55.4783 50.5146H57.1472V51.0138H57.1457Z" fill="white"/>
<path d="M59.2039 51.2823C59.166 51.0821 59.0112 50.9106 58.8034 50.9106C58.3634 50.9106 58.2481 51.4872 58.2314 51.8194L58.2405 51.8285C58.4074 51.5934 58.6243 51.4963 58.9156 51.4963C59.172 51.4963 59.4315 51.6161 59.6029 51.8043C59.7607 51.9878 59.8335 52.2351 59.8335 52.4703C59.8335 53.0802 59.4102 53.5627 58.7882 53.5627C57.8839 53.5627 57.6396 52.7722 57.6396 52.0182C57.6396 51.2884 57.9643 50.4554 58.814 50.4554C59.3298 50.4554 59.7137 50.7589 59.782 51.2838H59.2039V51.2823ZM58.286 52.5067C58.286 52.7844 58.465 53.062 58.7685 53.062C59.0582 53.062 59.2251 52.7844 59.2251 52.5158C59.2251 52.2336 59.081 51.9529 58.7685 51.9529C58.4438 51.9529 58.286 52.2124 58.286 52.5067Z" fill="white"/>
</g>
<defs>
<clipPath id="clip0">
<rect width="130" height="64" fill="white"/>
</clipPath>
</defs>
</svg>
