<svg width="199" height="56" viewBox="0 0 199 56" fill="none" xmlns="http://www.w3.org/2000/svg">
<g clip-path="url(#clip0)">
<g clip-path="url(#clip1)">
<path fill-rule="evenodd" clip-rule="evenodd" d="M43.6082 23.7381C46.3729 23.2625 48.4785 20.8607 48.4785 17.9668C48.4785 14.7327 45.8478 12.1096 42.6022 12.1096C41.3099 12.1096 40.1166 12.5248 39.1455 13.2291C41.6017 16.1358 43.2135 19.7595 43.6082 23.7381Z" fill="#364254"/>
<path fill-rule="evenodd" clip-rule="evenodd" d="M0 17.9693C0 20.7333 1.92387 23.0528 4.51045 23.6656C4.92533 19.643 6.58301 15.9864 9.10167 13.0724C8.17645 12.4651 7.06765 12.112 5.87625 12.112C2.63063 12.112 0 14.7333 0 17.9693Z" fill="#364254"/>
<path fill-rule="evenodd" clip-rule="evenodd" d="M8.37158 21.9399C8.37158 25.774 10.87 29.0228 14.3268 30.1423C13.6439 31.3935 13.262 32.7947 13.262 34.2764C13.262 39.5373 18.0846 43.8013 24.0361 43.8013C29.9857 43.8013 34.8101 39.5373 34.8101 34.2764C34.8101 32.8148 34.4356 31.4282 33.7711 30.1898C37.3067 29.1197 39.8805 25.8307 39.8805 21.9399C39.8805 17.1802 36.0291 13.3224 31.28 13.3224C28.2969 13.3224 25.6699 14.8425 24.1279 17.1528C22.584 14.8425 19.957 13.3224 16.9758 13.3224C12.2212 13.3224 8.37158 17.1802 8.37158 21.9399ZM27.7553 21.2046C27.7553 18.9455 29.6094 17.1144 31.8931 17.1144C32.9652 17.1144 33.94 17.5168 34.6743 18.1753C34.0079 18.3784 33.5233 18.9912 33.5233 19.7156C33.5233 20.6046 34.252 21.3253 35.1534 21.3253C35.4765 21.3253 35.7757 21.2338 36.0291 21.0747L36.0327 21.2028C36.0327 23.4619 34.1786 25.2929 31.8931 25.2929C29.6076 25.2948 27.7553 23.4637 27.7553 21.2046ZM12.2175 21.2046C12.2175 18.9455 14.0698 17.1144 16.3553 17.1144C17.4255 17.1144 18.4021 17.5168 19.1364 18.1753C18.4701 18.3784 17.9854 18.9912 17.9854 19.7156C17.9854 20.6046 18.7142 21.3253 19.6156 21.3253C19.9368 21.3253 20.2379 21.2338 20.4912 21.0747L20.4931 21.2028C20.4931 23.4619 18.6408 25.2929 16.3553 25.2929C14.0698 25.2948 12.2175 23.4637 12.2175 21.2046ZM25.3193 28.4173C25.892 27.4405 26.797 26.8423 27.3496 27.1112C27.9279 27.3929 27.8838 28.4996 27.2395 29.5478C26.6098 30.5722 25.6809 31.0862 25.1742 30.7331C24.6896 30.3965 24.7594 29.374 25.3193 28.4173ZM22.9309 28.4173C23.4909 29.3722 23.5588 30.3965 23.0741 30.7331C22.5675 31.0862 21.6404 30.5703 21.0089 29.5478C20.3646 28.4996 20.3205 27.3948 20.8988 27.1112C21.4532 26.8423 22.3582 27.4405 22.9309 28.4173Z" fill="#364254"/>
<path fill-rule="evenodd" clip-rule="evenodd" d="M58.9217 37.9247V26.9163C58.9217 25.7273 59.2594 24.745 59.946 23.9713C60.6252 23.1975 61.5596 22.806 62.7437 22.806C64.0012 22.806 64.9117 23.1755 65.4661 23.9127C66.0224 24.6499 66.3014 25.5499 66.3014 26.6127V37.9229H70.6154V26.9163C70.6154 25.7731 70.9605 24.8036 71.6581 24.0078C72.3484 23.2121 73.2772 22.806 74.4338 22.806C75.6692 22.806 76.5743 23.17 77.1415 23.8944C77.7106 24.6206 77.9951 25.5225 77.9951 26.6127V37.9229H82.2265V25.8938C82.2265 24.6755 82.043 23.6219 81.674 22.731C81.3087 21.842 80.824 21.1121 80.2201 20.5396C79.6179 19.9689 78.9204 19.5463 78.1383 19.2664C77.36 18.9939 76.5504 18.8512 75.7225 18.8512C74.5035 18.8512 73.3874 19.0927 72.3722 19.5774C71.3479 20.0585 70.474 20.9091 69.7416 22.1219C69.2331 21.0335 68.4878 20.2176 67.5075 19.6707C66.5272 19.1238 65.4257 18.8512 64.2196 18.8512C63.1861 18.8512 62.1507 19.1 61.1172 19.5939C60.0837 20.0878 59.3035 20.7993 58.7693 21.7414V19.3817H54.5728V37.9247H58.9217Z" fill="#364254"/>
<path fill-rule="evenodd" clip-rule="evenodd" d="M93.669 19.5518C92.4996 20.053 91.4881 20.7371 90.6418 21.6115C89.7955 22.4877 89.1346 23.523 88.6573 24.7121C88.1764 25.9084 87.9414 27.2163 87.9414 28.6321C87.9414 30.0608 88.1764 31.376 88.6573 32.5778C89.1346 33.7869 89.7974 34.8278 90.6418 35.7003C91.4881 36.5765 92.4978 37.2607 93.669 37.7546C94.842 38.2485 96.1105 38.4973 97.4763 38.4973C98.8586 38.4973 100.134 38.2485 101.295 37.7546C102.455 37.2607 103.457 36.5765 104.322 35.7003C105.177 34.8278 105.847 33.7869 106.325 32.5778C106.806 31.376 107.048 30.0608 107.048 28.6321C107.048 27.2163 106.806 25.9084 106.325 24.7121C105.847 23.523 105.177 22.4877 104.322 21.6115C103.459 20.7389 102.455 20.0548 101.295 19.5518C100.134 19.0579 98.8586 18.8091 97.4763 18.8091C96.1105 18.8091 94.8402 19.0579 93.669 19.5518ZM95.5249 34.1528C94.9044 33.904 94.361 33.5272 93.8929 33.0333C93.4248 32.5394 93.0466 31.9266 92.7584 31.1912C92.4702 30.4541 92.327 29.5998 92.327 28.6303C92.327 27.6681 92.4702 26.8285 92.7584 26.1023C93.0466 25.3761 93.4248 24.7688 93.8929 24.2749C94.361 23.781 94.9044 23.4115 95.5249 23.17C96.1399 22.9304 96.7898 22.806 97.4763 22.806C98.15 22.806 98.7999 22.9304 99.4204 23.17C100.035 23.4115 100.584 23.781 101.065 24.2749C101.543 24.7688 101.921 25.3761 102.2 26.1023C102.479 26.8285 102.618 27.6681 102.618 28.6303C102.618 29.5998 102.477 30.4522 102.2 31.1912C101.921 31.9266 101.543 32.5394 101.065 33.0333C100.584 33.5272 100.035 33.904 99.4204 34.1528C98.7999 34.4071 98.1519 34.5314 97.4763 34.5314C96.7898 34.5314 96.1417 34.4071 95.5249 34.1528Z" fill="#364254"/>
<path fill-rule="evenodd" clip-rule="evenodd" d="M117.598 27.2273C117.598 26.009 117.917 24.9719 118.562 24.1231C119.208 23.278 120.159 22.8481 121.422 22.8481C122.806 22.8481 123.786 23.2524 124.354 24.0517C124.923 24.8475 125.207 25.8188 125.207 26.9602V37.9248H129.593V26.1975C129.593 25.1877 129.45 24.2347 129.174 23.342C128.895 22.4566 128.488 21.6774 127.942 21.0061C127.399 20.3347 126.714 19.8042 125.886 19.4238C125.051 19.0414 124.071 18.853 122.936 18.853C121.897 18.853 120.879 19.089 119.887 19.5536C118.894 20.0237 118.09 20.7939 117.486 21.8566V19.3817H113.212V37.9248H117.598V27.2273V27.2273Z" fill="#364254"/>
<path fill-rule="evenodd" clip-rule="evenodd" d="M153.918 19.3817H148.095L141.02 26.8816V12H136.667V37.9247H141.02V32.748L143.287 30.3462L148.697 37.9247H154.072L146.351 27.2273L153.918 19.3817Z" fill="#364254"/>
<path fill-rule="evenodd" clip-rule="evenodd" d="M171.586 31.4492C171.28 32.3657 170.771 33.134 170.057 33.7523C169.334 34.3779 168.308 34.687 166.971 34.687C166.292 34.687 165.653 34.5681 165.06 34.323C164.471 34.087 163.944 33.7486 163.489 33.3169C163.032 32.8889 162.666 32.3785 162.393 31.795C162.117 31.2114 161.961 30.5639 161.937 29.8505H175.41C175.434 29.8029 175.456 29.6419 175.48 29.3749C175.506 29.1133 175.524 28.7968 175.524 28.4401C175.524 26.9694 175.316 25.6432 174.913 24.4652C174.512 23.2871 173.927 22.2756 173.158 21.4359C172.388 20.6036 171.443 19.9543 170.32 19.4969C169.196 19.0396 167.926 18.8073 166.52 18.8073C165.356 18.8073 164.23 19.0469 163.151 19.5152C162.062 19.9853 161.106 20.6475 160.272 21.4981C159.437 22.3487 158.776 23.3713 158.286 24.5621C157.796 25.7511 157.554 27.0847 157.554 28.5572C157.554 30.1304 157.807 31.5316 158.328 32.7645C158.842 33.9956 159.529 35.0364 160.386 35.887C161.242 36.7376 162.24 37.387 163.377 37.826C164.511 38.2668 165.704 38.4937 166.971 38.4937C168.082 38.4937 169.086 38.3382 169.998 38.0364C170.907 37.7327 171.713 37.3156 172.421 36.7815C173.125 36.2528 173.714 35.6346 174.195 34.9193C174.672 34.2059 175.041 33.4431 175.293 32.6291L171.586 31.4492ZM162.051 26.6145C162.075 26.1389 162.204 25.6505 162.429 25.1511C162.653 24.6572 162.964 24.2127 163.342 23.8176C163.72 23.4262 164.175 23.1097 164.719 22.8664C165.262 22.6304 165.87 22.5042 166.558 22.5042C167.314 22.5042 167.97 22.6231 168.524 22.8481C169.08 23.0749 169.549 23.3768 169.927 23.7591C170.305 24.1414 170.588 24.5804 170.777 25.0743C170.966 25.5737 171.072 26.0841 171.096 26.6145H162.051V26.6145Z" fill="#364254"/>
<path d="M194.363 19.3817H199.013L188.025 43.7808H183.347L187.02 35.715L179.152 19.3817H184.111L189.409 31.1072L194.363 19.3817Z" fill="#364254"/>
</g>
</g>
<defs>
<clipPath id="clip0">
<rect width="199" height="56" fill="white"/>
</clipPath>
<clipPath id="clip1">
<rect width="199.014" height="32" fill="white" transform="translate(0 12)"/>
</clipPath>
</defs>
</svg>
