<svg width="130" height="56" viewBox="0 0 130 56" fill="none" xmlns="http://www.w3.org/2000/svg">
<g clip-path="url(#clip0)">
<path d="M58.5264 19.579V8.12632H62.1474C63.2422 8.04211 64.2527 8.29475 65.179 8.88422C65.5158 9.13685 65.7685 9.47369 65.9369 9.89475C66.1053 10.3158 66.1895 10.7369 66.1895 11.1579C66.1895 11.7474 66.0211 12.2526 65.6843 12.6737C65.3474 13.0947 64.8422 13.4316 64.2527 13.6C64.9264 13.7684 65.5158 14.1053 66.0211 14.6105C66.4422 15.1158 66.6948 15.7053 66.6948 16.379C66.6948 16.8 66.6106 17.3053 66.4422 17.7263C66.2737 18.1474 65.9369 18.4842 65.6001 18.8211C64.7579 19.4105 63.7474 19.7474 62.6527 19.6632L58.5264 19.579ZM59.5369 13.2632H62.4001C63.1579 13.2632 63.8316 13.0947 64.4211 12.6737C64.6737 12.5053 64.8422 12.2526 65.0106 11.9158C65.0948 11.6632 65.179 11.3263 65.179 10.9895C65.179 10.6526 65.179 10.4 65.0106 10.0632C64.8422 9.89475 64.6737 9.64211 64.4211 9.47369C63.7474 9.05264 62.9895 8.88422 62.2316 8.96843H59.6211L59.5369 13.2632ZM59.5369 14.1053V18.8211H62.6527C63.4106 18.8211 64.1685 18.6526 64.7579 18.1474C65.0106 17.8947 65.179 17.6421 65.3474 17.3895C65.5158 17.0526 65.5158 16.7158 65.5158 16.379C65.5158 16.0421 65.4316 15.7053 65.3474 15.4526C65.179 15.2 65.0106 14.8632 64.7579 14.6947C64.1685 14.2737 63.4106 14.0211 62.6527 14.1053H59.5369Z" fill="#565859"/>
<path d="M74.9473 16.379H69.3894L68.042 19.6632H66.9473L71.6631 8.12634H72.6736L77.3052 19.6632H76.2104L74.9473 16.379ZM69.642 15.5369H74.6104L72.1683 9.22108L69.642 15.5369Z" fill="#565859"/>
<path d="M87.4104 19.579H86.3999L79.3262 9.72634V19.579H78.2314V8.12634H79.3262L86.3999 17.979V8.12634H87.4104V19.579Z" fill="#565859"/>
<path d="M98.4416 16.0421C98.4416 16.5474 98.2732 17.1369 98.0206 17.5579C97.768 18.0632 97.4311 18.4842 97.0101 18.8211C96.0837 19.4948 94.989 19.8316 93.8943 19.7474C93.0522 19.7474 92.2101 19.579 91.4522 19.0737C90.7785 18.6527 90.189 18.0632 89.8522 17.3053C89.4311 16.4632 89.2627 15.5369 89.2627 14.6106V13.0948C89.2627 12.1685 89.4311 11.2421 89.8522 10.4C90.189 9.64214 90.7785 8.96845 91.5364 8.5474C92.2943 8.12635 93.1364 7.87372 94.0627 7.87372C95.1574 7.78951 96.3364 8.12635 97.1785 8.88424C97.9364 9.55793 98.4416 10.5685 98.5258 11.6632H97.4311C97.4311 10.8211 97.0101 10.0632 96.4206 9.55793C95.8311 8.96845 95.0732 8.71582 94.2311 8.71582C94.1469 8.71582 94.0627 8.71582 93.9785 8.71582C93.4732 8.71582 92.968 8.80003 92.5469 8.96845C92.1259 9.13687 91.7048 9.47372 91.368 9.81056C90.6943 10.7369 90.2732 11.9158 90.3574 13.0106V14.4421C90.2732 15.6211 90.6101 16.7158 91.2837 17.6421C91.6206 18.0632 92.0416 18.3158 92.4627 18.5685C92.8837 18.7369 93.389 18.9053 93.8943 18.8211C94.7364 18.9053 95.6627 18.6527 96.3364 18.0632C96.9259 17.4737 97.3469 16.7158 97.3469 15.8737L98.4416 16.0421Z" fill="#565859"/>
<path d="M109.221 14.4421C109.221 15.4526 109.052 16.3789 108.631 17.3053C108.294 18.0631 107.705 18.7368 106.947 19.1579C106.189 19.5789 105.263 19.8316 104.421 19.8316C103.747 19.8316 103.157 19.7474 102.484 19.4947C101.894 19.2421 101.305 18.9053 100.884 18.4C99.9575 17.3053 99.4522 15.9579 99.5364 14.5263V13.2631C99.5364 12.3368 99.7049 11.3263 100.126 10.4842C100.463 9.72631 101.052 9.05262 101.81 8.63157C102.568 8.21052 103.41 7.95789 104.336 7.95789C105.179 7.95789 106.105 8.12631 106.863 8.63157C107.621 9.05262 108.21 9.72631 108.547 10.4842C108.968 11.3263 109.136 12.2526 109.136 13.1789L109.221 14.4421ZM108.126 13.2631C108.21 12.0842 107.873 10.9053 107.115 9.97894C106.442 9.22104 105.431 8.79999 104.505 8.79999C103.494 8.79999 102.484 9.13683 101.81 9.81052C101.726 9.89473 101.726 9.89473 101.642 9.97894C100.884 10.9053 100.547 12.0842 100.631 13.3474V14.5263C100.547 15.7053 100.968 16.8842 101.642 17.7263C101.979 18.0631 102.4 18.4 102.821 18.5684C103.242 18.7368 103.747 18.9053 104.252 18.9053C104.757 18.9053 105.263 18.821 105.684 18.6526C106.105 18.4842 106.61 18.2316 106.947 17.8947C107.031 17.8105 107.031 17.8105 107.115 17.7263C107.789 16.8 108.21 15.621 108.126 14.3579V13.2631Z" fill="#565859"/>
<path d="M62.9895 38.2737V47.2H58.5264V23.0316H68.4632C70.9053 22.8632 73.3474 23.6211 75.2843 25.1368C76.1264 25.8105 76.8 26.6526 77.2211 27.5789C77.6422 28.5053 77.8948 29.6 77.8106 30.6947C77.8948 31.7895 77.6422 32.8 77.2211 33.8105C76.8 34.7368 76.1264 35.6632 75.2843 36.2526C73.2632 37.6842 70.7369 38.3579 68.2948 38.1895L62.9895 38.2737ZM62.9895 34.9053H68.379C69.7264 34.9895 70.9895 34.5684 72.0001 33.8105C72.4211 33.4737 72.7579 32.9684 73.0106 32.4632C73.2632 31.9579 73.3474 31.3684 73.2632 30.7789C73.2632 30.1895 73.179 29.6 72.9264 29.0947C72.6737 28.5895 72.3369 28.0842 71.9158 27.6632C70.9053 26.8211 69.6422 26.4 68.379 26.4842H62.8211V34.9053H62.9895Z" fill="#565859"/>
<path d="M84.7151 47.2H80.252V23.0316H84.7151V47.2Z" fill="#565859"/>
<path d="M108.884 47.2H104.421L92.7998 30.021V47.2H88.4209V23.0316H92.8841L104.421 40.2105V23.0316H108.884V47.2Z" fill="#565859"/>
<path d="M127.495 36.421H116.884V43.8316H129.263V47.2H112.337V23.0316H129.095V26.4H116.8V33.0526H127.411V36.421H127.495Z" fill="#565859"/>
<path d="M27.7891 46.1894L32.4206 49.8105L37.0522 46.1894V43.3263L32.4206 47.2L27.7891 43.3263V46.1894Z" fill="#661739"/>
<path d="M27.7891 33.3895V36.2526L32.4206 39.8737L37.0522 36.2526V33.3895L32.4206 37.2631L27.7891 33.3895Z" fill="#661739"/>
<path d="M12.7998 43.3263V46.1894L17.4314 49.8105L22.063 46.1894V43.3263L17.4314 47.2L12.7998 43.3263Z" fill="#661739"/>
<path d="M44.1259 4H5.72594C4.37857 4 3.0312 4.58947 2.02067 5.51579C1.01015 6.52632 0.504883 7.87368 0.504883 9.22105V47.0316C0.504883 47.8737 0.673304 48.6316 1.01015 49.3053C1.34699 50.0632 1.85225 50.6526 2.52594 51.1579V49.8105L7.15751 46.1895V43.3263L2.52594 47.2V39.8737L10.0207 33.9789L17.5154 39.8737L22.147 36.2526V33.4737L17.5154 37.3474V30.0211L25.0101 24.1263L32.5049 30.0211L37.1365 26.4V23.5368L32.5049 27.4105V20L39.9996 14.1053L47.4944 20V27.3263L42.8628 23.4526V26.3158L47.4944 30.0211V37.3474L42.8628 33.4737V36.2526L47.4944 39.8737V47.2L42.8628 43.3263V46.1895L47.4944 49.8105V51.1579C48.0838 50.6526 48.5891 50.0632 49.0101 49.3053C49.4312 48.5474 49.5154 47.7895 49.5154 47.0316V9.30526C49.5154 7.87368 48.9259 6.61053 47.9996 5.6C46.9049 4.58947 45.5575 4 44.1259 4Z" fill="#661739"/>
</g>
<defs>
<clipPath id="clip0">
<rect width="129.684" height="48" fill="white" transform="translate(0 4)"/>
</clipPath>
</defs>
</svg>
