<svg width="159" height="56" viewBox="0 0 159 56" fill="none" xmlns="http://www.w3.org/2000/svg">
<path d="M4.49902 47.7962V15.0859L11.4321 12.2037V24.3608C11.4321 24.3608 14.0199 24.3608 18.3169 24.3608C23.6858 24.3608 26.3703 30.4152 26.3703 35.7841C26.3703 42.0802 22.6621 47.7918 16.5111 47.7918C9.28365 47.7962 4.49902 47.7962 4.49902 47.7962ZM11.1377 29.7825V42.0846C11.1377 42.0846 12.2098 42.5239 13.7739 42.5239C15.338 42.5239 19.9249 41.4519 19.9249 36.1532C19.9249 30.8545 17.4821 29.3431 13.9672 29.3431C12.1614 29.3431 11.1377 29.7825 11.1377 29.7825Z" fill="#00CED5"/>
<path d="M36.5727 47.7962H30.0306V24.1191H36.5727V47.7962ZM29.2969 18.2361C29.2969 20.3846 31.0411 22.1288 33.1896 22.1288C35.3381 22.1288 37.0823 20.3846 37.0823 18.2361C37.0823 16.0876 35.3381 14.3434 33.1896 14.3434C31.0411 14.3434 29.2969 16.0876 29.2969 18.2361Z" fill="#00CED5"/>
<path d="M50.7286 24.3608C56.7127 24.3608 61.5676 29.6068 61.5676 36.0786C61.5676 42.5503 56.7171 47.7963 50.7286 47.7963C44.7402 47.7963 39.8896 42.5503 39.8896 36.0786C39.8896 29.6068 44.7446 24.3608 50.7286 24.3608ZM46.48 36.0786C46.48 39.6374 48.4352 42.524 50.8473 42.524C53.2593 42.524 55.2145 39.6374 55.2145 36.0786C55.2145 32.5197 53.2593 29.6332 50.8473 29.6332C48.4352 29.6332 46.48 32.5197 46.48 36.0786Z" fill="#00CED5"/>
<path d="M143.679 24.3608C149.663 24.3608 154.518 29.6068 154.518 36.0786C154.518 42.5503 149.667 47.7963 143.679 47.7963C137.695 47.7963 132.84 42.5503 132.84 36.0786C132.84 29.6068 137.69 24.3608 143.679 24.3608ZM139.43 36.0786C139.43 39.6374 141.385 42.524 143.797 42.524C146.21 42.524 148.165 39.6374 148.165 36.0786C148.165 32.5197 146.21 29.6332 143.797 29.6332C141.385 29.6332 139.43 32.5197 139.43 36.0786Z" fill="#00CED5"/>
<path d="M65.0342 47.7962V24.1191H77.4109C81.8177 24.1191 85.3941 27.6911 85.3941 32.1023V47.7962H78.6104V32.4889C78.6104 30.9116 77.3318 29.6331 75.7545 29.6331H71.7739V47.7918H65.0342V47.7962Z" fill="#00CED5"/>
<path d="M101.352 42.4756C102.67 42.4756 104.621 42.1813 107.16 41.2059C107.16 41.2059 107.648 43.06 108.184 45.9905C107.257 47.2119 102.96 47.7963 100.13 47.7963C89.6824 47.7963 88.8037 38.763 88.8037 36.0786C88.8037 33.3941 90.4645 24.3608 99.445 24.3608C109.208 24.3608 109.55 33.8334 109.55 36.0786C109.55 37.6427 109.55 38.082 109.55 38.082H94.9547C94.9591 42.0363 100.034 42.4756 101.352 42.4756ZM94.9591 33.7368H103.404C103.404 33.7368 102.89 29.3432 99.1814 29.3432C95.4732 29.3432 94.9591 33.7368 94.9591 33.7368Z" fill="#00CED5"/>
<path d="M133.28 47.7963L125.235 35.916L132.84 24.3608H125.811L121.61 30.5646L117.414 24.3608H110.385L117.99 35.916L109.945 47.7963H117.414L121.61 41.4168L125.811 47.7963H133.28Z" fill="#00CED5"/>
</svg>
