<svg width="151" height="56" viewBox="0 0 151 56" fill="none" xmlns="http://www.w3.org/2000/svg">
<g clip-path="url(#clip0)">
<path fill-rule="evenodd" clip-rule="evenodd" d="M45.5449 33.3972C46.4089 33.3972 47.1164 33.7689 47.1164 34.222C47.1164 34.6752 46.4089 35.0469 45.5449 35.0469C44.6777 35.0469 43.9703 34.6752 43.9703 34.222C43.9703 33.7656 44.6745 33.3972 45.5449 33.3972ZM39.4941 43.1223C39.6799 42.366 42.8977 35.6239 43.2824 36.038C43.9051 35.8163 45.0396 35.6174 45.007 36.4944C44.1724 38.5744 42.7021 41.1858 41.9131 43.2918C41.4991 43.7189 39.7614 43.5853 39.4941 43.1223ZM6.09685 54.1482C6.10337 53.6918 6.2729 53.2712 6.40657 52.8409C6.863 51.664 10.2242 42.9365 10.6839 41.7661C10.6774 41.7302 10.6709 41.7009 10.6709 41.6715C7.90625 43.0636 4.36244 44.0743 3.50502 40.2371L2.22377 43.1321C1.83255 43.895 0.147038 44.1525 -0.00292969 43.0245C1.52283 39.1416 3.47568 35.1675 4.7341 31.2162C5.14488 30.6261 6.05447 30.199 6.78801 30.3261C6.8956 30.5543 6.9445 30.6587 6.93798 30.913C3.81473 46.0304 10.4916 42.1019 14.8537 31.1151C15.2971 30.1859 15.6035 29.3057 16.3697 28.6178C16.9467 28.3211 18.2964 27.6463 18.2671 29.0416C15.584 34.6296 10.3775 48.4853 8.4344 54.3829C7.90625 55.599 6.11316 55.2697 6.09685 54.1482ZM21.1426 45.9913C19.607 44.6546 19.0593 41.753 20.5427 40.2566C21.2567 39.3503 22.8802 39.2362 23.9267 38.9884C25.2406 38.8678 25.2406 38.8678 25.8926 38.8482C26.8544 37.0127 27.8063 35.1512 28.8985 33.3972C29.3615 32.9212 31.5458 32.3409 31.2295 33.5961C30.4503 35.0566 29.0876 37.5963 28.4942 38.8841C31.5621 39.1286 34.5353 39.4937 37.5738 39.9958C37.5966 39.973 37.626 39.9599 37.6586 39.9469C41.2285 31.7639 24.9765 26.6584 23.6724 32.5887C23.6007 32.9082 23.6985 33.2016 23.7963 33.5081C24.0017 34.134 24.3049 34.6882 24.8102 35.187C25.5275 36.615 21.1263 36.765 21.1458 33.3907C21.1458 33.1234 21.2012 32.944 21.3056 32.6963C23.0693 28.6015 30.5808 28.0668 34.7701 29.4785C35.6536 29.7752 36.6838 30.4598 37.3587 31.0792C48.1433 40.9967 28.9441 52.8539 21.1426 45.9913ZM37.2511 40.6478C32.514 48.6353 19.2647 44.0547 22.9487 41.5639C24.3897 40.5892 29.782 40.2762 37.2511 40.6478ZM46.3926 41.1955C45.9655 40.6218 50.2135 36.6085 50.6015 36.8008C50.22 37.8245 47.3543 40.8304 46.3926 41.1955ZM56.5774 43.5038C55.2863 43.2201 54.2105 42.6007 53.2292 41.7302C53.1705 41.7204 53.1151 41.7107 53.0629 41.7107C51.5208 42.8159 49.0529 44.4981 47.6836 42.6952C47.6412 42.6398 47.5793 42.5974 47.5271 42.5453C47.5043 42.4083 47.576 42.4931 47.475 42.4051C45.9459 43.6863 44.3843 44.0482 43.1129 42.5094C43.2041 39.9795 47.9184 36.4976 49.8745 35.7282C51.2111 35.3761 55.1885 36.1162 52.9716 38.1799C52.362 38.3168 52.362 38.3168 52.2316 38.3853C52.1892 38.4537 50.4124 41.2021 50.4711 41.5998C51.0644 41.4987 51.8208 40.9804 52.4044 40.8467C52.4272 40.6185 52.2707 40.4164 52.362 40.1621C53.0107 39.5263 54.4354 39.3014 55.2929 39.6567C55.2505 40.8956 55.2048 41.101 56.4665 41.978C56.4959 41.9715 56.535 41.9715 56.5709 41.9747C56.5774 41.8019 56.5774 41.8019 56.4437 41.2673C55.8373 39.6926 54.931 39.171 55.0614 37.4366C55.3874 36.602 55.671 36.0575 56.6263 35.8C57.8782 35.7087 59.6354 35.4413 60.8156 36.0803C61.7969 36.9312 61.81 37.3942 61.2557 38.4863C60.5678 39.2557 60.5678 39.2557 60.4146 39.3796C59.8734 39.5035 58.4129 39.6633 58.4455 38.7765C58.5726 38.607 60.0592 37.0193 59.3159 36.69C58.7682 36.3444 58.1846 36.4259 57.7543 36.9541C57.1935 39.2557 58.9443 40.4685 59.0681 42.7278C58.7878 43.7809 57.4446 43.4288 56.5774 43.5038ZM93.4402 41.3423C93.0131 40.7685 97.2611 36.3542 97.649 36.5465C97.2643 37.5702 94.4019 40.9804 93.4402 41.3423ZM65.8721 44.4655C61.1579 39.5003 80.97 40.5403 80.9276 40.5631C82.2121 42.8126 74.1497 48.3386 66.4785 44.9121C66.2144 44.7948 66.071 44.6774 65.8721 44.4655ZM68.702 37.3453C68.3401 37.267 67.9195 37.1432 67.7174 36.9573C67.6489 36.8954 67.6587 36.8628 67.6815 36.7715C67.8771 36.1423 69.266 35.738 69.7778 35.7217L68.702 37.3453ZM71.0884 37.342L72.0828 35.5978C73.0445 35.5196 74.228 35.8815 75.1767 36.0901C75.6983 36.2531 76.2232 36.4161 76.7481 36.5857C76.7481 36.6085 76.7481 36.6313 76.7448 36.6606C74.8604 37.1888 73.0217 37.1595 71.0884 37.342ZM67.6261 35.1903C66.7002 34.0623 65.9308 33.4266 66.7948 31.9204C71.0069 27.2844 83.8911 30.7826 78.8607 35.4544C78.6944 35.4479 78.6879 35.4479 76.647 34.8513C75.4049 34.4894 74.0323 34.4242 72.7544 34.2677C72.9337 33.9123 73.4488 32.9375 73.3738 32.7745C73.3379 32.7028 73.2401 32.6995 73.1782 32.68C72.8717 32.6017 71.9719 32.6343 71.5383 33.0125C71.4829 33.0712 70.7265 34.4176 70.6711 34.4828C69.6409 34.6654 68.6205 34.8871 67.6261 35.1903ZM70.4885 38.8026C74.7333 38.7146 79.2649 39.5459 80.4451 39.6893C80.2788 39.1156 78.6422 37.4822 78.1336 37.2964C75.9004 38.0169 72.2751 38.4961 70.5537 38.6102L70.4885 38.8026ZM122.792 39.4025C123.359 39.4155 124.021 39.2883 124.585 39.3764C124.024 40.2957 122.866 41.3977 121.989 42.0236C121.07 42.0921 122.622 39.6861 122.792 39.4025ZM123.695 38.0951C123.74 37.6583 124.979 36.8889 125.328 36.8497C125.429 37.3388 125.445 37.5702 125.299 38.0495C125.048 38.1049 123.695 38.1114 123.695 38.0951ZM94.7312 42.8419C94.6888 42.7865 94.6269 42.7441 94.5747 42.692C94.5486 42.555 94.6236 42.6398 94.5225 42.5518C93.0652 43.7743 91.5753 44.159 90.3397 42.8615C90.193 42.7083 90.1767 42.4018 90.2224 42.2029C89.554 42.5779 87.9892 43.331 86.7079 43.6276C85.544 43.8982 84.4062 43.2886 85.0094 42.0106C85.3386 40.7065 87.5947 38.1636 88.2891 37.5344C88.3804 37.4496 87.5621 37.3974 87.3469 37.43C86.8318 37.8897 84.6866 40.0936 83.9498 41.0945C83.8618 41.2118 83.7542 41.3194 83.7411 41.4531C83.6433 42.3594 83.6336 43.2429 82.6164 44.2373C77.5077 49.2351 65.0538 49.76 62.4652 44.609C62.3772 44.4296 62.3316 44.2438 62.3088 44.0482C61.9404 40.8532 64.467 39.4872 67.7565 39.0112L67.926 38.7537C66.9186 38.6396 65.846 38.6004 65.1842 37.7821C65.0701 37.642 65.0636 37.5213 65.0995 37.3485C65.2494 36.6476 65.8656 36.2107 66.459 35.7967C66.459 35.7576 66.4687 35.7217 66.4785 35.6924C65.4744 35.813 65.0701 35.5848 64.4214 34.4079C62.299 28.0734 78.0717 26.6128 81.7427 31.2781C82.9457 33.3548 82.1828 34.7991 80.4581 36.1358C80.4581 36.1781 80.4549 36.2238 80.4614 36.2792C81.6774 37.1334 82.3849 37.8734 83.138 39.1123C83.3792 39.1351 84.9507 37.3551 85.1724 37.016C85.4267 36.4585 85.7918 35.8 86.4047 35.575C86.8742 35.4674 87.3306 35.4576 87.699 35.4316C88.4325 35.3761 87.9207 35.8652 87.8294 36.3444C88.664 36.1292 92.2111 35.2555 91.4515 37.0356C91.4547 37.166 89.2932 38.6852 88.9574 39.0308C88.7422 39.2525 86.8807 41.3651 87.686 41.489C87.7577 41.515 87.9337 41.4759 88.1619 41.3944C88.8531 41.1564 89.9974 40.7652 90.0789 40.5631C90.343 40.299 90.4995 40.4164 90.506 40.524L90.5386 41.3618C91.696 38.9688 95.2887 36.1162 96.9351 35.4707C98.2717 35.1186 102.249 35.8619 100.029 37.9223C99.4193 38.0593 99.4193 38.0593 99.2889 38.1277C99.2465 38.1962 96.9057 41.2868 96.9677 41.6846C97.6816 41.5639 101.555 39.5198 101.992 39.9143C102.005 39.9241 102.014 39.9371 102.024 39.9502C103.077 38.5939 104.088 37.2312 105.196 35.9173C105.63 35.4055 106.843 35.6141 107.038 36.3183C107.104 36.5531 106.533 36.9019 106.481 37.2181C107.185 36.8139 111.498 34.685 110.99 37.029C110.338 38.5548 108.75 40.0121 107.896 41.4335C107.889 41.4792 107.876 41.5248 107.876 41.5705C108.267 41.5639 109.959 40.6674 110.817 40.3055C111.104 40.1849 111.202 40.5989 111.254 40.4913C111.306 40.4718 111.361 40.4555 111.413 40.4457C111.456 40.2794 111.508 40.1164 111.557 39.9567C112.535 37.8441 114.087 35.7804 116.483 35.3761C118.077 35.4348 119.642 35.3012 119.857 37.2377C119.662 38.3755 118.883 39.0112 117.924 39.5981C116.861 39.9893 116.219 39.8393 115.675 39.1156C115.697 39.0504 115.723 38.9884 115.756 38.9297C116.379 38.4668 117.699 37.5474 117.35 36.5596C115.352 36.4879 113.379 41.8802 114.181 41.6976C115.655 41.3618 118.944 40.0056 120.144 38.9754C121.077 37.7854 121.908 36.3835 123.378 35.826C123.577 35.7804 123.776 35.7348 123.972 35.6956C124.441 35.7119 124.441 35.7119 126.12 35.9271C127.291 36.2042 127.656 36.7552 127.848 37.9126C134.078 37.893 140.54 37.1725 146.855 36.9508C147.5 36.3509 150.721 38.47 150.242 39.5231C144.938 39.5003 132.621 39.0112 127.568 39.1547C127.529 39.184 127.493 39.2134 127.46 39.2427C126.469 40.8761 124.852 43.0408 122.906 43.5624C120.982 43.494 119.072 43.2821 119.127 40.9673C117.82 42.0073 115.72 43.3081 114.067 43.6179C112.581 43.4614 111.694 43.2234 111.205 41.4303C111.012 41.5313 111.352 42.0236 111.061 42.229C110.034 42.9528 105.32 44.8828 104.818 42.9267C104.831 42.5713 108.613 37.7332 108.368 37.9223C108.121 36.6346 102.425 43.1647 102.187 43.3896C101.313 43.8917 100.391 43.8102 99.6117 43.1549C99.6541 42.8452 99.8594 42.7017 100.006 42.4279C100.225 42.1736 100.443 41.9193 100.658 41.6618C98.8814 43.0278 95.9179 44.4068 94.7312 42.8419ZM16.3142 41.7889C17.1814 41.7889 17.8889 42.2258 17.8889 42.7637C17.8889 43.3016 17.1814 43.7385 16.3142 43.7385C15.447 43.7385 14.7396 43.3016 14.7396 42.7637C14.7396 42.2258 15.4503 41.7889 16.3142 41.7889ZM99.2628 16.8388L112.339 9.50014L112.542 9.7577L99.5008 16.9692C99.9279 16.9985 100.355 17.0768 100.795 17.1453L101.033 16.9399L114.11 9.59795L114.309 9.85876L101.059 17.1844C101.692 17.2724 102.347 17.3148 103.051 17.142L115.062 10.4L115.26 10.6575L102.924 17.481C102.823 17.5919 102.728 17.6995 102.657 17.7647C102.49 17.9277 102.23 18.1494 102.06 18.2798C97.6849 21.6769 94.6464 20.5065 90.7635 20.9499C92.2371 20.9205 93.5673 21.8986 95.3343 21.5465C95.1517 21.6867 94.7964 22.0225 94.6138 22.1627C94.4312 22.3028 94.1476 22.4985 93.965 22.6093C88.8857 25.7162 85.932 23.7504 81.547 24.034C84.3378 22.9484 86.9361 21.7095 89.9289 21.0672C89.9126 21.0705 89.8931 21.0738 89.8768 21.077C92.6186 19.6425 95.1387 18.0679 98.1674 17.1029C98.4902 17.0018 98.8064 16.9594 99.1226 16.9562L99.2628 16.8388ZM97.6751 11.1726L110.305 2.00501L110.592 2.22344L97.4795 11.6193C97.2806 12.0724 97.0785 12.506 96.8014 12.8972L110.002 3.3156L110.289 3.53077L95.8136 13.9014L96.0124 13.6862C93.6162 15.5999 91.0146 16.8323 88.4032 18.3059C91.396 15.0913 91.7416 11.5606 97.3622 9.59143C97.5643 9.51971 97.8935 9.4219 98.1185 9.36974C98.3271 9.32084 98.7542 9.26541 98.9955 9.21651L111.006 0.498806L111.293 0.713978L98.2978 10.0218C98.0435 10.3934 97.8512 10.7847 97.6751 11.1726ZM71.9784 25.1066C74.8637 23.9818 77.7033 23.1146 80.4223 21.4617C81.9024 20.5619 82.0948 18.6612 83.8194 17.6115C83.5879 17.631 83.1021 17.6245 82.8707 17.6441C82.6392 17.6636 82.3001 17.7125 82.0915 17.7549C76.2493 18.9057 75.4016 22.3517 71.9784 25.1066ZM118.084 0C84.0932 27.7245 45.1472 36.6443 30.5612 20.1218C30.7046 20.3109 30.8513 20.5032 31.0046 20.6891C45.2092 37.9484 84.6344 29.1329 118.993 1.10846L118.837 0.916109L106.869 9.75118L118.641 0.678116L118.495 0.502067L106.735 9.18391L118.306 0.270594L118.084 0ZM80.8591 22.0877C83.552 20.5652 86.2417 19.3002 88.6966 17.2789C90.0333 16.1802 89.9485 14.2665 91.5069 12.9853C91.2819 13.0374 90.7994 13.0994 90.5745 13.1515C90.3495 13.2004 90.0202 13.3015 89.8181 13.37C84.2008 15.3424 83.852 18.8731 80.8591 22.0877ZM55.5732 53.1865C55.5732 52.6453 55.6482 52.2508 55.7949 51.9932C55.9449 51.7357 56.1764 51.6118 56.4861 51.6118C56.7893 51.6118 57.011 51.7422 57.1577 51.9998C57.3044 52.2606 57.3794 52.6551 57.3794 53.1865C57.3794 53.7146 57.3044 54.1091 57.1577 54.3699C57.011 54.6307 56.7893 54.7611 56.4861 54.7611C56.1764 54.7611 55.9449 54.634 55.7949 54.3764C55.6482 54.1189 55.5732 53.7244 55.5732 53.1865ZM55.984 53.1865C55.984 53.6266 56.0231 53.9396 56.1014 54.1254C56.1796 54.308 56.3068 54.4025 56.4828 54.4025C56.6491 54.4025 56.7697 54.308 56.848 54.1124C56.923 53.92 56.9621 53.6103 56.9621 53.1865C56.9621 52.7594 56.923 52.4464 56.848 52.2541C56.7697 52.0584 56.6491 51.9639 56.4828 51.9639C56.3068 51.9639 56.1796 52.0584 56.1014 52.2443C56.0231 52.4301 55.984 52.7431 55.984 53.1865ZM51.8338 50.5392C51.7882 50.7153 51.7165 50.8489 51.6219 50.9435C51.5241 51.0348 51.41 51.0837 51.2731 51.0837C51.2503 51.0837 51.2242 51.0804 51.1981 51.0771C51.172 51.0706 51.1361 51.0608 51.0905 51.0511L50.8656 50.9728C50.8427 50.9663 50.8199 50.9598 50.7938 50.9565C50.7677 50.9532 50.7417 50.95 50.7156 50.95C50.6504 50.95 50.595 50.9663 50.5493 50.9956C50.5069 51.025 50.4678 51.0706 50.4385 51.1358H50.1907C50.2331 50.9598 50.3015 50.8294 50.3961 50.7381C50.4939 50.6501 50.6113 50.6044 50.7547 50.6044C50.7808 50.6044 50.8069 50.6044 50.8362 50.6109C50.8656 50.6142 50.8949 50.624 50.921 50.6338L51.1427 50.712C51.1753 50.7218 51.2046 50.7283 51.2372 50.7348C51.2666 50.7381 51.2926 50.7413 51.3155 50.7413C51.3839 50.7413 51.4393 50.725 51.485 50.6924C51.5306 50.6598 51.5665 50.6109 51.5893 50.5457H51.8338V50.5392ZM51.41 54.4156C51.3122 54.5134 51.2046 54.5883 51.0872 54.6372C50.9699 54.6894 50.8493 54.7155 50.7221 54.7155C50.4972 54.7155 50.3178 54.647 50.1874 54.5101C50.057 54.3732 49.9918 54.1906 49.9918 53.9559C49.9918 53.6625 50.1125 53.4082 50.357 53.1897C50.5982 52.9713 50.9503 52.805 51.41 52.6877V52.6192V52.4986C51.41 52.3062 51.3741 52.1693 51.3057 52.0878C51.2339 52.003 51.1198 51.9639 50.9601 51.9639C50.8232 51.9639 50.7156 52.0063 50.6406 52.0943C50.5624 52.1823 50.5102 52.329 50.4743 52.5312L50.0864 52.4692C50.132 52.1921 50.2298 51.9802 50.3765 51.8368C50.5232 51.69 50.7188 51.6183 50.9536 51.6183C51.2568 51.6183 51.4752 51.6966 51.6121 51.8531C51.7491 52.0095 51.8175 52.2671 51.8175 52.6192V53.9917C51.8175 54.1124 51.824 54.2297 51.8306 54.3438C51.8403 54.4579 51.8534 54.5753 51.8697 54.6861H51.4589L51.41 54.4156ZM51.41 53.0691C51.0872 53.1408 50.8395 53.2549 50.6602 53.4114C50.4809 53.5679 50.3928 53.7505 50.3928 53.9624C50.3928 54.0798 50.4287 54.1743 50.5069 54.2493C50.5819 54.3275 50.6765 54.3634 50.7938 54.3634C50.8851 54.3634 50.9862 54.334 51.0938 54.2786C51.1981 54.2232 51.3057 54.145 51.4133 54.0406V53.0691H51.41ZM44.7951 55.8826V55.6349C44.9483 55.6707 45.0787 55.6968 45.1961 55.7131C45.3102 55.7327 45.4113 55.7392 45.4928 55.7392C45.6069 55.7392 45.6884 55.7196 45.7471 55.6772C45.8058 55.6381 45.8351 55.5794 45.8351 55.5012C45.8351 55.4034 45.8025 55.3349 45.7406 55.286C45.6786 55.2436 45.5808 55.2208 45.4471 55.2208H45.3624C45.3428 55.2241 45.3233 55.2241 45.3037 55.2273V54.6829H45.5091V54.9828H45.5743C45.7829 54.9828 45.9427 55.0252 46.0503 55.11C46.1579 55.1947 46.21 55.3186 46.21 55.4816C46.21 55.6479 46.1513 55.7783 46.034 55.8663C45.9166 55.9544 45.7438 55.9967 45.5123 55.9967C45.4243 55.9967 45.32 55.9869 45.2026 55.9706C45.082 55.9511 44.9483 55.9218 44.7951 55.8826ZM45.9949 52.541C45.9851 52.3453 45.9427 52.1986 45.8677 52.1008C45.7927 52.0063 45.6851 51.9574 45.5417 51.9574C45.3656 51.9574 45.2352 52.0519 45.157 52.2443C45.0755 52.4366 45.0364 52.7496 45.0364 53.1897C45.0364 53.6331 45.0755 53.9461 45.1537 54.1319C45.232 54.3145 45.3624 54.409 45.5449 54.409C45.6884 54.409 45.7992 54.3471 45.8775 54.2297C45.9557 54.1091 46.0014 53.933 46.0112 53.7081H46.3796C46.3796 54.0309 46.3013 54.2884 46.1513 54.4808C45.9981 54.6731 45.796 54.7677 45.5482 54.7677C45.2352 54.7677 45.007 54.6405 44.8571 54.3829C44.7071 54.1254 44.6354 53.7277 44.6354 53.193C44.6354 52.6551 44.7103 52.2573 44.8571 52.003C45.007 51.7455 45.2352 51.6216 45.5482 51.6216C45.7862 51.6216 45.9818 51.7031 46.1285 51.8694C46.2752 52.0356 46.3535 52.2606 46.3665 52.5475H45.9949V52.541ZM40.4591 54.6829V51.677H40.8633V54.6829H40.4591ZM40.4591 50.4968H40.8666V50.9728H40.4591V50.4968ZM36.1491 54.0048V52.3225C36.0676 52.1954 35.9861 52.1008 35.9014 52.0356C35.8166 51.9737 35.7318 51.9411 35.6405 51.9411C35.4743 51.9411 35.3536 52.0356 35.2721 52.228C35.1972 52.4203 35.158 52.7235 35.158 53.1408C35.158 53.5809 35.1972 53.9004 35.2721 54.0961C35.3471 54.2917 35.471 54.3895 35.6373 54.3895C35.7286 54.3895 35.8166 54.3569 35.9014 54.2917C35.9894 54.2265 36.0709 54.1319 36.1491 54.0048ZM36.5501 54.6829H36.1491V54.4058C36.0578 54.5199 35.9633 54.6046 35.8622 54.6633C35.7612 54.722 35.6634 54.7514 35.559 54.7514C35.2917 54.7514 35.0896 54.6144 34.9526 54.3471C34.8125 54.0798 34.744 53.6885 34.744 53.1767C34.744 52.6714 34.8125 52.2834 34.9526 52.0128C35.0896 51.7455 35.2917 51.6085 35.5525 51.6085C35.6568 51.6085 35.7612 51.6379 35.859 51.6933C35.9568 51.752 36.0513 51.8368 36.1491 51.9476V50.4936H36.5501V54.6829ZM30.5645 54.4123C30.4667 54.5101 30.3591 54.5818 30.2417 54.6372C30.1243 54.6894 30.0037 54.7122 29.8766 54.7122C29.6516 54.7122 29.4723 54.6438 29.3419 54.5068C29.2115 54.3699 29.1495 54.1873 29.1495 53.9526C29.1495 53.6592 29.2702 53.4049 29.5114 53.1832C29.7527 52.9648 30.1048 52.7985 30.5645 52.6811V52.6127V52.4888C30.5645 52.2997 30.5319 52.1628 30.4601 52.078C30.3884 51.9932 30.2743 51.9509 30.1146 51.9509C29.9776 51.9509 29.8733 51.9965 29.7951 52.0813C29.7168 52.1693 29.6614 52.316 29.6288 52.5181L29.2408 52.4562C29.2865 52.1791 29.3843 51.9672 29.5342 51.8237C29.6809 51.677 29.8766 51.6053 30.1113 51.6053C30.4145 51.6053 30.6329 51.6835 30.7698 51.84C30.9068 51.9965 30.9752 52.2541 30.9752 52.6062V53.9787C30.9752 54.0993 30.9818 54.2167 30.9883 54.3308C30.9981 54.4449 31.0078 54.5623 31.0274 54.6731H30.6134L30.5645 54.4123ZM30.5645 53.0691C30.2417 53.1408 29.9939 53.2549 29.8146 53.4114C29.6353 53.5679 29.5473 53.7505 29.5473 53.9624C29.5473 54.0798 29.5864 54.1743 29.6614 54.2493C29.7364 54.3275 29.8309 54.3634 29.9483 54.3634C30.0428 54.3634 30.1406 54.334 30.245 54.2819C30.3525 54.2265 30.4601 54.145 30.5677 54.0439V53.0691H30.5645ZM24.5625 54.6829V51.677H24.9667V52.0226C25.0711 51.8791 25.1754 51.7748 25.2862 51.7096C25.3971 51.6444 25.5177 51.6118 25.6546 51.6118C25.6644 51.6118 25.6775 51.6118 25.697 51.6151C25.7166 51.6151 25.7329 51.6183 25.7427 51.6183V52.0063C25.7329 52.0063 25.7166 52.0063 25.697 52.003C25.6775 51.9998 25.6612 51.9998 25.6546 51.9998C25.5047 51.9998 25.3775 52.0356 25.2634 52.1139C25.1526 52.1889 25.0548 52.3062 24.97 52.4692V54.6829H24.5625ZM69.7648 54.3732L69.5398 54.7024C69.442 54.6405 69.354 54.572 69.2725 54.4971C69.1877 54.4253 69.116 54.3471 69.0475 54.2688C68.9139 54.4416 68.7704 54.5655 68.6139 54.647C68.4607 54.7253 68.2879 54.7677 68.0956 54.7677C67.8119 54.7677 67.5805 54.6698 67.3979 54.4742C67.2186 54.2786 67.1273 54.0243 67.1273 53.7146C67.1273 53.506 67.1795 53.3006 67.2773 53.1017C67.3783 52.8996 67.5511 52.6648 67.7924 52.4008C67.7011 52.1856 67.6326 51.9867 67.5837 51.8009C67.5381 51.6151 67.5153 51.4423 67.5153 51.276C67.5153 51.0087 67.5772 50.8033 67.7076 50.6533C67.8347 50.5033 68.0141 50.4316 68.239 50.4316C68.4509 50.4316 68.627 50.5033 68.7639 50.6468C68.9008 50.7902 68.9693 50.9761 68.9693 51.2043C68.9693 51.3934 68.9171 51.5857 68.8095 51.7748C68.702 51.9639 68.5259 52.1823 68.2781 52.4301C68.3629 52.629 68.464 52.8279 68.5846 53.0202C68.702 53.2125 68.8356 53.4049 68.9856 53.5907C69.0443 53.4668 69.0899 53.3299 69.1193 53.1832C69.1519 53.0365 69.1682 52.867 69.1779 52.6779L69.5626 52.6942C69.5594 52.9322 69.53 53.1473 69.4811 53.3495C69.429 53.5516 69.3573 53.7374 69.2594 53.9037C69.3279 53.9819 69.4029 54.0569 69.4844 54.1352C69.5724 54.2167 69.667 54.2949 69.7648 54.3732ZM68.7672 54.0178C68.6205 53.8418 68.4835 53.6494 68.3531 53.4408C68.2227 53.2354 68.0956 53.0137 67.9782 52.7724C67.8282 52.9028 67.7174 53.043 67.6424 53.1962C67.5674 53.3495 67.5283 53.5125 67.5283 53.682C67.5283 53.8841 67.587 54.0471 67.7011 54.1743C67.8185 54.3014 67.9652 54.3634 68.1477 54.3634C68.2651 54.3634 68.3727 54.334 68.4705 54.2786C68.5716 54.2265 68.6693 54.1384 68.7672 54.0178ZM68.1184 52.0845C68.2716 51.9378 68.389 51.7911 68.4607 51.6477C68.5357 51.5042 68.5715 51.3575 68.5715 51.2043C68.5715 51.0608 68.5422 50.9532 68.4803 50.8717C68.4216 50.7902 68.3368 50.7511 68.2358 50.7511C68.1282 50.7511 68.0434 50.7935 67.9847 50.8815C67.9228 50.9663 67.8934 51.0837 67.8934 51.2336C67.8934 51.364 67.913 51.4977 67.9489 51.6411C67.988 51.7813 68.0434 51.9313 68.1184 52.0845ZM124.823 52.9061H125.784V52.792C125.784 52.4986 125.748 52.2867 125.677 52.1562C125.605 52.0258 125.484 51.9639 125.321 51.9606C125.162 51.9606 125.041 52.0389 124.963 52.1889C124.878 52.3421 124.836 52.5801 124.823 52.9061ZM125.791 53.7081H126.169C126.153 54.0439 126.071 54.3047 125.921 54.4905C125.771 54.6764 125.572 54.7709 125.325 54.7709C125.015 54.7709 124.783 54.6438 124.637 54.3862C124.487 54.1287 124.415 53.7309 124.415 53.193C124.415 52.6518 124.49 52.2573 124.637 51.9998C124.787 51.7455 125.018 51.6183 125.325 51.6183C125.615 51.6183 125.833 51.7324 125.98 51.9672C126.127 52.1986 126.198 52.5475 126.198 53.0072C126.198 53.0724 126.198 53.118 126.198 53.1506C126.198 53.1832 126.195 53.2158 126.192 53.2452H124.823C124.823 53.6657 124.865 53.9656 124.943 54.1417C125.021 54.321 125.149 54.409 125.328 54.409C125.471 54.409 125.582 54.3503 125.66 54.2297C125.739 54.1091 125.784 53.9363 125.791 53.7081ZM120.236 54.0113L120.239 52.3323C120.157 52.2052 120.076 52.1106 119.991 52.0454C119.906 51.9835 119.818 51.9509 119.73 51.9509C119.564 51.9509 119.44 52.0454 119.365 52.2378C119.287 52.4301 119.248 52.7333 119.248 53.1506C119.248 53.5907 119.287 53.9102 119.362 54.1058C119.437 54.3014 119.561 54.396 119.73 54.396C119.821 54.396 119.91 54.3634 119.994 54.2982C120.076 54.233 120.157 54.1384 120.236 54.0113ZM120.637 54.6927H120.232V54.4156C120.141 54.5297 120.046 54.6177 119.949 54.6764C119.848 54.7351 119.746 54.7644 119.645 54.7644C119.378 54.7644 119.176 54.6275 119.039 54.3601C118.899 54.0895 118.827 53.6983 118.827 53.1897C118.827 52.6844 118.896 52.2932 119.039 52.0226C119.176 51.7553 119.375 51.6183 119.636 51.6183C119.74 51.6183 119.841 51.6477 119.942 51.7031C120.043 51.7618 120.138 51.8465 120.236 51.9574V50.5033H120.637V54.6927ZM114.651 54.4188C114.553 54.5166 114.445 54.5883 114.331 54.6405C114.214 54.6894 114.093 54.7155 113.963 54.7155C113.738 54.7155 113.559 54.647 113.432 54.5101C113.301 54.3764 113.236 54.1906 113.236 53.9591C113.236 53.6624 113.357 53.4082 113.601 53.1897C113.842 52.9713 114.194 52.805 114.654 52.6877V52.6192V52.4986C114.654 52.3095 114.621 52.1726 114.55 52.0878C114.481 52.003 114.364 51.9639 114.204 51.9639C114.064 51.9639 113.96 52.0095 113.885 52.0943C113.81 52.1823 113.754 52.329 113.718 52.5312L113.327 52.4692C113.373 52.1921 113.471 51.9802 113.617 51.8368C113.767 51.69 113.96 51.6183 114.198 51.6183C114.501 51.6183 114.719 51.6966 114.853 51.8531C114.99 52.0095 115.058 52.2671 115.058 52.6192V53.9917C115.058 54.1124 115.062 54.2297 115.068 54.3438C115.078 54.4579 115.091 54.572 115.107 54.6861H114.696L114.651 54.4188ZM114.651 53.0756C114.331 53.1441 114.08 53.2615 113.901 53.4179C113.725 53.5744 113.634 53.757 113.634 53.9656C113.634 54.083 113.67 54.1808 113.748 54.2558C113.823 54.334 113.917 54.3699 114.035 54.3699C114.126 54.3699 114.227 54.3406 114.335 54.2851C114.442 54.2297 114.547 54.1482 114.654 54.0471V53.0756H114.651ZM109.069 54.0113V52.329C108.988 52.2019 108.906 52.1073 108.822 52.0421C108.737 51.9802 108.652 51.9476 108.561 51.9476C108.395 51.9476 108.274 52.0421 108.196 52.2345C108.121 52.4268 108.082 52.73 108.082 53.1473C108.082 53.5875 108.121 53.907 108.196 54.1026C108.271 54.2982 108.395 54.396 108.561 54.396C108.652 54.396 108.74 54.3634 108.825 54.2982C108.91 54.233 108.991 54.1352 109.069 54.0113ZM109.467 54.6894H109.066V54.4123C108.972 54.5264 108.88 54.6112 108.779 54.6698C108.678 54.7285 108.577 54.7579 108.476 54.7579C108.209 54.7579 108.007 54.6242 107.866 54.3536C107.726 54.083 107.658 53.6918 107.658 53.1832C107.658 52.6779 107.729 52.2867 107.866 52.0161C108.007 51.7487 108.205 51.6118 108.466 51.6118C108.571 51.6118 108.675 51.6411 108.773 51.6966C108.871 51.7552 108.968 51.84 109.063 51.9509V50.4968H109.464V54.6894H109.467ZM103.485 54.6894V51.6835H103.889V54.6894H103.485ZM103.485 50.5001H103.889V50.9761H103.485V50.5001ZM99.1748 54.6894V50.5001H99.5791V54.6894H99.1748ZM94.8649 54.4156C94.7671 54.5134 94.6595 54.5883 94.5421 54.6372C94.428 54.6894 94.3041 54.7155 94.177 54.7155C93.952 54.7155 93.7727 54.647 93.6423 54.5101C93.5152 54.3732 93.4499 54.1906 93.4499 53.9591C93.4499 53.6624 93.5738 53.4082 93.8151 53.1897C94.0563 52.9713 94.4084 52.805 94.8649 52.6877V52.6225V52.5018C94.8649 52.3127 94.8323 52.1758 94.7605 52.091C94.6921 52.0095 94.5747 51.9672 94.415 51.9672C94.278 51.9672 94.1737 52.0128 94.0955 52.0976C94.0205 52.1856 93.965 52.3323 93.9259 52.5344L93.538 52.4692C93.5836 52.1921 93.6847 51.9835 93.8281 51.8368C93.9748 51.69 94.1704 51.6183 94.4084 51.6183C94.7084 51.6183 94.9268 51.6966 95.067 51.8531C95.2007 52.0095 95.2724 52.2638 95.2724 52.6192V53.9917C95.2724 54.1124 95.2756 54.2297 95.2854 54.3438C95.2952 54.4612 95.3082 54.5753 95.3245 54.6861H94.9138L94.8649 54.4156ZM94.8649 53.0724C94.5421 53.1441 94.2943 53.2582 94.115 53.4147C93.9357 53.5712 93.8477 53.7537 93.8477 53.9624C93.8477 54.0798 93.8835 54.1743 93.9618 54.2493C94.0368 54.3275 94.1313 54.3634 94.2454 54.3634C94.3367 54.3634 94.4378 54.334 94.5454 54.2786C94.6529 54.2232 94.7573 54.1417 94.8649 54.0406V53.0724ZM89.6844 51.6803V54.6861H89.2867V54.3732C89.1628 54.5101 89.0487 54.6079 88.9346 54.6698C88.8205 54.7318 88.6999 54.7611 88.5727 54.7611C88.3738 54.7611 88.2304 54.6992 88.1359 54.572C88.0413 54.4449 87.9924 54.2493 87.9924 53.9885V51.677H88.3901V53.8483C88.3901 54.0602 88.4162 54.2036 88.4684 54.2851C88.5173 54.3634 88.6021 54.4058 88.7259 54.4058C88.827 54.4058 88.9281 54.3699 89.0226 54.3014C89.1204 54.233 89.2085 54.1352 89.2834 54.0113V51.677H89.6844V51.6803ZM83.4379 54.1841C83.3825 54.1058 83.3238 54.0439 83.2717 53.9982C83.2163 53.9559 83.1608 53.9233 83.1021 53.9102L83.1576 53.5712C83.2293 53.5777 83.3043 53.607 83.3695 53.6527C83.4379 53.6983 83.5129 53.7733 83.5977 53.8711C83.6466 53.7472 83.6825 53.594 83.7085 53.4082C83.7281 53.2223 83.7411 52.9909 83.7411 52.7072C83.7411 52.0291 83.6857 51.5433 83.5749 51.2499C83.464 50.9532 83.2847 50.8065 83.0435 50.8065C82.7957 50.8065 82.6131 50.9467 82.5055 51.2238C82.3979 51.501 82.3425 51.9574 82.3425 52.5899C82.3425 53.206 82.3979 53.6559 82.5121 53.9428C82.6262 54.2297 82.8022 54.3732 83.0467 54.3732C83.1152 54.3732 83.1836 54.3569 83.2521 54.3243C83.3141 54.2949 83.376 54.246 83.4379 54.1841ZM83.6303 54.5655C83.5423 54.634 83.4445 54.6829 83.3499 54.7187C83.2521 54.7513 83.151 54.7709 83.0435 54.7709C82.662 54.7709 82.3751 54.5883 82.1795 54.2167C81.9872 53.8483 81.8861 53.3071 81.8861 52.5899C81.8861 51.8726 81.9839 51.3314 82.1795 50.9663C82.3751 50.6012 82.662 50.4186 83.0435 50.4186C83.4216 50.4186 83.7118 50.6011 83.9074 50.9695C84.103 51.3347 84.1976 51.8759 84.1976 52.5931C84.1976 52.9974 84.1715 53.3332 84.1161 53.5972C84.0606 53.8613 83.9726 54.0993 83.8487 54.3145C83.9139 54.4253 83.9856 54.5068 84.0574 54.5655C84.1356 54.6209 84.2171 54.6503 84.3084 54.6568V55.0285C84.1454 55.0024 84.0085 54.9502 83.8976 54.8752C83.7835 54.797 83.6955 54.6959 83.6303 54.5655ZM20.1547 54.6829V50.8522H19.3169V50.4936H21.4229V50.8522H20.5851V54.6829H20.1547ZM72.7837 26.6584C75.7276 25.7162 78.4825 24.6013 81.6351 24.1709C83.3499 23.9395 84.6964 25.2957 86.6981 25.0251C86.5058 25.1522 86.1341 25.4652 85.9418 25.5956C85.7494 25.726 85.456 25.9021 85.2669 25.9999C79.9985 28.7906 77.1752 26.6454 72.7837 26.6584Z" fill="#00205C"/>
</g>
<defs>
<clipPath id="clip0">
<rect width="150.281" height="56" fill="white"/>
</clipPath>
</defs>
</svg>
