<svg width="175" height="56" viewBox="0 0 175 56" fill="none" xmlns="http://www.w3.org/2000/svg">
<path d="M70.7063 33.8082C69.7239 33.8082 68.8989 34.1396 68.2265 34.8048C67.5517 35.4701 67.2131 36.2855 67.2131 37.256C67.2131 38.2264 67.5517 39.0443 68.2265 39.7071C68.8989 40.3724 69.7239 40.7109 70.7063 40.7181C71.6767 40.7181 72.5041 40.3843 73.1908 39.7143C73.8799 39.0443 74.2232 38.224 74.2232 37.2536C74.2232 36.2831 73.8799 35.4653 73.1908 34.8024C72.5041 34.1396 71.6743 33.8082 70.7063 33.8082ZM72.1727 38.8011C71.7769 39.2088 71.2881 39.4138 70.7039 39.4138C70.1078 39.4138 69.6166 39.2088 69.2351 38.8011C68.8488 38.3933 68.6557 37.8831 68.6557 37.2727C68.6557 36.6527 68.8488 36.1401 69.2423 35.73C69.6309 35.3199 70.1245 35.1124 70.7182 35.1029C71.3024 35.1124 71.7888 35.3222 72.1798 35.73C72.5685 36.1377 72.7664 36.6503 72.7664 37.2727C72.7664 37.8831 72.5685 38.3933 72.1727 38.8011ZM62.6566 10.5008C60.8635 8.76737 58.7033 7.90184 56.1758 7.90184C53.6222 7.90184 51.4643 8.76737 49.707 10.5008C47.9521 12.2343 47.0723 14.3659 47.0723 16.8957C47.0723 19.4256 47.9497 21.5572 49.707 23.2906C51.4643 25.0241 53.6198 25.9039 56.1758 25.9254C58.7033 25.9254 60.8659 25.0527 62.6566 23.3073C64.4496 21.562 65.3462 19.4232 65.3462 16.8933C65.3462 14.3635 64.4496 12.2343 62.6566 10.5008ZM60.0052 20.9206C58.9751 21.9864 57.6971 22.5205 56.1758 22.5205C54.6308 22.5205 53.3503 21.9888 52.3441 20.9206C51.3355 19.8547 50.8324 18.5266 50.8324 16.9339C50.8324 15.3173 51.3427 13.9772 52.3608 12.909C53.379 11.8432 54.6618 11.2996 56.2092 11.2757C57.7328 11.2996 59.0037 11.8432 60.0218 12.909C61.04 13.9749 61.5502 15.3173 61.5502 16.9339C61.5526 18.5266 61.0352 19.8547 60.0052 20.9206ZM82.869 40.5726H84.2829V33.956H82.869V40.5726ZM83.5819 30.5463C83.3125 30.5463 83.086 30.6393 82.8952 30.8229C82.7069 31.0089 82.6139 31.2306 82.6139 31.4905C82.6139 31.7528 82.7069 31.9722 82.8952 32.151C83.0836 32.3298 83.3125 32.4204 83.5819 32.4204C83.8442 32.4204 84.0683 32.3298 84.2591 32.151C84.4451 31.9698 84.5405 31.7504 84.5405 31.4905C84.5405 31.2306 84.4451 31.0089 84.2591 30.8229C84.0683 30.6393 83.8442 30.5463 83.5819 30.5463ZM78.7345 35.1148C79.445 35.1148 80.0387 35.451 80.5156 36.1258L81.5147 35.3437C81.2238 34.8692 80.8375 34.4925 80.3606 34.2183C79.879 33.9464 79.333 33.8082 78.7226 33.8082C77.7426 33.8082 76.9128 34.1396 76.2356 34.8048C75.5561 35.4701 75.2175 36.2855 75.2175 37.256C75.2175 38.2264 75.5561 39.0466 76.2356 39.7167C76.9152 40.3867 77.7426 40.7205 78.7226 40.7205C79.9434 40.7205 80.8709 40.2078 81.5147 39.1849L80.5156 38.4172C80.0292 39.0824 79.4355 39.4138 78.7345 39.4138C78.1336 39.4138 77.6353 39.2088 77.2442 38.8011C76.8532 38.3933 76.6577 37.8783 76.6577 37.2584C76.6577 36.6575 76.8532 36.1496 77.2442 35.7347C77.6353 35.3222 78.1336 35.1148 78.7345 35.1148ZM64.2398 34.8191V33.956H62.9189V40.5726H64.3328V37.0414C64.3328 36.4572 64.5164 36.0066 64.8836 35.687C65.2532 35.3699 65.7158 35.2078 66.2737 35.2078H66.7053V33.956C66.5431 33.9107 66.3667 33.8892 66.1664 33.8892C65.3462 33.8892 64.7048 34.1992 64.2398 34.8191ZM59.7643 34.9002C59.235 34.173 58.4529 33.8082 57.4229 33.8082C56.4953 33.8082 55.7276 34.1181 55.1148 34.7381C54.502 35.358 54.1992 36.152 54.1992 37.1248C54.1992 38.0953 54.502 38.8893 55.1148 39.5092C55.7276 40.1292 56.493 40.4391 57.4229 40.4391C58.3719 40.4391 59.1205 40.1292 59.657 39.5092V39.967C59.657 40.587 59.4782 41.0567 59.1182 41.3762C58.7581 41.6957 58.2789 41.8531 57.6732 41.8531C56.9007 41.8531 56.1305 41.5383 55.3556 40.9112L54.5735 41.896C55.4653 42.7305 56.524 43.1478 57.7543 43.1478C58.7605 43.1478 59.564 42.864 60.1649 42.2989C60.7658 41.7338 61.071 40.9279 61.071 39.8859V33.956H59.7596V34.9002H59.7643ZM59.0872 38.6604C58.6914 39.0204 58.224 39.1992 57.6756 39.1992C57.1034 39.1992 56.6217 39.0085 56.2354 38.627C55.8492 38.2455 55.656 37.7448 55.656 37.1248C55.656 36.5144 55.8492 36.0185 56.2354 35.6417C56.6217 35.265 57.1057 35.0766 57.6756 35.0766C58.224 35.0766 58.6937 35.2483 59.0872 35.5893C59.4758 35.9303 59.669 36.4381 59.669 37.1129C59.669 37.7829 59.4758 38.3003 59.0872 38.6604ZM75.9567 25.9278C78.1122 25.9278 79.8981 25.2315 81.3144 23.8367C82.7331 22.4418 83.4413 20.5987 83.4413 18.3025V8.28811H79.7502V18.5839C79.7502 19.7785 79.3878 20.7346 78.6629 21.4475C77.9333 22.1628 77.0344 22.5181 75.9567 22.5181C74.8312 22.5181 73.9013 22.1604 73.1622 21.4475C72.4278 20.7346 72.0558 19.7785 72.0558 18.5839V8.28811H68.403V18.3025C68.403 20.5987 69.1159 22.4418 70.5465 23.8367C71.9724 25.2315 73.7797 25.9278 75.9567 25.9278ZM50.1076 33.8082C48.9106 33.8082 47.9783 34.2803 47.3155 35.2221L48.1381 36.0566C48.6936 35.4009 49.304 35.0719 49.9693 35.0719C50.4199 35.0719 50.7657 35.1935 51.0113 35.4367C51.2616 35.6799 51.3832 36.0304 51.3832 36.4882V36.9198H49.5115C48.7652 36.9198 48.1739 37.0891 47.7327 37.43C47.2916 37.7734 47.0746 38.2312 47.0746 38.8058C47.0746 39.3805 47.2869 39.843 47.7065 40.1935C48.1309 40.544 48.6865 40.7181 49.378 40.7181C50.2936 40.7181 50.9993 40.4224 51.4929 39.8287V40.5703H52.8139V36.5693C52.8139 35.6799 52.5659 34.998 52.0723 34.5211C51.5787 34.0466 50.923 33.8082 50.1076 33.8082ZM51.3832 38.0667C51.3832 38.5149 51.2163 38.8893 50.8849 39.1849C50.5511 39.483 50.1505 39.6308 49.676 39.6308C49.3303 39.6308 49.0561 39.5545 48.8367 39.4019C48.6221 39.2493 48.5148 39.0347 48.5148 38.7557C48.5148 38.2169 48.9035 37.9474 49.6856 37.9474H51.3832V38.0667ZM130.714 25.5415H134.403V8.28811H130.714V25.5415ZM109.097 30.5463C108.83 30.5463 108.601 30.6393 108.41 30.8229C108.225 31.0089 108.127 31.2306 108.127 31.4905C108.127 31.7528 108.225 31.9722 108.41 32.151C108.599 32.3298 108.83 32.4204 109.097 32.4204C109.359 32.4204 109.581 32.3298 109.774 32.151C109.96 31.9698 110.056 31.7504 110.056 31.4905C110.056 31.2306 109.96 31.0089 109.774 30.8229C109.581 30.6393 109.359 30.5463 109.097 30.5463ZM114.19 33.8082C112.996 33.8082 112.066 34.2803 111.401 35.2221L112.223 36.0566C112.779 35.4009 113.391 35.0719 114.057 35.0719C114.505 35.0719 114.851 35.1935 115.101 35.4367C115.349 35.6799 115.468 36.0304 115.468 36.4882V36.9198H113.597C112.853 36.9198 112.257 37.0891 111.818 37.43C111.377 37.7734 111.157 38.2312 111.157 38.8058C111.157 39.3805 111.37 39.843 111.792 40.1935C112.211 40.544 112.772 40.7181 113.461 40.7181C114.376 40.7181 115.084 40.4224 115.576 39.8287V40.5703H116.897V36.5693C116.897 35.6799 116.651 34.998 116.155 34.5211C115.664 34.0466 115.008 33.8082 114.19 33.8082ZM115.468 38.0667C115.468 38.5149 115.304 38.8893 114.97 39.1849C114.641 39.483 114.233 39.6308 113.759 39.6308C113.418 39.6308 113.139 39.5545 112.922 39.4019C112.707 39.2493 112.597 39.0347 112.597 38.7557C112.597 38.2169 112.986 37.9474 113.771 37.9474H115.466V38.0667H115.468ZM121.25 1.49262C120.149 2.4893 119.598 3.99384 119.598 6.00864V8.28811V11.4856V25.5415H123.289V11.4856H128.065V8.28811H123.289V6.32577C123.289 5.22418 123.57 4.45164 124.133 4.00576C124.696 3.56227 125.538 3.33814 126.663 3.33814C127.085 3.33814 128.065 3.33814 128.065 3.33814V0C128.065 0 126.663 0 125.75 0C123.852 0 122.352 0.498336 121.25 1.49262ZM171.835 10.5008C170.044 8.76737 167.884 7.90184 165.352 7.90184C162.798 7.90184 160.643 8.76737 158.885 10.5008C157.128 12.2343 156.251 14.3659 156.251 16.8957C156.251 19.4256 157.128 21.5572 158.885 23.2906C160.643 25.0241 162.798 25.9039 165.352 25.9254C167.884 25.9254 170.044 25.0527 171.835 23.3073C173.626 21.562 174.522 19.4232 174.522 16.8933C174.522 14.3635 173.626 12.2343 171.835 10.5008ZM169.181 20.9206C168.151 21.9864 166.873 22.5205 165.352 22.5205C163.804 22.5205 162.526 21.9888 161.523 20.9206C160.516 19.8547 160.013 18.5266 160.013 16.9339C160.013 15.3173 160.521 13.9772 161.539 12.909C162.56 11.8432 163.843 11.2996 165.388 11.2757C166.909 11.2996 168.182 11.8432 169.198 12.909C170.218 13.9749 170.726 15.3173 170.726 16.9339C170.726 18.5266 170.214 19.8547 169.181 20.9206ZM146.799 7.90184C144.644 7.90184 142.924 8.60285 141.634 10.0096V8.28811H138.189V25.5415H141.88V15.2457C141.88 14.075 142.25 13.1141 142.986 12.363C143.726 11.6143 144.67 11.24 145.812 11.24C146.94 11.24 147.846 11.6096 148.537 12.3463C149.226 13.0855 149.572 14.0488 149.572 15.2457V25.5415H153.263V14.7522C153.263 12.6921 152.691 11.0325 151.542 9.78074C150.395 8.52894 148.814 7.90184 146.799 7.90184ZM132.579 0C131.875 0 131.277 0.240823 130.786 0.720083C130.294 1.19934 130.046 1.77875 130.046 2.4583C130.046 3.13785 130.292 3.71248 130.786 4.17982C131.277 4.64716 131.875 4.88321 132.579 4.88321C133.258 4.88321 133.842 4.64955 134.334 4.17982C134.825 3.71248 135.073 3.13785 135.073 2.4583C135.073 1.77875 134.827 1.19934 134.334 0.720083C133.842 0.240823 133.258 0 132.579 0ZM89.159 31.5764L91.0498 32.728L91.6197 31.7314L89.159 30.2387L86.6983 31.7314L87.2944 32.728L89.159 31.5764ZM97.4257 11.5571V8.28811C97.0036 8.17128 96.5339 8.11167 96.0212 8.11167C93.8872 8.11167 92.2134 8.91997 90.9926 10.5366V8.28811H87.5495V25.5415H91.2382V16.3354C91.2382 14.8118 91.7198 13.6363 92.6807 12.8041C93.6393 11.972 94.8457 11.5571 96.2978 11.5571H97.4257ZM96.9082 33.8082C96.0809 33.8082 95.4204 34.0776 94.9244 34.6165V33.956H93.6059V40.5726H95.0198V36.6241C95.0198 36.1735 95.1629 35.8063 95.4466 35.5201C95.7256 35.2316 96.088 35.0886 96.5291 35.0886C96.9631 35.0886 97.3088 35.2292 97.5759 35.5154C97.8382 35.7967 97.9693 36.1687 97.9693 36.6265V40.575H99.388V36.4381C99.388 35.6489 99.171 35.0123 98.7275 34.533C98.284 34.049 97.6784 33.8082 96.9082 33.8082ZM89.1328 33.8082C88.1719 33.8082 87.3612 34.142 86.6983 34.812C86.0402 35.482 85.7112 36.3022 85.7112 37.2703C85.7112 38.2503 86.0474 39.0705 86.7198 39.7286C87.3922 40.389 88.2434 40.7181 89.2663 40.7181C90.2725 40.7181 91.1523 40.3628 91.9058 39.6547L91.2334 38.6842C90.6421 39.2064 90.0007 39.4663 89.3092 39.4663C88.7346 39.4663 88.2505 39.3137 87.8643 39.0085C87.478 38.7009 87.242 38.2765 87.149 37.7281H92.0823C92.1538 37.4133 92.1896 37.1177 92.1896 36.8387C92.1896 35.9684 91.901 35.2459 91.3192 34.6689C90.7446 34.0943 90.0126 33.8082 89.1328 33.8082ZM87.18 36.6241C87.2849 36.1305 87.5114 35.7371 87.8595 35.4462C88.2029 35.1553 88.6106 35.0075 89.0779 35.0075C89.5548 35.0075 89.9554 35.1553 90.2773 35.4462C90.6015 35.7371 90.7661 36.1329 90.7756 36.6241H87.18ZM104.25 35.1148C104.956 35.1148 105.552 35.451 106.026 36.1258L107.023 35.3437C106.734 34.8692 106.355 34.4925 105.874 34.2183C105.389 33.9464 104.846 33.8082 104.233 33.8082C103.255 33.8082 102.428 34.1396 101.749 34.8048C101.071 35.4701 100.733 36.2855 100.733 37.256C100.733 38.2264 101.071 39.0466 101.749 39.7167C102.428 40.3867 103.255 40.7205 104.233 40.7205C105.456 40.7205 106.384 40.2078 107.02 39.1849L106.024 38.4172C105.542 39.0824 104.946 39.4138 104.247 39.4138C103.644 39.4138 103.146 39.2088 102.757 38.8011C102.366 38.3933 102.171 37.8783 102.171 37.2584C102.171 36.6575 102.366 36.1496 102.757 35.7347C103.151 35.3222 103.647 35.1148 104.25 35.1148ZM116.505 16.8981C116.505 14.3683 115.609 12.2366 113.818 10.5032C112.023 8.76976 109.863 7.90423 107.333 7.90423C104.781 7.90423 102.626 8.76976 100.869 10.5032C99.1114 12.2366 98.2316 14.3683 98.2316 16.8981C98.2316 19.4279 99.1114 21.5596 100.869 23.293C102.624 25.0265 104.779 25.9063 107.333 25.9278C109.863 25.9278 112.023 25.0551 113.818 23.3097C115.609 21.5644 116.505 19.4279 116.505 16.8981ZM111.164 20.9206C110.132 21.9864 108.856 22.5205 107.333 22.5205C105.788 22.5205 104.512 21.9888 103.503 20.9206C102.497 19.8547 101.994 18.5266 101.994 16.9339C101.994 15.3173 102.504 13.9772 103.525 12.909C104.543 11.8432 105.826 11.2996 107.371 11.2757C108.892 11.2996 110.165 11.8432 111.186 12.909C112.204 13.9749 112.712 15.3173 112.712 16.9339C112.71 18.5266 112.195 19.8547 111.164 20.9206ZM108.382 40.5726H109.798V33.956H108.382V40.5726Z" fill="#002C58"/>
<path d="M12.1413 15.4866L0 21.0613V26.4833L17.1366 18.3598L12.1413 15.4866ZM0 41.1378L12.8256 43.4005V43.2789L0 35.3914V41.1378ZM0 8.49795V13.2643L4.70439 11.2066L0 8.49795ZM5.85843 11.8695L0 14.4518V19.8738L11.0302 14.8476L5.85843 11.8695ZM39.266 24.8787L10.6606 7.86609H1.22796V7.94477L34.0633 26.9602L39.266 24.8787ZM0.00715315 27.666L29.3112 46.3071L38.9155 48V47.8879L4.5041 25.5201L0.00715315 27.666ZM0 34.0633L16.0016 43.9609L26.3713 45.7897V45.6729L0 28.9917V34.0633ZM12.8399 7.86609V7.94239L40.3986 24.428V19.354L21.686 7.86609H12.8399ZM23.7294 7.86609V7.94L40.3962 18.231V13.1546L32.0413 7.86609H23.7294ZM33.9655 7.86609V7.93762L40.3986 12.0316V7.86609H33.9655ZM33.3647 43.0739L40.3986 39.9265V33.1954L26.9984 38.9131L33.3647 43.0739ZM40.3986 47.671V40.9446L34.3065 43.689L40.3986 47.671ZM26.0136 38.2693L40.3962 32.1772V25.4461L19.3588 33.9178L26.0136 38.2693Z" fill="url(#paint0_linear)"/>
<defs>
<linearGradient id="paint0_linear" x1="40.0014" y1="11.7259" x2="5.33789" y2="40.361" gradientUnits="userSpaceOnUse">
<stop stop-color="#006325"/>
<stop offset="0.7" stop-color="#65B32E"/>
<stop offset="1" stop-color="#AFCA0B"/>
</linearGradient>
</defs>
</svg>
