<svg width="183" height="56" viewBox="0 0 183 56" fill="none" xmlns="http://www.w3.org/2000/svg">
<path d="M8.36994 21.4947C8.36994 19.6163 8.63697 17.7932 9.14339 16.0897C8.56331 16.5317 8.01084 17.0105 7.486 17.5353C4.5211 20.5002 2.7348 24.1373 2.33887 27.9033C5.09198 33.5108 11.0126 37.065 17.7342 37.065C18.2683 37.065 18.8023 37.0374 19.3272 36.9913C12.937 34.7262 8.36994 28.6399 8.36994 21.4947Z" fill="#E42313"/>
<path d="M34.3725 22.2773C33.4425 30.0763 27.172 36.2363 19.3086 36.9729C21.0212 37.5806 22.872 37.9121 24.7964 37.9121C28.5808 37.9121 32.089 36.9269 34.9157 35.0209C36.4258 30.8958 36.2416 26.2919 34.3725 22.2773Z" fill="url(#paint0_linear)"/>
<path d="M31.0488 17.5262C32.4668 18.9442 33.5809 20.5555 34.382 22.2774C34.4557 21.6236 34.5017 20.9515 34.5017 20.2793C34.5017 13.3182 30.837 7.27796 24.7415 4.68138C24.5389 4.67217 24.3363 4.66296 24.1338 4.66296C16.5282 4.66296 11.0772 9.53386 9.14355 16.0714C15.6718 11.0716 25.0638 11.5504 31.0488 17.5262Z" fill="url(#paint1_linear)"/>
<path d="M34.9156 35.0302C32.098 36.9362 28.5807 37.9214 24.7963 37.9214C22.8719 37.9214 21.0303 37.5899 19.3085 36.9822C18.7836 37.0283 18.2496 37.0559 17.7155 37.0559C11.0031 37.0559 5.08251 33.5017 2.32019 27.8942C2.03475 30.6749 2.50434 33.5201 3.80264 36.2272C7.49494 41.4019 13.5444 44.772 20.3858 44.772C23.4243 44.772 26.3064 44.0998 28.903 42.912C34.888 40.1589 39.2985 34.5882 40.4679 27.9126C39.3445 30.9511 37.4017 33.3544 34.9156 35.0302Z" fill="url(#paint2_linear)"/>
<path d="M23.5903 4.24861C22.5406 4.09208 21.4725 4 20.386 4C11.1138 4 3.28717 10.1968 0.81949 18.6679C0.28544 20.4819 0 22.3971 0 24.386C0 28.8057 1.40879 32.8847 3.8028 36.2271C2.50451 33.5293 2.04412 30.6841 2.33877 27.9033C2.74391 24.1373 4.52101 20.5003 7.4859 17.5354C8.01074 17.0105 8.57242 16.5317 9.1433 16.0898C11.0769 9.54307 16.5279 4.68137 24.1335 4.68137C24.3361 4.68137 24.5387 4.69058 24.7412 4.69979C24.3637 4.52484 23.977 4.38673 23.5903 4.24861Z" fill="url(#paint3_linear)"/>
<path d="M25.9659 4.78265C25.1925 4.56167 24.4006 4.38672 23.5903 4.25781C23.9863 4.38672 24.3638 4.53405 24.7413 4.69058C30.8368 7.28716 34.5015 13.3182 34.5015 20.2885C34.5015 20.9607 34.4555 21.6328 34.3818 22.2866C36.251 26.3012 36.4259 30.905 34.9251 35.0301C37.4112 33.3543 39.354 30.9511 40.4681 27.9033C40.6707 26.7616 40.772 25.583 40.772 24.386C40.772 15.0585 34.5107 7.20429 25.9659 4.78265Z" fill="url(#paint4_linear)"/>
<path d="M56.3972 32.6913C56.296 32.7834 56.1855 32.8386 56.0473 32.8386H53.5705C53.4323 32.8386 53.3219 32.7926 53.2206 32.6913C53.1193 32.59 53.0732 32.4795 53.0732 32.3414V14.7546C53.0732 14.6257 53.1193 14.506 53.2206 14.4232C53.3219 14.3311 53.4323 14.285 53.5705 14.285H56.0473C56.1855 14.285 56.296 14.3311 56.3972 14.4232C56.4985 14.5152 56.5446 14.6257 56.5446 14.7546V32.3414C56.5446 32.4703 56.4985 32.59 56.3972 32.6913Z" fill="#E42313"/>
<path d="M70.4394 32.673C70.3382 32.7835 70.2185 32.8295 70.0895 32.8295H67.7968C67.6587 32.8295 67.5482 32.7743 67.4469 32.673C67.3456 32.5625 67.2996 32.4428 67.2996 32.3047V24.165C67.2996 23.6126 67.2812 23.1614 67.2351 22.8023C67.1983 22.4432 67.1062 22.1577 66.9589 21.9552C66.8208 21.7526 66.609 21.5961 66.3236 21.504C66.0381 21.4119 65.6606 21.3659 65.1726 21.3659C64.7398 21.3659 64.2979 21.4487 63.8375 21.6053C63.3771 21.7618 62.8799 21.9828 62.355 22.2682V32.3047C62.355 32.4428 62.2998 32.5625 62.2077 32.673C62.1064 32.7835 61.9867 32.8295 61.8578 32.8295H59.5651C59.427 32.8295 59.3165 32.7743 59.2152 32.673C59.1139 32.5625 59.0679 32.4428 59.0679 32.3047V19.2481C59.0679 19.1192 59.1139 18.9995 59.2152 18.8982C59.3165 18.7969 59.4362 18.7509 59.5651 18.7509H61.7381C61.867 18.7509 61.9867 18.7969 62.088 18.8982C62.1893 18.9995 62.2353 19.11 62.2353 19.2481V19.7729C62.6036 19.5427 62.9351 19.3494 63.2482 19.2021C63.552 19.0547 63.8651 18.935 64.1874 18.843C64.5004 18.7509 64.8319 18.6864 65.1634 18.6404C65.4949 18.6036 65.8724 18.5759 66.2867 18.5759C67.1891 18.5759 67.9165 18.7233 68.4874 18.9995C69.0491 19.2849 69.491 19.6716 69.7949 20.1781C70.0988 20.6753 70.3105 21.2646 70.4302 21.9552C70.5499 22.6365 70.6052 23.3824 70.6052 24.1742V32.3139C70.5868 32.452 70.5407 32.5717 70.4394 32.673Z" fill="#E42313"/>
<path d="M79.7024 32.8663C79.3985 32.9123 79.1131 32.9584 78.8368 32.986C78.5606 33.0228 78.2844 33.0412 77.9989 33.0412C77.2991 33.0412 76.7006 32.986 76.1942 32.8939C75.6878 32.7926 75.2826 32.5993 74.9696 32.3046C74.6565 32.0192 74.4263 31.614 74.2698 31.0984C74.1225 30.5828 74.0488 29.9106 74.0488 29.0727V21.2185L71.7008 20.8686C71.5627 20.841 71.4522 20.7765 71.3509 20.6936C71.2496 20.6108 71.2036 20.5003 71.2036 20.3714V19.248C71.2036 19.1191 71.2496 18.9994 71.3509 18.8981C71.4522 18.7968 71.5719 18.7508 71.7008 18.7508H74.0488V16.7067C74.0488 16.5686 74.0948 16.4673 74.1961 16.3844C74.2974 16.3015 74.4079 16.2371 74.546 16.2095L76.848 15.8043H76.9492C77.2071 15.8043 77.3452 15.9332 77.3452 16.1818V18.76H79.5919C79.73 18.76 79.8405 18.806 79.9418 18.9073C80.043 19.0086 80.0891 19.1191 80.0891 19.2572V20.7305C80.0891 20.8686 80.043 20.9791 79.9418 21.0804C79.8405 21.1816 79.73 21.2277 79.5919 21.2277H77.3452V29.0727C77.3452 29.3858 77.3544 29.6436 77.3728 29.8277C77.3912 30.0119 77.428 30.15 77.5017 30.2513C77.5662 30.3526 77.6674 30.417 77.7964 30.4354C77.9253 30.4631 78.1002 30.4723 78.3212 30.4723H79.6471C79.997 30.4723 80.172 30.6012 80.172 30.8498V32.4243C80.1812 32.6637 80.0154 32.811 79.7024 32.8663Z" fill="#E42313"/>
<path d="M92.4643 26.9458H84.2971V27.0194C84.2971 27.3877 84.3431 27.7561 84.4352 28.1336C84.5273 28.5111 84.6838 28.8518 84.9048 29.1556C85.135 29.4595 85.4388 29.7173 85.8163 29.9015C86.2031 30.0948 86.6911 30.1869 87.2896 30.1869C88.2012 30.1869 89.0667 30.1593 89.877 30.0948C90.6872 30.0396 91.3502 29.9843 91.8843 29.9291H91.9579C92.0868 29.9291 92.1973 29.9567 92.2802 30.0212C92.3631 30.0764 92.3999 30.1777 92.3999 30.3066V31.9548C92.3999 32.1574 92.3723 32.3047 92.3078 32.406C92.2526 32.5073 92.1052 32.5717 91.875 32.6085C91.4791 32.673 91.1016 32.7374 90.7517 32.7927C90.4018 32.8479 90.0519 32.9032 89.6928 32.9308C89.3337 32.9676 88.947 32.9953 88.5142 33.0045C88.0907 33.0229 87.5934 33.0321 87.0226 33.0321C86.4056 33.0321 85.7427 32.94 85.0429 32.7467C84.3339 32.5533 83.6801 32.2218 83.0909 31.7522C82.4923 31.2734 81.9951 30.6381 81.5992 29.8278C81.2217 29.0175 81.0283 28.0047 81.0283 26.7708V24.9201C81.0283 23.9348 81.1572 23.0601 81.4243 22.2774C81.6913 21.4948 82.078 20.8226 82.5844 20.2794C83.0909 19.7269 83.7262 19.3125 84.472 19.0179C85.2178 18.7233 86.0742 18.5759 87.0226 18.5759C87.9894 18.5759 88.8457 18.7325 89.5823 19.0363C90.3189 19.3402 90.9451 19.7821 91.4423 20.3438C91.9395 20.9147 92.317 21.5777 92.5748 22.3511C92.8326 23.1246 92.9616 23.9809 92.9616 24.9109V26.3104C92.9616 26.734 92.7958 26.9458 92.4643 26.9458ZM89.6652 24.4965C89.6652 23.5205 89.4258 22.7562 88.9286 22.2222C88.4406 21.6881 87.8052 21.4211 87.0134 21.4211C86.2215 21.4211 85.5769 21.6881 85.0705 22.2038C84.5641 22.7286 84.3155 23.4929 84.3155 24.4873V24.5886H89.656V24.4965H89.6652Z" fill="#E42313"/>
<path d="M101.387 21.2186C101.285 21.3198 101.166 21.3751 101.037 21.3751C100.356 21.3751 99.7386 21.458 99.1953 21.6145C98.6521 21.771 98.118 21.992 97.584 22.2774V32.3139C97.584 32.452 97.5287 32.5717 97.4366 32.6822C97.3354 32.7927 97.2157 32.8387 97.0775 32.8387H94.7848C94.6467 32.8387 94.5362 32.7835 94.4349 32.6822C94.3336 32.5717 94.2876 32.452 94.2876 32.3139V19.2481C94.2876 19.1192 94.3336 18.9995 94.4349 18.8982C94.5362 18.7969 94.6467 18.7509 94.7848 18.7509H96.9578C97.0868 18.7509 97.2065 18.7969 97.3077 18.8982C97.409 18.9995 97.4551 19.11 97.4551 19.2481V19.7729C98.072 19.2941 98.6981 18.9719 99.3242 18.8153C99.9596 18.6588 100.521 18.5759 101.028 18.5759C101.157 18.5759 101.276 18.6312 101.378 18.7233C101.479 18.8245 101.525 18.9442 101.525 19.0731V20.8687C101.534 21.0068 101.479 21.1265 101.387 21.2186Z" fill="#E42313"/>
<path d="M114.296 32.4519C114.204 32.5256 114.065 32.59 113.9 32.6361C113.798 32.6545 113.624 32.6913 113.384 32.7374C113.145 32.7834 112.85 32.8294 112.5 32.8755C112.15 32.9123 111.754 32.9491 111.322 32.986C110.889 33.0228 110.428 33.0412 109.95 33.0412C109.204 33.0412 108.412 32.9307 107.574 32.7189C106.736 32.5072 105.981 32.1112 105.29 31.5311C104.6 30.9603 104.029 30.1776 103.578 29.1924C103.127 28.2071 102.896 26.9457 102.896 25.3896V21.7157C102.896 20.1504 103.127 18.8705 103.578 17.8853C104.029 16.8908 104.6 16.1174 105.29 15.5465C105.981 14.9848 106.736 14.5981 107.574 14.3863C108.403 14.1745 109.195 14.0732 109.95 14.0732C110.428 14.0732 110.889 14.0917 111.322 14.1193C111.754 14.1561 112.141 14.1929 112.5 14.2298C112.85 14.2666 113.145 14.3126 113.384 14.3495C113.624 14.3955 113.798 14.4323 113.9 14.46C114.065 14.506 114.204 14.5705 114.296 14.6441C114.397 14.7178 114.452 14.8559 114.452 15.0308V16.7067C114.452 16.854 114.415 16.9829 114.342 17.0842C114.268 17.1855 114.139 17.2315 113.955 17.2315H113.9C113.688 17.2131 113.421 17.1947 113.117 17.167C112.813 17.1486 112.482 17.121 112.132 17.1026C111.782 17.0842 111.423 17.0658 111.064 17.0473C110.695 17.0289 110.346 17.0197 110.014 17.0197C109.498 17.0197 109.02 17.0934 108.568 17.2499C108.117 17.3972 107.74 17.6551 107.417 18.0234C107.104 18.3917 106.856 18.8705 106.672 19.469C106.488 20.0675 106.395 20.8133 106.395 21.6973V25.3712C106.395 26.2367 106.488 26.9733 106.672 27.5718C106.856 28.1703 107.104 28.6491 107.417 29.0174C107.74 29.3857 108.117 29.6435 108.568 29.8001C109.02 29.9658 109.498 30.0395 110.014 30.0395C110.346 30.0395 110.695 30.0303 111.064 30.0119C111.432 29.9934 111.782 29.975 112.132 29.9566C112.482 29.9382 112.813 29.9198 113.117 29.8922C113.421 29.8645 113.688 29.8461 113.9 29.8277H113.955C114.13 29.8277 114.259 29.8829 114.342 29.975C114.415 30.0763 114.452 30.2052 114.452 30.3525V32.0284C114.443 32.2493 114.397 32.3782 114.296 32.4519Z" fill="#E42313"/>
<path d="M126.735 26.9458H118.568V27.0194C118.568 27.3877 118.614 27.7561 118.706 28.1336C118.798 28.5111 118.955 28.8518 119.176 29.1556C119.406 29.4595 119.701 29.7173 120.087 29.9015C120.465 30.0948 120.962 30.1869 121.561 30.1869C122.472 30.1869 123.338 30.1593 124.148 30.0948C124.958 30.0396 125.63 29.9843 126.165 29.9291H126.238C126.376 29.9291 126.478 29.9567 126.56 30.0212C126.643 30.0764 126.689 30.1777 126.689 30.3066V31.9548C126.689 32.1574 126.662 32.3047 126.597 32.406C126.542 32.5073 126.395 32.5717 126.165 32.6085C125.759 32.673 125.391 32.7374 125.041 32.7927C124.691 32.8479 124.341 32.9032 123.982 32.9308C123.623 32.9676 123.236 32.9953 122.804 33.0045C122.38 33.0229 121.883 33.0321 121.321 33.0321C120.704 33.0321 120.051 32.94 119.342 32.7467C118.633 32.5533 117.979 32.2218 117.39 31.7522C116.791 31.2734 116.294 30.6381 115.898 29.8278C115.502 29.0175 115.309 28.0047 115.309 26.7708V24.9201C115.309 23.9348 115.447 23.0601 115.705 22.2774C115.972 21.4948 116.358 20.8226 116.865 20.2794C117.371 19.7269 117.997 19.3125 118.752 19.0179C119.507 18.7233 120.354 18.5759 121.303 18.5759C122.27 18.5759 123.126 18.7325 123.863 19.0363C124.608 19.3402 125.225 19.7821 125.723 20.3438C126.229 20.9147 126.597 21.5777 126.855 22.3511C127.113 23.1246 127.242 23.9809 127.242 24.9109V26.3104C127.233 26.734 127.067 26.9458 126.735 26.9458ZM123.936 24.4965C123.936 23.5205 123.697 22.7562 123.209 22.2222C122.721 21.6881 122.085 21.4211 121.294 21.4211C120.502 21.4211 119.857 21.6881 119.351 22.2038C118.844 22.7286 118.596 23.4929 118.596 24.4873V24.5886H123.945V24.4965H123.936Z" fill="#E42313"/>
<path d="M146.836 32.6729C146.735 32.7834 146.624 32.8295 146.486 32.8295H144.184C144.055 32.8295 143.936 32.7742 143.834 32.6729C143.733 32.5624 143.687 32.4427 143.687 32.3138V23.8427C143.687 23.3639 143.659 22.968 143.595 22.6549C143.54 22.351 143.438 22.1024 143.309 21.9183C143.171 21.7341 142.987 21.6052 142.757 21.5315C142.527 21.4579 142.232 21.4211 141.882 21.4211C141.652 21.4211 141.311 21.4671 140.879 21.5592C140.446 21.6512 140.004 21.8078 139.553 22.0472C139.58 22.3234 139.608 22.6181 139.626 22.9219C139.645 23.2166 139.654 23.5296 139.654 23.8427V32.3138C139.654 32.4427 139.599 32.5624 139.497 32.6729C139.396 32.7834 139.286 32.8295 139.147 32.8295H136.846C136.717 32.8295 136.597 32.7742 136.496 32.6729C136.394 32.5624 136.339 32.4427 136.339 32.3138V23.8427C136.339 23.3639 136.321 22.968 136.265 22.6549C136.219 22.351 136.127 22.1024 135.998 21.9183C135.879 21.7341 135.704 21.6052 135.474 21.5315C135.243 21.4579 134.958 21.4211 134.608 21.4211C134.111 21.4211 133.337 21.6973 132.306 22.2405V32.3138C132.306 32.4427 132.26 32.5624 132.159 32.6729C132.058 32.7834 131.938 32.8295 131.809 32.8295H129.507C129.378 32.8295 129.258 32.7742 129.157 32.6729C129.056 32.5624 129.01 32.4427 129.01 32.3046V19.248C129.01 19.1191 129.065 18.9994 129.157 18.8981C129.258 18.7968 129.378 18.7508 129.507 18.7508H131.68C131.809 18.7508 131.929 18.7968 132.03 18.8981C132.131 18.9994 132.177 19.1191 132.177 19.248V19.7729C132.711 19.4322 133.245 19.1559 133.807 18.9165C134.35 18.6771 135.004 18.5667 135.75 18.5667C136.468 18.5667 137.067 18.6679 137.536 18.8705C138.006 19.0731 138.392 19.3401 138.669 19.6992C139.295 19.3493 139.93 19.0731 140.547 18.8705C141.173 18.6771 141.919 18.5667 142.785 18.5667C143.632 18.5667 144.331 18.7048 144.865 18.981C145.409 19.2572 145.832 19.6347 146.127 20.1043C146.431 20.5831 146.633 21.1356 146.753 21.7617C146.873 22.3971 146.928 23.0784 146.928 23.8059V32.2954C146.992 32.4519 146.937 32.5716 146.836 32.6729Z" fill="#E42313"/>
<path d="M159.755 26.9458H151.588V27.0194C151.588 27.3877 151.634 27.7561 151.726 28.1336C151.818 28.5111 151.974 28.8518 152.195 29.1556C152.426 29.4595 152.729 29.7173 153.107 29.9015C153.494 30.0948 153.982 30.1869 154.58 30.1869C155.492 30.1869 156.357 30.1593 157.168 30.0948C157.978 30.0396 158.65 29.9843 159.175 29.9291H159.249C159.387 29.9291 159.488 29.9567 159.58 30.0212C159.663 30.0764 159.7 30.1777 159.7 30.3066V31.9548C159.7 32.1574 159.672 32.3047 159.617 32.406C159.562 32.5073 159.414 32.5717 159.184 32.6085C158.788 32.673 158.411 32.7374 158.061 32.7927C157.711 32.8479 157.361 32.9032 157.002 32.9308C156.643 32.9676 156.256 32.9953 155.832 33.0045C155.409 33.0229 154.912 33.0321 154.35 33.0321C153.733 33.0321 153.07 32.94 152.361 32.7467C151.652 32.5533 151.008 32.2218 150.409 31.7522C149.811 31.2734 149.313 30.6381 148.917 29.8278C148.521 29.0175 148.328 28.0047 148.328 26.7708V24.9201C148.328 23.9348 148.457 23.0601 148.724 22.2774C148.991 21.4948 149.378 20.8226 149.884 20.2794C150.391 19.7269 151.026 19.3125 151.772 19.0179C152.518 18.7233 153.374 18.5759 154.322 18.5759C155.289 18.5759 156.136 18.7325 156.882 19.0363C157.619 19.3402 158.245 19.7821 158.742 20.3438C159.249 20.9147 159.617 21.5777 159.875 22.3511C160.132 23.1246 160.261 23.9809 160.261 24.9109V26.3104C160.252 26.734 160.086 26.9458 159.755 26.9458ZM156.956 24.4965C156.956 23.5205 156.716 22.7562 156.228 22.2222C155.74 21.6881 155.105 21.4211 154.313 21.4211C153.521 21.4211 152.877 21.6881 152.37 22.2038C151.864 22.7286 151.615 23.4929 151.615 24.4873V24.5886H156.956V24.4965Z" fill="#E42313"/>
<path d="M172.958 32.673C172.857 32.7835 172.737 32.8295 172.608 32.8295H170.306C170.177 32.8295 170.057 32.7743 169.956 32.673C169.855 32.5625 169.809 32.4428 169.809 32.3047V24.165C169.809 23.6126 169.79 23.1614 169.744 22.8023C169.698 22.4432 169.616 22.1577 169.468 21.9552C169.33 21.7526 169.109 21.5961 168.833 21.504C168.547 21.4119 168.161 21.3659 167.682 21.3659C167.249 21.3659 166.807 21.4487 166.347 21.6053C165.886 21.7618 165.398 21.9828 164.864 22.2682V32.3047C164.864 32.4428 164.818 32.5625 164.717 32.673C164.616 32.7835 164.505 32.8295 164.367 32.8295H162.074C161.945 32.8295 161.826 32.7743 161.724 32.673C161.623 32.5625 161.577 32.4428 161.577 32.3047V19.2481C161.577 19.1192 161.623 18.9995 161.724 18.8982C161.826 18.7969 161.945 18.7509 162.074 18.7509H164.238C164.376 18.7509 164.496 18.7969 164.588 18.8982C164.689 18.9995 164.735 19.11 164.735 19.2481V19.7729C165.104 19.5427 165.435 19.3494 165.748 19.2021C166.052 19.0547 166.365 18.935 166.678 18.843C167.001 18.7509 167.323 18.6864 167.654 18.6404C167.986 18.6036 168.363 18.5759 168.778 18.5759C169.68 18.5759 170.407 18.7233 170.978 18.9995C171.549 19.2849 171.982 19.6716 172.295 20.1781C172.599 20.6753 172.811 21.2646 172.93 21.9552C173.041 22.6365 173.105 23.3824 173.105 24.1742V32.3139C173.114 32.452 173.059 32.5717 172.958 32.673Z" fill="#E42313"/>
<path d="M182.23 32.8663C181.926 32.9123 181.641 32.9584 181.365 32.986C181.088 33.0228 180.812 33.0412 180.527 33.0412C179.827 33.0412 179.228 32.986 178.722 32.8939C178.216 32.7926 177.81 32.5993 177.497 32.3046C177.184 32.0192 176.954 31.614 176.807 31.0984C176.66 30.5828 176.577 29.9106 176.577 29.0727V21.2185L174.229 20.8686C174.1 20.841 173.98 20.7765 173.879 20.6936C173.777 20.6108 173.731 20.5003 173.731 20.3714V19.248C173.731 19.1191 173.787 18.9994 173.879 18.8981C173.98 18.7968 174.1 18.7508 174.229 18.7508H176.577V16.7067C176.577 16.5686 176.632 16.4673 176.733 16.3844C176.825 16.3015 176.945 16.2371 177.074 16.2095L179.385 15.8043H179.486C179.753 15.8043 179.882 15.9332 179.882 16.1818V18.76H182.129C182.258 18.76 182.378 18.806 182.479 18.9073C182.58 19.0086 182.626 19.1191 182.626 19.2572V20.7305C182.626 20.8686 182.58 20.9791 182.479 21.0804C182.378 21.1816 182.267 21.2277 182.129 21.2277H179.882V29.0727C179.882 29.3858 179.891 29.6436 179.91 29.8277C179.919 30.0119 179.965 30.15 180.03 30.2513C180.094 30.3526 180.195 30.417 180.333 30.4354C180.462 30.4631 180.637 30.4723 180.858 30.4723H182.175C182.525 30.4723 182.7 30.6012 182.7 30.8498V32.4243C182.709 32.6637 182.543 32.811 182.23 32.8663Z" fill="#E42313"/>
<path d="M143.493 52C142.6 52 141.799 51.9632 141.283 51.8803C140.97 51.8435 140.832 51.7146 140.832 51.3831V42.3687C140.832 42.0556 140.979 41.8991 141.265 41.8715C141.716 41.8162 142.535 41.761 143.419 41.761C145.574 41.761 147.388 42.3319 147.388 44.3668V44.5878C147.388 45.5914 146.863 46.3557 145.942 46.7148C146.872 47.037 147.443 47.8657 147.443 48.9062V49.1364C147.443 51.4015 145.602 52 143.493 52ZM146.163 44.3668C146.163 43.0685 145.077 42.7923 143.429 42.7923C142.968 42.7923 142.471 42.8199 142.084 42.8383V46.1899H144.165C145.731 46.1899 146.154 45.4349 146.154 44.5786V44.3668H146.163ZM146.209 48.897C146.209 48.0038 145.767 47.1751 144.165 47.1751H142.084V50.8951C142.526 50.9043 143.014 50.9503 143.493 50.9503C145.169 50.9503 146.209 50.582 146.209 49.118V48.897Z" fill="#4A4A49"/>
<path d="M155.877 51.8986H155.012C154.846 51.8986 154.763 51.8986 154.662 51.7237L152.24 47.6907C152.203 47.6907 152.157 47.6907 152.12 47.6907C152.038 47.6907 151.973 47.6907 151.89 47.6907C151.439 47.6907 151.117 47.6815 150.399 47.6539V51.6316C150.399 51.7697 150.307 51.8986 150.159 51.8986H149.432C149.294 51.8986 149.192 51.7789 149.192 51.6316V42.1568C149.192 41.9635 149.275 41.8898 149.515 41.8622C150.086 41.7885 151.098 41.7517 151.89 41.7517C154.026 41.7517 155.684 42.4699 155.684 44.6614V44.7534C155.684 46.2727 154.791 47.1659 153.557 47.4881L156.015 51.604C156.043 51.6408 156.052 51.6869 156.052 51.7237C156.052 51.825 155.988 51.8986 155.877 51.8986ZM154.459 44.6614C154.459 43.3078 153.575 42.8658 151.89 42.8658C151.467 42.8658 150.73 42.8658 150.399 42.9027V46.6134C150.997 46.6318 151.577 46.641 151.89 46.641C153.557 46.641 154.459 46.2175 154.459 44.7626V44.6614Z" fill="#4A4A49"/>
<path d="M164.524 51.8986H163.723C163.603 51.8986 163.52 51.8066 163.493 51.6961L162.618 48.5839H159.11L158.244 51.6961C158.217 51.8066 158.106 51.8986 158.005 51.8986H157.204C157.066 51.8986 156.974 51.8066 156.974 51.6869C156.974 51.6592 156.974 51.6224 156.983 51.5948L159.487 42.783C159.718 41.9543 160.353 41.7517 160.869 41.7517C161.366 41.7517 162.001 41.9451 162.231 42.7646L164.736 51.5856C164.745 51.6132 164.745 51.65 164.745 51.6777C164.754 51.8066 164.681 51.8986 164.524 51.8986ZM161.136 43.0684C161.099 42.9211 161.016 42.829 160.878 42.829C160.73 42.829 160.648 42.9211 160.611 43.0684L159.377 47.525H162.369L161.136 43.0684Z" fill="#4A4A49"/>
<path d="M168.363 52C167.415 52 166.715 51.9079 166.117 51.8066C165.887 51.7698 165.859 51.7145 165.859 51.5672V51.024C165.859 50.8766 165.969 50.803 166.089 50.803C166.108 50.803 166.117 50.803 166.126 50.803C166.752 50.8582 167.737 50.8858 168.363 50.8858C169.984 50.8858 170.417 50.2321 170.417 49.2837C170.417 48.6115 170.021 48.2248 168.796 47.4698L167.48 46.6687C166.236 45.9137 165.61 45.2231 165.61 44.1366C165.61 42.4976 166.789 41.7426 168.842 41.7426C169.643 41.7426 170.684 41.8254 171.199 41.8991C171.338 41.9267 171.43 41.9912 171.43 42.1293V42.7094C171.43 42.8475 171.338 42.9304 171.199 42.9304C171.19 42.9304 171.19 42.9304 171.172 42.9304C170.573 42.8935 169.625 42.8475 168.842 42.8475C167.452 42.8475 166.853 43.1421 166.853 44.1366C166.853 44.7719 167.295 45.1494 168.327 45.7755L169.57 46.5214C171.144 47.4514 171.697 48.1972 171.697 49.2837C171.706 50.5912 171.025 52 168.363 52Z" fill="#4A4A49"/>
<path d="M174.56 51.8987H173.815C173.676 51.8987 173.575 51.779 173.575 51.6317V42.1017C173.575 41.9636 173.667 41.8439 173.815 41.8439H174.56C174.699 41.8439 174.8 41.9544 174.8 42.1017V51.6317C174.8 51.7698 174.708 51.8987 174.56 51.8987Z" fill="#4A4A49"/>
<path d="M182.571 51.8711C182.221 51.9264 181.208 51.9908 179.928 51.9908C178.482 51.9908 177.046 51.7054 177.046 49.4771V42.1109C177.046 41.9636 177.166 41.8439 177.313 41.8439H178.004C178.151 41.8439 178.271 41.9636 178.271 42.1109V49.4771C178.271 50.5084 178.501 50.8859 179.937 50.8859H182.552C182.644 50.8859 182.699 50.9503 182.699 51.0516V51.687C182.709 51.7698 182.653 51.8619 182.571 51.8711Z" fill="#4A4A49"/>
<defs>
<linearGradient id="paint0_linear" x1="21.1325" y1="42.0778" x2="34.9836" y2="28.017" gradientUnits="userSpaceOnUse">
<stop stop-color="#A8A8A7"/>
<stop offset="0.1729" stop-color="#9D9C9C"/>
<stop offset="0.4951" stop-color="#7E7E7D"/>
<stop offset="0.9288" stop-color="#474746"/>
<stop offset="1" stop-color="#3C3C3B"/>
</linearGradient>
<linearGradient id="paint1_linear" x1="10.9788" y1="8.68859" x2="35.7214" y2="15.7329" gradientUnits="userSpaceOnUse">
<stop stop-color="#3B3B3B"/>
<stop offset="1" stop-color="#D1D1D1"/>
</linearGradient>
<linearGradient id="paint2_linear" x1="2.09626" y1="37.0069" x2="40.2743" y2="34.3373" gradientUnits="userSpaceOnUse">
<stop stop-color="#CE2217"/>
<stop offset="1" stop-color="#411B15"/>
</linearGradient>
<linearGradient id="paint3_linear" x1="0" y1="20.1123" x2="24.7396" y2="20.1123" gradientUnits="userSpaceOnUse">
<stop stop-color="#471B14"/>
<stop offset="0.7362" stop-color="#8B1B13"/>
</linearGradient>
<linearGradient id="paint4_linear" x1="31.427" y1="6.62918" x2="34.5687" y2="36.522" gradientUnits="userSpaceOnUse">
<stop/>
<stop offset="1" stop-color="#616160"/>
</linearGradient>
</defs>
</svg>
