<svg width="182" height="56" viewBox="0 0 182 56" fill="none" xmlns="http://www.w3.org/2000/svg">
<g clip-path="url(#clip0)">
<path d="M90.768 56.0001H90.6336C90.1677 56.0001 89.7819 55.7638 89.4915 55.5861L89.3333 55.4908L75.0473 47.3617C74.6962 47.1601 74.3971 47.2533 74.2064 47.3638C73.8835 47.5524 73.5389 48.001 73.5389 48.7031V52.6561C73.5389 54.3183 72.3491 55.6728 70.8906 55.6728H29.0293V54.1146H70.8906C71.4822 54.1146 71.9807 53.4471 71.9807 52.6583V48.7053C71.9807 47.5654 72.5333 46.536 73.424 46.018C74.1826 45.5759 75.0559 45.5737 75.8188 46.0093L90.3042 54.2598C90.6185 54.4245 90.7225 54.5632 91.2448 54.2165L105.581 46.0093C106.346 45.5737 107.217 45.5781 107.975 46.018C108.866 46.536 109.419 47.5654 109.419 48.7053V52.6583C109.419 53.4471 109.917 54.1146 110.509 54.1146H152.368V55.6728H110.509C109.048 55.6728 107.861 54.3205 107.861 52.6561V48.7031C107.861 48.001 107.516 47.5502 107.193 47.3638C107 47.2533 106.701 47.1623 106.352 47.3617L91.9101 55.584C91.6219 55.7638 91.2361 56.0001 90.768 56.0001Z" fill="#6A6E72"/>
<path d="M90.7423 10.5824C90.1507 10.5824 89.5742 10.3916 88.7051 9.86935L73.9033 2.03498C73.5392 1.83127 72.889 1.5582 72.5314 1.5582H29.0317V0H72.5336C73.4373 0 74.5296 0.598142 74.651 0.667492L89.403 8.48019C90.6903 9.24737 91.4986 8.73808 91.9082 8.51703C94.8101 6.94582 106.04 1.10093 106.45 0.895047L106.719 0.758514C107.369 0.422601 108.179 0.00216718 109.029 0.00216718H152.37V1.56037H109.029C108.559 1.56037 107.935 1.88328 107.434 2.14118L107.148 2.28855C106.738 2.49226 95.4971 8.30898 92.6386 9.94087C91.9061 10.3591 91.089 10.5824 90.7423 10.5824Z" fill="#6A6E72"/>
<path d="M2.35367 22.2461C0.801965 23.8043 -0.010729 25.9628 0.000106957 28.4919C0.000106957 34.3802 4.33014 37.0133 8.61683 37.0133C10.9921 37.0133 13.1007 36.1183 14.8822 34.352V28.1907H8.00135V29.0597H13.9178V34.0074L13.8722 34.0464C12.4657 35.3359 10.5976 36.0467 8.61683 36.0467C4.81992 36.0467 0.99051 33.704 0.99051 28.4659C0.975339 26.2619 1.73819 24.2724 3.13819 22.8659C4.50351 21.4919 6.39763 20.7659 8.61899 20.7659C10.6323 20.7659 12.6565 21.557 14.0695 22.8898L14.6394 22.2656C13.0097 20.7074 10.8772 19.8514 8.61683 19.8514C6.07905 19.8514 3.91404 20.6771 2.35367 22.2461Z" fill="#6A6E72"/>
<path d="M34.7314 37.035C37.7979 37.035 41.1007 34.9914 41.1007 30.5053V20.092H40.0865V30.5031C40.0865 34.352 37.3103 36.1031 34.7314 36.1031C32.1589 36.1031 29.3892 34.3499 29.3892 30.5031V20.092H28.375V30.5031C28.3772 34.9914 31.6713 37.035 34.7314 37.035Z" fill="#6A6E72"/>
<path d="M52.4178 29.2375C53.2869 28.2558 53.7658 26.9316 53.7658 25.5099C53.7658 22.9006 52.0798 20.092 48.3739 20.092H42.4878V36.7944H43.5259V30.9279H48.3739C50.0404 30.9279 51.4404 30.3428 52.4178 29.2375ZM43.5259 21.0347H48.3739C51.3776 21.0347 52.7472 23.3601 52.7472 25.5208C52.7472 26.6932 52.3593 27.7876 51.655 28.6025C50.8596 29.5214 49.724 30.009 48.376 30.009H43.528V21.0347H43.5259Z" fill="#6A6E72"/>
<path d="M54.2207 28.4204C54.2207 32.5944 56.856 37.087 62.6445 37.087C68.4006 37.087 71.0467 32.6204 71.0684 28.4703C71.0814 25.9455 70.2297 23.6916 68.6693 22.1226C67.1761 20.6229 65.0935 19.8297 62.6445 19.8297C56.8235 19.8254 54.2207 24.1402 54.2207 28.4204ZM70.078 28.4443C70.078 32.1523 67.7504 36.1443 62.6445 36.1443C57.5863 36.1443 55.2588 32.1523 55.2349 28.4443C55.2219 26.1796 55.9718 24.1684 57.3501 22.7814C58.6613 21.4638 60.4904 20.7681 62.6445 20.7681C66.3439 20.7681 70.078 23.1412 70.078 28.4443Z" fill="#6A6E72"/>
<path d="M27.6901 36.7944L21.7 30.2951H22.01C23.6787 30.2951 25.0657 29.788 26.0171 28.8279C26.9078 27.9307 27.3911 26.6564 27.3781 25.2434C27.3564 22.7619 25.6443 20.092 21.9363 20.092H16.501V36.7944H17.5391V30.3688H17.5607V29.4022L17.5391 29.2678V21.0325H21.9363C23.2019 21.0325 24.279 21.4465 25.0527 22.2288C25.8069 22.9917 26.2316 24.0818 26.2165 25.2195C26.1905 27.8765 24.5759 29.4022 21.7889 29.4022H20.5449V30.4533L26.3335 36.7923H27.6901V36.7944Z" fill="#6A6E72"/>
<path d="M106.274 20.1028H109.846V36.7012H106.342L106.279 34.2761C105.336 36.2288 102.744 37.1715 100.891 37.2062C95.9759 37.2387 92.3394 34.209 92.3394 28.3857C92.3394 22.6622 96.1428 19.6672 100.993 19.6997C103.214 19.6997 105.336 20.7421 106.279 22.3913L106.274 20.1028ZM95.9282 28.3857C95.9282 31.5498 98.1171 33.4353 100.843 33.4353C107.308 33.4353 107.308 23.3687 100.843 23.3687C98.1149 23.3687 95.9282 25.2216 95.9282 28.3857Z" fill="#6A6E72"/>
<path d="M116.023 14.4941V36.7012H111.948V16.3535L116.023 14.4941Z" fill="#6A6E72"/>
<path d="M133.007 20.0681L136.643 31.1663L140.446 20.0681H144.991L139.2 36.7684H134.42L131.221 27.6901L128.022 36.7684H123.241L117.418 20.0681H121.997L125.801 31.1663L129.405 20.0681H133.007Z" fill="#6A6E72"/>
<path d="M157.121 32.1263C156.161 33.1991 154.724 33.8254 153.369 33.8254C151.135 33.8254 149.119 31.8489 148.556 30.035H162.344L162.305 29.1205C162.203 26.6845 161.899 25.4167 161.106 24.0579C159.502 21.2623 156.553 19.5328 153.402 19.5328C148.51 19.5328 144.529 23.5443 144.529 28.4725C144.529 33.4006 148.523 37.4099 153.434 37.4099C156.421 37.4099 159.424 35.8366 161.065 33.2316L161.813 31.8489H157.389L157.121 32.1263ZM153.402 22.6341C155.504 22.6341 157.22 24.591 158.074 26.0431H148.656C149.1 25.3192 150.32 22.6341 153.402 22.6341Z" fill="#6A6E72"/>
<path d="M176.238 32.1263C175.278 33.1991 173.841 33.8254 172.486 33.8254C170.252 33.8254 168.237 31.8489 167.673 30.035H181.461L181.422 29.1205C181.32 26.6845 181.016 25.4167 180.223 24.0579C178.62 21.2623 175.67 19.5328 172.519 19.5328C167.628 19.5328 163.646 23.5443 163.646 28.4725C163.646 33.4006 167.641 37.4099 172.551 37.4099C175.538 37.4099 178.548 35.8149 180.191 33.2121L180.932 31.8489H176.509L176.238 32.1263ZM172.519 22.6341C174.621 22.6341 176.338 24.591 177.191 26.0431H167.773C168.219 25.3192 169.437 22.6341 172.519 22.6341Z" fill="#6A6E72"/>
<path d="M86.4813 20.0616L81.8262 26.4635L77.1689 20.0616H72.9971V36.7728H76.9674V26.392L81.2107 32.1957H82.3008L86.6612 26.3833V36.7728H90.6293V20.0616H86.4813Z" fill="#6A6E72"/>
</g>
<defs>
<clipPath id="clip0">
<rect width="181.463" height="56" fill="white"/>
</clipPath>
</defs>
</svg>
