<svg width="176" height="56" viewBox="0 0 176 56" fill="none" xmlns="http://www.w3.org/2000/svg">
<path d="M175.059 4.00231C173.973 4.00231 171.102 5.35684 168.639 7.81531C166.176 10.2738 164.83 13.116 164.83 17.4912V33.4949C164.83 39.9335 160.593 42.699 154.342 42.699C148.095 42.699 143.86 39.9335 143.86 33.4949V17.4889C143.86 13.1138 142.505 10.276 140.047 7.81305C137.588 5.35007 134.719 4.00005 133.633 4.00005C133.36 3.98425 133.123 4.19194 133.107 4.46511C133.105 4.48542 133.105 4.50349 133.107 4.5238C133.107 5.11754 133.107 34.5492 133.107 34.5492C133.107 47.5775 144.411 52 154.328 52C164.261 52 175.567 47.5775 175.567 34.5492V4.52606C175.583 4.2529 175.375 4.02037 175.102 4.00231C175.089 4.00231 175.073 4.00231 175.059 4.00231Z" fill="#76B82A"/>
<path d="M10.8362 30.2441C10.8362 33.0886 9.84743 33.9984 7.44991 33.9984C4.96661 33.9984 4.20581 33.1834 4.20581 30.2441V18.4055H0V29.6571C0 35.8631 2.81968 37.8836 7.40476 37.8836C12.5971 37.8836 14.8321 34.9195 14.8321 29.6571V18.4055H10.8362V30.2441ZM32.9196 37.5901H37.1367V18.401H32.9218L32.9196 37.5901ZM55.3438 18.401L51.4495 32.7409H51.3209L47.2008 18.401H42.4419C41.6969 24.8372 40.7013 37.5901 40.7013 37.5901H44.248L45.3203 24.2954H45.449L49.2304 37.5901H53.2127L56.8722 24.2954H57.0054L57.8271 37.5901H61.8568C61.8568 37.5901 60.8929 24.8056 60.1795 18.401H55.3438ZM65.4328 37.5901H69.6386V18.401H65.4351L65.4328 37.5901ZM84.9832 30.9846L84.8522 31.0139C84.6265 30.2441 78.1879 18.4055 78.1879 18.4055H73.806V37.5947H77.5942L77.6055 24.3541L77.7342 24.3248L84.6874 37.5947H88.7849V18.4055H84.9922L84.9832 30.9846ZM96.7089 18.4055C94.5168 24.9208 90.925 37.5947 90.925 37.5947H94.79L96.0813 33.0051H101.59L102.849 37.5947H107.139C107.139 37.5947 103.443 24.8102 101.393 18.4055H96.7089ZM97.0475 29.5036L98.7474 22.6971H98.8806L100.612 29.5036H97.0475ZM22.0382 23.6091C22.0382 22.3607 22.9051 21.7331 24.2325 21.6541C25.9437 21.5525 28.8357 22.2275 28.8357 22.2275V18.5319C27.5444 18.2926 26.235 18.1572 24.9211 18.1255C20.7062 18.1255 17.6969 20.1122 17.6969 23.8733C17.6969 29.7429 25.6096 29.1288 25.6096 32.3233C25.6096 33.6033 24.9143 34.2016 23.3521 34.3551C21.1781 34.556 17.9949 33.2398 17.9949 33.2398V37.1702C19.5684 37.6375 21.2006 37.8768 22.8419 37.8836C26.9642 37.8836 29.9215 35.9512 29.9215 31.9327C29.9238 26.343 22.0382 26.544 22.0382 23.6091ZM113.218 23.6091C113.218 22.3607 114.085 21.7331 115.413 21.6541C117.124 21.5525 120.014 22.2275 120.014 22.2275V18.5319C118.72 18.2926 117.411 18.1572 116.097 18.1255C111.884 18.1255 108.873 20.1122 108.873 23.8733C108.873 29.7429 116.774 29.1288 116.774 32.3233C116.774 33.6033 116.081 34.2016 114.53 34.3551C112.356 34.556 109.173 33.2398 109.173 33.2398V37.1702C110.746 37.6375 112.376 37.8768 114.017 37.8836C118.14 37.8836 121.102 35.9512 121.102 31.9327C121.106 26.343 113.218 26.544 113.218 23.6091Z" fill="black"/>
</svg>
