<svg width="111" height="64" viewBox="0 0 111 64" fill="none" xmlns="http://www.w3.org/2000/svg">
<g clip-path="url(#clip0)">
<path d="M110.246 0H98.459V11.781H110.246V0Z" fill="#B2292E"/>
<path d="M30.8746 56.2383C30.4366 55.853 29.8988 55.5509 29.2613 55.3374C28.6237 55.124 27.8974 55.0159 27.0825 55.0159H23.5703V63.8336H27.0298C27.8448 63.8336 28.5766 63.7227 29.2225 63.501C29.8683 63.2792 30.4116 62.9688 30.8552 62.5751C31.2987 62.1815 31.6369 61.713 31.8697 61.1697C32.1026 60.6292 32.2218 60.0388 32.2218 59.4012V59.3762C32.2218 58.7387 32.1081 58.1538 31.878 57.6188C31.6452 57.0866 31.3125 56.6264 30.8746 56.2383ZM29.6438 59.44C29.6438 60.1524 29.4137 60.704 28.9508 61.0893C28.4906 61.4747 27.8808 61.6687 27.124 61.6687H26.0929V57.1836H27.124C27.8808 57.1836 28.4906 57.3804 28.9508 57.7685C29.4109 58.1593 29.6438 58.7054 29.6438 59.4123V59.44ZM36.5793 39.6257H19.3513C17.7242 39.6257 16.2107 39.0131 15.0936 37.9043C13.957 36.7789 13.3361 35.0436 13.3361 33.4497V32.3187C13.3361 30.7498 13.9515 29.2778 15.0686 28.169C16.1913 27.0575 17.6798 26.4421 19.2626 26.4421H36.5766V14.6971H22.1982C16.1247 14.7387 0 15.16 0 33.045C0 50.9272 16.1913 51.0242 22.2841 51.0658L36.5793 51.0713V39.6257ZM2.20097 63.8336H4.73735V55.0159H2.20097V63.8336ZM15.8697 59.6784L12.1137 55.0187H9.75745V63.8364H12.2412V58.9993L16.1386 63.8364H18.3562V55.0187H15.8725V59.6784H15.8697ZM42.0513 59.9805C42.0513 60.6015 41.9016 61.0589 41.5994 61.3527C41.2973 61.6465 40.8954 61.7934 40.3853 61.7934C39.8753 61.7934 39.4733 61.641 39.1712 61.3333C38.869 61.0284 38.7193 60.5543 38.7193 59.9168V55.0159H36.1441V59.9667C36.1441 60.6541 36.2412 61.2529 36.438 61.7602C36.632 62.2674 36.912 62.6888 37.2779 63.0187C37.641 63.3513 38.0845 63.5952 38.6057 63.756C39.1268 63.914 39.7117 63.9944 40.3631 63.9944C41.0145 63.9944 41.5994 63.914 42.1261 63.756C42.65 63.5952 43.0963 63.3513 43.465 63.0187C43.8337 62.686 44.1192 62.2619 44.3243 61.7463C44.5267 61.2307 44.6292 60.6153 44.6292 59.9002V55.0131H42.0541V59.9805H42.0513ZM105.763 55.0187H103.238V63.8364H110.173V61.6964H105.763V55.0187ZM94.3285 54.9549L90.4504 63.8364H93.1032L93.7547 62.2619H97.2668L97.9293 63.8364H100.635L96.7567 54.9549H94.3285ZM94.4976 60.3714L95.526 57.8655L96.5405 60.3714H94.4976ZM84.474 63.8336H87.0104V55.0159H84.474V63.8336ZM98.4588 14.7276V26.8662H82.7443V14.6971H70.9577V35.6701C69.0256 33.167 58.0845 20.2993 56.9979 19.0353C55.9113 17.7713 54.2121 16.1053 52.6403 15.4927C51.0741 14.8773 49.1753 14.6943 47.4872 14.6943H39.5592V51.0658H51.3181V30.6223C53.3472 32.9452 65.3832 46.3728 65.3832 46.3728C67.1989 48.5793 69.6743 49.9237 71.113 50.4144C72.7817 50.9854 73.885 51.0686 75.6452 51.0686H82.7498V38.3063H98.4643V51.0686H110.19V14.7276H98.4588ZM55.7117 59.2709C55.4179 59.0602 55.0603 58.8828 54.6389 58.7359C54.2176 58.589 53.7491 58.4615 53.228 58.3534C52.9148 58.2868 52.657 58.2231 52.4546 58.1593C52.2495 58.0984 52.0915 58.0346 51.9723 57.9708C51.8559 57.9071 51.7727 57.8378 51.7256 57.7629C51.6784 57.6881 51.6535 57.5994 51.6535 57.4996V57.4747C51.6535 57.3139 51.7283 57.1808 51.8808 57.0727C52.0333 56.9646 52.2606 56.9092 52.5627 56.9092C52.9702 56.9092 53.3943 56.9812 53.8323 57.1282C54.2703 57.2751 54.6972 57.4913 55.113 57.7768L56.3742 56.0443C55.8808 55.6562 55.3264 55.3624 54.7166 55.1628C54.1039 54.9632 53.4082 54.8662 52.6292 54.8662C52.0832 54.8662 51.5925 54.9355 51.1601 55.0741C50.7276 55.2127 50.3562 55.4067 50.0485 55.659C49.7408 55.9112 49.5052 56.2078 49.3472 56.5516C49.1864 56.8953 49.106 57.2723 49.106 57.6826V57.7075C49.106 58.1593 49.1947 58.5391 49.3721 58.8468C49.5495 59.1545 49.7935 59.4095 50.1012 59.6146C50.4089 59.8198 50.772 59.9889 51.1878 60.1164C51.6036 60.2467 52.0554 60.3659 52.5405 60.474C52.8538 60.5405 53.106 60.607 53.3028 60.668C53.4969 60.7318 53.6549 60.7955 53.7713 60.8648C53.8877 60.9313 53.9681 61.0006 54.0125 61.0727C54.0568 61.1448 54.079 61.2252 54.079 61.3166V61.3416C54.079 61.5356 53.9903 61.6826 53.8129 61.7879C53.6355 61.8932 53.3777 61.9459 53.0395 61.9459C51.9806 61.9459 50.9965 61.5938 50.0873 60.887L48.6819 62.5169C49.2446 63.0076 49.8933 63.3735 50.6279 63.6202C51.3597 63.8641 52.1358 63.9889 52.9508 63.9889C53.5052 63.9889 54.0097 63.9251 54.4615 63.7948C54.9134 63.6645 55.2987 63.476 55.6202 63.2293C55.9418 62.9826 56.1913 62.6832 56.3687 62.3312C56.5461 61.9792 56.6348 61.5772 56.6348 61.1226V61.0977C56.6348 60.6874 56.5572 60.3326 56.3992 60.036C56.2328 59.7338 56.0083 59.4816 55.7117 59.2709ZM79.3486 59.7422C79.6868 59.2959 79.8558 58.7359 79.8558 58.054V58.0291C79.8558 57.1642 79.587 56.4795 79.0492 55.975C78.7443 55.6728 78.3506 55.4372 77.8655 55.2709C77.3804 55.1018 76.7872 55.0187 76.0832 55.0187H71.7755V63.8364H74.3008V61.167H75.4068L77.2419 63.8364H80.1552L77.982 60.7622C78.553 60.5266 79.0104 60.1857 79.3486 59.7422ZM77.3195 58.2037C77.3195 58.5225 77.203 58.7775 76.9674 58.966C76.7346 59.1545 76.3992 59.2487 75.9667 59.2487H74.3008V57.1337H75.9529C76.377 57.1337 76.7124 57.2196 76.9536 57.3915C77.1975 57.5634 77.3167 57.8267 77.3167 58.1787V58.2037H77.3195ZM60.1469 57.1586H62.8801V63.8336H65.4054V57.1586H68.1386V55.0187H60.1497V57.1586H60.1469Z" fill="black"/>
</g>
<defs>
<clipPath id="clip0">
<rect width="110.245" height="64" fill="white"/>
</clipPath>
</defs>
</svg>
