<svg width="151" height="64" viewBox="0 0 151 64" fill="none" xmlns="http://www.w3.org/2000/svg">
<path d="M6.9035 54.6177C4.8359 53.9909 3.93002 53.5932 3.93002 52.4106C3.93002 51.3523 5.33943 50.9767 6.5465 50.9767C7.6024 50.9767 8.73737 51.2907 9.50836 51.7954C9.69093 51.914 9.91537 51.9501 10.1247 51.8919C10.334 51.8361 10.5108 51.6907 10.6084 51.4965L10.9596 50.7942C11.1317 50.4476 11.0189 50.0267 10.6945 49.8139C9.58395 49.0882 8.00824 48.6382 6.58255 48.6382C3.58697 48.6382 1.57285 50.1767 1.57285 52.4664C1.57285 55.441 4.08584 56.1934 6.10228 56.7993C8.21407 57.4319 9.1374 57.8389 9.12577 59.096C9.12577 60.3577 7.64077 60.8066 6.25113 60.8066C4.91963 60.8066 3.47068 60.0984 2.59038 59.2855C2.41478 59.1239 2.18802 59.0309 1.95312 59.0576C1.71705 59.0843 1.50657 59.2204 1.38447 59.4251L0.979784 60.1088C0.799537 60.41 0.849541 60.7949 1.09956 61.0415C2.40548 62.3276 4.37191 63.1277 6.23252 63.1277C9.3723 63.1277 11.4818 61.4985 11.4818 59.0832C11.5062 56.0143 8.95366 55.2399 6.9035 54.6177Z" fill="#254A9A"/>
<path d="M20.7372 49.1196C20.6127 48.8487 20.3418 48.6742 20.0429 48.6742H19.2126C18.9126 48.6742 18.6417 48.8487 18.5184 49.1219L12.6644 62.0288C12.5575 62.266 12.5772 62.5393 12.7168 62.7579C12.8587 62.9777 13.0994 63.1079 13.3587 63.1079H14.2076C14.5076 63.1079 14.7797 62.9323 14.903 62.659L16.3624 59.4332H22.9327L24.4096 62.6625C24.534 62.9335 24.8049 63.1079 25.1026 63.1079H25.9527C26.2132 63.1079 26.4539 62.9753 26.5946 62.7567C26.7353 62.5393 26.7539 62.2648 26.6458 62.0264L20.7372 49.1196ZM17.3846 57.1307L19.622 52.171L21.8849 57.1307H17.3846Z" fill="#254A9A"/>
<path d="M30.4763 48.6754H29.7018C29.2809 48.6754 28.939 49.0173 28.939 49.4382V62.3451C28.939 62.7672 29.2809 63.1079 29.7018 63.1079H30.4763C30.8973 63.1079 31.2391 62.7672 31.2391 62.3451V49.4382C31.2391 49.0173 30.8973 48.6754 30.4763 48.6754Z" fill="#254A9A"/>
<path d="M46.5788 48.6754H45.8218C45.3985 48.6754 45.0578 49.0173 45.0578 49.4382V58.839L37.813 48.9859C37.6688 48.7893 37.4409 48.6754 37.1978 48.6754H36.2931C35.871 48.6754 35.5303 49.0173 35.5303 49.4382V62.3451C35.5303 62.7672 35.871 63.1079 36.2931 63.1079H37.0676C37.4897 63.1079 37.8316 62.7672 37.8316 62.3451V52.949L45.0578 62.7986C45.2008 62.9928 45.4299 63.1079 45.6741 63.1079H46.5788C46.9998 63.1079 47.3417 62.7672 47.3417 62.3451V49.4382C47.3417 49.0173 46.9998 48.6754 46.5788 48.6754Z" fill="#254A9A"/>
<path d="M59.8915 48.6754H50.3989C49.9779 48.6754 49.6372 49.0173 49.6372 49.4382V50.1964C49.6372 50.6162 49.9779 50.9581 50.3989 50.9581H53.9957V62.3451C53.9957 62.7672 54.3376 63.1079 54.7585 63.1079H55.5319C55.9551 63.1079 56.297 62.7672 56.297 62.3451V50.9581H59.8915C60.3136 50.9581 60.6544 50.6162 60.6544 50.1964V49.4382C60.6544 49.0173 60.3136 48.6754 59.8915 48.6754Z" fill="#254A9A"/>
<path d="M65.5688 55.711H61.4499C61.0289 55.711 60.687 56.0517 60.687 56.4738V57.1018C60.687 57.5239 61.0289 57.8646 61.4499 57.8646H65.5688C65.9898 57.8646 66.3305 57.5239 66.3305 57.1018V56.4738C66.3305 56.0517 65.9898 55.711 65.5688 55.711Z" fill="#254A9A"/>
<path d="M81.6058 55.2481H80.9034C80.8999 55.2481 80.8952 55.2493 80.8906 55.2493H78.5997C78.1776 55.2493 77.8357 55.5912 77.8357 56.0121V56.7878C77.8357 57.2087 78.1776 57.5506 78.5997 57.5506H80.1417V59.9101C79.2428 60.5264 78.1625 60.8614 77.0635 60.8614C74.2156 60.8614 71.8992 58.6286 71.8992 55.8831C71.8992 53.1468 74.2156 50.921 77.0635 50.921C78.3857 50.921 79.687 51.4083 80.6347 52.2584C80.7906 52.3979 80.9976 52.4688 81.2057 52.4514C81.415 52.4351 81.6069 52.3328 81.7383 52.17L82.2 51.5978C82.4558 51.278 82.4174 50.8129 82.1081 50.5431C80.722 49.3279 78.9288 48.6558 77.0635 48.6558C72.9469 48.6558 69.5967 51.8967 69.5967 55.8831C69.5967 59.8776 72.9295 63.1255 77.0263 63.1255C78.8788 63.1255 80.7278 62.4464 82.1046 61.2614C82.2721 61.1172 82.3698 60.9055 82.3698 60.6823V56.011C82.3698 55.5912 82.0267 55.2481 81.6058 55.2481Z" fill="#254A9A"/>
<path d="M92.4266 48.6557C88.3205 48.6557 84.9795 51.8967 84.9795 55.8819C84.9795 59.8776 88.3205 63.1255 92.4266 63.1255C96.5327 63.1255 99.8748 59.8776 99.8748 55.8819C99.8748 51.8967 96.5327 48.6557 92.4266 48.6557ZM92.4266 60.8428C89.5985 60.8428 87.2983 58.617 87.2983 55.8819C87.2983 53.1561 89.5985 50.9396 92.4266 50.9396C95.2535 50.9396 97.5537 53.1561 97.5537 55.8819C97.5537 58.617 95.2535 60.8428 92.4266 60.8428Z" fill="#254A9A"/>
<path d="M112.097 55.4829C112.873 54.8142 113.305 53.8293 113.305 52.6315C113.305 50.1906 111.47 48.6742 108.516 48.6742H103.234C102.815 48.6742 102.473 49.0161 102.473 49.4371V62.3451C102.473 62.766 102.815 63.1079 103.234 63.1079H108.553C111.934 63.1079 113.95 61.5252 113.95 58.875C113.95 57.3749 113.272 56.1818 112.097 55.4829ZM108.498 54.5282H104.773V50.9581H108.498C109.639 50.9581 111.004 51.264 111.004 52.7245C111.004 53.9211 110.16 54.5282 108.498 54.5282ZM104.773 56.8109H108.498C109.674 56.8109 111.649 57.0667 111.649 58.7808C111.649 60.4705 109.936 60.8252 108.498 60.8252H104.773V56.8109Z" fill="#254A9A"/>
<path d="M123.318 49.1196C123.193 48.8487 122.922 48.6742 122.624 48.6742H121.793C121.492 48.6742 121.221 48.8487 121.097 49.1219L115.244 62.0288C115.137 62.266 115.157 62.5393 115.299 62.7579C115.439 62.9777 115.68 63.1079 115.94 63.1079H116.789C117.089 63.1079 117.361 62.9323 117.485 62.659L118.944 59.4332H125.512L126.989 62.6625C127.113 62.9335 127.386 63.1079 127.683 63.1079H128.532C128.791 63.1079 129.034 62.9753 129.174 62.7567C129.315 62.5393 129.334 62.2648 129.226 62.0264L123.318 49.1196ZM119.965 57.1307L122.203 52.171L124.466 57.1307H119.965Z" fill="#254A9A"/>
<path d="M133.055 48.6754H132.28C131.859 48.6754 131.516 49.0173 131.516 49.4382V62.3451C131.516 62.7672 131.859 63.1079 132.28 63.1079H133.055C133.476 63.1079 133.82 62.7672 133.82 62.3451V49.4382C133.82 49.0173 133.476 48.6754 133.055 48.6754Z" fill="#254A9A"/>
<path d="M149.158 48.6754H148.4C147.979 48.6754 147.638 49.0173 147.638 49.4382V58.839L140.392 48.9859C140.249 48.7893 140.02 48.6754 139.777 48.6754H138.872C138.45 48.6754 138.108 49.0173 138.108 49.4382V62.3451C138.108 62.7672 138.45 63.1079 138.872 63.1079H139.648C140.069 63.1079 140.41 62.7672 140.41 62.3451V52.949L147.638 62.7986C147.781 62.9928 148.009 63.1079 148.252 63.1079H149.158C149.579 63.1079 149.92 62.7672 149.92 62.3451V49.4382C149.92 49.0173 149.579 48.6754 149.158 48.6754Z" fill="#254A9A"/>
<path d="M84.6594 28.4227V41.1121H82.3232V26.6772L84.6594 28.4227ZM129.95 41.0702H120.76L120.695 41.0063L112.612 33.0115C112.283 32.6858 111.776 32.5858 111.346 32.7649C110.912 32.9463 110.63 33.3673 110.63 33.8383V41.1121H108.229V23.1119C108.229 22.7932 108.095 22.4851 107.864 22.2664L101.148 15.9241C100.932 15.7194 100.647 15.6066 100.349 15.6066H96.9918C96.3499 15.6066 95.8278 16.1287 95.8278 16.7695V41.1121H93.445V2.03228C93.445 1.55782 93.1613 1.13571 92.7229 0.956627C92.2926 0.779869 91.7763 0.886845 91.453 1.21594L80.3312 12.5017C80.1149 12.7203 79.9963 13.011 79.9963 13.318V22.0362L75.4425 18.6359C75.0285 18.3277 74.4214 18.3382 74.0191 18.6603L63.6648 26.961C63.388 27.1831 63.2299 27.5145 63.2299 27.8692V41.1121H60.8832V33.8127C60.8832 31.2497 59.1179 28.5251 55.8491 28.5251C52.579 28.5251 50.8149 31.2625 50.8149 33.8383V41.1121L48.4415 41.1109V36.1594C48.4415 34.1522 47.06 32.0207 44.4993 32.0207C41.9387 32.0207 40.5572 34.1546 40.5572 36.164V41.1133L38.193 41.1144L38.1919 40.8946C38.1884 39.8969 38.1849 38.6189 38.1849 38.106C38.1849 36.4013 36.5755 34.9069 34.7404 34.9069C32.9054 34.9069 31.296 36.3943 31.296 38.0909V41.1121L20.9277 41.1109C20.2858 41.1109 19.7648 41.6331 19.7637 42.2738C19.7637 42.5855 19.8846 42.8773 20.1044 43.0971C20.3242 43.3169 20.6161 43.4379 20.9266 43.4379L32.4589 43.439C32.7694 43.439 33.0624 43.3181 33.281 43.0983C33.5008 42.8785 33.6229 42.5866 33.6229 42.2761V38.3014C33.6229 37.8711 34.0915 37.2327 34.7404 37.2327C35.38 37.2327 35.8591 37.8165 35.8591 38.3386C35.8591 38.6375 35.8708 42.2831 35.8708 42.2831C35.8742 42.9227 36.3952 43.4425 37.0336 43.4425L41.7212 43.439C42.362 43.439 42.8841 42.9169 42.8841 42.2761V36.164C42.8841 35.5349 43.2213 34.3464 44.4993 34.3464C45.7773 34.3464 46.1157 35.5314 46.1157 36.1594V42.2726C46.1157 42.9146 46.6367 43.4367 47.2775 43.4367L51.9767 43.439C52.2837 43.439 52.5837 43.3146 52.8 43.0983C53.0163 42.882 53.1407 42.582 53.1407 42.2761V33.8383C53.1407 32.8056 53.707 30.8508 55.8491 30.8508C57.8353 30.8508 58.5562 32.6219 58.5562 33.8127V42.2761C58.5562 42.9169 59.0784 43.439 59.7191 43.439H64.3928C65.0347 43.439 65.5556 42.9169 65.5556 42.2761V28.4274L65.6394 28.3599L74.7715 21.0384L79.9963 24.9399V42.2761C79.9963 42.9169 80.5184 43.439 81.1592 43.439H85.8235C86.4642 43.439 86.9864 42.9169 86.9864 42.2761V27.839C86.9864 27.475 86.8108 27.1261 86.5189 26.9075L82.3232 23.7735V13.7948L82.3872 13.7297L91.1181 4.86971V42.2761C91.1181 42.9169 91.6402 43.439 92.281 43.439H96.9918C97.6326 43.439 98.1547 42.9169 98.1547 42.2761V17.9324H99.8862L99.9502 17.9928L105.902 23.613V42.2761C105.902 42.9169 106.424 43.439 107.065 43.439H111.793C112.435 43.439 112.957 42.9169 112.957 42.2761V36.6245L119.463 43.0599C119.683 43.2762 119.974 43.396 120.281 43.396H129.95C130.592 43.396 131.114 42.8739 131.114 42.2331C131.114 41.5912 130.592 41.0702 129.95 41.0702Z" fill="url(#paint0_linear)"/>
<defs>
<linearGradient id="paint0_linear" x1="19.6323" y1="22.1571" x2="131.422" y2="22.1571" gradientUnits="userSpaceOnUse">
<stop stop-color="#54B6AE"/>
<stop offset="0.1" stop-color="#54B6AE"/>
<stop offset="0.3" stop-color="#3B98DA"/>
<stop offset="0.42" stop-color="#254A9A"/>
<stop offset="0.55" stop-color="#ED1443"/>
<stop offset="0.84" stop-color="#F25C19"/>
<stop offset="1" stop-color="#F25C19"/>
</linearGradient>
</defs>
</svg>
