<svg width="258" height="56" viewBox="0 0 258 56" fill="none" xmlns="http://www.w3.org/2000/svg">
<g clip-path="url(#clip0)">
<path fill-rule="evenodd" clip-rule="evenodd" d="M0 46.7636C0 46.0791 57.8417 45.5241 129.197 45.5241C200.553 45.5241 258.395 46.0791 258.395 46.7636C258.395 47.4481 200.553 48.003 129.197 48.003C57.8417 48.003 0 47.445 0 46.7636Z" fill="#806A2F"/>
<path fill-rule="evenodd" clip-rule="evenodd" d="M224.742 24.0123C223.277 24.7615 221.816 25.4368 220.098 25.4059C219.984 26.038 219.802 26.7009 219.553 27.3885C217.875 31.9948 213.725 35.6269 208.197 35.6269C202.669 35.6238 201.161 31.9917 202.838 27.3885C203.233 26.3001 203.757 25.2672 204.395 24.3237C203.1 24.9373 201.991 25.4337 200.412 25.4028C200.298 26.038 200.116 26.7009 199.866 27.3885C198.189 31.9948 194.039 35.6269 188.511 35.6269C182.982 35.6238 181.475 31.9917 183.152 27.3885C184.829 22.7821 188.979 19.15 194.507 19.15C198.18 19.15 200.193 20.7533 200.501 23.1767C200.581 23.8335 200.874 24.1634 201.473 24.1079C201.88 24.0709 202.311 23.9722 202.712 23.8366C204.112 23.3648 205.518 22.5108 207.254 21.3268C209.091 19.9732 211.567 19.15 214.194 19.15C217.863 19.15 219.88 20.7533 220.188 23.1767C220.283 23.8396 220.561 24.1634 221.159 24.111C221.569 24.074 221.998 23.9753 222.399 23.8396C224.011 23.297 225.695 22.2117 227.76 20.7841C229.314 19.7081 231.272 19.1531 233.671 19.1531C235.715 19.1531 236.942 20.5313 236.902 22.5138L244.629 5.4049C245.322 3.86944 246.855 2.87972 248.504 2.87972H250.863L239.874 27.2127C239.159 28.7975 237.901 31.5817 237.843 32.8119C237.799 33.669 238.021 34.2024 238.749 34.2024C239.427 34.2024 240.352 33.7523 241.089 33.1634C244.12 30.7461 247.216 25.1963 251.529 19.0298C251.893 18.5118 252.531 17.8859 253.123 17.8859C254.017 17.8859 254.736 18.3607 254.141 19.335C253.684 20.0812 253.983 20.5591 254.301 20.9291C254.782 21.4902 255.525 22.0976 256.055 22.7204C257.165 24.0216 258.399 25.6464 258.399 28.0729C258.399 29.1459 258.164 32.3032 255.627 34.1346C254.356 35.0503 252.691 35.63 250.885 35.63C249.235 35.63 248.082 35.3741 247.308 34.9825C246.488 34.5663 245.221 33.666 245.504 31.8222C245.689 30.6197 247.061 29.6978 248.017 29.6331C249.241 29.5529 250.095 30.3669 250.234 31.372C249.358 31.372 248.628 32.0195 248.597 32.8181C248.566 33.6166 249.136 34.2333 250.009 34.2333C252.186 34.2333 253.065 31.779 253.253 29.1428C253.49 25.8253 251.551 23.3001 251.507 21.1418C251.319 21.4193 251.131 21.6968 250.946 21.9774C247.694 26.8211 244.69 31.5601 241.638 33.9157C240.451 34.8314 239.088 35.6331 237.044 35.6331C234.889 35.6331 233.415 34.8468 233.128 33.1603C233.082 32.8828 233.073 32.5683 233.094 32.2322C231.146 34.9825 229.357 35.6361 227.541 35.6361C223.361 35.6361 222.004 31.8777 222.806 28.6896C223.08 27.5673 223.481 25.9332 224.742 24.0123ZM229.65 33.7215C231.392 33.7215 233.486 31.0113 235.163 25.9455C235.888 23.7564 236.396 20.1274 233.988 20.1274C232.182 20.1274 230.551 22.0575 229.04 25.3165C228.025 27.5087 227.717 29.334 227.733 30.6074C227.763 33 228.765 33.7215 229.65 33.7215ZM194.304 27.3885C195.778 23.3371 196.777 20.0164 194.193 20.0133C191.6 20.0164 190.182 23.3371 188.708 27.3885C187.234 31.4398 186.235 34.7605 188.819 34.7636C191.412 34.7605 192.83 31.4398 194.304 27.3885ZM213.994 27.3885C215.467 23.3371 216.466 20.0164 213.883 20.0133C211.29 20.0164 209.871 23.3371 208.398 27.3885C206.924 31.4398 205.925 34.7605 208.509 34.7636C211.098 34.7605 212.517 31.4398 213.994 27.3885ZM49.4129 6.64128C46.2927 9.55804 42.8888 14.4357 39.3862 19.8746C36.5311 24.3083 33.3893 28.5508 29.7418 31.4861C27.1951 33.5365 23.0789 35.6762 19.2094 37.1099C17.9854 37.5632 16.8754 37.7883 15.9165 37.7883C18.9011 35.7471 21.3708 33.0092 27.2999 19.8808L33.2875 6.64128C30.2875 9.44704 27.0224 14.0657 23.6616 19.2518C20.5167 24.1048 17.4397 28.4398 15.8456 30.3946C12.4633 34.5354 9.61129 37.7883 4.64418 37.7883C2.36566 37.7883 0.913452 36.8263 0.315302 35.2538C-0.437011 33.2836 0.201221 30.743 1.80143 29.6608C1.79834 32.3124 3.83637 33.225 5.74182 33.225C8.35641 33.225 10.4345 31.7728 12.4078 30.0863C14.6462 28.1716 18.6051 24.4995 21.9844 19.2579C26.2022 12.7122 30.6915 6.62587 34.6288 4.02669C35.2978 3.63203 36.3677 2.87664 37.8878 2.87664H40.3852L30.9319 23.8026L30.9227 23.8273L30.9135 23.8489C29.1776 27.6783 27.2598 30.5488 25.3359 32.6577C27.3184 31.779 29.5291 30.1325 31.7644 27.7245C32.5815 26.8427 33.377 25.8962 34.157 24.8972C35.5198 23.1521 36.8333 21.2435 38.1159 19.2518C42.7285 12.0894 47.6216 5.48507 51.858 3.38537C52.4869 3.05547 53.23 2.87356 53.9237 2.87356H56.5137L47.0604 23.7996C42.192 34.5755 35.8651 37.7883 32.045 37.7883C35.0296 35.7471 37.4993 33.0092 43.4284 19.8808L49.4129 6.64128ZM119.847 21.965C120.617 20.3278 122.073 19.4368 123.722 19.4368H126.081L122.572 27.2065C121.857 28.7913 120.599 31.5755 120.537 32.8057C120.494 33.6629 121.074 34.1963 121.977 34.1963C122.773 34.1963 123.611 33.7677 124.225 33.444C125.877 32.5776 127.33 31.1562 128.72 29.4912C130.465 27.4008 131.307 24.0308 130.669 23.3155C130.435 23.0503 129.698 22.8653 128.665 23.112C128.566 22.7698 128.538 22.3967 128.594 22.002C128.816 20.4234 130.302 19.1439 131.914 19.1439C133.527 19.1439 134.655 20.4234 134.433 21.9989C134.255 23.2692 132.957 26.0318 131.39 28.2024C130.789 29.038 130.092 29.8581 129.334 30.6567C128.011 32.0442 126.738 33.3083 125.211 34.1439C124.317 34.6341 123.67 35.0195 122.662 35.2662C121.724 35.4974 120.728 35.6207 119.742 35.6207C117.587 35.6207 116.113 34.8345 115.826 33.148C115.635 32.0287 116.063 30.3422 116.726 28.8746L119.847 21.965ZM136.786 22.3443C134.489 24.9804 133.934 27.2528 133.573 28.6803C132.772 31.8653 134.131 35.6269 138.309 35.6269C140.128 35.6269 141.917 34.9732 143.865 32.223C143.84 32.5591 143.85 32.8736 143.899 33.151C144.189 34.8407 145.66 35.6238 147.815 35.6238C149.862 35.6238 151.28 34.8623 152.47 33.9465C153.593 33.0709 153.627 32.0041 153.59 31.4923C153.001 32.1459 152.418 32.6978 151.851 33.151C151.114 33.7369 150.201 34.1994 149.52 34.1994C148.792 34.1994 148.573 33.6629 148.613 32.8088C148.672 31.5786 149.93 28.7944 150.648 27.2096L154.157 19.4398H151.798C150.149 19.4398 148.697 20.3309 147.926 21.965L147.676 22.5138C147.716 20.5282 146.486 19.1531 144.442 19.1531C140.945 19.1469 138.389 20.5036 136.786 22.3443ZM140.424 33.5241C139.539 33.5241 138.537 32.8026 138.51 30.41C138.494 29.1367 138.802 27.5087 139.817 25.3165C141.328 22.0575 142.959 20.1274 144.765 20.1274C147.173 20.1274 146.665 23.7595 145.94 25.9455C144.263 31.0113 142.166 33.5241 140.424 33.5241ZM105.087 21.9619C103.604 25.0051 100.777 28.4553 98.9021 30.1295C97.1632 31.6834 95.8836 32.6115 94.7706 33.1819C93.6144 33.7739 92.3903 34.1994 90.9628 34.1994C89.156 34.1994 88.4314 33.1973 88.1848 32.7163C87.9474 32.2507 87.6699 31.2672 87.8055 29.6886C89.3657 29.6146 94.6565 29.5498 97.0984 27.1387C98.6986 25.557 99.0933 24.0216 98.9145 22.6865C98.637 20.6392 96.2505 19.1469 93.7007 19.1469C90.2043 19.1469 87.7531 20.5529 86.0943 22.3443C84.1796 24.41 83.2485 26.4018 82.8816 28.6803C82.342 32.0257 84.5342 35.6269 89.1961 35.6269C91.2495 35.6269 92.5136 35.4296 93.9813 34.8253C96.007 33.9897 96.8148 33.3977 99.5774 30.8849C100.496 30.0493 101.443 29.0904 102.426 27.854L99.0471 35.3402H101.406C103.055 35.3402 104.591 34.3473 105.281 32.815L107.153 28.668C109.157 24.262 112.845 22.3319 114.278 22.3319C115.718 22.3319 116.301 22.6433 117.084 23.5837C118.86 21.9126 118.635 19.15 115.555 19.15C113.134 19.15 110.911 22.2148 109.176 24.1819L111.318 19.4368H108.96C107.31 19.4368 105.858 20.3247 105.087 21.9619ZM89.0727 25.3165C90.5805 22.0637 92.2053 20.1274 94.009 20.1274C95.7202 20.1274 95.7973 22.6896 94.2711 24.9064C92.7264 27.151 89.9237 28.4059 87.9689 28.6033C88.1663 27.629 88.5147 26.519 89.0727 25.3165ZM57.2598 12.8386C57.9659 11.2723 59.8096 10.0051 61.3759 10.0051C62.9422 10.0051 63.639 11.2754 62.9299 12.8386C62.2238 14.4049 60.38 15.6721 58.8138 15.6721C57.2475 15.6721 56.5507 14.4018 57.2598 12.8386ZM53.4273 21.9619L50.3009 28.8777C49.638 30.3484 49.2094 32.0318 49.4006 33.151C49.6904 34.8407 51.1611 35.6238 53.3163 35.6238C54.6514 35.6238 55.9957 35.1922 56.9792 34.6279C58.4684 33.7739 59.9021 32.186 61.7398 29.852C62.0358 29.4789 62.3657 29.0257 62.711 28.5354L59.6401 35.3371H61.9957C63.6452 35.3371 64.9587 34.3104 65.8744 32.8088C67.1293 30.7492 68.1837 29.0287 69.1581 27.5889C71.7696 23.7441 73.5887 21.9219 75.1581 21.0616C75.528 20.8581 76.0738 20.5714 76.5455 20.5714C77.2732 20.5714 77.4921 21.1079 77.452 21.9619C77.3934 23.1922 76.1354 25.9763 75.4201 27.5611L71.9114 35.3309H74.2701C75.9196 35.3309 77.4551 34.3381 78.1457 32.8057L81.266 25.89C81.9289 24.4193 82.3574 22.7358 82.1663 21.6166C81.8764 19.927 80.3903 19.1439 78.2351 19.1439C76.5023 19.1439 75.2598 19.7173 74.1992 20.4512C72.6853 21.4193 70.9987 23.1706 68.8035 26.3124L71.9083 19.4306H69.5496C67.9001 19.4306 66.4479 20.3217 65.674 21.9558C64.8045 23.7903 62.5414 27.1695 60.9319 29.2168C59.7449 30.7245 58.7583 31.8499 57.8703 32.6577C56.9823 33.4655 55.8446 34.1932 55.0152 34.1932C54.2475 34.1932 54.0717 33.6105 54.1118 32.7996C54.1704 31.5693 55.4314 28.7852 56.1468 27.2004L59.6524 19.4306H57.2937C55.6503 19.4368 54.1981 20.3247 53.4273 21.9619ZM174.744 23.8026L176.81 19.2271C178.878 18.5272 181.135 17.63 183.602 16.5015C182.06 20.3864 180.019 23.4512 177.445 25.5848C179.603 26.1767 183.559 24.0771 186.537 17.9414L189.454 11.4789C186.059 13.4183 181.968 15.6875 177.636 17.3957L184.194 2.87664H181.697C179.948 2.87664 178.327 3.92803 177.593 5.5529L171.349 19.3597C169.484 19.7698 167.612 20.0072 165.775 20.0072C160.715 20.0072 159.423 15.1603 161.279 11.0503C163.746 5.58681 172.484 1.1531 182.023 1.1531C191.446 1.1531 199.117 6.41929 207.503 6.41929C214.875 6.41929 218.668 3.63203 218.985 0.00305176C211.885 4.66492 191.945 0.00305176 182.541 0.00305176C170.326 0.00305176 159.923 4.94858 157.169 11.0472C154.906 16.0575 156.91 18.8386 159.587 20.1397C162.099 21.2343 165.614 21.78 170.668 20.8551C165.056 33.148 162.636 35.7996 159.728 37.7883C163.552 37.7883 169.878 34.5786 174.744 23.8026Z" fill="#CD2026"/>
</g>
<defs>
<clipPath id="clip0">
<rect width="258" height="56" fill="white"/>
</clipPath>
</defs>
</svg>
