<svg width="89" height="56" viewBox="0 0 89 56" fill="none" xmlns="http://www.w3.org/2000/svg">
<g clip-path="url(#clip0)">
<path d="M0 31.5281H6.78392L10.5819 12.4791H3.79707L0 31.5281Z" fill="#EA1D2C"/>
<path d="M4.39746 9.48759H11.1787L12.272 4H5.48442L4.39746 9.48759Z" fill="#EA1D2C"/>
<path d="M9.46875 36.8918H16.2536L20.3702 16.2761H25.3198L26.099 12.479H21.1057L21.2769 11.5996C21.5964 9.97553 22.1144 8.08656 24.6725 8.08656C26.1882 8.08656 27.6411 8.25406 29.0513 8.85763L29.8223 4.84571C28.2757 4.28403 26.5861 4 24.9338 4C19.4853 4 15.7274 7.30639 14.3519 12.479H11.9959L11.2594 16.2761H13.5808L9.46875 36.8918Z" fill="#EA1D2C"/>
<path d="M30.9587 31.9523C38.9698 31.9523 44.5275 24.4984 44.5275 18.4181C44.5275 13.9902 40.4191 12.0539 36.5128 12.0539C27.7224 12.0539 22.9395 20.0695 22.9395 25.5881C22.9395 30.0169 27.0906 31.9523 30.9587 31.9523Z" fill="#EA1D2C"/>
<path d="M52.3607 31.9523C60.3718 31.9523 65.9295 24.4984 65.9295 18.4181C65.9295 13.9902 61.812 12.0539 57.9102 12.0539C49.1244 12.0539 44.3369 20.0695 44.3369 25.5881C44.3378 30.0169 48.4936 31.9523 52.3607 31.9523Z" fill="#EA1D2C"/>
<path d="M76.9599 31.5281H83.7056L89.1267 4.4252H82.3382L80.7214 12.4791C79.842 12.2997 78.9262 12.1595 77.9804 12.1595C71.3321 12.1595 65.291 20.7705 65.291 26.9245C65.291 29.4562 66.9069 31.9523 69.6498 31.9523C73.5488 31.9523 76.2471 30.0087 77.3723 28.1862H77.7938L76.9599 31.5281Z" fill="#EA1D2C"/>
<path d="M56.0604 45.8842C51.099 50.1883 44.4662 52.3968 37.2562 51.9407C28.1664 51.3718 21.8649 44.2019 20.5986 36.9309H21.0274C23.0721 41.5764 28.0498 45.8614 34.2967 46.566C40.396 47.2515 47.87 44.444 51.9711 40.4358L47.372 36.8918L61.0345 36.9309L58.0941 51.6649L56.0604 45.8842Z" fill="#EA1D2C"/>
</g>
<defs>
<clipPath id="clip0">
<rect width="89" height="56" fill="white"/>
</clipPath>
</defs>
</svg>
