<svg width="199" height="56" viewBox="0 0 199 56" fill="none" xmlns="http://www.w3.org/2000/svg">
<g clip-path="url(#clip0)">
<path d="M110.027 37.2763H118.683V33.7424H110.027V30.7178H119.926V27.1838H105.541V27.24V43.5258H121.658V39.9918H110.027V37.2763Z" fill="#1B2A4A"/>
<path d="M122.448 30.7178H128.863V43.5258H133.349V30.7178H139.76V27.1838H122.448V30.7178Z" fill="#1B2A4A"/>
<path d="M146.67 37.2763H155.325V33.7424H146.67V30.7178H157.661V27.1838H142.184V27.24V43.5258H158.301V39.9918H146.67V37.2763Z" fill="#1B2A4A"/>
<path d="M43.1069 30.7178H49.5741C50.3645 30.7178 50.9687 30.8899 51.3867 31.2342C51.8047 31.5785 52.012 32.0773 52.012 32.7237C52.012 33.3173 51.8012 33.7881 51.3762 34.1323C50.9546 34.4766 50.3609 34.6276 49.5951 34.6276H43.1069V30.7178ZM54.8434 36.7775C55.9464 35.8536 56.498 34.5117 56.498 32.7412C56.498 31.9122 56.3469 31.1569 56.0413 30.4789C55.7357 29.7974 55.3071 29.2108 54.752 28.719C54.197 28.2272 53.5225 27.8478 52.7357 27.5808C51.9453 27.3138 51.067 27.1838 50.0975 27.1838H38.6279V27.24V43.5258H43.1139V38.1616H48.2462L51.9523 43.5258H56.7684L52.683 37.8419C53.5436 37.6136 54.2673 37.2588 54.8434 36.7775Z" fill="#1B2A4A"/>
<path d="M68.2163 40.3115C65.4306 40.3115 63.1718 38.6358 63.1718 35.3443C63.1718 32.0527 65.4306 30.3771 68.2163 30.3771C71.002 30.3771 73.2608 32.0527 73.2608 35.3443C73.2608 38.6358 71.002 40.3115 68.2163 40.3115ZM68.2234 26.6885C68.2198 26.6885 68.2163 26.6885 68.2163 26.6885C68.2128 26.6885 68.2093 26.6885 68.2058 26.6885C63.0313 26.6885 58.6191 29.4953 58.6191 35.3443C58.6191 41.1967 62.9435 44 68.2058 44C68.2093 44 68.2128 44 68.2163 44C68.2198 44 68.2198 44 68.2234 44C73.4892 44 77.81 41.1932 77.81 35.3443C77.8135 29.4953 73.4013 26.6885 68.2234 26.6885Z" fill="#1B2A4A"/>
<path d="M169.265 40.3115C166.479 40.3115 164.22 38.6358 164.22 35.3443C164.22 32.0527 166.479 30.3771 169.265 30.3771C172.05 30.3771 174.309 32.0527 174.309 35.3443C174.309 38.6358 172.05 40.3115 169.265 40.3115ZM169.275 26.6885C169.272 26.6885 169.268 26.6885 169.265 26.6885C169.261 26.6885 169.258 26.6885 169.254 26.6885C164.08 26.6885 159.664 29.4953 159.664 35.3443C159.664 41.1967 163.988 44 169.254 44C169.258 44 169.261 44 169.265 44C169.268 44 169.268 44 169.275 44C174.541 44 178.865 41.1932 178.865 35.3443C178.865 29.4953 174.45 26.6885 169.275 26.6885Z" fill="#1B2A4A"/>
<path d="M97.416 27.1838L91.2263 35.6991L85.0366 27.1838H80.4453V43.5258H84.9313V33.4824L91.2263 41.8712L97.5249 33.4192V43.4696H102.011V27.1838H97.416Z" fill="#1B2A4A"/>
<path d="M194.67 27.1838V37.589L186.154 27.1838H181.454V43.5258H185.94V33.24L194.561 43.5258H199.156V27.1838H194.67Z" fill="#1B2A4A"/>
<path d="M18.8712 25.1007C17.8876 25.1007 17.0937 25.8981 17.0937 26.8782V29.692H10.5878V20H13.7318H18.6745H27.0948C28.4895 20 29.7576 20.1897 30.8958 20.5726C32.034 20.9555 33 21.5 33.8009 22.2096C34.5984 22.9192 35.2201 23.7623 35.6592 24.7424C36.0984 25.7225 36.3162 26.808 36.3162 28.0023C36.3162 30.5457 35.5222 32.4813 33.9344 33.8091C32.3466 35.137 29.9895 35.8009 26.8595 35.8009H10.5878L6.35129 30.7143H26.3782C27.4777 30.7143 28.3314 30.4965 28.9426 30.0012C29.5503 29.5059 29.856 28.8279 29.856 27.9742C29.856 27.0398 29.5574 26.3267 28.9567 25.8314C28.4016 25.3712 27.6007 25.1323 26.582 25.1007H18.8712ZM9.5726 35.8045L5.33606 30.7108H3.30211L7.53864 35.808H9.5726V35.8045ZM6.52342 35.8045L2.28689 30.7108H0L4.48946 35.808H6.52342V35.8045ZM17.0937 36.8197H10.5878V43.5258H17.0937V36.8197Z" fill="#1B2A4A"/>
</g>
<defs>
<clipPath id="clip0">
<rect width="199" height="56" fill="white"/>
</clipPath>
</defs>
</svg>
