<svg width="168" height="56" viewBox="0 0 168 56" fill="none" xmlns="http://www.w3.org/2000/svg">
<g clip-path="url(#clip0)">
<path fill-rule="evenodd" clip-rule="evenodd" d="M72.6748 46.9708L77.1198 46.968V35.8146H67.5158V39.65L72.4857 39.6726C71.5206 41.4139 70.2421 43.0479 67.9561 43.0282C65.4387 43.1552 62.9665 41.0385 62.9016 37.5362C62.7971 33.7431 65.4387 31.7281 67.7868 31.8128C69.2317 31.8748 70.973 32.6509 71.498 34.2455L76.0474 32.0865C74.1198 28.8777 70.9759 27.2436 67.9561 27.3678C62.2722 27.3255 57.7877 30.8701 57.5986 37.3273C57.5986 43.5136 62.4867 46.9708 66.7002 47.2248C69.3418 47.3715 71.481 46.3668 72.6748 44.8344V46.9708ZM80.4331 46.9905H93.6212V42.8193H85.6541V39.0658H92.3625V35.0188H85.6739V31.7253H93.6212V27.492H80.4331V46.9905ZM151.75 27.492L151.773 39.6923C151.773 44.4111 154.646 47.0921 159.949 46.9877C165.085 46.8805 167.642 44.6171 168.082 39.7347V27.492H162.923V39.1477C163.047 41.1175 162.043 42.3565 159.946 42.4186C157.996 42.4609 156.695 41.4336 156.864 39.1477V27.492H151.75ZM103.891 36.65C105.517 36.5033 106.234 35.6792 106.276 34.1608C106.318 32.7271 105.644 31.7761 103.891 31.6067C103.51 31.5644 103.09 31.587 102.627 31.6067H101.529V36.6077L103.155 36.65C103.406 36.6698 103.657 36.6698 103.891 36.65ZM103.891 27.5117C105.918 27.5738 107.543 27.8081 108.892 28.7986C110.41 29.9811 111.192 31.6039 111.192 33.6528C111.192 36.6923 109.609 38.5493 106.719 39.2239L112.352 46.9877H106.042L103.888 43.635L101.523 39.9209V46.9905H96.418V27.492H102.455C102.94 27.492 103.426 27.5117 103.891 27.5117ZM122.591 27.5766C124.279 27.746 125.67 28.2314 126.895 29.0752C129.195 30.8052 130.925 33.4666 131.029 37.2624C130.925 41.7159 128.71 44.5211 126.283 45.873C125.247 46.381 124.067 46.7196 122.591 46.8861C121.874 46.9708 121.112 46.9934 120.268 46.9934H114.463V27.492H121.259C121.702 27.5117 122.145 27.5343 122.591 27.5766ZM122.591 42.2634C124.426 41.8203 125.631 40.364 125.546 37.1354C125.461 34.0959 124.363 32.6848 122.591 32.2192C122.19 32.1147 121.747 32.0498 121.304 32.0301H119.636V42.3904H121.239C121.702 42.3904 122.168 42.348 122.591 42.2634ZM140.856 27.5117H143.811L150.966 46.9905H145.372L144.316 43.4035H140.856H137.354L136.383 46.9905H130.877L137.631 27.5117H140.856ZM140.856 39.3706H143.134L140.856 32.4901L140.71 32.0244L138.579 39.3678H140.856V39.3706Z" fill="#004A8F"/>
<path d="M48 4H0V52H48V4Z" fill="#004A8F"/>
<path d="M23.4042 46.7113H20.0373V45.1139C18.7871 46.271 17.026 47.1967 14.5961 47.1967C8.09656 47.1967 4.83691 41.8712 4.83691 37.2795C4.83691 32.6877 8.06269 27.3481 14.4973 27.3481C20.9319 27.3481 23.3675 33.1026 23.3675 33.1026L20.455 34.8467C20.455 34.8467 18.4484 31.0424 14.5622 31.0424C10.6789 31.0424 8.42393 34.4008 8.42393 37.2795C8.42393 40.1609 10.7127 43.4855 14.63 43.4855C17.3449 43.4855 18.8887 41.8317 19.5801 40.8185H14.5933V37.2654H23.4042V46.7113Z" fill="white"/>
<path d="M24.6602 37.2625H33.4767V40.8184H28.4871C29.1813 41.8316 30.7279 43.4854 33.4428 43.4854C37.3629 43.4854 39.6517 40.158 39.6517 37.2766C39.6517 34.3951 37.3939 31.0367 33.5078 31.0367C29.6216 31.0367 27.6122 34.8438 27.6122 34.8438L24.694 33.0969C24.694 33.0969 27.1296 27.3396 33.5698 27.3396C40.0101 27.3396 43.2359 32.6849 43.2359 37.2766C43.2359 41.8711 39.9762 47.2023 33.4711 47.2023C31.0412 47.2023 29.2801 46.2766 28.027 45.1195V46.7168H24.6602V37.2625Z" fill="white"/>
</g>
<defs>
<clipPath id="clip0">
<rect width="168" height="56" fill="white"/>
</clipPath>
</defs>
</svg>
