<svg width="128" height="56" viewBox="0 0 128 56" fill="none" xmlns="http://www.w3.org/2000/svg">
<g clip-path="url(#clip0)">
<path d="M16.7307 29.8194C16.6141 29.9821 16.4975 30.1079 16.3778 30.1968C16.2582 30.2858 16.0986 30.3318 15.8961 30.3318C15.6752 30.3318 15.4359 30.2398 15.172 30.0526C14.9082 29.8685 14.583 29.663 14.1964 29.439C13.8098 29.215 13.3311 29.0125 12.7697 28.8254C12.2051 28.6413 11.5148 28.5462 10.6956 28.5462C9.5972 28.5462 8.63073 28.7425 7.79619 29.1352C6.96165 29.528 6.26211 30.0956 5.70064 30.8381C5.1361 31.5806 4.71269 32.4765 4.42735 33.5319C4.14201 34.5874 3.99781 35.7655 3.99781 37.0726C3.99781 38.4379 4.15122 39.6498 4.45803 40.7114C4.76485 41.773 5.20053 42.6628 5.76507 43.3838C6.32961 44.1048 7.00767 44.654 7.80846 45.0314C8.60925 45.4088 9.50208 45.599 10.4992 45.599C11.4504 45.599 12.2327 45.4824 12.8494 45.2523C13.4631 45.0222 13.9724 44.7675 14.3743 44.4852C14.7762 44.203 15.1137 43.9483 15.3837 43.7182C15.6537 43.4881 15.9207 43.3715 16.1845 43.3715C16.5067 43.3715 16.7552 43.4973 16.9301 43.7489L18.0285 45.1971C17.5468 45.8045 16.9976 46.3261 16.3809 46.7557C15.7673 47.1852 15.1045 47.5473 14.3927 47.8357C13.684 48.1241 12.9384 48.3358 12.1652 48.4708C11.389 48.6058 10.5974 48.6702 9.79356 48.6702C8.40368 48.6702 7.11199 48.4094 5.91848 47.8909C4.72496 47.3724 3.69099 46.6176 2.81043 45.6327C1.93294 44.6448 1.2426 43.4329 0.745562 41.9939C0.248521 40.558 0 38.9196 0 37.0787C0 35.4035 0.230112 33.851 0.690335 32.4274C1.15056 31.0038 1.82555 29.7765 2.70918 28.7425C3.59588 27.7116 4.68508 26.9047 5.97984 26.3279C7.2746 25.7511 8.76573 25.4596 10.4471 25.4596C12.0118 25.4596 13.3925 25.7143 14.586 26.2266C15.7795 26.739 16.835 27.4631 17.7585 28.3958L16.7307 29.8194Z" fill="#8E8D91"/>
<path d="M22.2197 48.3634V25.8124H24.5699C25.1253 25.8124 25.4689 26.0886 25.6008 26.6347L25.8862 28.9512C26.7054 27.9264 27.6289 27.0888 28.6537 26.4353C29.6784 25.7818 30.8627 25.4565 32.2096 25.4565C33.7038 25.4565 34.9127 25.8799 35.8423 26.7268C36.772 27.5736 37.4409 28.7149 37.852 30.1539C38.1741 29.3378 38.5883 28.6321 39.0915 28.0399C39.5978 27.4478 40.1623 26.9569 40.7944 26.5703C41.4233 26.1837 42.0922 25.9014 42.804 25.7235C43.5127 25.5455 44.2338 25.4565 44.967 25.4565C46.1391 25.4565 47.1822 25.6468 48.0966 26.0242C49.0109 26.4015 49.7871 26.9569 50.4253 27.684C51.0635 28.4112 51.5482 29.3071 51.8857 30.3656C52.2232 31.4272 52.392 32.6391 52.392 34.0044V48.3634H48.4617V34.0044C48.4617 32.2402 48.0812 30.8995 47.3203 29.9851C46.5594 29.0739 45.461 28.6167 44.0282 28.6167C43.3839 28.6167 42.7733 28.7333 42.1934 28.9634C41.6135 29.1936 41.1073 29.5311 40.6686 29.9759C40.2298 30.4208 39.88 30.9823 39.6254 31.6573C39.3707 32.3323 39.2419 33.1147 39.2419 34.0044V48.3634H35.3116V34.0044C35.3116 32.1942 34.9526 30.8442 34.2346 29.9545C33.5167 29.0647 32.4704 28.6198 31.0959 28.6198C30.1294 28.6198 29.2366 28.8837 28.4174 29.4114C27.5982 29.9391 26.8434 30.654 26.1562 31.5591V48.3665H22.2197V48.3634Z" fill="#8E8D91"/>
<path d="M62.0718 29.3101C63.0076 28.1381 64.0907 27.1962 65.321 26.4843C66.5513 25.7725 67.9566 25.4166 69.5367 25.4166C70.8253 25.4166 71.9881 25.6651 73.0282 26.1622C74.0683 26.6592 74.952 27.3925 75.6852 28.3651C76.4155 29.3377 76.98 30.5435 77.3758 31.9825C77.7716 33.4214 77.968 35.0752 77.968 36.9468C77.968 38.6097 77.7471 40.1561 77.3083 41.5889C76.8696 43.0217 76.2344 44.2612 75.4091 45.3075C74.5807 46.3537 73.5713 47.176 72.3778 47.7774C71.1843 48.3787 69.8404 48.6794 68.3493 48.6794C66.987 48.6794 65.8211 48.4462 64.8485 47.9768C63.8759 47.5104 63.0138 46.86 62.2682 46.0285V56H58.3379V25.8155H60.6881C61.2434 25.8155 61.5871 26.0916 61.719 26.6378L62.0718 29.3101ZM62.2713 42.9327C62.9892 43.9115 63.7716 44.6018 64.6215 45.0037C65.4714 45.4057 66.4225 45.6051 67.4749 45.6051C69.552 45.6051 71.1474 44.8565 72.2612 43.3561C73.3749 41.8589 73.9303 39.7204 73.9303 36.9437C73.9303 35.474 73.8014 34.213 73.5467 33.1607C73.289 32.1083 72.9208 31.2431 72.4391 30.5681C71.9574 29.8931 71.3622 29.3991 70.6596 29.0861C69.957 28.7732 69.1593 28.6198 68.2664 28.6198C66.9932 28.6198 65.8764 28.9174 64.9191 29.5095C63.9588 30.1048 63.0782 30.9424 62.2743 32.0254V42.9327H62.2713Z" fill="#8E8D91"/>
<path d="M98.4328 29.8195C98.3162 29.9821 98.1996 30.1079 98.08 30.1968C97.9603 30.2858 97.8008 30.3318 97.5983 30.3318C97.3774 30.3318 97.138 30.2398 96.8742 30.0526C96.6103 29.8686 96.2851 29.663 95.8985 29.439C95.5119 29.215 95.0333 29.0125 94.4718 28.8254C93.9073 28.6413 93.2169 28.5462 92.3977 28.5462C91.2993 28.5462 90.3329 28.7425 89.4983 29.1353C88.6638 29.528 87.9643 30.0956 87.4028 30.8381C86.8382 31.5806 86.4148 32.4765 86.1295 33.5319C85.8442 34.5874 85.7 35.7656 85.7 37.0726C85.7 38.4379 85.8534 39.6498 86.1602 40.7114C86.467 41.773 86.9027 42.6628 87.4672 43.3838C88.0317 44.1048 88.7098 44.654 89.5106 45.0314C90.3114 45.4088 91.2042 45.599 92.2014 45.599C93.1525 45.599 93.9349 45.4824 94.5516 45.2523C95.1652 45.0222 95.6745 44.7675 96.0765 44.4853C96.4784 44.203 96.8159 43.9483 97.0859 43.7182C97.3559 43.4881 97.6228 43.3715 97.8867 43.3715C98.2088 43.3715 98.4573 43.4973 98.6322 43.7489L99.7306 45.1971C99.2489 45.8046 98.6997 46.3261 98.083 46.7557C97.4694 47.1852 96.8067 47.5473 96.0949 47.8357C95.3861 48.1241 94.6406 48.3358 93.8674 48.4708C93.0911 48.6058 92.2996 48.6702 91.4957 48.6702C90.1058 48.6702 88.8141 48.4094 87.6206 47.8909C86.4271 47.3724 85.3931 46.6176 84.5126 45.6327C83.6351 44.6448 82.9447 43.4329 82.4477 41.9939C81.9507 40.5549 81.7021 38.9135 81.7021 37.0757C81.7021 35.4004 81.9323 33.848 82.3925 32.4243C82.8527 31.0007 83.5277 29.7734 84.4113 28.7395C85.298 27.7086 86.3872 26.9016 87.682 26.3248C88.9767 25.748 90.4679 25.4565 92.1492 25.4565C93.714 25.4565 95.0946 25.7112 96.2882 26.2236C97.4817 26.736 98.5371 27.46 99.4606 28.3928L98.4328 29.8195Z" fill="#8E8D91"/>
<path d="M102.697 45.4056C102.847 45.4056 102.995 45.424 103.133 45.4639C103.274 45.5038 103.403 45.559 103.525 45.6327C103.645 45.7063 103.759 45.7922 103.857 45.8935C103.958 45.9947 104.044 46.1052 104.114 46.231C104.185 46.3537 104.24 46.4856 104.28 46.6298C104.32 46.771 104.338 46.9182 104.338 47.0716C104.338 47.222 104.32 47.3693 104.28 47.5104C104.24 47.6515 104.185 47.7835 104.114 47.9062C104.044 48.0289 103.958 48.1424 103.857 48.2406C103.755 48.3419 103.645 48.4278 103.525 48.5014C103.406 48.575 103.274 48.6303 103.133 48.6702C102.992 48.71 102.847 48.7285 102.697 48.7285C102.547 48.7285 102.402 48.71 102.261 48.6702C102.123 48.6303 101.991 48.575 101.872 48.5014C101.749 48.4278 101.642 48.3419 101.54 48.2406C101.442 48.1394 101.356 48.0289 101.283 47.9062C101.209 47.7835 101.157 47.6515 101.117 47.5104C101.077 47.3693 101.059 47.222 101.059 47.0686C101.059 46.9152 101.077 46.7679 101.117 46.6268C101.157 46.4856 101.212 46.3537 101.283 46.2279C101.353 46.1052 101.439 45.9917 101.54 45.8904C101.638 45.7892 101.749 45.7032 101.872 45.6296C101.991 45.556 102.123 45.5008 102.261 45.4609C102.402 45.4271 102.547 45.4056 102.697 45.4056ZM102.697 48.526C102.829 48.526 102.955 48.5075 103.077 48.4738C103.2 48.44 103.314 48.391 103.418 48.3296C103.522 48.2682 103.621 48.1915 103.706 48.1025C103.792 48.0136 103.866 47.9154 103.927 47.808C103.989 47.7006 104.035 47.584 104.068 47.4582C104.102 47.3324 104.118 47.2036 104.118 47.0686C104.118 46.8661 104.081 46.6759 104.007 46.4979C103.933 46.3199 103.832 46.1635 103.703 46.0315C103.574 45.8996 103.424 45.7953 103.252 45.7186C103.077 45.6419 102.893 45.6051 102.697 45.6051C102.565 45.6051 102.439 45.6235 102.317 45.6572C102.194 45.691 102.083 45.7401 101.979 45.8045C101.875 45.8689 101.78 45.9426 101.694 46.0346C101.608 46.1267 101.534 46.2218 101.473 46.3322C101.411 46.4396 101.365 46.5593 101.332 46.6851C101.298 46.8109 101.283 46.9428 101.283 47.0778C101.283 47.2128 101.298 47.3416 101.332 47.4674C101.365 47.5932 101.411 47.7068 101.473 47.8172C101.534 47.9277 101.608 48.0228 101.694 48.1118C101.78 48.2007 101.875 48.2744 101.979 48.3388C102.083 48.4032 102.197 48.4493 102.317 48.483C102.439 48.5106 102.565 48.526 102.697 48.526ZM102.672 46.053C102.93 46.053 103.123 46.099 103.246 46.1942C103.369 46.2893 103.43 46.4273 103.43 46.6145C103.43 46.7556 103.39 46.8784 103.311 46.9796C103.231 47.0809 103.111 47.1483 102.955 47.1852C102.979 47.2005 103.001 47.222 103.022 47.2435C103.041 47.2649 103.059 47.2926 103.074 47.3232L103.587 48.0841H103.252C103.203 48.0841 103.166 48.0657 103.145 48.0289L102.691 47.3416C102.679 47.3232 102.66 47.3079 102.642 47.2956C102.623 47.2864 102.596 47.2803 102.556 47.2803H102.378V48.0841H102.028V46.0561H102.672V46.053ZM102.636 47.0164C102.801 47.0164 102.918 46.9857 102.985 46.9244C103.053 46.863 103.087 46.774 103.087 46.6605C103.087 46.6053 103.081 46.5562 103.065 46.5132C103.05 46.4703 103.028 46.4365 102.995 46.4089C102.961 46.3813 102.921 46.3598 102.866 46.3476C102.814 46.3353 102.746 46.3261 102.669 46.3261H102.375V47.0164H102.636Z" fill="#8E8D91"/>
<path d="M105.711 24.2016C106.389 20.394 107.232 16.6662 108.282 13.2698C105.419 11.6774 102.136 9.82422 102.136 9.82422C100.611 11.9198 99.7922 15.3254 99.4424 19.36C101.081 21.4587 103.232 23.1369 105.711 24.2016Z" fill="#008D36"/>
<path d="M115.605 0C112.441 2.65702 110.064 7.4863 108.281 13.2698C107.232 16.6662 106.391 20.394 105.71 24.2016C106.747 24.6465 107.839 24.984 108.978 25.1988C109.699 25.3368 110.435 25.4289 111.187 25.4657C114.012 17.5499 117.507 9.89787 121.606 4.84155C118.756 2.69998 115.605 0 115.605 0Z" fill="#3AAA35"/>
<path d="M125.41 1.09229C124.091 2.0741 122.824 3.34431 121.609 4.84157C117.507 9.89789 114.012 17.5529 111.187 25.4657C111.447 25.478 111.711 25.4872 111.975 25.4872C112.552 25.4872 113.123 25.4534 113.684 25.3952C121.661 24.5422 127.871 17.7923 127.871 9.59108C127.874 6.46156 126.969 3.54988 125.41 1.09229Z" fill="#95C11F"/>
</g>
<defs>
<clipPath id="clip0">
<rect width="127.875" height="56" fill="white"/>
</clipPath>
</defs>
</svg>
