<svg width="251" height="56" viewBox="0 0 251 56" fill="none" xmlns="http://www.w3.org/2000/svg">
<path fill-rule="evenodd" clip-rule="evenodd" d="M24.2342 24.1527V16.6643L15.4095 8H0V15.0099H14.908" fill="#F89929"/>
<path fill-rule="evenodd" clip-rule="evenodd" d="M0 17.321V24.1527H16.8578V48H24.2647V27.1435L14.4703 17.321" fill="#F89929"/>
<path fill-rule="evenodd" clip-rule="evenodd" d="M50.7791 15.0099L50.7002 8H35.3671L26.5322 16.6643V24.1527L35.866 15.0099" fill="#F89929"/>
<path fill-rule="evenodd" clip-rule="evenodd" d="M26.5098 27.1435V48H33.9091V24.1527H50.7745V17.321H36.3093" fill="#F89929"/>
<path fill-rule="evenodd" clip-rule="evenodd" d="M57.5039 43.0722H250.616V40.4556H57.5039V43.0722ZM244.194 33.7232H250.616V13.6506H244.194V33.7232ZM235.309 28.6223H234.68L224.178 13.6506H213.447V33.7232H219.662L219.53 18.7617H220.205L230.76 33.7232H241.384V13.6506H235.176L235.309 28.6223ZM204.22 33.7232H210.632V13.6506H204.22V33.7232ZM195.377 28.7114C195.146 28.7827 194.845 28.8539 194.525 28.8539C194.196 28.8717 193.122 28.8972 191.333 28.8972H182.694V25.5806H191.333C193.746 25.5806 195.031 25.6341 195.253 25.6697C195.846 25.8377 196.156 26.3264 196.156 27.1689C196.159 27.9834 195.902 28.4899 195.377 28.7114ZM182.694 18.3697H191.315C193.239 18.3951 194.331 18.4129 194.553 18.4842C195.12 18.6446 195.413 19.1129 195.413 19.9121C195.413 20.6834 195.174 21.1619 194.695 21.3401C194.331 21.5004 193.196 21.5717 191.315 21.5717H182.694V18.3697ZM200.611 24.1781C200.185 23.8778 199.519 23.6716 198.64 23.5214C199.633 23.2033 200.336 22.7222 200.75 22.0502C201.132 21.3681 201.336 20.3219 201.336 18.866C201.336 17.6697 201.193 16.7101 200.954 16.0356C200.697 15.3356 200.272 14.8113 199.651 14.4473C199.048 14.04 198.091 13.8084 196.759 13.7372C196.192 13.7015 194.374 13.6761 191.287 13.6481H176.865V33.7206H191.33C194.71 33.7028 196.759 33.685 197.431 33.6315C198.495 33.5424 199.338 33.3821 199.923 33.1352C200.509 32.8781 200.969 32.4963 201.333 31.9567C201.83 31.1855 202.087 29.9611 202.087 28.3296C202.092 26.2195 201.588 24.8348 200.611 24.1781ZM157.062 26.6904L151.083 13.6506H139.988V33.7232H146.021L145.888 18.7082H146.952L154.527 33.7232H159.61L167.185 18.7082H168.178L168.017 33.7232H174.058V13.6506H163.034L157.062 26.6904ZM131.278 26.8762C131.146 27.4005 130.914 27.8078 130.55 28.0827C130.168 28.3932 129.557 28.579 128.733 28.6681C127.926 28.7572 126.284 28.8005 123.846 28.8005C121.204 28.8005 119.437 28.7394 118.533 28.6223C117.291 28.4899 116.563 27.8943 116.306 26.8762C116.174 26.3264 116.103 25.4483 116.103 24.2239C116.103 22.175 116.217 20.8183 116.467 20.1438C116.688 19.4616 117.195 19.0264 117.938 18.8227C118.602 18.6624 120.572 18.5733 123.792 18.5733C126.658 18.5733 128.44 18.6166 129.193 18.7337C129.911 18.8227 130.461 19.0976 130.782 19.5507C131.049 19.8969 131.217 20.3932 131.324 21.0754C131.421 21.7499 131.456 22.796 131.456 24.2418C131.456 25.4661 131.395 26.3264 131.278 26.8762ZM132.734 13.6786C131.102 13.475 128.132 13.3604 123.795 13.3604C119.44 13.3604 116.469 13.475 114.863 13.6786C112.504 13.9968 111.076 15.1065 110.526 17.041C110.172 18.3264 109.984 20.5078 109.984 23.5698C109.984 26.7897 110.17 29.0601 110.526 30.3735C111.076 32.2723 112.504 33.3897 114.863 33.7079C116.469 33.9293 119.483 34.0184 123.848 34.0184C128.15 34.0184 131.102 33.9293 132.736 33.7079C135.068 33.3897 136.524 32.2723 137.046 30.3735C137.4 29.0601 137.588 26.8355 137.588 23.6767C137.588 20.5714 137.402 18.3289 137.046 17.0435C136.521 15.1065 135.065 13.9968 132.734 13.6786ZM101.93 22.5644C101.823 22.8826 101.62 23.132 101.363 23.2924C101.159 23.4247 100.91 23.496 100.617 23.524C100.324 23.5673 99.4384 23.5851 97.9392 23.6131H89.3257V18.6624H97.9213C99.3238 18.6878 100.184 18.6878 100.484 18.7057C100.803 18.7311 101.052 18.8024 101.256 18.8915C101.566 19.0238 101.77 19.2733 101.884 19.5914C102.017 19.9096 102.088 20.4085 102.088 21.0728C102.091 21.7321 102.019 22.2284 101.93 22.5644ZM107.945 23.3814C108.123 22.7069 108.22 21.643 108.22 20.1616C108.22 18.4409 108.077 17.1734 107.785 16.3487C107.51 15.5418 106.985 14.9029 106.224 14.4498C105.585 14.0604 104.929 13.839 104.229 13.7677C103.547 13.7066 101.462 13.6786 98.0104 13.6532H83.2246V33.7257H89.3257V28.6223H97.9392C99.2067 28.6223 100.049 28.6656 100.441 28.7114C100.848 28.7827 101.159 28.943 101.391 29.1645C101.622 29.4215 101.755 29.8033 101.844 30.2819C101.933 30.7527 101.986 31.5494 101.986 32.6592V33.7232H107.991V31.86C107.991 30.1215 107.947 28.9863 107.876 28.4441C107.787 27.8943 107.583 27.4413 107.247 27.0595C106.698 26.4206 105.776 26.0311 104.498 25.9421C105.59 25.7817 106.38 25.4635 106.929 25.0385C107.421 24.6312 107.757 24.0814 107.945 23.3814ZM57.5039 18.7591H66.4355V33.7206H72.8828V18.7591H81.7966V13.6328H57.5039" fill="#231F20"/>
</svg>
