<svg width="243" height="56" viewBox="0 0 243 56" fill="none" xmlns="http://www.w3.org/2000/svg">
<g clip-path="url(#clip0)">
<path d="M99.1194 17.261L91.9155 24.4323L61.0117 25.5742L86.1406 28.9086L78.0427 36.6737L91.0933 31.7797L97.3184 37.8091L97.4685 29.1827L116.672 27.2381L98.1471 24.7585L99.1194 17.261Z" fill="url(#paint0_linear)"/>
<path d="M97.8011 19.9298L92.3329 25.3784L72.3916 26.1158L88.2546 28.2169L82.0882 34.1288L91.3214 30.6639L96.3981 35.584L96.5221 28.3148L108.437 27.1076L97.0702 25.5872L97.8011 19.9298Z" fill="url(#paint1_linear)"/>
<path fill-rule="evenodd" clip-rule="evenodd" d="M128.366 48.5889C128.953 47.31 129.501 46.0114 130.004 44.6999C130.513 43.3948 131.087 41.7635 131.733 39.7928C132.287 38.1028 132.757 36.5498 133.142 35.1273C133.534 33.7047 133.867 32.3149 134.154 30.9511C135.178 31.0359 135.968 31.0816 136.509 31.1142C137.051 31.1403 137.534 31.1599 137.958 31.1599C138.238 31.1599 138.623 31.1468 139.119 31.1273C139.609 31.1012 140.418 31.062 141.56 30.9902C140.992 32.2888 140.457 33.6003 139.955 34.9184C139.439 36.2757 138.865 37.907 138.238 39.8255L137.906 40.8304C137.384 42.4225 136.96 43.8189 136.627 45.0392C136.307 46.2268 136.02 47.4209 135.765 48.6215C134.989 48.5824 134.212 48.5498 133.436 48.5171C132.907 48.4976 132.372 48.4845 131.844 48.478C131.517 48.478 131.185 48.4845 130.858 48.491C130.434 48.5041 129.606 48.5302 128.366 48.5889ZM99.2695 48.4649C99.8437 47.1599 100.379 45.8418 100.881 44.5106C101.384 43.1599 101.932 41.5481 102.532 39.6689C102.943 38.3508 103.335 37.0261 103.687 35.695C104.098 34.2072 104.509 32.5954 104.946 30.8467C105.651 30.8923 106.212 30.9185 106.617 30.938C107.028 30.9576 107.374 30.9641 107.661 30.9707C107.974 30.9707 108.333 30.9641 108.738 30.9511C109.142 30.938 109.697 30.9054 110.402 30.8662C112.307 32.9087 114.278 34.8793 116.32 36.7782C118.402 38.7162 120.548 40.5889 122.754 42.3899L124.294 37.5351C124.731 36.1517 125.09 34.9641 125.358 33.9658C125.625 32.9674 125.88 31.956 126.108 30.9315C126.584 30.9707 126.995 31.0033 127.341 31.0163C127.687 31.0424 127.987 31.049 128.229 31.049C128.457 31.049 128.842 31.0359 129.384 31.0098C129.919 30.9837 130.323 30.9576 130.584 30.9446C130.082 31.8907 129.534 33.1697 128.933 34.7749C128.333 36.3736 127.537 38.7488 126.545 41.8875L126.154 43.1207C125.749 44.3997 125.442 45.4503 125.234 46.279C125.025 47.1077 124.862 47.8711 124.751 48.5693C124.248 48.5237 123.746 48.491 123.243 48.4649C122.93 48.4454 122.617 48.4388 122.304 48.4323C121.971 48.4323 121.638 48.4388 121.312 48.4519C120.933 48.4649 120.411 48.4976 119.765 48.5432C117.814 46.5074 115.811 44.5237 113.749 42.6052C111.596 40.602 109.384 38.6574 107.126 36.7782L104.862 43.9103C104.699 44.4193 104.509 45.0653 104.287 45.8548C104.046 46.7292 103.805 47.5971 103.576 48.478C103.087 48.4323 102.676 48.3997 102.33 48.3801C102.023 48.3605 101.71 48.3475 101.403 48.3475C101.227 48.3475 100.992 48.354 100.685 48.3736C100.379 48.3932 99.8959 48.4127 99.2695 48.4649ZM80.2874 33.1958C79.139 33.0979 77.9905 33.0196 76.8355 32.9609C75.6479 32.9021 74.4603 32.8695 73.2727 32.863C73.0574 33.372 72.8486 33.8875 72.6528 34.4095C72.4506 34.9446 72.2091 35.6428 71.9285 36.5041L71.5827 37.5677C70.5843 40.615 69.8796 42.8728 69.4815 44.3279C69.077 45.7896 68.7638 47.1207 68.5288 48.3279C67.4261 48.2692 66.6104 48.23 66.0753 48.217C65.6577 48.1974 65.2336 48.1909 64.816 48.1844C64.3983 48.1844 63.9024 48.1909 63.3347 48.2039C62.7736 48.217 62.0036 48.2431 61.0378 48.2953C61.6055 47.0359 62.1406 45.7635 62.643 44.478C63.152 43.1534 63.7328 41.4894 64.3918 39.4992C64.7181 38.5008 65.0313 37.5025 65.338 36.4976C65.6904 35.3556 66.0492 34.1289 66.4342 32.8304C65.2271 32.8238 64.0134 32.8434 62.7931 32.8956C61.5794 32.9478 60.3788 33.0196 59.1846 33.1109L59.2368 33.0196C59.524 32.4323 59.7001 32.0147 59.7784 31.7667C59.8111 31.6623 59.8633 31.447 59.9155 31.1207C59.9546 30.9185 59.9873 30.7553 60.0199 30.6313C62.8714 30.7096 65.0639 30.7684 66.5974 30.8075C68.1243 30.8467 69.4293 30.8597 70.506 30.8662C71.5109 30.8728 72.7442 30.8597 74.2189 30.8467C75.6936 30.8206 77.984 30.7879 81.1031 30.7227C80.9987 30.9511 80.8943 31.1795 80.7899 31.4078C80.7116 31.5906 80.6463 31.7406 80.6137 31.8516C80.5484 32.0669 80.4832 32.2822 80.4375 32.4976C80.3722 32.726 80.3266 32.9609 80.2874 33.1958ZM45.2923 48.23C45.8796 46.9511 46.4277 45.6525 46.9302 44.341C47.4391 43.0359 48.0134 41.4046 48.6594 39.4405C49.214 37.7504 49.6838 36.1974 50.0688 34.7749C50.4603 33.3524 50.7931 31.9625 51.0802 30.5987C52.1047 30.6835 52.8943 30.7292 53.4359 30.7618C53.9775 30.7879 54.4603 30.8075 54.8845 30.8075C55.1651 30.8075 55.5501 30.7945 56.046 30.7749C56.5354 30.7488 57.3445 30.7096 58.4864 30.6313C57.9187 31.9299 57.3837 33.2415 56.8812 34.5596C56.3657 35.9168 55.7915 37.5481 55.1651 39.4666L54.8323 40.4715C54.3103 42.0636 53.8861 43.46 53.5533 44.6803C53.2336 45.8679 52.9465 47.062 52.692 48.2627C51.7589 48.217 50.9824 48.1844 50.3625 48.1583C49.8339 48.1387 49.2988 48.1256 48.7703 48.1191C48.5419 48.1191 48.2091 48.1191 47.785 48.1322C47.3608 48.1452 46.5321 48.1778 45.2923 48.23ZM7.661 46.279C7.91548 46.3246 8.14387 46.3638 8.35268 46.3899C8.56801 46.4095 8.76377 46.4225 8.93995 46.4225C10.3168 46.4291 11.4848 46.1289 12.444 45.5351C13.4032 44.9348 14.0623 44.093 14.4212 43.0098C14.7801 41.9266 14.643 41.0914 14.0166 40.4976C13.3902 39.9038 12.3135 39.6101 10.7997 39.6036C10.5908 39.6036 10.2581 39.6167 9.77519 39.6493H9.68383L8.63326 42.8532C8.47666 43.3361 8.31352 43.8711 8.15039 44.4519C7.97421 45.0522 7.81108 45.6656 7.661 46.279ZM10.1993 37.8418C10.2776 37.8418 10.3951 37.8483 10.5647 37.8548C10.7279 37.8614 10.8519 37.8679 10.9236 37.8679C12.5419 37.8744 13.8209 37.6199 14.7736 37.1109C15.7262 36.5954 16.3788 35.8189 16.7246 34.7618C17.0052 33.9136 16.8682 33.261 16.3266 32.8043C15.785 32.3475 14.8453 32.1191 13.5338 32.1126C13.351 32.1126 12.9922 32.1256 12.4375 32.1583H12.3005C12.0721 32.6281 11.8568 33.1044 11.661 33.5873C11.4587 34.0767 11.276 34.5791 11.1129 35.0816L10.1993 37.8418ZM0.00683594 48.0343C0.450555 47.199 0.855123 46.3377 1.21401 45.4633C1.58595 44.5759 1.99052 43.46 2.42772 42.1289L3.10635 40.0604L3.93506 37.5286C4.54191 35.6689 4.98563 34.2202 5.25969 33.1827C5.53375 32.1452 5.72299 31.2186 5.86002 30.403C6.94321 30.4356 7.90896 30.4552 8.75724 30.4747C9.599 30.4878 10.3364 30.5008 10.9497 30.5074C11.5174 30.5074 12.3135 30.5074 13.3445 30.4943C14.0884 30.4813 14.8258 30.4747 15.5696 30.4813C18.7801 30.4943 21.0117 30.8401 22.2776 31.5253C23.537 32.2039 23.9285 33.2741 23.4522 34.7292C23.0933 35.8255 22.2581 36.7129 20.9595 37.385C19.661 38.0571 18.0492 38.4356 16.1308 38.5204L16.046 38.7879C18.1667 38.8597 19.6936 39.2708 20.6072 40.0408C21.5207 40.8043 21.7556 41.8483 21.3184 43.1795C20.8029 44.739 19.5631 45.9527 17.5925 46.814C15.6153 47.6754 13.0966 48.0995 10.0231 48.0865C9.38367 48.0865 8.26785 48.0604 6.6822 48.0212C5.09656 47.9821 3.83065 47.9625 2.89754 47.956C2.35594 47.956 1.48155 47.9821 0.267847 48.0277C0.176493 48.0277 0.0916646 48.0343 0.00683594 48.0343ZM32.046 38.553H32.2156C34.3886 38.5596 36.059 38.2985 37.2205 37.7569C38.3886 37.2219 39.1651 36.3605 39.5566 35.1795C39.909 34.1093 39.7458 33.3393 39.0737 32.8499C38.3951 32.3671 37.1292 32.1191 35.2825 32.1126C35.2695 32.1126 35.1585 32.1061 34.9497 32.0995C34.7344 32.093 34.5256 32.0865 34.3103 32.0865C34.121 32.5041 33.9448 32.9348 33.7817 33.3654C33.6186 33.8026 33.4359 34.3442 33.214 35.0098L32.046 38.553ZM22.1732 48.1322C22.7214 46.9641 23.2368 45.783 23.7132 44.5824C24.1961 43.3752 24.7116 41.9266 25.2662 40.23L25.5599 39.3361C26.2059 37.372 26.7083 35.7145 27.0607 34.3769C27.4 33.0979 27.6936 31.8059 27.9351 30.5008C28.0264 30.5074 28.1308 30.5074 28.2613 30.5139C29.4685 30.5791 30.3559 30.6118 30.9041 30.6183C31.674 30.6183 32.9595 30.5987 34.7475 30.5465C36.5419 30.5008 37.9318 30.4747 38.9171 30.4813C41.9709 30.4943 44.0917 30.8728 45.2662 31.6101C46.4473 32.354 46.7736 33.509 46.2581 35.0881C45.8535 36.3149 44.9726 37.3132 43.6218 38.0897C42.2711 38.8597 40.6267 39.2969 38.6887 39.4013C39.5566 40.9543 40.4767 42.4747 41.4489 43.956C42.4147 45.4176 43.4326 46.8467 44.5028 48.2366C43.6088 48.1909 42.7214 48.1517 41.8274 48.1256C41.3054 48.1061 40.7768 48.0995 40.2548 48.093C39.7654 48.093 39.2042 48.0995 38.5778 48.1191C37.9514 48.1387 37.201 48.1648 36.3266 48.2039C36.0199 47.2969 35.4783 46.1354 34.6887 44.739C33.9057 43.3426 32.8747 41.7243 31.6153 39.8907L30.506 43.2708C30.2189 44.1322 29.9644 45 29.7295 45.8744C29.5207 46.677 29.338 47.447 29.201 48.1778C28.3461 48.1256 27.6479 48.0865 27.1194 48.0669C26.5843 48.0473 26.121 48.0343 25.7426 48.0343C25.2727 48.0343 24.8094 48.0408 24.3396 48.0539C23.785 48.0539 23.0607 48.08 22.1732 48.1322ZM71.7589 48.3475C74.8519 45.4046 77.8926 42.4095 80.8812 39.3556C82.4212 37.7831 83.9416 36.1909 85.4489 34.5857L90.9432 32.5237L93.7295 35.2186C94.1536 36.6999 94.5974 38.1746 95.0541 39.6493C95.9807 42.6118 96.9856 45.5481 98.0558 48.4584C97.2988 48.4323 96.5484 48.4127 95.7915 48.3932C95.2368 48.3801 94.6822 48.3671 94.1275 48.3671C93.4881 48.3671 92.8486 48.3671 92.2156 48.3801C91.5435 48.3932 91.2695 48.4062 90.4864 48.4258C90.4538 47.5906 90.3037 46.7488 90.0884 45.9201C89.8731 45.0914 89.5794 44.2757 89.2597 43.4861C89.0117 43.4796 88.3788 43.4535 87.3478 43.4339C86.5191 43.4144 85.6904 43.3948 84.8616 43.3948C84.6594 43.3948 84.0656 43.4013 83.0868 43.4144C82.1014 43.4339 81.214 43.447 80.4244 43.4535C79.5435 44.4845 78.1406 46.0767 76.2287 48.23L76.0982 48.3671C75.6088 48.341 75.2042 48.3214 74.891 48.3083C74.6365 48.2953 74.382 48.2888 74.1275 48.2822C73.7621 48.2822 73.3967 48.2888 73.0313 48.3018C72.6202 48.3018 72.2026 48.3214 71.7589 48.3475ZM82.3755 41.3328C82.4734 41.3328 82.6169 41.3393 82.8258 41.3459C84.1243 41.3785 85.0509 41.3915 85.612 41.3981C86.245 41.3981 87.289 41.385 88.7246 41.3589H88.9399C88.8029 40.4584 88.6267 39.5645 88.3983 38.6835C88.1569 37.7308 87.8633 36.7977 87.524 35.8777C86.5843 36.8108 85.6577 37.7635 84.7507 38.7227C83.9416 39.5775 83.1455 40.4454 82.3755 41.3328ZM136.822 48.6215C139.915 45.6786 142.956 42.6835 145.945 39.6297C148.855 36.6477 151.654 33.6721 154.33 30.7096H154.447C155.328 30.7814 156.796 30.8206 156.385 30.814C155.726 30.814 156.281 30.7945 157.057 30.7423C157.26 30.7292 157.403 30.7162 157.501 30.7162C158.297 33.8026 159.165 36.876 160.118 39.9168C161.044 42.8793 162.049 45.8157 163.119 48.726C162.362 48.6999 161.612 48.6803 160.855 48.6607C160.196 48.6476 159.641 48.6346 159.191 48.6346C158.591 48.6346 157.958 48.6411 157.279 48.6476C156.607 48.6607 156.333 48.6737 155.55 48.6933C155.517 47.8581 155.367 47.0163 155.152 46.1876C154.937 45.3589 154.643 44.5432 154.323 43.7537C154.075 43.7472 153.442 43.7211 152.411 43.7015C151.583 43.6819 150.754 43.6689 149.925 43.6623C149.723 43.6623 149.129 43.6689 148.15 43.6819C147.165 43.7015 146.278 43.7145 145.488 43.7211C144.607 44.7521 143.204 46.3442 141.292 48.4976L141.162 48.6346C140.672 48.6085 140.268 48.5889 139.955 48.5759C139.7 48.5628 139.446 48.5563 139.191 48.5498C138.826 48.5498 138.46 48.5563 138.095 48.5693C137.69 48.5824 137.273 48.602 136.822 48.6215ZM147.446 41.6134C147.544 41.6134 147.687 41.6199 147.896 41.6264C149.194 41.6591 150.121 41.6721 150.682 41.6786C151.315 41.6786 152.359 41.6656 153.795 41.6395H154.01C153.873 40.739 153.697 39.845 153.468 38.9641C153.227 38.0114 152.933 37.0783 152.594 36.1583C151.654 37.0914 150.728 38.0441 149.821 39.0033C149.012 39.8516 148.216 40.726 147.446 41.6134Z" fill="#2D4F9E"/>
<path d="M181.788 28.8107C181.886 28.8302 181.984 28.8563 182.075 28.8563C182.584 28.8563 183.08 28.9412 183.582 29.0195C183.922 29.0717 184.261 29.1239 184.594 29.2152C184.868 29.287 185.135 29.4045 185.403 29.5023C185.572 29.5611 185.742 29.6263 185.912 29.6981C185.997 29.7373 186.075 29.796 186.16 29.8417C186.212 29.8678 186.264 29.8873 186.316 29.9069C186.382 29.933 186.447 29.9526 186.506 29.9917C186.747 30.1549 187.001 30.305 187.204 30.5268C187.302 30.6377 187.439 30.7161 187.537 30.827C187.687 30.9901 187.824 31.1598 187.954 31.336C188.072 31.4991 188.183 31.6687 188.287 31.8384C188.515 32.2038 188.705 32.5823 188.809 33.0064C188.874 33.2805 188.959 33.548 189.018 33.8221C189.063 34.0439 189.096 34.2723 189.122 34.5007C189.194 35.088 189.168 35.6753 189.161 36.2691C189.155 36.5692 189.103 36.8629 189.083 37.163C189.057 37.5937 188.907 37.9983 188.809 38.4094C188.763 38.5986 188.737 38.7944 188.613 38.951C188.607 38.9575 188.607 38.964 188.607 38.9705C188.574 39.2577 188.365 39.473 188.28 39.7405C188.274 39.7731 188.248 39.7993 188.228 39.8319C188.091 40.0407 187.954 40.2495 187.811 40.4518C187.752 40.5366 187.667 40.6019 187.602 40.6802C187.497 40.7911 187.393 40.902 187.282 41.013C187.256 41.0456 187.223 41.0717 187.197 41.0978C187.145 41.15 187.093 41.2022 187.047 41.2544C187.034 41.2674 187.021 41.2935 187.008 41.3066C186.786 41.4697 186.571 41.6394 186.349 41.796C186.166 41.92 185.97 42.0244 185.775 42.1353C185.67 42.194 185.553 42.2397 185.435 42.2854C185.233 42.3637 185.031 42.4289 184.829 42.5007C184.711 42.5464 184.594 42.5921 184.47 42.6312C184.359 42.6639 184.241 42.6899 184.13 42.7095C183.98 42.7422 183.83 42.7748 183.68 42.7944C183.413 42.8335 183.145 42.8661 182.877 42.8988C182.075 42.9901 181.272 42.9183 180.47 42.9444C180.463 42.9444 180.45 42.9444 180.431 42.951C180.431 44.7976 180.431 46.6443 180.431 48.5105C180.378 48.5105 180.339 48.5105 180.3 48.5105C178.936 48.5105 177.566 48.5105 176.202 48.5105C176.163 48.5105 176.117 48.5105 176.078 48.517C176.078 41.9591 176.078 35.3947 176.078 28.8368C177.984 28.8107 179.882 28.8107 181.788 28.8107ZM180.431 32.778C180.431 34.7813 180.431 36.765 180.431 38.7617C180.47 38.7617 180.509 38.7617 180.541 38.7617C180.894 38.7617 181.246 38.7617 181.592 38.7617C181.683 38.7617 181.775 38.7356 181.866 38.7291C182.121 38.7161 182.369 38.703 182.61 38.6247C182.616 38.6247 182.623 38.6247 182.63 38.6247C182.767 38.5921 182.917 38.5855 183.034 38.5268C183.295 38.3963 183.556 38.2462 183.798 38.0831C183.941 37.9917 184.085 37.8808 184.183 37.7438C184.365 37.4697 184.515 37.1761 184.678 36.889C184.692 36.8694 184.692 36.8498 184.698 36.8237C184.718 36.7193 184.731 36.6149 184.744 36.5105C184.77 36.3474 184.816 36.1777 184.816 36.0146C184.816 35.7731 184.848 35.5252 184.776 35.2838C184.737 35.1271 184.757 34.9575 184.711 34.8074C184.652 34.6116 184.554 34.4289 184.47 34.2397C184.431 34.1484 184.391 34.057 184.333 33.9787C184.215 33.8286 184.078 33.6916 183.954 33.548C183.778 33.3457 183.523 33.2544 183.315 33.1043C183.302 33.0913 183.282 33.0913 183.262 33.0847C183.028 33.013 182.793 32.9216 182.551 32.8694C182.336 32.8172 182.114 32.7911 181.892 32.7846C181.442 32.7715 180.992 32.778 180.541 32.778C180.509 32.778 180.47 32.778 180.431 32.778Z" fill="black"/>
<path d="M194.93 28.8107C194.93 28.8499 194.923 28.889 194.923 28.9217C194.923 31.4861 194.923 34.0505 194.923 36.615C194.923 36.6476 194.923 36.6867 194.923 36.752C194.962 36.7063 194.989 36.6802 195.015 36.6541C195.387 36.243 195.752 35.8254 196.131 35.4143C196.202 35.336 196.287 35.2708 196.365 35.2055C196.672 34.9771 197.011 34.8009 197.357 34.6509C197.527 34.5791 197.723 34.553 197.905 34.5073C198.016 34.4812 198.134 34.4551 198.251 34.429C198.264 34.4225 198.284 34.4159 198.297 34.4159C198.617 34.4029 198.936 34.3637 199.256 34.3768C199.739 34.3964 200.202 34.5203 200.666 34.6509C200.724 34.6704 200.783 34.7031 200.835 34.7357C201.024 34.8466 201.214 34.9641 201.396 35.075C201.416 35.088 201.436 35.1011 201.449 35.1142C201.749 35.4013 202.029 35.708 202.225 36.0734C202.356 36.3148 202.447 36.5823 202.512 36.8499C202.61 37.2479 202.675 37.659 202.754 38.0701C202.76 38.1158 202.767 38.168 202.767 38.2137C202.767 41.5938 202.767 44.9804 202.767 48.3605C202.767 48.3996 202.767 48.4388 202.767 48.4845C201.468 48.4845 200.183 48.4845 198.884 48.4845C198.884 48.4388 198.884 48.3996 198.884 48.3605C198.884 45.8939 198.878 43.4274 198.891 40.9608C198.891 40.5562 198.852 40.1582 198.76 39.7667C198.734 39.6492 198.708 39.5383 198.682 39.4208C198.617 39.1403 198.421 38.9445 198.245 38.7357C198.199 38.677 198.101 38.6639 198.042 38.6117C197.768 38.3833 197.429 38.3768 197.103 38.3442C196.77 38.3115 196.444 38.3572 196.144 38.5073C195.967 38.5987 195.817 38.7226 195.661 38.8466C195.569 38.9184 195.491 39.0097 195.413 39.0946C195.374 39.1403 195.341 39.199 195.321 39.2577C195.158 39.6427 194.969 40.0212 194.93 40.4518C194.923 40.5171 194.917 40.5758 194.917 40.6411C194.917 43.2055 194.917 45.7699 194.917 48.3344C194.917 48.3801 194.917 48.4192 194.917 48.4714C193.605 48.4714 192.307 48.4714 190.995 48.4714C190.995 48.4323 190.995 48.3996 190.995 48.367C190.995 41.8809 190.995 35.3882 190.995 28.9021C190.995 28.8695 190.995 28.8368 191.002 28.8042C192.307 28.8107 193.618 28.8107 194.93 28.8107Z" fill="black"/>
<path d="M216.248 28.8107C216.248 28.8564 216.241 28.9086 216.241 28.9543C216.241 35.4143 216.241 41.8743 216.241 48.3344C216.241 48.3801 216.241 48.4257 216.241 48.4779C214.943 48.4779 213.657 48.4779 212.365 48.4779C212.365 48.4323 212.365 48.3866 212.365 48.3409C212.365 41.8678 212.365 35.4013 212.365 28.9282C212.365 28.889 212.365 28.8434 212.365 28.8042C213.657 28.8107 214.956 28.8107 216.248 28.8107Z" fill="black"/>
<path d="M209.468 28.8107C209.468 28.8499 209.462 28.8956 209.462 28.9347C209.462 30.0179 209.462 31.1011 209.462 32.1908C209.462 32.23 209.462 32.2691 209.462 32.3083C208.17 32.3083 206.884 32.3083 205.579 32.3083C205.579 32.2757 205.579 32.2365 205.579 32.1974C205.579 31.1076 205.579 30.0179 205.579 28.9217C205.579 28.8825 205.579 28.8434 205.579 28.8042C206.878 28.8107 208.17 28.8107 209.468 28.8107Z" fill="black"/>
<path d="M236.045 48.7194C235.895 48.7194 235.752 48.7194 235.602 48.7194C235.315 48.7259 235.034 48.6737 234.753 48.615C234.545 48.5693 234.329 48.5497 234.127 48.491C233.918 48.4323 233.69 48.4062 233.501 48.2691C233.468 48.243 233.416 48.243 233.377 48.23C233.272 48.1908 233.174 48.1452 233.07 48.0995C233.044 48.0864 233.024 48.0669 233.005 48.0669C232.855 48.0473 232.737 47.9559 232.613 47.8711C232.417 47.7406 232.222 47.6166 232.032 47.4861C231.576 47.1729 231.158 46.814 230.799 46.3964C230.545 46.0962 230.271 45.8091 230.075 45.4633C229.899 45.1501 229.716 44.8434 229.572 44.5106C229.481 44.2887 229.409 44.0669 229.337 43.8385C229.311 43.7536 229.24 43.6753 229.226 43.5905C229.161 43.2773 229.109 42.9641 229.057 42.6444C228.985 42.2072 228.946 41.7634 228.972 41.3132C228.985 41.0391 229.037 40.7651 229.05 40.491C229.063 40.243 229.155 40.0147 229.194 39.7732C229.2 39.7406 229.194 39.7015 229.2 39.6688C229.233 39.5579 229.266 39.4535 229.298 39.3426C229.324 39.2577 229.364 39.1794 229.383 39.0946C229.435 38.8727 229.546 38.677 229.631 38.4682C229.801 38.0571 230.062 37.6917 230.297 37.3132C230.368 37.2023 230.453 37.0979 230.551 37.0065C230.721 36.8434 230.832 36.615 231.047 36.491C231.106 36.4584 231.138 36.367 231.191 36.3148C231.321 36.1909 231.452 36.0669 231.595 35.9625C231.915 35.7276 232.235 35.4927 232.567 35.2708C232.698 35.1794 232.855 35.1142 232.998 35.0489C233.207 34.9511 233.416 34.8532 233.631 34.7683C233.722 34.7292 233.82 34.7031 233.912 34.6835C234.277 34.5987 234.649 34.5008 235.014 34.4356C235.478 34.3507 235.954 34.3899 236.424 34.3899C236.659 34.3899 236.9 34.416 237.135 34.4356C237.2 34.4421 237.259 34.4812 237.331 34.4878C237.651 34.5269 237.957 34.6052 238.258 34.7031C238.362 34.7357 238.453 34.7879 238.551 34.8271C238.571 34.8336 238.584 34.8532 238.603 34.8532C238.897 34.8858 239.119 35.0816 239.38 35.186C239.576 35.2643 239.752 35.4078 239.921 35.5383C240.163 35.7145 240.391 35.9037 240.626 36.093C240.757 36.1974 240.881 36.3018 240.998 36.4192C241.22 36.6476 241.442 36.8825 241.657 37.124C241.722 37.1957 241.755 37.2936 241.807 37.3785C241.964 37.6199 242.127 37.8548 242.284 38.0962C242.303 38.1223 242.329 38.155 242.336 38.1876C242.355 38.3377 242.447 38.4486 242.519 38.5726C242.551 38.6248 242.564 38.6835 242.59 38.7357C242.636 38.8466 242.688 38.9576 242.727 39.0685C242.773 39.1925 242.819 39.323 242.851 39.447C242.917 39.7341 242.982 40.0147 243.028 40.3018C243.125 40.8956 243.145 41.4894 243.125 42.0897C243.119 42.2006 243.093 42.3116 243.08 42.416C243.054 42.5856 243.041 42.7488 243.008 42.9119C242.949 43.2186 242.877 43.5187 242.799 43.8189C242.773 43.9103 242.721 44.0016 242.682 44.0864C242.669 44.1125 242.656 44.1321 242.649 44.1517C242.577 44.354 242.506 44.5563 242.427 44.7585C242.421 44.7716 242.414 44.7912 242.408 44.8042C242.166 45.1762 241.938 45.5546 241.69 45.92C241.605 46.0505 241.481 46.1615 241.383 46.2855C241.174 46.5465 240.907 46.7553 240.672 46.9902C240.385 47.2773 240.059 47.5318 239.693 47.7145C239.628 47.7471 239.569 47.7863 239.517 47.8254C239.282 47.9951 239.014 48.093 238.753 48.2039C238.421 48.3474 238.081 48.4584 237.729 48.5432C237.533 48.5889 237.331 48.6346 237.129 48.6541C236.77 48.6868 236.404 48.7063 236.045 48.7259C236.045 48.7324 236.045 48.7259 236.045 48.7194ZM233.024 41.5481C233.011 42.0636 233.07 42.4029 233.187 42.7096C233.24 42.8466 233.305 42.9837 233.37 43.1142C233.409 43.1925 233.448 43.2708 233.501 43.3491C233.572 43.4535 233.657 43.5579 233.735 43.6623C233.775 43.7145 233.814 43.7602 233.859 43.8058C233.99 43.9298 234.12 44.0538 234.264 44.1582C234.414 44.2757 234.564 44.3931 234.734 44.4714C235.06 44.615 235.406 44.7129 235.765 44.7455C236.045 44.7716 236.346 44.7651 236.62 44.7063C237.122 44.6019 237.592 44.4062 237.964 44.0277C238.042 43.9494 238.153 43.8907 238.225 43.8058C238.382 43.6036 238.525 43.3948 238.675 43.1859C238.812 42.9837 238.91 42.7618 238.956 42.5204C238.982 42.3899 239.008 42.2594 239.034 42.1289C239.06 41.9657 239.099 41.8026 239.106 41.6395C239.112 41.4829 239.086 41.3328 239.067 41.1762C239.047 41.0261 239.041 40.876 239.001 40.7324C238.91 40.3409 238.773 39.9755 238.512 39.6623C238.342 39.4665 238.192 39.2512 238.01 39.0685C237.84 38.9054 237.644 38.7553 237.442 38.6313C236.998 38.3638 236.489 38.3507 235.993 38.2985C235.817 38.2789 235.628 38.305 235.458 38.3442C235.119 38.4225 234.793 38.553 234.499 38.7488C234.401 38.814 234.316 38.8988 234.218 38.9641C233.931 39.1599 233.729 39.4339 233.527 39.708C233.474 39.7732 233.455 39.8646 233.416 39.9364C233.35 40.0669 233.266 40.1908 233.213 40.3214C233.096 40.6215 233.037 40.9282 233.031 41.2479C233.024 41.3523 233.024 41.4502 233.024 41.5481Z" fill="black"/>
<path d="M227.876 34.6574C227.876 35.9494 227.876 37.2349 227.876 38.5334C227.843 38.5269 227.817 38.5269 227.791 38.5138C227.667 38.4681 227.543 38.429 227.4 38.4355C227.302 38.4355 227.204 38.3964 227.106 38.3833C227.015 38.3703 226.923 38.3572 226.832 38.3442C226.623 38.3246 226.408 38.2854 226.199 38.305C225.821 38.3442 225.429 38.3181 225.064 38.4747C224.972 38.5138 224.868 38.5334 224.77 38.5595C224.365 38.6574 224.026 38.8923 223.7 39.1337C223.55 39.2446 223.439 39.4013 223.328 39.5513C223.217 39.6949 223.126 39.858 223.034 40.0146C223.015 40.0538 223.008 40.0995 222.995 40.1386C222.956 40.243 222.91 40.3474 222.865 40.4518C222.852 40.4779 222.845 40.504 222.838 40.5301C222.819 40.6345 222.799 40.7324 222.786 40.8368C222.773 40.9412 222.754 41.0522 222.747 41.1566C222.741 41.3132 222.754 41.4698 222.741 41.6264C222.708 41.9657 222.812 42.2854 222.897 42.6117C223.002 43.0163 223.256 43.3295 223.484 43.6557C223.576 43.7862 223.726 43.8841 223.85 43.9951C223.876 44.0212 223.915 44.0342 223.948 44.0603C224.398 44.4127 224.927 44.6019 225.475 44.7259C225.56 44.7455 225.651 44.752 225.742 44.7585C225.984 44.7781 226.225 44.8107 226.467 44.8042C226.734 44.7977 227.008 44.7455 227.276 44.7194C227.478 44.6998 227.674 44.6802 227.883 44.6672C227.883 45.9526 227.883 47.2186 227.883 48.4975C227.745 48.5171 227.608 48.5301 227.471 48.5497C227.315 48.5758 227.158 48.6019 227.002 48.628C226.871 48.6476 226.741 48.6802 226.61 48.6867C226.186 48.7063 225.762 48.7324 225.331 48.7324C225.057 48.7324 224.783 48.6867 224.509 48.6476C224.287 48.615 224.065 48.5367 223.843 48.5236C223.53 48.504 223.263 48.3605 222.976 48.2691C222.63 48.1647 222.31 48.0016 222.016 47.7993C221.931 47.7406 221.827 47.7145 221.749 47.6623C221.299 47.3556 220.887 47.0032 220.522 46.5986C220.183 46.2267 219.883 45.8221 219.641 45.3784C219.563 45.2283 219.485 45.0848 219.4 44.9347C219.393 44.9216 219.387 44.9151 219.38 44.9021C219.282 44.6084 219.178 44.3148 219.086 44.0146C219.002 43.7275 218.923 43.4339 218.858 43.1337C218.819 42.951 218.78 42.7683 218.773 42.5791C218.747 42.0831 218.721 41.5872 218.728 41.0913C218.734 40.7063 218.78 40.3278 218.839 39.9494C218.904 39.5579 219.034 39.1859 219.126 38.8009C219.132 38.7618 219.158 38.7226 219.171 38.69C219.21 38.5986 219.25 38.5138 219.289 38.4225C219.334 38.3246 219.367 38.2202 219.419 38.1288C219.615 37.8026 219.811 37.4828 220.02 37.1631C220.085 37.0587 220.17 36.9673 220.254 36.876C220.359 36.752 220.463 36.628 220.581 36.5105C220.698 36.3931 220.822 36.2887 220.94 36.1778C221.305 35.8384 221.749 35.6101 222.153 35.3295C222.199 35.2968 222.264 35.2838 222.316 35.2577C222.467 35.1924 222.61 35.1207 222.76 35.0619C222.878 35.0163 222.995 34.9771 223.119 34.9314C223.237 34.8858 223.354 34.8335 223.478 34.8009C223.654 34.7487 223.83 34.7161 224.006 34.6704C224.039 34.6639 224.072 34.6704 224.104 34.6639C224.391 34.5791 224.685 34.5725 224.979 34.5334C225.54 34.4486 226.101 34.5008 226.662 34.4942C226.858 34.4942 227.054 34.5464 227.256 34.5725C227.393 34.5921 227.53 34.6117 227.667 34.6313C227.726 34.6182 227.798 34.6378 227.876 34.6574Z" fill="black"/>
<path d="M209.455 48.4845C208.163 48.4845 206.877 48.4845 205.592 48.4845C205.592 43.8646 205.592 39.2447 205.592 34.6183C206.877 34.6183 208.163 34.6183 209.455 34.6183C209.455 39.2382 209.455 43.8516 209.455 48.4845Z" fill="black"/>
</g>
<defs>
<linearGradient id="paint0_linear" x1="108.463" y1="5.63006" x2="68.9239" y2="47.5006" gradientUnits="userSpaceOnUse">
<stop stop-color="#D47035"/>
<stop offset="0.27" stop-color="#D76F2C"/>
<stop offset="0.6744" stop-color="#F3C834"/>
<stop offset="1" stop-color="#F9C729"/>
</linearGradient>
<linearGradient id="paint1_linear" x1="75.7578" y1="11.0886" x2="103.569" y2="40.5394" gradientUnits="userSpaceOnUse">
<stop stop-color="#D47035"/>
<stop offset="0.27" stop-color="#D76F2C"/>
<stop offset="0.6744" stop-color="#F3C834"/>
<stop offset="1" stop-color="#F9C729"/>
</linearGradient>
<clipPath id="clip0">
<rect width="243" height="56" fill="white"/>
</clipPath>
</defs>
</svg>
