<svg width="66" height="56" viewBox="0 0 66 56" fill="none" xmlns="http://www.w3.org/2000/svg">
<g clip-path="url(#clip0)">
<path d="M5.62595 55.8285H0V44.0066H5.49156C7.90599 44.0066 9.39358 45.2069 9.39358 47.0652V47.0976C9.39358 48.4323 8.68454 49.1738 7.84111 49.6464C9.20821 50.1701 10.0563 50.9626 10.0563 52.5521V52.5845C10.0516 54.7487 8.29527 55.8285 5.62595 55.8285ZM6.80768 47.5008C6.80768 46.7222 6.2006 46.282 5.10228 46.282H2.53492V48.7845H4.93545C6.08474 48.7845 6.81231 48.4137 6.81231 47.5332V47.5008H6.80768ZM7.47037 52.2323C7.47037 51.4399 6.87719 50.9487 5.54254 50.9487H2.53492V53.5485H5.62595C6.77524 53.5485 7.46574 53.1407 7.46574 52.2648V52.2323H7.47037Z" fill="#B29475"/>
<path d="M20.0896 55.8285L17.5546 52.0423H15.5109V55.8285H12.9111V44.0066H18.3146C21.0998 44.0066 22.7728 45.4756 22.7728 47.9086V47.941C22.7728 49.8504 21.744 51.0506 20.2378 51.6067L23.125 55.8285H20.0896V55.8285ZM20.1405 48.043C20.1405 46.9262 19.362 46.3561 18.0968 46.3561H15.5109V49.753H18.1478C19.413 49.753 20.1405 49.0764 20.1405 48.0801V48.043V48.043Z" fill="#B29475"/>
<path d="M34.1495 55.8284L33.0698 53.1776H28.0694L26.9896 55.8284H24.3389L29.4087 43.9185H31.8092L36.8791 55.8284H34.1495ZM30.5673 47.0466L28.9963 50.8791H32.1383L30.5673 47.0466Z" fill="#B29475"/>
<path d="M43.2371 56.0001C41.4483 56.0001 39.641 55.3744 38.2183 54.1093L39.7568 52.2695C40.8227 53.15 41.9349 53.7061 43.2881 53.7061C44.354 53.7061 44.9935 53.2844 44.9935 52.5893V52.5568C44.9935 51.8988 44.5857 51.5605 42.6115 51.0553C40.2295 50.4483 38.691 49.7902 38.691 47.4406V47.4082C38.691 45.2626 40.4149 43.8445 42.8293 43.8445C44.5532 43.8445 46.0223 44.3867 47.2226 45.346L45.8694 47.3063C44.822 46.5787 43.7932 46.1384 42.7969 46.1384C41.8005 46.1384 41.2769 46.5926 41.2769 47.1672V47.1997C41.2769 47.9782 41.782 48.2285 43.8257 48.7521C46.2262 49.3777 47.5748 50.2397 47.5748 52.3019V52.3344C47.5794 54.6793 45.786 56.0001 43.2371 56.0001Z" fill="#B29475"/>
<path d="M51.2222 55.8285V44.0066H53.822V55.8331H51.2222V55.8285Z" fill="#B29475"/>
<path d="M65.6811 53.4651H60.3239V44.0066H57.7241V55.8285H65.6811V53.4651Z" fill="#B29475"/>
<path d="M33.4357 33.5378H27.5317V38.7514H33.7323C35.9614 38.7235 37.3007 37.9079 37.3007 36.1794V36.1098C37.3007 34.5203 36.1143 33.5378 33.4357 33.5378Z" fill="#B29475"/>
<path d="M5.43604 38.7514H16.067L10.7515 25.72L5.43604 38.7514Z" fill="#B29475"/>
<path d="M35.9938 26.6978V26.6283C35.9938 25.0712 34.775 24.186 32.5691 24.186H27.5317V29.2003H32.2308C34.5387 29.2049 35.9938 28.4588 35.9938 26.6978Z" fill="#B29475"/>
<path d="M10.7188 11.1546V11.136C10.7188 10.6958 10.3898 10.4224 9.6483 10.4224H7.97998V11.8682H9.69928C10.3342 11.8682 10.7188 11.6458 10.7188 11.1546Z" fill="#B29475"/>
<path d="M10.3529 8.53156V8.51302C10.3529 8.08204 10.0146 7.83643 9.40293 7.83643H7.97559V9.22669H9.31024C9.94977 9.22206 10.3529 9.01815 10.3529 8.53156Z" fill="#B29475"/>
<path d="M20.4323 8.2583L19.561 10.3854H21.3035L20.4323 8.2583Z" fill="#B29475"/>
<path d="M0 0V38.7514H0.134393L8.23966 19.7047H13.2678L21.3731 38.7514H22.5131V19.6908H33.385C38.1675 19.6908 41.1102 22.0682 41.1102 25.7478V25.8126C41.1102 28.4542 39.7061 29.9927 38.0331 30.9288C40.7441 31.9669 42.4171 33.6028 42.4171 36.7494V36.8143C42.4171 37.5187 42.3198 38.1629 42.139 38.7514H46.852C45.3598 36.7355 44.4978 34.2145 44.4978 31.4571V31.3923C44.4978 24.7329 49.5167 19.283 56.709 19.283C60.7501 19.283 63.3035 20.5157 65.375 22.3648L62.0708 26.1602C60.4535 24.8302 58.762 24.0331 56.6812 24.0331C52.7329 24.0331 49.8921 27.3095 49.8921 31.3274V31.3969C49.8921 35.4101 52.668 38.756 56.6812 38.756C59.3598 38.756 60.9957 37.6855 62.8355 36.0126L65.5511 38.756H65.6855V0H0ZM52.7699 9.85237C52.7699 7.98477 54.2436 6.45548 56.2688 6.45548C58.2939 6.45548 59.7491 7.96624 59.7491 9.83383V9.85237C59.7491 11.72 58.2754 13.2493 56.2502 13.2493C54.2251 13.2493 52.7699 11.7385 52.7699 9.8709V9.85237ZM41.328 9.85237C41.328 7.98477 42.7368 6.45548 44.7527 6.45548C45.9901 6.45548 46.7315 6.86793 47.3433 7.47038L46.4257 8.53161C45.9206 8.07282 45.4015 7.79014 44.7435 7.79014C43.6359 7.79014 42.8388 8.70771 42.8388 9.83383V9.85237C42.8388 10.9785 43.6173 11.9192 44.7435 11.9192C45.4942 11.9192 45.953 11.618 46.472 11.15L47.3896 12.0768C46.713 12.7997 45.9623 13.2493 44.6971 13.2493C42.7646 13.2493 41.328 11.757 41.328 9.8709V9.85237V9.85237ZM29.5061 6.5667H30.8361L33.9133 10.6124V6.5667H35.3406V13.1334H34.1125L30.9335 8.95796V13.1334H29.5061V6.5667ZM19.7835 6.52036H21.1182L23.9358 13.138H22.425L21.8226 11.6644H19.0467L18.4442 13.138H16.9705L19.7835 6.52036ZM6.57133 6.5667H9.62066C10.9646 6.5667 11.7895 7.23403 11.7895 8.26283V8.28136C11.7895 9.02284 11.3956 9.43529 10.9275 9.69944C11.6875 9.99139 12.1556 10.4316 12.1556 11.3121V11.3307C12.1556 12.531 11.1778 13.1334 9.69944 13.1334H6.57597V6.5667H6.57133Z" fill="#B29475"/>
<path d="M56.2688 11.9145C57.432 11.9145 58.2384 10.9969 58.2384 9.87081V9.85227C58.2384 8.72615 57.4135 7.79004 56.2503 7.79004C55.0871 7.79004 54.2808 8.70762 54.2808 9.83373V9.85227C54.2808 10.9784 55.1057 11.9145 56.2688 11.9145Z" fill="#B29475"/>
</g>
<defs>
<clipPath id="clip0">
<rect width="65.6809" height="56" fill="white"/>
</clipPath>
</defs>
</svg>
