<svg width="189" height="72" viewBox="0 0 189 72" fill="none" xmlns="http://www.w3.org/2000/svg">
<g clip-path="url(#clip0)">
<path d="M41.0251 52.4454C38.4268 52.4454 36.0391 53.7584 34.641 55.9546L34.4558 56.244L42.1444 56.2482L41.2358 58.6934H33.5919L33.5663 58.8487C33.4982 59.2892 33.4663 59.6574 33.4663 59.9957C33.4663 60.3937 33.5025 60.8044 33.5748 61.2342L33.6004 61.3938H40.2696L39.3014 63.8751L34.5218 63.8709L34.7155 64.1688C36.12 66.2883 38.48 67.5545 41.0251 67.5545C45.1939 67.5545 48.5839 64.1645 48.5839 59.9978C48.5839 55.8311 45.1939 52.4454 41.0251 52.4454Z" fill="#00A8AB"/>
<path d="M130.137 53.0775H126.138L125.312 55.812H129.309L130.137 53.0775ZM143.999 63.7134C143.518 66.5395 146.191 67.0268 148.4 67.0268C151.558 67.0268 153.779 65.7053 154.09 63.5347C154.371 61.5577 153.015 60.9832 150.166 60.6171C149.659 60.5661 149.306 60.4192 149.378 59.9149C149.459 59.351 150.059 59.1531 150.594 59.1531C150.908 59.1531 151.236 59.2084 151.466 59.3871C151.664 59.534 151.728 59.7681 151.638 60.1298H155.131C155.709 57.5975 153.128 57.1612 150.955 57.1612C148.487 57.1612 145.759 57.9039 145.371 60.6023C145.08 62.6452 147.131 62.9154 147.808 63.0261C149.234 63.2602 150.215 63.3155 150.119 63.9858C150.087 64.205 149.859 64.82 148.815 64.82C148.38 64.82 148.036 64.7477 147.821 64.5817C147.612 64.3838 147.536 64.0944 147.591 63.7134" fill="#71777A"/>
<path d="M122.086 66.8352H126.085L128.804 57.4867H124.808" fill="#71777A"/>
<path d="M111.395 66.8353H115.762L117.479 61.3641H122.88L123.582 59.0147H118.164L119.043 55.7886H124.734L125.568 53.0775H115.491L111.395 66.8353Z" fill="#71777A"/>
<path d="M137.687 53.0775L136.229 58.0465C135.663 56.9122 134.606 56.5696 133.441 56.5696C130.437 56.5696 128.221 59.1935 127.911 62.975C127.811 64.1816 128.021 67.0225 131.26 67.0225C132.424 67.0225 133.312 66.582 134.048 65.6414H134.088L133.729 66.8608H137.489L141.522 53.0775H137.687ZM135.312 61.1726C135.212 62.3621 134.552 64.2603 133.061 64.2603C132.054 64.2603 131.705 63.5347 131.779 62.6324C131.899 61.196 132.556 59.3339 134.088 59.3339C135.076 59.3318 135.406 60.0617 135.312 61.1726Z" fill="#71777A"/>
<path d="M146.67 53.0775H142.673L141.837 55.8078H145.835L146.67 53.0775ZM138.619 66.8353H142.618L145.34 57.4889H141.341L138.619 66.8353ZM94.2305 60.5937C94.3369 60.1617 94.2837 59.8191 94.1071 59.5702C93.9347 59.3042 93.6304 59.1701 93.192 59.1743C91.7066 59.1786 91.0172 60.7214 90.6788 61.9004C90.2468 63.4049 90.5341 64.3923 91.696 64.388C92.7238 64.3838 93.3239 63.6815 93.6644 62.8963L97.6609 62.8814C97.0587 64.3859 96.0734 65.4372 94.871 66.1075C93.6964 66.7544 92.3195 67.0481 90.9299 67.0523C87.7123 67.0608 85.7567 65.2627 86.7228 61.894C87.6995 58.4891 90.6618 56.5207 93.956 56.5079C96.6203 56.4994 98.8058 57.6315 98.2461 60.5831" fill="#71777A"/>
<path d="M105.532 56.4695C109.054 56.461 110.629 58.5252 109.737 61.6279C108.688 65.286 105.724 67.0054 102.525 67.0139C99.327 67.0225 97.3543 65.2838 98.3311 61.8747C99.3249 58.4103 102.162 56.4823 105.532 56.4695ZM102.353 61.6534C101.81 63.5389 102.281 64.3518 103.289 64.3475C104.356 64.3475 105.239 63.5261 105.779 61.6406C106.201 60.1766 105.869 59.0764 104.826 59.1359C103.472 59.1402 102.674 60.5298 102.353 61.6534ZM63.0738 62.7366C63.4994 61.2555 63.0653 59.9787 61.6884 59.602C62.7248 59.0466 63.9314 58.0187 64.3378 56.61C65.1188 53.8882 62.8695 53.1732 59.786 53.186L53.238 53.2051L49.3267 66.8288H57.2536C60.1669 66.5819 62.3013 65.4264 63.0738 62.7366ZM58.9773 62.4301C58.6836 63.458 57.7792 63.6878 56.6769 63.6921L54.717 63.6963L55.4426 61.1682L56.8705 61.164C58.2963 61.1533 59.322 61.2278 58.9773 62.4301ZM59.9073 57.4654C59.6796 58.2635 58.9177 58.6635 58.0218 58.6678L56.1555 58.672L56.811 56.3908L58.3921 56.3865C59.3433 56.3823 60.2137 56.395 59.9073 57.4654Z" fill="#71777A"/>
<path d="M78.0254 66.8353L79.4894 61.7322C79.8555 60.4575 80.4045 59.6723 81.6217 59.6723C82.7432 59.668 82.7581 60.5405 82.4751 61.5301L80.9514 66.8289L84.8946 66.8331L86.6354 60.8129C87.4206 58.0699 86.6269 56.5356 83.9987 56.5462C82.4964 56.5505 81.3387 57.1974 80.1002 58.3997L80.5471 56.8399L76.9294 56.8526L74.0693 66.8331" fill="#71777A"/>
<path d="M74.8969 60.7001C75.58 58.323 75.797 56.5759 71.0749 56.5887C67.1359 56.6015 65.2739 57.8464 64.6695 59.9574L68.4745 59.9446C68.8171 59.087 69.5917 58.9721 70.145 58.9721C70.5642 58.9678 71.4111 59.0593 71.2069 59.7829C70.6706 61.6449 64.1588 59.6169 62.8586 64.1475C62.4606 65.5371 62.9628 66.4096 63.9056 66.8373C64.3673 67.0437 64.9355 67.1438 65.5569 67.1395C66.3166 67.1395 67.0125 67.0565 67.6999 66.8373C68.3532 66.6266 69.0001 66.2904 69.6938 65.7776L69.5789 66.8373H72.1666L73.6711 66.8288L73.7265 66.6415C73.3328 66.2244 73.3945 65.9393 73.5583 65.3668L74.8969 60.7001ZM67.9871 64.888C67.2083 64.888 66.8295 64.5476 66.9721 64.0517C67.3423 62.7579 68.9703 63.0558 70.445 62.428C70.1471 63.7964 69.3789 64.8838 67.9871 64.888Z" fill="#71777A"/>
<path d="M129.306 14.4717C129.478 14.4606 129.606 14.3106 129.594 14.1384C129.583 13.9661 129.433 13.8384 129.261 13.8495C129.089 13.8606 128.961 14.0106 128.972 14.1828C128.989 14.355 129.133 14.4773 129.306 14.4661V14.4717ZM109.517 4.38281C109.517 4.88281 109.922 5.28837 110.422 5.28837C110.922 5.28837 111.328 4.88281 111.328 4.38281C111.328 3.88281 110.922 3.47726 110.422 3.47726C109.922 3.47726 109.517 3.88281 109.517 4.38281ZM115.267 6.32726C115.267 6.83281 115.672 7.23837 116.178 7.23837C116.683 7.23837 117.089 6.83281 117.089 6.32726C117.089 5.8217 116.683 5.41615 116.178 5.41615C115.678 5.41615 115.272 5.8217 115.272 6.3217L115.267 6.32726ZM93.6056 30.0384C93.6 30.5439 94.0055 30.9495 94.5111 30.955C95.0167 30.9606 95.4222 30.555 95.4278 30.0495C95.4333 29.5439 95.0278 29.1384 94.5222 29.1328C94.0222 29.1273 93.6167 29.5328 93.6111 30.0328L93.6056 30.0384ZM98.0833 33.7995C98.0833 34.305 98.4889 34.7106 98.9944 34.7106C99.5 34.7106 99.9055 34.305 99.9055 33.7995C99.9055 33.2939 99.5 32.8884 98.9944 32.8884C98.4944 32.8939 98.0944 33.2995 98.0833 33.7995ZM103.789 35.555C103.789 36.0606 104.194 36.4661 104.7 36.4661C105.206 36.4661 105.611 36.0606 105.611 35.555C105.611 35.0495 105.206 34.6439 104.7 34.6439C104.2 34.6384 103.794 35.0439 103.789 35.5439C103.789 35.5495 103.789 35.5495 103.789 35.555ZM109.644 35.4828C109.656 35.9828 110.072 36.3773 110.572 36.3661C111.072 36.355 111.467 35.9384 111.456 35.4384C111.444 34.9495 111.044 34.5606 110.556 34.555C110.056 34.5495 109.65 34.955 109.644 35.455C109.644 35.4661 109.644 35.4717 109.644 35.4828ZM115.267 33.6995C115.272 34.205 115.683 34.605 116.189 34.5995C116.694 34.5939 117.094 34.1828 117.089 33.6773C117.083 33.1828 116.683 32.7828 116.189 32.7773C115.689 32.7717 115.283 33.1773 115.278 33.6773C115.278 33.6828 115.278 33.6828 115.278 33.6884L115.267 33.6995ZM119.756 30.0884C119.756 30.5939 120.161 30.9995 120.667 30.9995C121.172 30.9995 121.578 30.5939 121.578 30.0884C121.578 29.5828 121.172 29.1773 120.667 29.1773C120.167 29.1717 119.761 29.5773 119.756 30.0773C119.756 30.0828 119.756 30.0828 119.756 30.0884ZM119.694 9.9217C119.7 10.4217 120.106 10.8273 120.606 10.8217C121.106 10.8161 121.511 10.4106 121.506 9.91059C121.5 9.41059 121.1 9.01059 120.6 9.01059C120.1 9.01059 119.694 9.41615 119.694 9.91615V9.9217ZM113.333 7.5217C113.328 6.88281 112.811 6.36615 112.172 6.3717C111.533 6.37726 111.017 6.89392 111.022 7.53281C111.028 8.16615 111.544 8.68281 112.178 8.68281C112.817 8.68281 113.333 8.16615 113.333 7.52726V7.5217ZM117.222 9.91615C117.217 9.27726 116.7 8.76059 116.061 8.76615C115.422 8.7717 114.906 9.28837 114.911 9.92726C114.917 10.5606 115.433 11.0773 116.067 11.0773C116.706 11.0773 117.222 10.5606 117.222 9.9217V9.91615ZM120.256 13.3328C120.256 12.6939 119.733 12.1717 119.094 12.1717C118.456 12.1717 117.933 12.6939 117.933 13.3328C117.933 13.9717 118.456 14.4939 119.094 14.4939C119.733 14.4995 120.25 13.9828 120.256 13.3439C120.256 13.3439 120.256 13.3384 120.256 13.3328ZM111.939 0.338369C111.956 0.171702 111.833 0.0217021 111.667 -0.00052011C111.494 -0.0116312 111.344 0.110591 111.328 0.282813C111.317 0.455035 111.439 0.605035 111.611 0.621702C111.778 0.638369 111.928 0.516147 111.944 0.343924C111.944 0.343924 111.944 0.343924 111.939 0.338369ZM119.689 3.15504C119.706 2.98837 119.583 2.83837 119.411 2.8217C119.239 2.82726 119.106 2.96615 119.106 3.13837C119.111 3.28837 119.217 3.41059 119.361 3.43837C119.533 3.44948 119.678 3.32726 119.694 3.15504H119.689ZM125.778 7.5217C125.794 7.34948 125.667 7.19948 125.494 7.18281C125.328 7.16615 125.178 7.28837 125.161 7.46059C125.128 7.62726 125.239 7.78837 125.406 7.82726C125.572 7.85503 125.733 7.74392 125.772 7.57726C125.772 7.56059 125.772 7.53837 125.778 7.5217ZM115.244 3.48281C115.261 3.16059 115.011 2.88281 114.689 2.86615C114.367 2.84948 114.089 3.09948 114.072 3.4217C114.056 3.73837 114.294 4.01059 114.611 4.03837C114.933 4.06615 115.222 3.82726 115.25 3.50504C115.244 3.49948 115.244 3.48837 115.244 3.48281ZM121.15 6.43837C121.178 6.11615 120.939 5.82726 120.617 5.79948C120.611 5.79948 120.606 5.79948 120.594 5.79948C120.272 5.74392 119.972 5.96059 119.917 6.28281C119.861 6.60504 120.078 6.90503 120.4 6.96059C120.417 6.96059 120.428 6.96615 120.444 6.96615H120.5C120.822 6.99392 121.106 6.75503 121.133 6.43281C121.133 6.42726 121.133 6.41615 121.133 6.41059L121.15 6.43837ZM125.172 10.6161C124.85 10.5995 124.572 10.8495 124.556 11.1717C124.539 11.4939 124.789 11.7717 125.111 11.7884C125.428 11.805 125.7 11.5661 125.728 11.2495C125.756 10.9273 125.517 10.6384 125.194 10.6106C125.183 10.6161 125.178 10.6161 125.172 10.6161ZM107.556 1.86059C107.228 1.85504 106.961 2.1217 106.956 2.44948C106.95 2.77726 107.217 3.04392 107.544 3.04948C107.872 3.05504 108.139 2.78837 108.144 2.46059C108.15 2.13837 107.889 1.87726 107.567 1.8717C107.561 1.8717 107.561 1.8717 107.556 1.8717V1.86059ZM104.689 3.48837C104.183 3.48281 103.778 3.88837 103.772 4.39392C103.767 4.89948 104.172 5.30504 104.678 5.31059C105.183 5.31615 105.589 4.91059 105.594 4.40504C105.594 3.90504 105.189 3.49948 104.689 3.49948V3.48837ZM98.9389 5.41615C98.4333 5.41059 98.0278 5.81615 98.0222 6.3217C98.0167 6.82726 98.4222 7.23281 98.9278 7.23837C99.4333 7.24392 99.8389 6.83837 99.8444 6.33281C99.8389 5.83281 99.4389 5.42726 98.9389 5.41615ZM90.5222 19.1273C90.0167 19.1217 89.6111 19.5273 89.6055 20.0328C89.6 20.5384 90.0055 20.9439 90.5111 20.9495C91.0167 20.955 91.4222 20.5495 91.4278 20.0439C91.4278 19.5439 91.0222 19.1384 90.5222 19.1384V19.1273ZM91.6333 13.7884C91.1278 13.7828 90.7222 14.1884 90.7167 14.6939C90.7111 15.1995 91.1167 15.605 91.6222 15.6106C92.1278 15.6161 92.5333 15.2106 92.5389 14.705C92.55 14.2106 92.1611 13.7939 91.6667 13.7773L91.6333 13.7884ZM94.5611 9.00503C94.0556 8.99948 93.65 9.40504 93.6444 9.91059C93.6389 10.4161 94.0444 10.8217 94.55 10.8273C95.0555 10.8328 95.4611 10.4273 95.4667 9.9217C95.4611 9.4217 95.0611 9.01615 94.5611 9.01059V9.00503ZM107.556 34.3773C108.194 34.3828 108.717 33.8606 108.722 33.2217C108.728 32.5828 108.206 32.0606 107.567 32.055C106.928 32.0495 106.406 32.5717 106.4 33.2106C106.4 33.8495 106.917 34.3717 107.556 34.3773ZM107.556 7.99392C108.194 7.99948 108.717 7.47726 108.722 6.83837C108.728 6.19948 108.206 5.67726 107.567 5.6717C106.928 5.66615 106.406 6.18837 106.4 6.82726C106.4 7.46615 106.917 7.98281 107.556 7.98837V7.99392ZM102.944 8.6717C103.583 8.67726 104.106 8.15504 104.111 7.51615C104.117 6.87726 103.594 6.35503 102.956 6.34948C102.317 6.34392 101.794 6.86615 101.789 7.50503C101.783 8.14392 102.3 8.66059 102.939 8.66615L102.944 8.6717ZM99.05 11.0606C99.6889 11.0661 100.211 10.5439 100.217 9.90504C100.222 9.26615 99.7 8.74392 99.0611 8.73837C98.4222 8.73281 97.9 9.25503 97.8944 9.89392C97.8889 10.5328 98.4055 11.0495 99.0444 11.055L99.05 11.0606ZM95.9778 14.4884C96.6167 14.5161 97.1611 14.0161 97.1889 13.3773C97.2167 12.7384 96.7167 12.1939 96.0778 12.1661C95.4389 12.1384 94.8944 12.6384 94.8667 13.2773C94.8667 13.2828 94.8667 13.2884 94.8667 13.2995C94.8611 13.9384 95.3778 14.455 96.0167 14.4606L95.9778 14.4884ZM94.7555 18.7773C95.3944 18.7828 95.9167 18.2606 95.9222 17.6217C95.9278 16.9828 95.4055 16.4606 94.7667 16.455C94.1278 16.4495 93.6055 16.9717 93.6 17.6106C93.6 18.2495 94.1167 18.7661 94.7555 18.7661V18.7773ZM103.506 0.621702C103.678 0.605035 103.8 0.455035 103.789 0.282813C103.772 0.110591 103.622 -0.0116312 103.45 -0.00052011C103.283 0.0161466 103.156 0.160591 103.172 0.327258C103.172 0.332813 103.172 0.332813 103.172 0.338369C103.183 0.505035 103.328 0.632813 103.5 0.621702H103.506ZM95.7611 3.43281C95.9278 3.4217 96.0555 3.27726 96.0444 3.10504C96.0278 2.93281 95.8833 2.81059 95.7111 2.8217C95.5444 2.83281 95.4167 2.97726 95.4278 3.14948C95.4444 3.3217 95.5889 3.44392 95.7611 3.43281ZM129.306 27.7161C129.478 27.7161 129.617 27.5773 129.617 27.405C129.617 27.2328 129.478 27.0939 129.306 27.0939H129.239C129.072 27.105 128.944 27.2495 128.956 27.4217C128.972 27.5939 129.117 27.7161 129.289 27.705L129.306 27.7161ZM125.578 32.8717C125.744 32.8495 125.872 32.705 125.861 32.5328C125.844 32.3606 125.694 32.2384 125.522 32.2495C125.35 32.2661 125.228 32.4161 125.239 32.5884C125.256 32.7606 125.406 32.8884 125.578 32.8717ZM119.4 37.2217C119.567 37.2106 119.694 37.0661 119.683 36.8939C119.683 36.7217 119.544 36.5828 119.372 36.5828C119.2 36.5828 119.061 36.7217 119.061 36.8939C119.061 36.9161 119.061 36.9328 119.061 36.955C119.078 37.1217 119.222 37.2495 119.394 37.2328L119.4 37.2217ZM111.667 39.9995C111.839 39.9884 111.967 39.8328 111.95 39.6661C111.939 39.4939 111.783 39.3661 111.617 39.3773C111.444 39.3884 111.317 39.5439 111.333 39.7106C111.344 39.8884 111.494 40.0161 111.667 39.9995ZM103.511 39.9995C103.683 39.9828 103.811 39.8328 103.794 39.6606C103.778 39.4884 103.628 39.3606 103.456 39.3773C103.283 39.3884 103.156 39.5439 103.172 39.7106C103.183 39.8828 103.339 40.0106 103.506 39.9995H103.511ZM95.7611 37.1828C95.9278 37.1717 96.0555 37.0273 96.0444 36.855C96.0278 36.6828 95.8833 36.5606 95.7111 36.5717C95.5444 36.5828 95.4167 36.7273 95.4278 36.8995C95.4444 37.0717 95.5889 37.1939 95.7611 37.1828ZM89.65 32.8217C89.8222 32.8106 89.95 32.6606 89.9389 32.4884C89.9278 32.3161 89.7778 32.1884 89.6055 32.1995C89.4333 32.2106 89.3055 32.3606 89.3167 32.5328C89.3333 32.705 89.4778 32.8273 89.65 32.8217ZM85.8278 27.7106C86 27.7106 86.1389 27.5717 86.1389 27.3995C86.1389 27.2273 86 27.0884 85.8278 27.0884H85.7611C85.5944 27.1217 85.4833 27.2828 85.5111 27.4495C85.5389 27.5939 85.6611 27.6995 85.8111 27.705L85.8278 27.7106ZM89.6778 7.77726C89.85 7.76615 89.9778 7.61615 89.9667 7.44392C89.9556 7.2717 89.8055 7.14392 89.6333 7.15504C89.4611 7.16615 89.3333 7.31615 89.3444 7.48837C89.3611 7.66059 89.5055 7.78281 89.6778 7.7717V7.77726ZM100.506 3.98837C100.828 3.94392 101.056 3.64948 101.011 3.32726C100.972 3.02726 100.711 2.80504 100.406 2.81615C100.083 2.86059 99.8556 3.16059 99.9055 3.48281C99.9444 3.7717 100.194 3.98837 100.483 3.98837H100.506ZM94.5722 6.94392C94.8778 6.92726 95.1167 6.66615 95.1 6.36059C95.0833 6.05503 94.8222 5.81615 94.5167 5.83281C94.2111 5.84948 93.9722 6.11059 93.9889 6.41615C94.0055 6.69948 94.2333 6.92726 94.5167 6.94392H94.5722ZM89.3611 11.255C89.3611 11.5606 89.6111 11.8106 89.9167 11.8106H90C90.3278 11.805 90.5833 11.5384 90.5778 11.2106C90.5722 10.8828 90.3056 10.6273 89.9778 10.6328C89.9556 10.6328 89.9278 10.6328 89.9055 10.6384C89.5833 10.655 89.3333 10.9328 89.35 11.255H89.3611ZM127.494 22.4439C127.167 22.4717 126.928 22.755 126.956 23.0828C126.983 23.4106 127.267 23.6495 127.594 23.6217C127.922 23.5939 128.161 23.3106 128.133 22.9828C128.106 22.6606 127.822 22.4161 127.494 22.4439ZM125.206 28.1661C124.883 28.2106 124.656 28.505 124.7 28.8273C124.739 29.1273 125 29.3495 125.306 29.3384C125.628 29.2939 125.856 28.9939 125.806 28.6717C125.767 28.3828 125.517 28.1661 125.228 28.1661H125.206ZM120.656 33.0273C120.328 33.0328 120.072 33.2995 120.078 33.6273C120.083 33.955 120.35 34.2106 120.678 34.205C120.7 34.205 120.728 34.205 120.75 34.1995C121.072 34.1828 121.322 33.905 121.306 33.5828C121.306 33.2773 121.056 33.0273 120.75 33.0273H120.667H120.656ZM114.611 35.9884C114.289 36.005 114.039 36.2828 114.056 36.605C114.067 36.9328 114.339 37.1828 114.667 37.1717C114.994 37.1606 115.244 36.8884 115.233 36.5606C115.233 36.5606 115.233 36.5217 115.233 36.505C115.217 36.1828 114.944 35.9328 114.622 35.9495L114.611 35.9884ZM107.489 36.9439C107.161 36.955 106.911 37.2273 106.922 37.555C106.933 37.8828 107.206 38.1328 107.533 38.1217H107.589C107.911 38.0773 108.139 37.7828 108.094 37.4606C108.056 37.1606 107.794 36.9384 107.489 36.9495V36.9439ZM100.667 36.1661C100.344 36.1939 100.1 36.4773 100.133 36.805C100.167 37.1328 100.444 37.3717 100.772 37.3384C101.089 37.3106 101.328 37.0384 101.311 36.7217C101.294 36.3995 101.017 36.1495 100.694 36.1661C100.678 36.1661 100.672 36.1661 100.667 36.1661ZM94.4944 33.0495C94.1667 33.0606 93.9167 33.3328 93.9278 33.6606C93.9389 33.9884 94.2111 34.2384 94.5389 34.2273H94.5944C94.9167 34.1828 95.1444 33.8884 95.1 33.5661C95.0611 33.2661 94.8 33.0439 94.4944 33.0495ZM89.9111 28.1884C89.5889 28.2328 89.3611 28.5273 89.4055 28.8495C89.4444 29.1495 89.7056 29.3717 90.0111 29.3606C90.3333 29.3161 90.5611 29.0161 90.5111 28.6939C90.4722 28.405 90.2222 28.1884 89.9333 28.1884H89.9111ZM87.3778 16.905C87.0555 16.9495 86.8278 17.2439 86.8722 17.5661C86.9111 17.8661 87.1722 18.0884 87.4778 18.0773C87.8 18.0328 88.0278 17.7328 87.9778 17.4106C87.9389 17.1217 87.6889 16.905 87.4 16.905H87.3778ZM104.144 32.4606C104.144 31.8217 103.628 31.305 102.989 31.305C102.35 31.305 101.833 31.8217 101.833 32.4606C101.833 33.0995 102.35 33.6161 102.989 33.6161C103.628 33.6161 104.144 33.0995 104.144 32.4606ZM112.122 31.2995C111.483 31.2939 110.961 31.8161 110.956 32.455C110.95 33.0939 111.472 33.6161 112.111 33.6217C112.75 33.6273 113.272 33.105 113.278 32.4661C113.283 31.8273 112.767 31.3106 112.128 31.305C112.128 31.305 112.128 31.305 112.122 31.2995ZM116.089 29.005C115.45 28.9884 114.917 29.4995 114.9 30.1384C114.883 30.7773 115.394 31.3106 116.033 31.3273C116.672 31.3439 117.206 30.8328 117.222 30.1939C117.222 30.1884 117.222 30.1828 117.222 30.1773C117.233 29.5328 116.717 29.005 116.072 28.9939C116.061 28.9939 116.05 28.9939 116.039 28.9939L116.089 29.005ZM120.239 26.6661C120.233 26.0273 119.717 25.5106 119.078 25.5161C118.439 25.5217 117.922 26.0384 117.928 26.6773C117.933 27.3106 118.45 27.8273 119.083 27.8273C119.722 27.8273 120.239 27.3106 120.239 26.6717V26.6661ZM99.0778 28.9439C98.4389 28.9384 97.9167 29.4606 97.9111 30.0995C97.9056 30.7384 98.4278 31.2606 99.0667 31.2661C99.7056 31.2717 100.228 30.7495 100.233 30.1106C100.239 29.4717 99.7222 28.955 99.0833 28.9495C99.0833 28.9495 99.0833 28.9495 99.0778 28.9439ZM96.0167 25.5161C95.3778 25.5106 94.85 26.0273 94.8444 26.6661C94.8389 27.305 95.3555 27.8328 95.9944 27.8384C96.6333 27.8439 97.1611 27.3273 97.1667 26.6884C97.1667 26.6828 97.1667 26.6717 97.1667 26.6661C97.1667 26.0273 96.65 25.5106 96.0167 25.5161ZM142.4 15.555H149.561V25.1106H152.078V15.555H158.611L159.217 13.8884H143.011L142.4 15.555ZM84.3389 13.8884H81.8222V25.1106H93.3L93.9167 23.4439H84.3389V13.8884ZM107.733 13.8884L113.8 24.9995H116.494L110.428 13.9161L107.733 13.8884ZM98.5667 24.9995H101.261L107.322 13.9161H104.628L98.5667 24.9995ZM134.75 22.2217L124.194 13.9328H121.667V24.9995H124.183V16.6661L134.739 24.9995H137.25V13.9161H134.739L134.75 22.2217ZM185.606 18.6161H177.894C177.122 18.6884 176.439 18.1161 176.367 17.3439C176.367 17.305 176.367 17.2606 176.367 17.2217V16.9106C176.378 16.1495 177.006 15.5439 177.767 15.555C177.772 15.555 177.772 15.555 177.778 15.555H188.278L188.889 13.8884H177.133C175.017 13.8884 173.939 15.3161 173.911 16.7328V17.4661C173.911 18.905 175.022 20.3939 177.194 20.3939H184.906C185.678 20.3217 186.361 20.8939 186.433 21.6661C186.433 21.6995 186.433 21.7384 186.433 21.7717V22.0828C186.417 22.8439 185.789 23.455 185.022 23.4384H174.522L173.911 25.105H185.667C187.783 25.105 188.861 23.6773 188.889 22.2606V21.5217C188.889 20.0884 187.778 18.5995 185.606 18.5995V18.6161ZM11.7167 18.5995H3.98333C3.21111 18.6717 2.52778 18.0995 2.45556 17.3273C2.45556 17.2939 2.45556 17.255 2.45556 17.2217V16.9106C2.46667 16.1495 3.09444 15.5439 3.85556 15.555H14.3667L15 13.8884H3.22222C1.11111 13.9384 0.0277778 15.3439 0 16.7606V17.4939C0 18.9328 1.11111 20.4217 3.28333 20.4217H10.9944C11.7667 20.3495 12.45 20.9217 12.5222 21.6939C12.5222 21.7273 12.5222 21.7661 12.5222 21.7995V22.1106C12.5056 22.8717 11.8778 23.4828 11.1111 23.4661H0.611111L0 25.1328H11.7556C13.8722 25.1328 14.95 23.705 14.9778 22.2884V21.5217C14.9778 20.0884 13.8667 18.5995 11.6944 18.5995H11.7167ZM164.533 24.9995H167.05V13.9161H164.533V24.9995ZM20.4611 15.555H27.6167V25.1106H30.1333V15.555H36.6667L37.2778 13.8884H21.0667L20.4611 15.555ZM54.9056 15.555L55.5167 13.8884H42.7778V25.1106H54.9222L55.5333 23.4439H45.3111V20.2939H52.4611L53.0667 18.6606H45.2889V15.555H54.9056ZM65.6 23.455H75.1778L74.5611 25.1217H63.0833V13.9161H65.6V23.455Z" fill="#243882"/>
</g>
<defs>
<clipPath id="clip0">
<rect width="189" height="72" fill="white"/>
</clipPath>
</defs>
</svg>
