<svg width="196" height="64" viewBox="0 0 196 64" fill="none" xmlns="http://www.w3.org/2000/svg">
<path d="M64.5291 9.46281C66.6926 11.5938 67.8828 14.3861 67.8828 17.3495V27.4323C67.8828 30.4023 66.6948 33.1902 64.5291 35.3104C62.4241 37.3829 59.5625 38.6337 56.5036 38.8072C55.0468 38.8744 53.7374 38.9091 52.4822 38.9091H52.4714C51.2248 38.9091 48.6646 38.8202 48.1551 38.7963C47.3378 38.7335 46.6658 37.927 46.6658 37.049C46.6658 36.0713 47.4375 35.2779 48.4174 35.2779C49.1632 35.2779 49.8699 35.3126 50.5636 35.3429C51.2248 35.3668 51.8492 35.3884 52.4714 35.3884C53.7222 35.3884 55.0164 35.3667 56.4256 35.2779C60.9521 34.983 64.347 31.6163 64.347 27.4345V17.3495C64.347 13.1525 60.9521 9.788 56.4256 9.49316C53.6073 9.35659 51.2812 9.35659 48.4608 9.49316C43.9451 9.788 40.522 13.1547 40.522 17.3495V56.5664C40.522 56.8721 40.7757 57.1192 41.0878 57.1192C41.3827 57.1192 41.6276 56.8721 41.6276 56.5664V17.3495C41.6276 13.7791 44.5499 10.8849 48.4001 10.6009C51.2769 10.4058 53.6268 10.4058 56.5036 10.6009C58.355 10.7332 60.0242 11.4854 61.2577 12.6626C62.5476 13.9156 63.2674 15.5806 63.2674 17.3495V27.4323C63.2674 29.1991 62.5476 30.8511 61.2577 32.1041C60.0242 33.3138 58.355 34.0552 56.5166 34.1874C53.8133 34.3565 50.7717 34.3478 47.7194 34.1527C47.3638 34.1246 47.1254 33.8406 47.1449 33.511C47.1601 33.1685 47.4397 32.9322 47.7996 32.9496C50.7999 33.1273 53.7894 33.149 56.4342 32.9778C59.6405 32.7328 62.0512 30.3503 62.0512 27.4345V17.3495C62.0512 14.4316 59.6427 12.0491 56.4277 11.8106C53.6225 11.6198 51.3159 11.6198 48.4781 11.8106C45.2697 12.0491 42.846 14.4316 42.846 17.3495V56.5664C42.846 57.5311 42.0699 58.3137 41.116 58.3267H41.064C40.0906 58.3137 39.3384 57.5311 39.3384 56.5664V17.3495C39.3384 14.967 40.264 12.7428 41.9853 11.0714C43.6611 9.43463 45.9244 8.43958 48.3936 8.28783C51.2812 8.1274 53.6268 8.1274 56.5014 8.28783C58.9468 8.43958 61.2296 9.43463 62.914 11.0714C64.6223 12.7428 65.5675 14.967 65.5675 17.3495V27.4323C65.5675 29.804 64.6223 32.0347 62.914 33.7083C61.2296 35.3494 58.949 36.3358 56.5079 36.4984C55.0511 36.5678 53.7417 36.6046 52.4757 36.6046C51.8275 36.6046 51.1945 36.5851 50.5159 36.5547C49.8439 36.5287 49.1545 36.4984 48.4239 36.4984C48.1313 36.4984 47.882 36.7564 47.882 37.0447C47.882 37.3178 48.1226 37.552 48.2592 37.5758C48.7448 37.5975 51.2703 37.6885 52.4757 37.6885H52.4865C53.7352 37.6885 55.0359 37.6582 56.4364 37.5888C62.1834 37.2615 66.6623 32.7913 66.6623 27.4302V17.3495C66.6623 11.9841 62.1834 7.50956 56.4299 7.18871C53.6117 7.06514 51.2855 7.06514 48.4564 7.18871C42.7376 7.50956 38.2219 11.9841 38.2219 17.3495V57.2276C38.2219 57.5658 37.9509 57.8433 37.6171 57.8433C37.2962 57.8433 37.0187 57.5658 37.0187 57.2276V17.3495C37.0187 14.3861 38.1851 11.5938 40.3616 9.46281C42.4688 7.39466 45.3282 6.13729 48.3914 5.95519C49.8179 5.92051 51.1424 5.86848 52.4648 5.86848C53.7396 5.86848 55.049 5.92051 56.4993 5.95519C59.5625 6.13729 62.4219 7.39249 64.5291 9.46281ZM89.3101 5.95519C87.8944 5.92051 86.9904 5.86848 86.0994 5.86848C85.1933 5.86848 84.3109 5.92051 82.8715 5.95519C79.8018 6.13729 76.9401 7.399 74.82 9.50617C72.6543 11.6372 71.4576 14.4468 71.4576 17.4037V27.376C71.4576 30.3481 72.6521 33.1642 74.82 35.3039C76.938 37.4241 79.8148 38.6576 82.8866 38.7985C84.3304 38.8614 86.6436 38.9069 88.9458 38.9069C91.1831 38.9069 93.403 38.8614 94.8186 38.805L94.927 38.7985C95.146 38.7942 95.3844 38.7877 95.6186 38.7291C96.089 38.6489 96.4901 38.3801 96.7632 37.9942C97.0342 37.5997 97.1339 37.1336 97.0602 36.6523C96.8976 35.7591 96.063 35.1391 95.0809 35.1933L94.9465 35.2042C94.8815 35.2042 94.8056 35.2042 94.7666 35.2237C91.8898 35.3624 85.7569 35.4275 82.9322 35.2735C78.4793 35.0351 74.9956 31.5621 74.9956 27.3738V17.4016C74.9956 13.2219 78.4143 9.8487 82.9322 9.54736C85.733 9.39344 86.4485 9.39344 89.2559 9.54736C93.687 9.8487 97.019 13.2089 97.019 17.4016V18.8519C97.019 23.0445 93.6089 26.4199 89.0846 26.7191C87.2983 26.8145 85.2453 26.8167 83.8665 26.8167C83.5717 26.8167 83.3332 26.5739 83.3332 26.2725C83.3332 25.956 83.5869 25.724 83.8774 25.724H84.4367C86.0322 25.7305 87.4413 25.7305 89.1756 25.6135C91.0032 25.4834 92.7028 24.742 93.932 23.5345C95.2088 22.301 95.9242 20.6295 95.9242 18.854V17.4037C95.9242 15.6196 95.2587 13.972 94.0165 12.7146C92.8025 11.4898 91.1397 10.7267 89.3079 10.6009C86.4485 10.4058 85.7179 10.4058 82.8476 10.6009C78.9866 10.8763 76.0925 13.7964 76.0925 17.4037V27.376C76.0925 29.1515 76.7971 30.8099 78.0848 32.0868C79.34 33.3246 81.0331 34.0552 82.8563 34.1853C85.7309 34.3609 91.9917 34.3609 94.8381 34.1853C95.0246 34.1744 95.5904 34.1224 95.9177 34.1007L96.0196 34.0964C96.3448 34.053 96.6115 33.769 96.5681 33.4373C96.5399 33.1035 96.2494 32.8585 95.9177 32.891L95.805 32.8954C95.495 32.9279 94.9292 32.9756 94.7688 32.9843C91.9614 33.1512 85.7807 33.1468 82.9408 32.9756C79.7519 32.7653 77.3087 30.3481 77.3087 27.376V17.4037C77.3087 14.4468 79.7259 12.0339 82.9343 11.8106C85.7352 11.6198 86.4419 11.6198 89.2407 11.8106C92.4079 12.0339 94.7254 14.4056 94.7254 17.4037V18.854C94.7254 21.7937 92.3017 24.1502 89.1041 24.406C87.4218 24.5209 86.0301 24.5035 84.441 24.5035H83.8817C82.9083 24.5035 82.1127 25.31 82.1127 26.2747C82.1127 27.2546 82.9083 28.0437 83.8708 28.0437C85.2561 28.0437 87.3438 28.0242 89.1583 27.9244C91.6275 27.7662 93.8908 26.782 95.5709 25.1517C97.2943 23.476 98.2374 21.2279 98.2374 18.854V17.4037C98.2374 15.0364 97.3182 12.8057 95.6511 11.1407C94.023 9.49316 91.7814 8.50028 89.3296 8.34202C86.4549 8.1751 85.7374 8.1751 82.8628 8.34202C80.4066 8.50028 78.126 9.49316 76.4459 11.1407C74.7419 12.8252 73.7837 15.0364 73.7837 17.4037V27.376C73.7837 29.7411 74.7398 31.9827 76.4459 33.6888C78.1368 35.3646 80.4304 36.3661 82.8758 36.494C85.7266 36.635 91.9397 36.5851 94.8338 36.4225H95.0289L95.1416 36.4203C95.4668 36.3965 95.7898 36.5287 95.8419 36.8821C95.8917 37.0252 95.8419 37.1834 95.7421 37.3027C95.6706 37.4327 95.5384 37.5108 95.4039 37.5325C95.2457 37.5736 95.0571 37.578 94.8728 37.578L94.7709 37.591C91.957 37.7232 85.7829 37.7232 82.9365 37.578C77.1808 37.333 72.6976 32.8498 72.6976 27.376V17.4037C72.6976 12.0036 77.1808 7.50956 82.917 7.18871C85.7374 7.06514 86.4528 7.06514 89.2602 7.18871C95.0007 7.50956 99.3343 11.9103 99.3343 17.4037V18.854C99.3343 24.2325 94.8338 28.6962 89.1063 29.0192C87.5324 29.0842 84.4085 29.1515 82.7435 29.1233H82.7371C82.4097 29.1233 82.1344 29.3899 82.1279 29.7303C82.1279 30.0685 82.3945 30.3481 82.7262 30.3481C84.4107 30.3481 87.5823 30.3134 89.1605 30.2397C92.2193 30.0663 95.0939 28.8241 97.1989 26.7538C99.3755 24.6293 100.54 21.8327 100.54 18.854V17.4037C100.54 14.4316 99.4015 11.6198 97.3052 9.50617C95.211 7.399 92.3949 6.13729 89.3101 5.95519ZM22.1796 6.03757H22.1623C20.6773 5.95519 19.201 5.92484 17.7095 5.92484H16.1226C15.7714 5.94652 15.2251 5.95519 14.7352 5.99421C14.462 6.00505 14.2019 6.01373 14.0002 6.03324C13.6729 6.03757 13.4084 6.3194 13.4236 6.66192C13.4236 7.01095 13.7293 7.25375 14.0371 7.24941C14.2387 7.24941 14.5032 7.22123 14.7959 7.21039C15.275 7.18871 15.8191 7.15836 16.1616 7.1562C18.1366 7.11501 20.118 7.1562 22.0799 7.24725L22.1124 7.25158C24.8136 7.42068 27.3327 8.53496 29.2014 10.3538C31.133 12.2225 32.1974 14.7373 32.1974 17.3951V27.4258C32.1974 30.0836 31.1308 32.5962 29.2014 34.4714C27.3327 36.2859 24.8136 37.3937 22.1124 37.5715H22.0799C19.2769 37.7211 18.323 37.7211 15.5113 37.5715H15.4896C9.8466 37.1943 5.58672 32.8477 5.58672 27.428V25.956C5.58672 23.3047 6.64031 20.8073 8.58706 18.9126C10.4384 17.0829 12.9597 15.999 15.6717 15.8169H15.6847C17.1046 15.741 18.8259 15.7128 21.0415 15.7128C21.3407 15.7128 21.577 15.9621 21.577 16.2439C21.577 16.5453 21.3407 16.8011 21.0415 16.8011C19.6454 16.8011 17.5989 16.8162 15.7476 16.9116C13.2935 17.0656 11.0064 18.0476 9.33932 19.6865C7.61369 21.3644 6.67283 23.6039 6.67283 25.9582V27.4302C6.66849 29.8062 7.57683 32.0369 9.25043 33.691C10.8677 35.3429 13.1114 36.3315 15.5763 36.4962C18.4292 36.6371 19.1533 36.6371 22.0496 36.4962C24.4863 36.3315 26.7582 35.3429 28.434 33.6953C30.1574 32.0369 31.0961 29.791 31.0961 27.4302V17.3972C31.0961 15.0343 30.1574 12.8057 28.434 11.1212C26.7582 9.47149 24.4863 8.49594 22.0409 8.31601C19.524 8.20545 17.0288 8.1751 14.6159 8.28783C13.6859 8.31601 12.9271 9.09428 12.9271 10.033C12.9271 11.0172 13.7271 11.7933 14.6831 11.7933C15.108 11.7933 15.5069 11.7781 15.9232 11.7651C16.2223 11.7499 16.5735 11.7499 16.9074 11.7499C18.5246 11.7261 20.183 11.7499 21.8306 11.8475C25.1084 12.0794 27.5972 14.4468 27.5972 17.3972V27.428C27.5972 30.3633 25.1084 32.7653 21.8349 32.9843C19.1078 33.1273 18.4726 33.1273 15.7671 32.9886C12.5283 32.7653 10.1739 30.4327 10.1848 27.428V25.956C10.1848 23.0164 12.6432 20.6295 15.9622 20.4084C17.6379 20.3217 20.053 20.2979 21.59 20.3109H21.6138C21.9542 20.3109 22.2317 20.042 22.2317 19.6995C22.2317 19.3787 21.9542 19.0903 21.6138 19.0903H21.5943C20.0486 19.0903 17.5772 19.1142 15.869 19.1944C11.9213 19.4611 8.96427 22.3812 8.96427 25.956V27.428C8.96427 31.0939 11.7803 33.9294 15.6999 34.2113C18.4726 34.3305 19.1121 34.3305 21.9195 34.2113C25.8325 33.9316 28.8112 31.0202 28.8112 27.428V17.3972C28.8112 13.7964 25.8325 10.8849 21.9195 10.627H21.9C20.2416 10.5468 18.5333 10.4991 16.8792 10.5272C16.5432 10.5272 16.1876 10.5337 15.869 10.5489C15.4722 10.5684 15.0842 10.5879 14.681 10.5879C14.4013 10.5879 14.1498 10.3408 14.1498 10.0308C14.1498 9.75548 14.3796 9.50617 14.6549 9.491C17.0331 9.39561 19.4871 9.41512 21.9563 9.54736C26.4807 9.85086 29.8886 13.2089 29.8886 17.3972V27.428C29.8886 31.612 26.4807 34.9787 21.965 35.2757C19.1468 35.4231 18.4444 35.4231 15.6413 35.2757C11.2167 34.9809 7.86516 31.6142 7.86516 27.428V25.956C7.86516 21.7915 11.2882 18.4248 15.8018 18.1235C17.6488 18.0194 19.6627 18.0107 21.0393 18.0107C21.9954 18.0107 22.791 17.2086 22.791 16.2439C22.791 15.2814 21.9954 14.4988 21.0393 14.4988C18.7999 14.4988 17.0808 14.5183 15.6218 14.6137H15.5828C12.5998 14.798 9.79891 16.0271 7.71341 18.0476C5.58022 20.1418 4.39006 22.9058 4.36621 25.8628V27.5212C4.4139 33.5414 9.14638 38.3736 15.418 38.7855L15.4592 38.792C16.8814 38.857 17.8287 38.9047 18.7999 38.9047C19.7603 38.9047 20.7055 38.8549 22.1601 38.792L22.1796 38.7855C25.1886 38.5774 27.9657 37.359 30.049 35.3472C32.1996 33.2271 33.4114 30.4218 33.4114 27.4258V17.3972C33.4114 14.4164 32.1996 11.5938 30.049 9.47149C27.9679 7.45319 25.1908 6.22835 22.1796 6.03757ZM184.686 5.67554H180.207C176.727 6.65325 174.15 9.85086 174.15 13.6381V30.669C174.15 32.0065 173.085 33.1013 171.722 33.1013C170.404 33.1013 169.302 32.0065 169.302 30.669V13.6381C169.302 9.85086 166.751 6.65325 163.282 5.67554H158.803C155.326 6.65325 152.77 9.85086 152.77 13.6381V38.0896C152.77 38.4061 153.048 38.6793 153.382 38.6793C153.724 38.6793 153.978 38.4061 153.978 38.0896V13.6381C153.978 9.72946 157.16 6.58171 161.045 6.58171C164.947 6.58171 168.086 9.72946 168.086 13.6381V30.669C168.086 32.6721 169.73 34.285 171.724 34.285C173.742 34.285 175.373 32.6699 175.373 30.669V13.6381C175.373 9.72946 178.551 6.58171 182.448 6.58171C186.331 6.58171 189.505 9.72946 189.505 13.6381V37.1336C189.505 37.4457 189.24 37.6885 188.954 37.6885C188.646 37.6885 188.406 37.4457 188.406 37.1336V13.6381C188.406 10.356 185.731 7.66131 182.446 7.66131C179.158 7.66131 176.482 10.3538 176.482 13.6381V30.669C176.482 33.2682 174.347 35.3949 171.72 35.3949C169.107 35.3949 166.994 33.2682 166.994 30.669V13.6381C166.994 10.356 164.327 7.66131 161.041 7.66131C157.75 7.66131 155.062 10.3538 155.062 13.6381V37.1336C155.062 38.1091 155.857 38.9069 156.831 38.9069C157.804 38.9069 158.602 38.1113 158.602 37.1336V13.6381C158.602 12.3071 159.692 11.1993 161.041 11.1993C162.387 11.1993 163.48 12.3071 163.48 13.6381V30.669C163.48 35.2237 167.169 38.9069 171.717 38.9069C176.283 38.9069 180.007 35.2258 180.007 30.669V13.6381C180.007 12.3071 181.102 11.1993 182.444 11.1993C183.782 11.1993 184.881 12.3071 184.881 13.6381V38.0896C184.881 38.4061 185.143 38.6793 185.479 38.6793C185.811 38.6793 186.084 38.4061 186.084 38.0896V13.6381C186.084 11.6198 184.449 9.98961 182.444 9.98961C180.421 9.98961 178.787 11.6198 178.787 13.6381V30.669C178.787 34.556 175.609 37.7211 171.717 37.7211C167.852 37.7211 164.681 34.556 164.681 30.669V13.6381C164.681 11.6198 163.052 9.98961 161.039 9.98961C159.014 9.98961 157.388 11.6198 157.388 13.6381V37.1336C157.388 37.4457 157.141 37.6885 156.828 37.6885C156.536 37.6885 156.289 37.4457 156.289 37.1336V13.6381C156.289 11.015 158.411 8.89266 161.039 8.89266C163.644 8.89266 165.777 11.015 165.777 13.6381V30.669C165.777 33.936 168.45 36.6154 171.717 36.6154C175.026 36.6154 177.705 33.936 177.705 30.669V13.6381C177.705 11.015 179.823 8.89266 182.444 8.89266C185.054 8.89266 187.183 11.015 187.183 13.6381V37.1336C187.183 38.1091 187.968 38.9069 188.952 38.9069C189.925 38.9069 190.717 38.1113 190.717 37.1336V13.6381C190.719 9.85086 188.156 6.65325 184.686 5.67554ZM122.57 11.7109L123.09 11.7261C123.424 11.7499 123.723 11.4854 123.723 11.1407C123.734 10.7982 123.478 10.5272 123.114 10.5099L122.609 10.4882C121.9 10.4774 120.933 10.4535 120.345 10.4319C118.696 10.4232 117.002 10.4622 115.331 10.5489H115.316C111.379 10.7982 108.424 13.7227 108.424 17.317V37.0924C108.424 37.4067 108.164 37.6929 107.869 37.6929C107.579 37.6929 107.336 37.4067 107.336 37.0924V17.3149C107.336 13.1244 110.748 9.76198 115.253 9.46281C116.753 9.37393 118.258 9.35442 119.712 9.35442C120.527 9.35442 121.308 9.37393 122.103 9.39561C122.739 9.41512 123.302 9.37393 123.81 8.74958C124.094 8.37671 124.237 7.90194 124.169 7.43802C124.059 6.59688 123.352 5.94652 122.498 5.92051C122.342 5.92051 122.179 5.89666 121.997 5.88148C121.663 5.87065 121.343 5.87065 121.093 5.8533H119.498C118.021 5.8533 116.521 5.86848 115.073 5.94652L115.038 5.95519C112.034 6.14597 109.244 7.36648 107.18 9.39561C105.016 11.4984 103.817 14.3232 103.817 17.3149V38.0462C103.817 38.3801 104.097 38.6489 104.42 38.6489C104.758 38.6489 105.034 38.3801 105.034 38.0462V17.3149C105.034 14.6375 106.092 12.1575 108.027 10.2736C109.885 8.43958 112.409 7.3513 115.129 7.17137H115.149C117.1 7.07815 119.097 7.03696 121.082 7.07815C121.308 7.07815 121.622 7.08899 121.95 7.09983C122.123 7.11501 122.279 7.13018 122.455 7.13018C122.717 7.14536 122.949 7.3383 122.975 7.60278C122.986 7.74152 122.949 7.8846 122.862 8.00383C122.734 8.13391 122.708 8.20545 122.156 8.1751C121.345 8.15125 120.54 8.13174 119.714 8.13174C118.253 8.1274 116.714 8.17076 115.184 8.23363C112.736 8.41573 110.455 9.39778 108.784 11.054C107.061 12.7168 106.105 14.9432 106.105 17.317V37.0924C106.105 38.0809 106.913 38.9091 107.874 38.9091C108.832 38.9091 109.636 38.0788 109.636 37.0924V17.3149C109.636 14.36 112.112 11.9841 115.4 11.7564C117.026 11.6849 118.696 11.6524 120.339 11.6806C120.92 11.6806 121.874 11.6892 122.57 11.7109ZM137.935 6.03757H137.907C136.437 5.95519 134.948 5.92484 133.463 5.92484H131.872C131.532 5.94652 130.985 5.95519 130.476 5.99421C130.196 6.00505 129.945 6.01373 129.734 6.03324C129.407 6.03757 129.143 6.3194 129.162 6.66192C129.162 7.01095 129.455 7.25375 129.797 7.24941C129.997 7.24941 130.257 7.22123 130.547 7.21039C131.007 7.18871 131.558 7.15836 131.898 7.1562C133.873 7.11501 135.867 7.1562 137.842 7.24725L137.866 7.25158C140.574 7.42068 143.091 8.53496 144.951 10.3538C146.882 12.2225 147.951 14.7373 147.951 17.3951V27.4258C147.951 30.0836 146.882 32.5962 144.951 34.4714C143.093 36.2859 140.574 37.3937 137.866 37.5715H137.842C135.039 37.7211 134.085 37.7211 131.28 37.5715H131.241C125.594 37.1943 121.33 32.8477 121.336 27.428V25.956C121.336 23.3047 122.407 20.8073 124.321 18.9126C126.192 17.0829 128.713 15.999 131.415 15.8169H131.432C132.86 15.741 134.564 15.7128 136.8 15.7128C137.09 15.7128 137.341 15.9621 137.341 16.2439C137.341 16.5453 137.09 16.8011 136.8 16.8011C135.399 16.8011 133.353 16.8162 131.48 16.9116C129.043 17.0656 126.777 18.0476 125.082 19.6865C123.359 21.3644 122.416 23.6039 122.416 25.9582V27.4302C122.416 29.8062 123.311 32.0369 124.982 33.691C126.621 35.3429 128.874 36.3315 131.33 36.4962C134.187 36.6371 134.907 36.6371 137.801 36.4962C140.238 36.3315 142.514 35.3429 144.177 33.6953C145.915 32.0369 146.861 29.791 146.861 27.4302V17.3972C146.861 15.0343 145.915 12.8057 144.177 11.1212C142.514 9.47149 140.238 8.49594 137.801 8.31601C135.26 8.20545 132.774 8.1751 130.38 8.28783C129.433 8.31601 128.687 9.09428 128.687 10.033C128.687 11.0172 129.472 11.7933 130.439 11.7933C130.842 11.7933 131.269 11.7781 131.657 11.7651C131.976 11.7499 132.312 11.7499 132.655 11.7499C134.293 11.7261 135.948 11.7499 137.576 11.8475C140.86 12.0794 143.355 14.4468 143.355 17.3972V27.428C143.355 30.3633 140.86 32.7653 137.593 32.9843C134.866 33.1273 134.235 33.1273 131.534 32.9886C128.288 32.7653 125.932 30.4327 125.932 27.428V25.956C125.932 23.0164 128.401 20.6295 131.694 20.4084C133.383 20.3217 135.809 20.2979 137.344 20.3109H137.374C137.704 20.3109 137.975 20.042 137.975 19.6995C137.975 19.3787 137.704 19.0903 137.374 19.0903H137.352C135.809 19.0903 133.337 19.1142 131.629 19.1944C127.681 19.4611 124.696 22.3812 124.696 25.956V27.428C124.696 31.0939 127.543 33.9294 131.462 34.2113C134.233 34.3305 134.877 34.3305 137.656 34.2113C141.604 33.9316 144.576 31.0202 144.558 27.428V17.3972C144.576 13.7964 141.604 10.8849 137.656 10.627H137.643C135.987 10.5468 134.296 10.4991 132.644 10.5272C132.295 10.5272 131.946 10.5337 131.623 10.5489C131.232 10.5684 130.836 10.5879 130.441 10.5879C130.148 10.5879 129.899 10.3408 129.899 10.0308C129.899 9.75548 130.131 9.50617 130.43 9.491C132.78 9.39561 135.249 9.41512 137.704 9.54736C142.226 9.85086 145.653 13.2089 145.653 17.3972V27.428C145.653 31.612 142.226 34.9787 137.714 35.2757C134.907 35.4231 134.218 35.4231 131.401 35.2757C126.975 34.9809 123.628 31.6142 123.628 27.428V25.956C123.628 21.7915 127.046 18.4248 131.562 18.1235C133.383 18.0194 135.408 18.0107 136.804 18.0107C137.764 18.0107 138.555 17.2086 138.555 16.2439C138.555 15.2814 137.764 14.4988 136.804 14.4988C134.545 14.4988 132.83 14.5183 131.382 14.6137H131.341C128.345 14.798 125.55 16.0271 123.482 18.0476C121.319 20.1634 120.122 22.9622 120.122 25.956V27.428C120.122 33.4937 124.859 38.3714 131.167 38.7877L131.206 38.7942C132.659 38.8592 133.582 38.9069 134.545 38.9069C135.527 38.9069 136.483 38.857 137.912 38.7942L137.94 38.7877C140.927 38.5795 143.73 37.3612 145.796 35.3494C147.973 33.2292 149.159 30.424 149.159 27.428V17.3972C149.159 14.4164 147.973 11.5938 145.796 9.47149C143.726 7.45319 140.925 6.22835 137.935 6.03757Z" fill="url(#paint0_linear)"/>
<defs>
<linearGradient id="paint0_linear" x1="4.36569" y1="32.0004" x2="190.718" y2="32.0004" gradientUnits="userSpaceOnUse">
<stop stop-color="#501650"/>
<stop offset="0.2989" stop-color="#7D2A7E"/>
<stop offset="0.5024" stop-color="#BD84B9"/>
<stop offset="0.8184" stop-color="#F28A26"/>
<stop offset="1" stop-color="#F26624"/>
</linearGradient>
</defs>
</svg>
