<svg width="231" height="64" viewBox="0 0 231 64" fill="none" xmlns="http://www.w3.org/2000/svg">
<g clip-path="url(#clip0)">
<path d="M131.995 8.51981C132.602 9.12631 132.775 9.99273 133.122 10.7725C132.082 12.1588 130.436 12.7653 128.963 13.6317C128.53 13.805 128.27 14.0649 127.837 14.3249C127.23 14.0649 126.104 13.7184 126.104 12.7653C125.671 12.0722 125.237 11.379 125.237 10.5992C126.364 9.21295 128.356 9.55952 129.569 8.25988C130.176 8.25988 130.696 7.74003 131.302 8.17324C131.476 8.34653 131.649 8.51981 131.995 8.51981Z" fill="#231F20"/>
<path d="M127.49 16.7509C128.617 16.5777 130.09 16.0578 130.956 17.0975C131.303 17.2708 131.216 17.704 131.303 17.9639C131.216 18.1372 131.129 18.6571 130.696 18.7437C130.263 18.6571 129.743 19.0903 129.223 19.3502C129.483 19.4369 130.003 19.7834 130.09 20.13C130.436 20.6499 130.09 21.2564 130.09 21.7762C129.743 22.8159 128.184 22.6426 128.357 24.0289C126.711 24.6354 125.671 26.2816 123.851 26.4549C122.812 27.3213 121.512 28.1011 120.646 29.2275C120.299 26.0217 122.552 22.9892 125.238 21.6029C125.064 20.9098 123.938 20.5632 123.938 19.6968C123.505 19.1769 123.158 18.3972 123.158 17.7907C124.285 16.9242 125.324 15.7979 126.884 16.2311C126.971 16.4044 127.317 16.4044 127.49 16.7509Z" fill="#231F20"/>
<path d="M137.714 25.6752C137.714 25.5885 137.541 25.4152 137.454 25.3286C137.107 25.4152 136.847 25.1553 136.587 25.4152C136.414 24.8087 135.461 25.2419 135.201 24.7221C136.241 24.3755 137.194 24.982 137.714 25.6752Z" fill="#88714C"/>
<path d="M136.328 25.8484L136.501 25.5884L136.241 25.4152L136.328 25.8484Z" fill="#88714C"/>
<path d="M138.06 25.9351C137.974 26.3683 137.714 26.5416 137.367 26.7148L137.714 26.1083C137.714 26.195 137.8 26.195 137.8 26.195C137.974 26.195 138.06 25.9351 138.06 25.9351Z" fill="#88714C"/>
<path d="M136.848 26.0216C136.761 26.1082 136.588 26.2815 136.674 26.4548C136.848 26.3682 137.194 26.6281 137.194 26.888C137.194 26.9747 137.107 26.9747 137.107 27.0613C137.107 26.888 136.934 26.7147 136.761 26.8014L136.674 26.888C136.674 27.2346 136.761 26.7147 136.588 26.7147C135.721 26.8014 136.328 27.6678 135.461 27.7545C135.461 27.4945 135.635 27.4079 135.808 27.3212C135.548 26.7147 135.201 27.4079 134.941 27.3212L135.288 26.9747L135.201 26.888C135.288 26.888 135.808 26.9747 135.894 26.5415C136.068 26.9747 136.414 26.4548 136.588 26.3682C136.588 26.1949 136.588 25.935 136.848 26.0216Z" fill="#88714C"/>
<path d="M134.335 27.5812C134.249 27.4945 134.249 27.3213 134.422 27.2346C134.335 27.3213 134.249 27.4945 134.335 27.5812Z" fill="#88714C"/>
<path d="M128.011 29.7473C127.577 29.7473 127.144 29.7473 126.884 30.0938L126.711 30.0072C126.798 29.6606 127.577 29.8339 127.924 29.574V29.7473H128.011Z" fill="#88714C"/>
<path d="M125.584 31.9133C125.497 32.0866 125.324 32.0866 125.237 32.0866C125.237 32 125.497 31.9133 125.584 31.9133Z" fill="#88714C"/>
<path d="M121.252 32.6065C121.079 32.6065 120.819 32.6931 120.646 32.5198C120.819 32.3466 121.079 32.5198 121.252 32.3466V32.6065Z" fill="#88714C"/>
<path d="M117.093 33.213H117.353C117.527 33.1264 117.527 33.0397 117.613 32.8664C117.353 32.8664 117.18 33.0397 117.093 33.213ZM117.786 32.6065H117.527L117.786 32.7798V32.6065ZM119.779 24.0289C119.259 25.8484 117.613 25.3285 116.314 26.1083C116.4 26.195 115.88 26.2816 115.447 26.3682L115.101 26.5415C113.714 26.7148 112.761 27.6679 111.462 28.2744C111.548 28.8809 110.768 28.5343 110.422 28.8809C110.335 29.3141 109.469 29.1408 109.642 29.7473C109.036 30.1805 108.256 30.6137 107.996 31.2202C108.689 31.8267 109.642 31.7401 110.422 31.9134C113.021 32.1733 115.274 31.8267 117.7 31.8267C118.393 31.7401 119.086 31.4801 119.866 31.4801V31.5668C120.386 31.7401 120.732 31.1336 121.339 31.3935C121.685 30.9603 122.465 31.3069 122.898 30.787C123.678 30.5271 124.805 30.7004 125.324 30.3538V30.4404C125.064 30.3538 125.151 30.6137 124.978 30.787C125.151 30.8737 125.324 30.8737 125.584 30.8737C126.451 30.0072 127.144 31.1336 127.924 30.0939C128.27 29.6607 128.79 29.4874 129.31 29.3141L129.483 29.574C129.743 28.7942 130.61 29.0542 131.043 28.7076C130.696 28.7942 130.696 29.3141 130.176 29.0542C130.523 29.6607 129.657 29.6607 129.483 30.0072C129.31 30.0939 128.877 30.0072 128.877 29.6607C128.703 29.8339 128.703 30.5271 128.27 30.2672C127.75 30.3538 127.057 30.6137 126.451 30.8737C125.844 30.9603 124.978 31.3069 124.285 31.1336C123.678 31.4802 123.158 31.3935 122.465 31.6534C121.599 31.8267 120.386 31.7401 119.693 32.2599C119.433 32.2599 119.519 32.6931 119.346 32.6931C119.606 32.6931 119.519 33.3863 119.953 33.0397C119.779 33.0397 119.606 33.2996 119.519 33.0397C119.173 33.1264 118.826 33.5596 118.48 33.213C117.96 33.4729 117.267 33.2996 116.66 33.3863V33.213C117.007 33.5596 116.92 32.8664 117.267 32.7798V32.5199C116.314 32.9531 115.187 32.7798 114.061 33.213C114.407 33.8195 113.454 33.3863 113.281 33.5596C113.281 33.4729 113.454 33.4729 113.454 33.3863C112.068 32.9531 111.462 33.8195 109.989 33.4729L109.642 33.9061C109.036 33.5596 108.169 34.2527 107.476 33.8195C106.783 33.7329 105.83 33.4729 105.57 32.7798C105.31 32.8664 105.223 32.6931 105.223 32.4332C105.31 31.7401 104.097 31.4802 104.617 30.7004C104.27 30.2672 104.703 29.7473 104.79 29.3141C104.877 29.2274 104.877 29.1408 104.877 28.9675L105.05 29.1408C105.397 28.8809 105.397 28.5343 105.57 28.1877L106.523 27.148C106.436 27.2347 106.523 27.3213 106.61 27.3213C106.696 27.3213 106.783 27.148 106.956 27.148C106.87 26.8014 107.043 26.7148 107.303 26.5415C107.476 26.4549 107.736 26.6282 107.823 26.3682C107.649 25.8484 108.429 26.3682 108.429 25.7617C109.122 25.8484 109.296 24.982 109.989 25.1552C110.942 24.2022 112.328 24.1155 113.454 23.3357C115.361 22.7292 118.566 21.2563 119.779 24.0289Z" fill="#88714C"/>
<path d="M113.021 33.6463C112.934 33.8196 112.847 33.7329 112.761 33.7329V33.5596C112.847 33.5596 112.934 33.473 113.021 33.6463Z" fill="#88714C"/>
<path d="M133.729 27.5812C133.555 27.7545 133.382 27.9278 133.209 27.7545H133.122C133.295 27.6679 133.469 27.4946 133.729 27.5812Z" fill="#88714C"/>
<path d="M121.512 38.065C121.772 39.6245 120.993 41.0108 120.126 42.2238L119.78 42.3104L119.866 42.2238L119.78 42.1372C119.086 43.0036 118.22 43.7834 118.047 44.9097C117.873 44.9964 117.787 44.9964 117.7 45.083C117.527 44.4765 117.094 43.6101 117.44 42.9169C117.354 41.0108 118.22 39.5379 119.086 37.8917C119.693 37.5451 120.213 36.5054 120.906 37.0252L121.512 38.065Z" fill="#231F20"/>
<path d="M117.786 50.7148C118.046 51.2347 117.96 51.7546 117.873 52.2744C117.526 52.3611 117.093 52.2744 116.747 52.1011L116.66 52.1878C116.227 51.9278 115.793 51.5813 115.793 51.0614C115.62 50.3683 116.573 50.4549 116.66 49.9351C117.006 50.0217 117.44 50.3683 117.786 50.7148Z" fill="#231F20"/>
<path d="M142.219 43.177V46.2094C141.439 46.6427 138.407 46.8159 137.627 46.8159C133.382 46.8159 132.082 44.6499 132.082 40.6643C132.082 36.5055 133.815 34.5127 138.06 34.5127C139.62 34.5127 140.746 34.7726 142.306 35.2058V37.8918H141.353V37.4585C141.093 35.5524 140.226 35.1192 138.147 35.1192C134.941 35.1192 133.988 37.4585 133.988 40.3177C133.988 43.4369 134.508 46.2094 138.234 46.2094C140.92 46.2094 141.18 45.5163 141.439 43.0903H142.219V43.177Z" fill="#231F20"/>
<path d="M148.544 40.8375C148.544 43.7834 149.238 46.3827 152.703 46.3827C156.169 46.3827 156.862 43.6967 156.862 40.8375C156.862 37.8917 156.256 35.2924 152.703 35.2924C149.238 35.3791 148.544 37.9783 148.544 40.8375ZM146.812 40.8375C146.812 36.5054 148.198 34.6859 152.703 34.6859C157.209 34.6859 158.595 36.5054 158.595 40.8375C158.595 45.1697 157.469 46.9892 152.703 46.9892C148.198 46.9892 146.812 45.1697 146.812 40.8375Z" fill="#231F20"/>
<path d="M173.584 36.6787L169.425 46.7293C169.338 46.9026 169.165 46.9026 169.078 46.8159L164.833 36.9387V44.9964C164.833 46.1228 165.093 46.1228 166.219 46.1228V46.7293H164.4H162.58V46.1228C163.706 46.1228 163.966 46.0361 163.966 44.9964V36.5921C163.966 35.4658 163.62 35.4658 162.58 35.4658V34.8593H163.966H165.353L169.598 44.3899L173.67 34.8593H175.057H176.443V35.4658C175.317 35.4658 175.057 35.4658 175.057 36.5921V44.9964C175.057 46.1228 175.317 46.1228 176.443 46.1228V46.7293H174.277H172.111V46.1228C173.324 46.1228 173.584 46.0361 173.584 44.9964V36.6787Z" fill="#231F20"/>
<path d="M184.588 40.8376H185.454C187.62 40.8376 189.093 40.7509 189.093 38.1516C189.093 35.639 188.227 35.4657 186.32 35.4657H184.674V40.8376H184.588ZM184.588 44.9964C184.588 45.8628 184.501 46.1228 186.234 46.1228V46.7293C185.454 46.7293 184.588 46.7293 183.808 46.6426C182.941 46.7293 182.162 46.7293 181.382 46.7293V46.1228C183.028 46.1228 183.028 45.8628 183.028 44.9964V36.5921C183.028 35.639 183.028 35.3791 181.382 35.3791V34.7726C182.248 34.8592 183.028 34.8592 183.808 34.8592C184.934 34.8592 186.147 34.8592 187.36 34.7726C189.526 34.7726 190.739 35.3791 190.739 37.8051C190.739 41.0109 188.92 41.4441 186.147 41.4441H184.588V44.9964Z" fill="#231F20"/>
<path d="M201.137 40.8376L199.404 36.4188L197.498 41.0109H201.223L201.137 40.8376ZM200.444 34.8593L204.083 44.3033C204.256 44.8232 204.689 46.2961 206.075 46.2094V46.8159H203.736H201.31V46.2094C201.31 46.2094 202.783 46.2094 202.783 45.5163C202.783 45.1697 202.696 44.9098 202.523 44.6499L201.397 41.704H197.238L196.111 44.6499C196.025 44.9098 196.025 45.1697 196.025 45.4296C196.025 46.2094 196.891 46.2094 197.411 46.2094V46.8159H195.418H193.339V46.2094C193.945 46.1228 194.205 46.2094 194.639 45.6896C194.898 45.4296 195.332 44.2167 195.505 43.8701L199.231 34.8593H200.444Z" fill="#231F20"/>
<path d="M214.653 40.0578C216.299 40.6643 217.772 41.4441 217.772 43.3502C217.772 46.2094 215.433 46.9026 213.007 46.9026C211.794 46.9026 210.494 46.7293 209.281 46.2094V43.0903H210.408C210.581 44.7365 210.148 46.2961 213.18 46.2961C214.74 46.2961 216.126 45.6029 216.126 43.8701C216.126 41.964 214.22 41.5307 212.747 41.0109C211.101 40.4044 209.714 39.8845 209.714 37.8051C209.714 35.5524 211.621 34.5127 213.7 34.5127C214.826 34.5127 215.953 34.686 217.166 35.1192V37.9784H216.213C216.126 36.5921 216.386 35.1192 213.787 35.1192C212.4 35.1192 211.274 35.7257 211.274 37.2853C211.274 38.325 211.794 38.8448 212.66 39.1914L214.653 40.0578Z" fill="#231F20"/>
<path d="M227.736 39.8845C229.382 40.491 230.855 41.1841 230.855 43.1769C230.855 46.0361 228.516 46.7292 226.09 46.7292C224.877 46.7292 223.577 46.556 222.364 46.0361V42.917H223.491C223.664 44.5632 223.231 46.1227 226.263 46.1227C227.823 46.1227 229.209 45.4296 229.209 43.6968C229.209 41.7906 227.303 41.3574 225.83 40.8375C224.184 40.2311 222.797 39.7112 222.797 37.6318C222.797 35.2924 224.704 34.3394 226.783 34.3394C227.909 34.3394 229.036 34.5126 230.249 34.9459V37.8051H229.296C229.209 36.4188 229.469 34.9459 226.87 34.9459C225.483 34.9459 224.357 35.5524 224.357 37.1119C224.357 38.065 224.877 38.6715 225.743 39.0181L227.736 39.8845Z" fill="#231F20"/>
<path d="M162.754 54.7869C162.754 54.4404 162.754 54.3537 161.974 54.3537V54.0938C162.407 54.1804 162.754 54.1804 163.1 54.1804C163.447 54.1804 163.707 54.1804 163.967 54.0938V54.3537C163.36 54.3537 163.36 54.4404 163.36 54.7869V55.3934V55.6534C162.754 55.8266 162.147 55.9999 161.541 55.9999C159.895 55.9999 159.288 55.1335 159.288 53.5739C159.288 51.9277 159.981 51.1479 161.714 51.1479C162.321 51.1479 162.84 51.2346 163.36 51.4079V52.5342H163.014C162.927 51.5812 162.667 51.4079 161.714 51.4079C160.328 51.4079 160.068 52.5342 160.068 53.6606C160.068 54.9602 160.414 55.8266 161.801 55.8266C162.061 55.8266 162.407 55.74 162.754 55.5667V54.7869Z" fill="#231F20"/>
<path d="M170.898 53.4007H171.245C171.938 53.4007 172.631 53.4007 172.631 52.4476C172.631 51.7545 172.285 51.5812 171.591 51.5812H170.898V53.4007ZM170.898 55.2202C170.898 55.5667 170.812 55.74 171.505 55.74V55.9133H170.552H169.599V55.74C170.205 55.74 170.205 55.5667 170.205 55.2202V51.9278C170.205 51.5812 170.205 51.4945 169.599 51.4945V51.2346H170.552H171.851C172.718 51.2346 173.238 51.3213 173.238 52.2743C173.238 53.1408 172.804 53.4007 172.111 53.4873C172.285 53.8339 173.064 55.0469 173.238 55.3068C173.411 55.4801 173.584 55.74 173.931 55.74V55.9133H173.411H172.891C172.458 55.2202 171.505 53.6606 171.245 53.574C171.072 53.4873 170.898 53.4873 170.812 53.4873V55.2202H170.898Z" fill="#231F20"/>
<path d="M180.515 53.5739C180.515 54.7003 180.775 55.74 182.161 55.74C183.548 55.74 183.808 54.7003 183.808 53.5739C183.808 52.4476 183.548 51.4079 182.161 51.4079C180.688 51.3212 180.515 52.4476 180.515 53.5739ZM179.735 53.5739C179.735 51.9277 180.342 51.1479 182.075 51.1479C183.894 51.1479 184.414 51.8411 184.414 53.5739C184.414 55.3068 183.981 55.9999 182.075 55.9999C180.342 55.9999 179.735 55.3068 179.735 53.5739Z" fill="#231F20"/>
<path d="M191.693 54.4404C191.693 55.3068 192.039 55.8267 192.992 55.8267C194.032 55.8267 194.465 55.4801 194.465 54.4404V52.0144C194.465 51.5812 194.465 51.5812 193.772 51.5812V51.3213H194.639H195.505V51.5812C194.899 51.5812 194.899 51.6679 194.899 52.0144V54.3538C194.899 55.7401 194.205 56.0866 192.906 56.0866C191.779 56.0866 191.173 55.6534 191.173 54.5271V52.0144C191.173 51.5812 191.26 51.5812 190.566 51.5812V51.3213H191.433H192.386V51.5812C191.779 51.5812 191.779 51.6679 191.779 52.0144V54.4404H191.693Z" fill="#231F20"/>
<path d="M202.436 53.6606H202.783C203.649 53.6606 204.169 53.574 204.169 52.5343C204.169 51.5812 203.823 51.4945 203.043 51.4945H202.436V53.6606ZM202.436 55.2202C202.436 55.5667 202.436 55.74 203.043 55.74V55.9133H202.09H201.137V55.74C201.743 55.74 201.743 55.5667 201.743 55.2202V51.9278C201.743 51.5812 201.743 51.4945 201.137 51.4945V51.2346H202.09H203.476C204.342 51.2346 204.862 51.4945 204.862 52.361C204.862 53.6606 204.083 53.8339 202.956 53.8339H202.35V55.2202H202.436Z" fill="#231F20"/>
<path d="M131.563 29.4007C131.389 29.4007 131.216 29.4873 130.956 29.314C131.129 29.1407 131.389 29.314 131.563 29.1407V29.4007Z" fill="#88714C"/>
<path d="M132.689 28.2744C132.342 28.2744 131.909 28.2744 131.562 28.6209L131.476 28.5343C131.562 28.1877 132.342 28.361 132.602 28.1011V28.2744H132.689Z" fill="#88714C"/>
<path d="M134.248 28.2744C134.075 28.1877 133.902 28.361 133.729 28.1877C133.815 28.1011 134.075 28.2744 134.248 28.1011V28.2744Z" fill="#88714C"/>
<path d="M133.209 28.621L133.295 28.2744L133.122 28.1877L133.209 28.621Z" fill="#88714C"/>
</g>
<g clip-path="url(#clip1)">
<path d="M74.8445 31.5682C74.0022 32.1987 72.7997 33.0092 71.5176 33.8144C48.6215 48.0967 21.3496 38.2326 21.3496 38.2326C21.3496 38.2326 50.4386 50.131 76.1 34.3972L74.8445 31.5682ZM77.631 29.2267L79.0137 32.3364C99.9603 16.6927 79.4693 0 79.4693 0C79.4693 0 93.1529 14.8014 77.631 29.2267Z" fill="#B59B62"/>
<path d="M27.2722 9.29195L27.2458 13.3128C30.7104 13.085 32.3897 14.1127 32.3897 14.1127C34.6147 15.1617 34.4663 17.3549 34.4663 17.3549C34.6147 20.4222 32.3897 21.2592 32.3897 21.2592C30.8428 22.218 27.2246 21.9108 27.2246 21.9108V25.9634C30.1965 25.6773 31.6851 27.3938 31.6851 27.3938C32.7129 28.3261 34.9113 31.51 34.9113 31.51C36.4847 33.878 38.8474 37.6181 38.8474 37.6181H44.3887C43.7636 36.9771 40.9824 32.7708 40.9824 32.7708C40.2142 31.457 38.0316 28.1566 38.0316 28.1566C36.3205 25.7303 34.6941 24.5543 34.6941 24.5543C40.1771 22.4935 39.16 16.2053 39.16 16.2053C38.074 7.97815 27.2722 9.29195 27.2722 9.29195ZM58.7239 11.4057V16.0623C58.7239 16.0623 54.8567 11.9407 50.1842 13.4082C50.1842 13.4082 46.905 14.4836 48.2188 17.5827C48.2188 17.5827 48.8334 19.0713 51.2861 20.4592C51.2861 20.4592 55.3653 22.8273 56.7056 23.9133C56.7056 23.9133 59.6351 26.1065 59.7888 29.8783C59.7888 29.8783 60.3291 35.1918 55.3706 37.2155C55.3706 37.2155 51.9219 38.7412 47.6785 37.2155C47.6785 37.2155 45.5965 36.4791 44.1662 35.3136V29.9896C44.1662 29.9896 46.3011 32.9615 49.0929 33.7826C49.0929 33.7826 54.1415 35.5997 55.7785 31.6848C55.7785 31.6848 56.944 28.9777 52.9019 26.3289C52.9019 26.3289 49.1459 23.9874 48.6268 23.6855C48.6268 23.6855 45.2893 21.6618 44.4205 18.8965C44.4205 18.8965 43.1968 15.5696 45.5065 12.3857C45.5065 12.3857 47.2176 9.71576 51.5457 9.35022C51.5351 9.34493 55.3123 9.01118 58.7239 11.4057ZM72.6831 26.9011L77.4032 37.5916H81.6624L69.0542 9.29195H64.8585L71.009 23.1239H62.8296L61.0284 26.9276H72.6831V26.9011ZM25.0737 13.2704L25.1108 9.32903L15.2732 9.30784C15.2732 9.30784 8.5718 9.21249 4.41321 13.387C4.41321 13.387 0.773775 16.6874 0.0903876 22.324C0.0903876 22.324 -0.958532 29.4545 4.09006 33.9522C4.09006 33.9522 8.01556 37.9783 14.5316 37.777C14.5316 37.777 19.7126 37.8618 25.0526 35.5891V21.9214H15.6017V25.8893H20.6927V32.7337C20.6927 32.7337 15.0878 35.0382 10.4895 33.0728C10.4895 33.0728 6.64878 31.5894 5.0966 27.2984C5.0966 27.2984 3.02524 22.9385 6.45277 17.7469C6.45277 17.7469 9.21281 13.2704 16.0785 13.2704H25.0737Z" fill="#B59B62"/>
<path d="M5.59399 51.0316L5.11721 51.3177C5.02715 51.164 4.94239 51.0581 4.85763 51.0157C4.77287 50.9627 4.66691 50.9362 4.52918 50.9362C4.36495 50.9362 4.22722 50.9839 4.12126 51.074C4.01531 51.164 3.96234 51.2806 3.96234 51.4183C3.96234 51.609 4.10007 51.7626 4.38614 51.8792L4.77816 52.0381C5.09602 52.1653 5.32911 52.3242 5.47744 52.5096C5.62048 52.695 5.69464 52.9228 5.69464 53.193C5.69464 53.5532 5.5728 53.8499 5.33441 54.0883C5.09072 54.3267 4.78876 54.4432 4.43382 54.4432C4.09478 54.4432 3.81401 54.3426 3.59151 54.1413C3.37431 53.9399 3.23657 53.6539 3.18359 53.2883L3.78222 53.1559C3.80871 53.389 3.85639 53.5479 3.92525 53.6327C4.0471 53.8022 4.22722 53.887 4.46031 53.887C4.64572 53.887 4.79935 53.8234 4.9212 53.7016C5.04304 53.5797 5.10661 53.4208 5.10661 53.2354C5.10661 53.1559 5.09602 53.087 5.07483 53.0235C5.05364 52.9599 5.02185 52.9016 4.97947 52.8487C4.93179 52.7957 4.87352 52.7427 4.80465 52.7003C4.73048 52.6526 4.64572 52.6103 4.55037 52.5679L4.17424 52.4142C3.63389 52.1865 3.36901 51.858 3.36901 51.4183C3.36901 51.1216 3.48026 50.8779 3.70805 50.6819C3.93055 50.4806 4.21132 50.38 4.54507 50.38C4.99007 50.3747 5.33971 50.5919 5.59399 51.0316Z" fill="#B59B62"/>
<path d="M6.81249 52.3984C6.81249 52.8328 6.96083 53.1877 7.24689 53.4685C7.53826 53.744 7.87201 53.887 8.25343 53.887C8.66664 53.887 9.01099 53.744 9.29176 53.4579C9.57253 53.1718 9.71556 52.8222 9.71556 52.409C9.71556 51.9905 9.57783 51.6408 9.29706 51.3601C9.01628 51.074 8.67724 50.9363 8.26933 50.9363C7.86141 50.9363 7.51707 51.0793 7.231 51.3601C6.95023 51.6408 6.81249 51.9852 6.81249 52.3984ZM6.21387 52.3931C6.21387 51.8421 6.41518 51.3707 6.82309 50.9733C7.2257 50.576 7.70778 50.38 8.27462 50.38C8.83617 50.38 9.31295 50.5813 9.71027 50.9786C10.1129 51.3812 10.3142 51.858 10.3142 52.4196C10.3142 52.9811 10.1129 53.4579 9.71027 53.8499C9.30235 54.2472 8.81498 54.4432 8.24814 54.4432C7.73957 54.4432 7.28398 54.2684 6.88136 53.9135C6.43637 53.5268 6.21387 53.0182 6.21387 52.3931Z" fill="#B59B62"/>
<path d="M11.6437 50.4489V53.8128H12.7986V54.3744H11.0557V50.4489H11.6437Z" fill="#B59B62"/>
<path d="M13.8316 50.4489V52.8063C13.8316 53.1453 13.8899 53.389 13.9958 53.5426C14.1601 53.7651 14.3879 53.8817 14.6898 53.8817C14.9918 53.8817 15.2249 53.7704 15.3838 53.5426C15.495 53.3943 15.548 53.1453 15.548 52.8063V50.4489H16.1414V52.9758C16.1414 53.389 16.0142 53.728 15.7546 53.9982C15.4686 54.2949 15.1083 54.4485 14.6845 54.4485C14.266 54.4485 13.9111 54.3002 13.625 53.9982C13.3654 53.7333 13.2383 53.389 13.2383 52.9758V50.4541H13.8316V50.4489Z" fill="#B59B62"/>
<path d="M19.1776 54.9041L18.5101 55.6881L18.1393 55.4921L18.6744 54.6816L19.1776 54.9041ZM19.9776 50.6607V51.36C19.6332 51.0739 19.2836 50.9309 18.9181 50.9309C18.5154 50.9309 18.1764 51.0739 17.9009 51.3653C17.6202 51.6514 17.4824 52.001 17.4824 52.4195C17.4824 52.8327 17.6202 53.1771 17.9009 53.4631C18.1764 53.7439 18.5154 53.8869 18.9181 53.8869C19.13 53.8869 19.3048 53.8551 19.4478 53.7863C19.5273 53.7545 19.612 53.7068 19.7021 53.6485C19.7869 53.5903 19.8822 53.5214 19.9776 53.4419V54.1571C19.6385 54.3478 19.2836 54.4485 18.9128 54.4485C18.3512 54.4485 17.8691 54.2525 17.4771 53.8604C17.0851 53.4684 16.8838 52.9916 16.8838 52.4301C16.8838 51.9321 17.048 51.4871 17.3818 51.0951C17.7897 50.6183 18.3141 50.3746 18.9551 50.3746C19.3101 50.3746 19.6491 50.47 19.9776 50.6607Z" fill="#B59B62"/>
<path d="M21.805 50.0568L21.4713 49.776L21.5455 49.6701C21.5931 49.6012 21.6355 49.5429 21.6832 49.5006C21.7256 49.4529 21.7732 49.4158 21.8209 49.3893C21.8633 49.3575 21.911 49.3363 21.964 49.3257C22.0116 49.3151 22.0699 49.3045 22.1229 49.3045C22.2553 49.3045 22.409 49.3469 22.5838 49.437C22.7586 49.527 22.8698 49.5694 22.9228 49.5694C23.0182 49.5694 23.1241 49.4794 23.2354 49.2939L23.5585 49.5641C23.3943 49.8873 23.1771 50.0515 22.8963 50.0515C22.801 50.0515 22.6474 50.0038 22.4302 49.9085C22.2765 49.8343 22.16 49.7919 22.0858 49.7919C21.9957 49.7919 21.9004 49.882 21.805 50.0568ZM21.1269 52.3983C21.1269 52.8327 21.27 53.1877 21.5613 53.4684C21.8527 53.7439 22.1865 53.8869 22.5626 53.8869C22.9758 53.8869 23.3201 53.7439 23.6062 53.4578C23.887 53.1718 24.03 52.8221 24.03 52.4089C24.03 51.9904 23.8923 51.6408 23.6115 51.36C23.3307 51.0739 22.9917 50.9362 22.5838 50.9362C22.1759 50.9362 21.8315 51.0792 21.5508 51.36C21.2647 51.6408 21.1269 51.9851 21.1269 52.3983ZM20.5283 52.393C20.5283 51.8421 20.7349 51.3706 21.1375 50.9733C21.5402 50.576 22.0222 50.3799 22.5891 50.3799C23.1453 50.3799 23.6274 50.5813 24.0247 50.9786C24.4273 51.3812 24.6286 51.858 24.6286 52.4195C24.6286 52.9811 24.4273 53.4578 24.0247 53.8499C23.6168 54.2472 23.1347 54.4432 22.5626 54.4432C22.054 54.4432 21.6037 54.2684 21.2011 53.9134C20.7508 53.5267 20.5283 53.0181 20.5283 52.393Z" fill="#B59B62"/>
<path d="M27.5315 51.0051H25.9581V51.9481H27.4838V52.5043H25.9581V53.8128H27.5315V54.3744H25.3701V50.4489H27.5315V51.0051Z" fill="#B59B62"/>
<path d="M30.5251 51.0316L30.043 51.3177C29.9529 51.164 29.8682 51.0581 29.7887 51.0157C29.7039 50.9627 29.5927 50.9362 29.4603 50.9362C29.296 50.9362 29.1583 50.9839 29.047 51.074C28.9358 51.164 28.8828 51.2806 28.8828 51.4183C28.8828 51.609 29.0259 51.7626 29.3119 51.8792L29.6986 52.0381C30.0165 52.1653 30.2496 52.3242 30.3979 52.5096C30.5463 52.695 30.6204 52.9228 30.6204 53.193C30.6204 53.5532 30.5039 53.8499 30.2602 54.0883C30.0165 54.3267 29.7198 54.4432 29.3596 54.4432C29.0206 54.4432 28.7398 54.3426 28.5173 54.1413C28.3001 53.9399 28.1624 53.6539 28.1094 53.2883L28.708 53.1559C28.7345 53.389 28.7822 53.5479 28.851 53.6327C28.9729 53.8022 29.153 53.887 29.3808 53.887C29.5662 53.887 29.7198 53.8234 29.8417 53.7016C29.9635 53.5797 30.0218 53.4208 30.0218 53.2354C30.0218 53.1559 30.0112 53.087 29.99 53.0235C29.9688 52.9599 29.937 52.9016 29.8947 52.8487C29.847 52.7957 29.7887 52.7427 29.7198 52.7003C29.651 52.6526 29.5609 52.6103 29.4655 52.5679L29.0841 52.4142C28.5491 52.1865 28.2789 51.858 28.2789 51.4183C28.2789 51.1216 28.3901 50.8779 28.6179 50.6819C28.8457 50.4806 29.1212 50.38 29.455 50.38C29.9211 50.3747 30.2708 50.5919 30.5251 51.0316Z" fill="#B59B62"/>
<path d="M35.1067 51.0051H33.5386V51.9481H35.0643V52.5043H33.5386V53.8128H35.1067V54.3744H32.9453V50.4489H35.1067V51.0051Z" fill="#B59B62"/>
<path d="M35.748 54.3743L36.5745 50.1575L37.9201 53.2036L39.3133 50.1575L40.055 54.3743H39.4458L39.0696 52.001L37.9095 54.5492L36.7811 52.001L36.3573 54.3743H35.748Z" fill="#B59B62"/>
<path d="M44.5477 52.8645L43.9703 51.5295L43.3611 52.8645H44.5477ZM44.7914 53.4207H43.1121L42.6777 54.3743H42.042L43.9809 50.2051L45.851 54.3743H45.2046L44.7914 53.4207Z" fill="#B59B62"/>
<path d="M46.9312 50.4489V53.8128H48.0808V54.3744H46.3379V50.4489H46.9312Z" fill="#B59B62"/>
<path d="M49.2359 50.4541H48.6426V54.3743H49.2359V50.4541Z" fill="#B59B62"/>
<path d="M50.041 54.3743L50.8621 50.1575L52.213 53.2036L53.6063 50.1575L54.3426 54.3743H53.7387L53.3626 52.001L52.1971 54.5492L51.074 52.001L50.6555 54.3743H50.041Z" fill="#B59B62"/>
<path d="M57.3405 51.0051H55.7672V51.9481H57.2929V52.5043H55.7672V53.8128H57.3405V54.3744H55.1738V50.4489H57.3405V51.0051Z" fill="#B59B62"/>
<path d="M58.1143 54.3743V50.184L60.9749 53.1771V50.4488H61.5683V54.6074L58.7076 51.6249V54.3743H58.1143Z" fill="#B59B62"/>
<path d="M63.5867 51.0051V54.3744H62.9934V51.0051H62.0928V50.4489H64.482V51.0051H63.5867Z" fill="#B59B62"/>
<path d="M66.8607 52.8645L66.2779 51.5295L65.6687 52.8645H66.8607ZM67.0991 53.4207H65.425L64.9853 54.3743H64.3496L66.2885 50.2051L68.1586 54.3743H67.5123L67.0991 53.4207Z" fill="#B59B62"/>
<path d="M70.5639 54.9041L69.8964 55.6881L69.5256 55.4921L70.0607 54.6816L70.5639 54.9041ZM71.3639 50.6607V51.36C71.0248 51.0739 70.6699 50.9309 70.3044 50.9309C69.9017 50.9309 69.5627 51.0739 69.2872 51.3653C69.0117 51.6514 68.874 52.0063 68.874 52.4195C68.874 52.8327 69.0117 53.1771 69.2872 53.4631C69.568 53.7439 69.907 53.8869 70.3097 53.8869C70.5163 53.8869 70.6964 53.8551 70.8394 53.7863C70.9189 53.7545 71.0036 53.7068 71.0884 53.6485C71.1732 53.5903 71.2685 53.5214 71.3639 53.4419V54.1571C71.0248 54.3478 70.6699 54.4485 70.2991 54.4485C69.7375 54.4485 69.2607 54.2525 68.8687 53.8604C68.4714 53.4684 68.2754 52.9916 68.2754 52.4301C68.2754 51.9321 68.4396 51.4871 68.7734 51.0951C69.1813 50.6183 69.7057 50.3746 70.3467 50.3746C70.6964 50.3746 71.0354 50.47 71.3639 50.6607Z" fill="#B59B62"/>
<path d="M74.1712 52.8645L73.5885 51.5295L72.9792 52.8645H74.1712ZM72.8892 50.0568L72.5554 49.776L72.6349 49.6701C72.6826 49.6012 72.725 49.5429 72.7726 49.5006C72.815 49.4529 72.8627 49.4158 72.9051 49.3893C72.9528 49.3575 72.9951 49.3363 73.0428 49.3257C73.0958 49.3151 73.1488 49.3045 73.2017 49.3045C73.3342 49.3045 73.4878 49.3469 73.6626 49.437C73.8375 49.527 73.954 49.5694 74.0017 49.5694C74.097 49.5694 74.203 49.4794 74.3195 49.2939L74.6374 49.5641C74.4785 49.8873 74.256 50.0515 73.9805 50.0515C73.8798 50.0515 73.7315 50.0038 73.5143 49.9085C73.3607 49.8343 73.2441 49.7919 73.17 49.7919C73.0799 49.7919 72.9845 49.882 72.8892 50.0568ZM74.4149 53.4208H72.7356L72.3012 54.3743H71.6602L73.5991 50.2051L75.4691 54.3743H74.8228L74.4149 53.4208Z" fill="#B59B62"/>
<path d="M76.1846 52.3984C76.1846 52.8328 76.3329 53.1877 76.619 53.4685C76.9103 53.744 77.2441 53.887 77.6255 53.887C78.0334 53.887 78.3831 53.744 78.6691 53.4579C78.9499 53.1718 79.0929 52.8222 79.0929 52.409C79.0929 51.9905 78.9552 51.6408 78.6744 51.3601C78.3937 51.074 78.0546 50.9363 77.6467 50.9363C77.2388 50.9363 76.8944 51.0793 76.6084 51.3601C76.3276 51.6408 76.1846 51.9852 76.1846 52.3984ZM75.5859 52.3931C75.5859 51.8421 75.7873 51.3707 76.1952 50.9733C76.5978 50.576 77.0799 50.38 77.6467 50.38C78.2029 50.38 78.685 50.5813 79.0823 50.9786C79.485 51.3812 79.6863 51.858 79.6863 52.4196C79.6863 52.9811 79.485 53.4579 79.0823 53.8499C78.6797 54.2472 78.1924 54.4432 77.6202 54.4432C77.1116 54.4432 76.6614 54.2684 76.2534 53.9135C75.8084 53.5268 75.5859 53.0182 75.5859 52.3931Z" fill="#B59B62"/>
<path d="M84.1942 51.0051H82.6261V51.9481H84.1518V52.5043H82.6261V53.8128H84.1942V54.3744H82.0381V50.4489H84.1942V51.0051Z" fill="#B59B62"/>
<path d="M12.47 59.3222H10.9019V60.2599H12.4276V60.8162H10.9019V62.13H12.47V62.6862H10.3086V58.766H12.47V59.3222Z" fill="#B59B62"/>
<path d="M13.1172 62.6862L13.9436 58.4694L15.2839 61.5155L16.6825 58.4694L17.4188 62.6862H16.8149L16.4335 60.3182L15.2786 62.861L14.1502 60.3129L13.7264 62.6862H13.1172Z" fill="#B59B62"/>
<path d="M22.07 59.3434L21.5879 59.6295C21.4979 59.4759 21.4131 59.3699 21.3336 59.3222C21.2436 59.2693 21.1376 59.2428 20.9999 59.2428C20.8357 59.2428 20.6979 59.2904 20.592 59.3858C20.4807 59.4759 20.4277 59.5924 20.4277 59.7301C20.4277 59.9209 20.5708 60.0745 20.8568 60.1963L21.2436 60.3553C21.5614 60.4824 21.7945 60.6413 21.9428 60.8267C22.0912 61.0122 22.1653 61.24 22.1653 61.5101C22.1653 61.8704 22.0488 62.167 21.8051 62.4054C21.5614 62.6438 21.2648 62.7604 20.9045 62.7604C20.5655 62.7604 20.2847 62.6597 20.0622 62.4584C19.8397 62.2571 19.7073 61.971 19.6543 61.6055L20.2529 61.473C20.2794 61.7008 20.3271 61.8598 20.396 61.9498C20.5178 62.1194 20.6926 62.2041 20.931 62.2041C21.1164 62.2041 21.2701 62.1405 21.3866 62.0187C21.5137 61.8969 21.572 61.7379 21.572 61.5525C21.572 61.4783 21.5614 61.4042 21.5402 61.3406C21.519 61.277 21.4873 61.2188 21.4396 61.1658C21.3972 61.1128 21.3389 61.0598 21.2648 61.0122C21.1906 60.9645 21.1111 60.9221 21.0105 60.8744L20.6343 60.7208C20.094 60.493 19.8291 60.1645 19.8291 59.7248C19.8291 59.4282 19.9404 59.1845 20.1682 58.9832C20.396 58.7819 20.6767 58.6865 21.0105 58.6865C21.4608 58.6865 21.8157 58.909 22.07 59.3434Z" fill="#B59B62"/>
<path d="M25.0472 59.3222H23.4738V60.2599H25.0048V60.8162H23.4738V62.13H25.0472V62.6862H22.8857V58.766H25.0472V59.3222Z" fill="#B59B62"/>
<path d="M26.4136 60.5619H26.6044C27.1659 60.5619 27.4467 60.3447 27.4467 59.9209C27.4467 59.5182 27.1765 59.3222 26.6255 59.3222H26.4136V60.5619ZM27.1553 61.0122L28.3684 62.6862H27.6427L26.5249 61.081H26.4136V62.6862H25.8203V58.766H26.5143C27.0335 58.766 27.4043 58.8613 27.6374 59.0574C27.8917 59.2746 28.0188 59.5606 28.0188 59.9156C28.0188 60.191 27.9446 60.4347 27.7804 60.6307C27.6215 60.8267 27.4096 60.9592 27.1553 61.0122Z" fill="#B59B62"/>
<path d="M29.0149 58.766L30.0956 61.4784L31.1975 58.766H31.8438L30.085 62.9776L28.3633 58.766H29.0149Z" fill="#B59B62"/>
<path d="M32.9191 58.766H32.3311V62.6862H32.9191V58.766Z" fill="#B59B62"/>
<path d="M35.9599 63.2213L35.2924 64.0053L34.9215 63.8093L35.4566 62.9988L35.9599 63.2213ZM36.7598 58.9726V59.6719C36.4208 59.3858 36.0658 59.2428 35.7003 59.2428C35.2977 59.2428 34.9586 59.3858 34.6831 59.6772C34.4077 59.9633 34.2646 60.3182 34.2646 60.7314C34.2646 61.1393 34.4077 61.489 34.6831 61.775C34.9639 62.0558 35.2977 62.1989 35.7056 62.1989C35.9122 62.1989 36.0923 62.1671 36.2353 62.0982C36.3148 62.0664 36.3996 62.0187 36.4896 61.9605C36.5744 61.9022 36.6697 61.8333 36.7651 61.7539V62.469C36.4261 62.6597 36.0711 62.7551 35.695 62.7551C35.1334 62.7551 34.6567 62.5591 34.2593 62.1724C33.8673 61.775 33.666 61.3036 33.666 60.742C33.666 60.2441 33.8302 59.7991 34.1587 59.407C34.5666 58.9302 35.0911 58.6919 35.7374 58.6919C36.0923 58.6866 36.4313 58.7819 36.7598 58.9726Z" fill="#B59B62"/>
<path d="M37.8828 60.7101C37.8828 61.1445 38.0311 61.4995 38.3225 61.7803C38.6139 62.061 38.9476 62.1988 39.3237 62.1988C39.737 62.1988 40.0813 62.0557 40.3674 61.775C40.6481 61.4889 40.7912 61.1393 40.7912 60.726C40.7912 60.3075 40.6481 59.9632 40.3727 59.6771C40.0972 59.3911 39.7528 59.248 39.3449 59.248C38.937 59.248 38.5874 59.3911 38.3119 59.6771C38.0205 59.9526 37.8828 60.3022 37.8828 60.7101ZM37.2842 60.7048C37.2842 60.1539 37.4855 59.6824 37.8881 59.2851C38.2907 58.8878 38.7781 58.6918 39.3396 58.6918C39.8959 58.6918 40.378 58.8931 40.7753 59.2904C41.1779 59.693 41.3739 60.1698 41.3739 60.7313C41.3739 61.2929 41.1779 61.7697 40.77 62.167C40.3674 62.559 39.8747 62.7603 39.3026 62.7603C38.794 62.7603 38.3437 62.5855 37.9411 62.2359C37.5067 61.8385 37.2842 61.3353 37.2842 60.7048Z" fill="#B59B62"/>
<path d="M44.3464 59.3434L43.859 59.6295C43.7742 59.4759 43.6895 59.3699 43.6047 59.3222C43.5199 59.2693 43.4087 59.2428 43.2762 59.2428C43.112 59.2428 42.9743 59.2904 42.8683 59.3858C42.7571 59.4759 42.7041 59.5924 42.7041 59.7301C42.7041 59.9209 42.8471 60.0745 43.1279 60.1963L43.5199 60.3553C43.8378 60.4824 44.0709 60.6413 44.2192 60.8267C44.3676 61.0122 44.4417 61.24 44.4417 61.5101C44.4417 61.8704 44.3252 62.167 44.0815 62.4054C43.8378 62.6438 43.5411 62.7604 43.1809 62.7604C42.8418 62.7604 42.5611 62.6597 42.3386 62.4584C42.1161 62.2571 41.9836 61.971 41.9307 61.6055L42.5293 61.473C42.5558 61.7008 42.6035 61.8598 42.6723 61.9498C42.7942 62.1194 42.969 62.2041 43.2021 62.2041C43.3875 62.2041 43.5411 62.1405 43.663 62.0187C43.7848 61.8969 43.8484 61.7379 43.8484 61.5525C43.8484 61.4783 43.8378 61.4042 43.8166 61.3406C43.7954 61.277 43.7636 61.2188 43.7159 61.1658C43.6736 61.1128 43.6153 61.0598 43.5411 61.0122C43.4723 60.9645 43.3875 60.9221 43.2868 60.8744L42.9107 60.7208C42.3704 60.493 42.1002 60.1645 42.1002 59.7248C42.1002 59.4282 42.2167 59.1845 42.4392 58.9832C42.667 58.7819 42.9425 58.6865 43.2815 58.6865C43.7371 58.6865 44.0921 58.909 44.3464 59.3434Z" fill="#B59B62"/>
<path d="M47.355 62.1247H47.6199C47.8848 62.1247 48.1073 62.0982 48.2821 62.0399C48.4622 61.9816 48.6212 61.8863 48.7642 61.7591C49.0556 61.4942 49.1986 61.1499 49.1986 60.7208C49.1986 60.2917 49.0556 59.9421 48.7695 59.6772C48.5099 59.4335 48.1285 59.3169 47.6252 59.3169H47.3603V62.1247H47.355ZM46.7617 62.6862V58.766H47.5828C47.9802 58.766 48.2927 58.8031 48.5152 58.8825C48.7642 58.9567 48.9867 59.0838 49.1827 59.2693C49.5853 59.6401 49.7919 60.1222 49.7919 60.7261C49.7919 61.33 49.58 61.8174 49.1615 62.1882C48.9496 62.3736 48.7271 62.5061 48.4993 62.575C48.2821 62.6491 47.9749 62.6862 47.5775 62.6862H46.7617Z" fill="#B59B62"/>
<path d="M52.7005 59.3222H51.1271V60.2599H52.6528V60.8162H51.1271V62.13H52.7005V62.6862H50.5391V58.766H52.7005V59.3222Z" fill="#B59B62"/>
<path d="M57.2987 59.3434L56.8219 59.6295C56.7318 59.4759 56.6471 59.3699 56.5623 59.3222C56.4828 59.2693 56.3716 59.2428 56.2391 59.2428C56.0749 59.2428 55.9372 59.2904 55.8312 59.3858C55.72 59.4759 55.6723 59.5924 55.6723 59.7301C55.6723 59.9209 55.8153 60.0745 56.0961 60.1963L56.4881 60.3553C56.806 60.4824 57.0391 60.6413 57.1874 60.8267C57.3304 61.0122 57.4099 61.24 57.4099 61.5101C57.4099 61.8704 57.2881 62.167 57.0497 62.4054C56.806 62.6438 56.504 62.7604 56.1491 62.7604C55.81 62.7604 55.5293 62.6597 55.3015 62.4584C55.0843 62.2571 54.9465 61.971 54.8936 61.6055L55.4922 61.473C55.5187 61.7008 55.5663 61.8598 55.6352 61.9498C55.7571 62.1194 55.9372 62.2041 56.1703 62.2041C56.3557 62.2041 56.5093 62.1405 56.6312 62.0187C56.753 61.8969 56.8113 61.7379 56.8113 61.5525C56.8113 61.4783 56.8007 61.4042 56.7795 61.3406C56.7583 61.277 56.7265 61.2188 56.6841 61.1658C56.6365 61.1128 56.5835 61.0598 56.5093 61.0122C56.4351 60.9645 56.3557 60.9221 56.255 60.8744L55.8789 60.7208C55.3386 60.493 55.0737 60.1645 55.0737 59.7248C55.0737 59.4282 55.1849 59.1845 55.4127 58.9832C55.6352 58.7819 55.916 58.6865 56.2497 58.6865C56.6894 58.6865 57.0444 58.909 57.2987 59.3434Z" fill="#B59B62"/>
<path d="M58.7027 58.766V61.1234C58.7027 61.4572 58.761 61.7061 58.8669 61.8598C59.0312 62.0876 59.2589 62.1988 59.5609 62.1988C59.8629 62.1988 60.0907 62.0823 60.2549 61.8598C60.3714 61.7114 60.4191 61.4678 60.4191 61.1234V58.766H61.0124V61.2876C61.0124 61.7008 60.88 62.0399 60.6257 62.3101C60.3344 62.612 59.9794 62.7551 59.5609 62.7551C59.1424 62.7551 58.7822 62.6067 58.4961 62.3101C58.2418 62.0452 58.1094 61.7061 58.1094 61.2876V58.766H58.7027Z" fill="#B59B62"/>
<path d="M62.5435 60.546H62.766C63.3064 60.546 63.5819 60.3341 63.5819 59.9209C63.5819 59.5129 63.3011 59.3116 62.7395 59.3116H62.5435V60.546ZM62.5435 61.0916V62.6862H61.9502V58.766H62.623C62.9514 58.766 63.2004 58.7872 63.3647 58.8349C63.5342 58.8825 63.6825 58.9673 63.8096 59.0944C64.0321 59.3169 64.1487 59.5924 64.1487 59.9315C64.1487 60.2864 64.0322 60.5725 63.7885 60.7844C63.5501 60.991 63.2269 61.0969 62.819 61.0969H62.5435V61.0916Z" fill="#B59B62"/>
<path d="M65.165 60.7101C65.165 61.1445 65.3081 61.4995 65.5994 61.7803C65.8855 62.061 66.2245 62.1988 66.606 62.1988C67.0192 62.1988 67.3635 62.0557 67.6443 61.775C67.9251 61.4889 68.0681 61.1393 68.0681 60.726C68.0681 60.3075 67.9304 59.9632 67.6496 59.6771C67.3741 59.3911 67.0298 59.248 66.6166 59.248C66.214 59.248 65.8696 59.3911 65.5835 59.6771C65.3028 59.9526 65.165 60.3022 65.165 60.7101ZM64.5664 60.7048C64.5664 60.1539 64.7677 59.6824 65.1703 59.2851C65.5729 58.8878 66.055 58.6918 66.6219 58.6918C67.1781 58.6918 67.6602 58.8931 68.0575 59.2904C68.4601 59.693 68.6614 60.1698 68.6614 60.7313C68.6614 61.2929 68.4601 61.7697 68.0575 62.167C67.6549 62.559 67.1675 62.7603 66.5954 62.7603C66.0921 62.7603 65.6312 62.5855 65.2339 62.2359C64.7889 61.8385 64.5664 61.3353 64.5664 60.7048Z" fill="#B59B62"/>
<path d="M69.9972 60.5619H70.1826C70.7442 60.5619 71.0249 60.3447 71.0249 59.9209C71.0249 59.5182 70.7495 59.3222 70.2091 59.3222H69.9972V60.5619ZM70.7336 61.0122L71.9467 62.6862H71.2262L70.1085 61.081H70.0025V62.6862H69.4092V58.766H70.1032C70.617 58.766 70.9932 58.8613 71.2262 59.0574C71.4805 59.2746 71.6077 59.5606 71.6077 59.9156C71.6077 60.191 71.5282 60.4347 71.3693 60.6307C71.2051 60.8267 70.9985 60.9592 70.7336 61.0122Z" fill="#B59B62"/>
<path d="M73.5726 59.3222V62.6862H72.9793V59.3222H72.084V58.766H74.4732V59.3222H73.5726Z" fill="#B59B62"/>
<path d="M77.1648 59.3222H75.5914V60.2599H77.1171V60.8162H75.5914V62.13H77.1648V62.6862H74.998V58.766H77.1648V59.3222Z" fill="#B59B62"/>
</g>
<defs>
<clipPath id="clip0">
<rect width="126.412" height="48" fill="white" transform="translate(104.443 8)"/>
</clipPath>
<clipPath id="clip1">
<rect width="88.443" height="64" fill="white"/>
</clipPath>
</defs>
</svg>
