<svg width="137" height="56" viewBox="0 0 137 56" fill="none" xmlns="http://www.w3.org/2000/svg">
<g clip-path="url(#clip0)">
<path d="M26.9827 16.4104H26.4893V16.9101V25.105L33.8409 22.0069V16.9101V16.4104H33.3412H26.9827Z" fill="#009639"/>
<path d="M10.9619 22.4753C9.76265 22.4753 8.52592 22.5753 7.22049 22.7939V13.5059V13H6.71455H0.499688H0V13.5059V40.945C0 45.3923 2.98563 50.1455 11.3741 50.1455C15.0156 50.1455 23.4791 48.7776 23.4791 36.0294C23.4791 27.2911 19.0319 22.4753 10.9619 22.4753ZM11.3741 43.812C7.71393 43.812 7.21424 42.6502 7.21424 41.5197V28.7152C8.24485 28.5091 9.4316 28.4029 10.7495 28.4029C13.4478 28.4029 16.2024 29.2711 16.2024 35.717C16.2024 41.6134 14.8969 43.812 11.3741 43.812Z" fill="#009639"/>
<path d="M97.9263 22.7002C90.2186 22.7002 85.9775 27.6908 85.9775 36.7602C85.9775 43.6309 88.6321 47.1162 91.8114 48.7339C94.0912 49.8894 96.777 50.2267 99.3317 50.2267C102.942 50.2267 106.864 49.1337 108.282 48.4966L108.545 48.3592V48.0593V42.5253C106.052 43.481 102.817 44.218 100.031 44.218C98.1075 44.218 96.5334 43.9057 95.1468 42.9188C94.2161 42.2567 93.5603 41.1324 93.3354 39.3148H109.282H109.731L109.781 38.8651C109.881 37.8095 109.881 36.7539 109.881 35.6296C109.875 29.6708 106.746 22.7002 97.9263 22.7002ZM93.3354 34.0618C93.7414 30.4516 95.1656 28.7402 98.1824 28.7402C101.874 28.7402 102.942 31.426 102.942 34.0618H93.3354Z" fill="#009639"/>
<path d="M49.594 22.7189C41.4116 22.7189 36.9082 27.6096 36.9082 36.4915C36.9082 45.3735 41.4116 50.2579 49.594 50.2579C57.7764 50.2579 62.2798 45.3735 62.2798 36.4915C62.2798 27.6096 57.7764 22.7189 49.594 22.7189ZM49.594 44.1492C46.1212 44.1492 44.11 42.8938 44.11 36.4915C44.11 30.0893 46.1212 28.84 49.594 28.84C53.0731 28.84 55.0781 30.0955 55.0781 36.4915C55.0843 42.8938 53.0731 44.1492 49.594 44.1492Z" fill="#009639"/>
<path d="M75.1341 32.8313C72.8855 32.188 71.5113 31.7383 71.5113 30.6577C71.5113 30.2454 71.5113 28.9962 75.4526 28.9962C77.5513 28.9962 79.4751 29.396 81.174 30.183L81.8923 30.514V29.727V25.0237V24.7426L81.6362 24.599C79.4626 23.3373 76.9454 22.6752 74.3658 22.6752C68.2571 22.6752 64.3096 26.0293 64.3096 31.2323C64.3096 36.8913 69.0379 38.3092 72.492 39.3335C75.0341 40.0955 76.5956 40.6265 76.5956 41.9131C76.5956 42.9313 76.5956 43.8869 72.8105 43.8869C69.7312 43.8869 67.3077 42.7002 65.8086 41.7008L65.0279 41.1824V42.1193V47.6408V47.9344L65.284 48.078C67.8136 49.5271 70.6494 50.2579 73.685 50.2579C79.6313 50.2579 83.7911 46.9537 83.7911 42.2192C83.7974 35.3235 78.788 33.8807 75.1341 32.8313Z" fill="#009639"/>
<path d="M136.409 23.2748H129.75H129.388L129.269 23.6183L123.298 41.6446L117.314 23.6183L117.202 23.2748H116.84H110.231H109.507L109.763 23.9556L119.626 49.7145H127.015L136.877 23.9556L137.14 23.2748H136.409Z" fill="#009639"/>
<path d="M26.4834 49.0025V50.0331L33.8413 53V45.9106L26.4834 49.0025Z" fill="#009639"/>
<path d="M26.4834 27.9032V46.1606L33.8413 43.0625L33.8351 24.8114L26.4834 27.9032Z" fill="#009639"/>
</g>
<defs>
<clipPath id="clip0">
<rect width="137" height="56" fill="white"/>
</clipPath>
</defs>
</svg>
