<svg width="216" height="56" viewBox="0 0 216 56" fill="none" xmlns="http://www.w3.org/2000/svg">
<path d="M64.8493 12L60.3115 44C64.7352 44 67.4536 44 71.8701 44L76.1296 12C71.7202 12.0071 69.273 12 64.8493 12Z" fill="#253081"/>
<path d="M82.5225 12L78.1631 44C83.4144 44 86.1756 44 91.4269 44L96.0146 12C90.7419 12.0071 87.7952 12 82.5225 12Z" fill="#253081"/>
<path d="M154.791 17.344L153.336 22.053H154.756L154.791 17.344Z" fill="#253081"/>
<path d="M101.023 12L96.5566 44H114.686L119.324 12H101.023Z" fill="#253081"/>
<path d="M15.8818 44C17.53 44 18.8785 44 20.5267 44L24.7933 12C23.1452 12.0071 21.497 11.9928 19.8488 12L15.8818 44Z" fill="#253081"/>
<path d="M50.5297 12L45.999 44C49.5736 44 50.1801 44 53.7547 44L58.0998 12C54.5252 12.0071 54.1043 11.9928 50.5297 12Z" fill="#253081"/>
<path d="M0 44H3.16789L7.64861 12H4.49498L0 44Z" fill="#253081"/>
<path d="M35.104 12L30.6875 44C32.8066 44 35.2253 44 37.3515 44L41.3756 12C39.2494 12.0071 37.2159 11.9928 35.104 12Z" fill="#253081"/>
<path d="M149.455 37.8568L149.505 33.1406L148.042 37.8568H149.455Z" fill="#253081"/>
<path d="M185.351 32.7268L184.323 39.1482C184.352 39.1553 184.373 39.1553 184.402 39.1553C184.43 39.1696 184.466 39.1696 184.516 39.1696C184.723 39.1696 184.93 39.1197 185.108 39.0198C185.301 38.9199 185.451 38.7772 185.586 38.606C185.793 38.3348 186 37.764 186.185 36.915C186.378 36.0588 186.471 35.2098 186.471 34.3607C186.471 33.8113 186.385 33.3975 186.214 33.1406C186.028 32.8909 185.75 32.7482 185.351 32.7268Z" fill="#253081"/>
<path d="M195.789 32.4772C195.51 32.4772 195.289 32.5771 195.104 32.7626C194.918 32.9552 194.754 33.2691 194.611 33.7044C194.426 34.2894 194.269 34.9815 194.141 35.7878C194.012 36.594 193.955 37.3503 193.955 38.0567C193.955 38.5276 194.012 38.8772 194.141 39.0912C194.262 39.3053 194.476 39.4194 194.747 39.4194C194.99 39.4194 195.218 39.3195 195.396 39.1269C195.582 38.9271 195.739 38.6203 195.882 38.178C196.081 37.6143 196.231 36.9365 196.352 36.1302C196.474 35.3454 196.538 34.582 196.538 33.8613C196.538 33.3833 196.474 33.0408 196.352 32.8196C196.231 32.5985 196.053 32.4772 195.789 32.4772Z" fill="#253081"/>
<path d="M122.984 12L118.446 44H210.558L215.987 12H122.984ZM175.005 13.7909H181.298L180.812 16.8731H178.073L177.801 18.4928H180.277L179.814 21.4609H177.338L177.052 23.2018H179.799L179.278 26.4838H172.985L175.005 13.7909ZM167.834 13.7909H171.387L169.867 23.3373H172.472L171.972 26.491H165.808L167.834 13.7909ZM160.656 13.7909H164.217L162.697 23.3373H165.301L164.809 26.491H158.644L160.656 13.7909ZM157.353 13.7909L158.245 26.4838H154.663L154.684 24.6074H152.587L152.023 26.4838H148.391L153.165 13.7909H157.353ZM142.869 23.1376C143.126 23.3017 143.347 23.4158 143.547 23.48C143.739 23.5514 143.918 23.5871 144.075 23.5871C144.389 23.5871 144.631 23.4872 144.781 23.2874C144.938 23.0948 145.067 22.6952 145.152 22.1173L146.479 13.798H150.018L148.641 22.5596C148.399 24.0794 147.978 25.1639 147.393 25.7846C146.793 26.4196 145.93 26.7407 144.795 26.7407C144.382 26.7407 143.975 26.6979 143.575 26.6051C143.19 26.5124 142.798 26.3768 142.391 26.1913L142.869 23.1376ZM140.022 42.2876L141.178 32.8838L138.167 42.2876H135.77L135.62 32.8696L133.822 42.2876H130.768L133.694 29.5875H137.846L137.875 36.2872L140.036 29.5875H144.168L143.083 42.2876H140.022ZM149.376 42.2876L149.39 40.4111H147.293L146.736 42.2876H143.097L147.878 29.5875H152.059L152.958 42.2876H149.376ZM158.073 38.7559C158.366 39.1625 158.837 39.3695 159.465 39.3695C159.615 39.3695 159.779 39.348 159.957 39.3195C160.135 39.291 160.321 39.241 160.521 39.1768L159.979 42.2377C159.736 42.3447 159.479 42.4089 159.194 42.4589C158.915 42.4945 158.58 42.5231 158.216 42.5231C156.782 42.5231 155.69 42.1093 154.934 41.2745C154.178 40.4397 153.8 39.2339 153.8 37.6428C153.8 35.1527 154.363 33.1478 155.519 31.6352C156.668 30.1226 158.188 29.3592 160.086 29.3592C160.435 29.3592 160.778 29.3877 161.099 29.452C161.441 29.509 161.762 29.5946 162.083 29.7159L161.527 32.8624C161.32 32.7483 161.12 32.6698 160.935 32.6198C160.756 32.577 160.564 32.5485 160.378 32.5485C159.543 32.5485 158.873 32.9409 158.373 33.74C157.867 34.532 157.617 35.5808 157.617 36.8936C157.617 37.7284 157.767 38.3492 158.073 38.7559ZM166.079 42.2876L166.864 37.3289H165.415L164.63 42.2876H161.084L163.104 29.5875H166.65L165.915 34.1824H167.377L168.091 29.5875H171.637L169.611 42.2876H166.079ZM176.26 42.2876L176.282 40.4111H174.184L173.628 42.2876H169.996L174.769 29.5875H178.957L179.856 42.2876H176.26ZM180.762 22.581C181.155 22.9164 181.569 23.1732 182.004 23.3445C182.439 23.53 182.853 23.6227 183.26 23.6227C183.609 23.6227 183.895 23.5157 184.102 23.3231C184.308 23.1376 184.416 22.8664 184.416 22.5454C184.416 22.2457 184.33 21.9603 184.159 21.6749C183.987 21.3895 183.652 21.0042 183.146 20.5333C182.539 19.9483 182.125 19.4346 181.904 18.9851C181.683 18.5427 181.562 18.0504 181.562 17.5081C181.562 16.2952 181.947 15.3391 182.717 14.6256C183.488 13.9122 184.53 13.5483 185.842 13.5483C186.378 13.5483 186.884 13.6054 187.362 13.7266C187.847 13.8479 188.333 14.0334 188.825 14.2832L188.325 17.3726C187.94 17.1086 187.576 16.8945 187.205 16.7661C186.849 16.6234 186.499 16.5592 186.171 16.5592C185.871 16.5592 185.636 16.6377 185.464 16.7946C185.293 16.9373 185.207 17.1514 185.207 17.4154C185.207 17.7721 185.529 18.2716 186.192 18.928C186.271 19.0065 186.335 19.0707 186.385 19.1206C187.041 19.7699 187.469 20.3264 187.69 20.7902C187.897 21.2611 188.004 21.7891 188.004 22.3955C188.004 23.7583 187.583 24.8214 186.749 25.6062C185.907 26.3839 184.765 26.7835 183.302 26.7835C182.682 26.7835 182.097 26.705 181.547 26.5552C180.991 26.4125 180.527 26.2056 180.156 25.9416L180.762 22.581ZM189.31 38.128C188.918 39.3195 188.404 40.2256 187.776 40.8678C187.262 41.3744 186.684 41.7454 186.014 41.9594C185.357 42.1735 184.323 42.2805 182.917 42.2805H180.249L182.268 29.5804H184.958C186.649 29.5804 187.897 29.9728 188.704 30.7648C189.503 31.5425 189.909 32.7697 189.909 34.425C189.909 35.7093 189.717 36.9365 189.31 38.128ZM199.691 37.5501C199.392 38.6488 198.978 39.5906 198.45 40.3612C197.958 41.0818 197.372 41.6312 196.695 41.9951C196.017 42.359 195.253 42.5373 194.39 42.5373C193.177 42.5373 192.214 42.1021 191.493 41.2317C190.758 40.3612 190.395 39.2125 190.395 37.7712C190.395 36.594 190.544 35.4524 190.851 34.3322C191.158 33.2192 191.565 32.2916 192.086 31.5353C192.592 30.8076 193.191 30.2582 193.855 29.9014C194.526 29.5447 195.289 29.3592 196.145 29.3592C197.365 29.3592 198.343 29.7873 199.063 30.6506C199.777 31.4925 200.148 32.6698 200.148 34.1324C200.148 35.3168 199.991 36.4513 199.691 37.5501Z" fill="#253081"/>
<path d="M176.346 37.8568L176.396 33.1406L174.934 37.8568H176.346Z" fill="#253081"/>
</svg>
