<svg width="124" height="56" viewBox="0 0 124 56" fill="none" xmlns="http://www.w3.org/2000/svg">
<path d="M48.0166 27.7238C47.8786 27.7238 47.8096 27.7929 47.7635 27.9539L46.199 32.0722C45.8999 32.7855 45.7619 33.4757 45.7619 33.8208C45.7619 34.35 46.015 34.7181 46.9123 34.7181H47.3494C47.6945 34.7181 47.7865 34.7871 47.7865 34.9482C47.7865 35.1782 47.6025 35.2473 47.3034 35.2473C46.3831 35.2473 45.1407 35.1552 44.2434 35.1552C43.9213 35.1552 42.3338 35.2473 40.8383 35.2473C40.4702 35.2473 40.2861 35.1782 40.2861 34.9482C40.2861 34.7641 40.4012 34.7181 40.6312 34.7181C40.8843 34.7181 41.2985 34.6951 41.5285 34.6491C42.863 34.465 43.4151 33.4987 43.9903 32.0492L51.2376 13.9194C51.5828 13.0911 51.7668 12.769 52.0429 12.769C52.296 12.769 52.4801 13.0221 52.7561 13.6893C53.4464 15.2768 58.0708 27.0566 59.9114 31.451C61.0158 34.0509 61.8441 34.465 62.4422 34.6031C62.8794 34.6951 63.3165 34.7181 63.6616 34.7181C63.8917 34.7181 64.0298 34.7411 64.0298 34.9482C64.0298 35.1782 63.7767 35.2473 62.6953 35.2473C61.66 35.2473 59.5433 35.2473 57.2426 35.1782C56.7134 35.1552 56.3683 35.1552 56.3683 34.9482C56.3683 34.7641 56.4833 34.7181 56.7824 34.6951C56.9895 34.6261 57.1966 34.373 57.0355 34.0279L54.7348 27.9079C54.6658 27.7699 54.5967 27.7008 54.4357 27.7008L48.0166 27.7238ZM53.9065 26.2744C54.0446 26.2744 54.0906 26.1824 54.0446 26.0903L51.4447 18.958C51.4217 18.843 51.3757 18.705 51.3067 18.705C51.2377 18.705 51.1686 18.843 51.1226 18.958L48.4768 26.0673C48.4538 26.1824 48.4768 26.2744 48.5918 26.2744H53.9065Z" fill="#1D2C51"/>
<path d="M70.6791 26.8726C70.6791 30.5768 70.6791 32.5554 71.2773 33.0846C71.7605 33.5217 72.5197 33.7288 74.7745 33.7288C76.2929 33.7288 77.4203 33.7058 78.1565 32.9235C78.5017 32.5554 78.8468 31.7502 78.9158 31.198C78.9388 30.9449 79.0078 30.7608 79.2379 30.7608C79.4449 30.7608 79.468 30.8989 79.468 31.244C79.468 31.5661 79.2609 33.7288 79.0308 34.5571C78.8468 35.2013 78.7087 35.3393 77.2132 35.3393C75.1426 35.3393 73.6241 35.2703 72.3357 35.2473C71.0473 35.1783 69.9889 35.1553 68.8155 35.1553C68.4934 35.1553 67.8722 35.1553 67.182 35.1783C66.5148 35.1783 65.7786 35.2473 65.1804 35.2473C64.8123 35.2473 64.6052 35.1553 64.6052 34.9482C64.6052 34.8101 64.7202 34.7181 65.0653 34.7181C65.5025 34.7181 65.8476 34.6491 66.1007 34.6031C66.6759 34.488 66.8139 33.8438 66.9289 33.0156C67.067 31.7962 67.067 29.5184 67.067 26.8726V21.788C67.067 17.3935 67.067 16.5883 66.998 15.668C66.9289 14.6787 66.6989 14.2185 65.7556 14.0345C65.5255 13.9654 65.1804 13.9424 64.8123 13.9424C64.4902 13.9424 64.3291 13.8734 64.3291 13.6894C64.3291 13.5053 64.5362 13.4363 64.9733 13.4363C66.3307 13.4363 68.1483 13.5283 68.9306 13.5283C69.6208 13.5283 71.7375 13.4363 72.8648 13.4363C73.279 13.4363 73.463 13.5053 73.463 13.6894C73.463 13.8734 73.279 13.9424 72.9339 13.9424C72.6118 13.9424 72.1516 13.9654 71.8065 14.0345C71.0243 14.1725 70.7942 14.6787 70.7482 15.668C70.6791 16.5883 70.6791 17.3935 70.6791 21.788V26.8726Z" fill="#1D2C51"/>
<path d="M88.1641 26.8725C88.1641 29.6564 88.1641 31.8191 88.3021 33.0155C88.3942 33.8437 88.5552 34.4879 89.4295 34.603C89.8436 34.672 90.4648 34.718 90.879 34.718C91.2471 34.718 91.3621 34.81 91.3621 34.9481C91.3621 35.1552 91.1551 35.2472 90.7179 35.2472C88.9003 35.2472 87.0828 35.1552 86.3235 35.1552C85.5643 35.1552 83.7467 35.2472 82.6653 35.2472C82.2512 35.2472 82.0671 35.1782 82.0671 34.9481C82.0671 34.81 82.1822 34.718 82.5043 34.718C82.9414 34.718 83.2865 34.649 83.5396 34.603C84.1148 34.4879 84.2528 33.8437 84.3679 33.0155C84.5059 31.7961 84.5059 29.6334 84.5059 26.8725V21.7879C84.5059 17.3935 84.5059 16.5882 84.4369 15.6679C84.3679 14.6786 84.1378 14.2184 83.1945 14.0344C82.9644 13.9654 82.4813 13.9423 82.0671 13.9423C81.768 13.9423 81.584 13.8733 81.584 13.7123C81.584 13.4822 81.8141 13.4132 82.2512 13.4132C83.0104 13.4132 83.8387 13.4362 84.598 13.4362C85.3572 13.4592 86.0014 13.5052 86.4155 13.5052C87.5199 13.5052 93.3638 13.5052 94.031 13.4822C94.5832 13.4592 94.9283 13.4592 95.2044 13.3672C95.3884 13.2981 95.5265 13.1831 95.6645 13.1831C95.7795 13.1831 95.8716 13.2981 95.8716 13.4362C95.8716 13.6433 95.7335 13.9884 95.6415 14.7246C95.6185 15.0237 95.5495 16.7262 95.5035 17.0714C95.4804 17.3014 95.4114 17.4855 95.2044 17.4855C94.9973 17.4855 94.9513 17.3474 94.9053 17.0253C94.9053 16.7953 94.9053 16.3351 94.7212 15.921C94.5141 15.5069 93.9159 15.0927 92.8116 15.0467L88.3712 14.9547C88.1871 14.9547 88.1181 15.0467 88.1181 15.3688V22.5931C88.1181 22.7772 88.1411 22.8462 88.3251 22.8462L92.0293 22.8232C92.5125 22.8232 92.9266 22.8232 93.3178 22.8002C93.8699 22.7772 94.2611 22.6621 94.5602 22.271C94.6982 22.087 94.7672 21.9719 94.9283 21.9719C95.0433 21.9719 95.1123 22.064 95.1123 22.225C95.1123 22.3861 94.9743 23.1223 94.8823 24.0196C94.8132 24.5948 94.7672 25.9292 94.7672 26.1363C94.7672 26.3893 94.7672 26.6884 94.4681 26.6884C94.2841 26.6884 94.238 26.4814 94.238 26.2743C94.238 26.0672 94.169 25.7221 94.054 25.377C93.9159 24.9629 93.4788 24.4567 92.5815 24.3417C91.8683 24.2497 88.8083 24.2497 88.3021 24.2497C88.1641 24.2497 88.0951 24.3187 88.0951 24.5027L88.1641 26.8725Z" fill="#1D2C51"/>
<path d="M103.073 27.7238C102.935 27.7238 102.866 27.7929 102.82 27.9539L101.256 32.0722C100.957 32.7855 100.819 33.4757 100.819 33.8208C100.819 34.35 101.072 34.7181 101.969 34.7181H102.406C102.751 34.7181 102.843 34.7871 102.843 34.9482C102.843 35.1782 102.659 35.2473 102.36 35.2473C101.44 35.2473 100.197 35.1552 99.3 35.1552C98.9779 35.1552 97.3904 35.2473 95.8949 35.2473C95.5268 35.2473 95.3428 35.1782 95.3428 34.9482C95.3428 34.7641 95.4578 34.7181 95.6879 34.7181C95.941 34.7181 96.3551 34.6951 96.5852 34.6491C97.9196 34.465 98.4718 33.4987 99.047 32.0492L106.294 13.9194C106.639 13.0911 106.823 12.769 107.1 12.769C107.353 12.769 107.537 13.0221 107.813 13.6893C108.503 15.2768 113.127 27.0566 114.968 31.451C116.072 34.0509 116.901 34.465 117.499 34.6031C117.936 34.6951 118.373 34.7181 118.718 34.7181C118.948 34.7181 119.086 34.7411 119.086 34.9482C119.086 35.1782 118.833 35.2473 117.752 35.2473C116.717 35.2473 114.6 35.2473 112.299 35.1782C111.77 35.1552 111.425 35.1552 111.425 34.9482C111.425 34.7641 111.54 34.7181 111.839 34.6951C112.046 34.6261 112.253 34.373 112.092 34.0279L109.791 27.9079C109.722 27.7699 109.653 27.7008 109.492 27.7008L103.073 27.7238ZM108.963 26.2744C109.101 26.2744 109.147 26.1824 109.101 26.0903L106.501 18.958C106.478 18.843 106.432 18.705 106.363 18.705C106.294 18.705 106.225 18.843 106.179 18.958L103.533 26.0673C103.51 26.1824 103.533 26.2744 103.648 26.2744H108.963Z" fill="#1D2C51"/>
<path d="M21.167 2.87598L25.4234 11.3657L16.7266 11.4577L21.167 2.87598Z" fill="#D9A700"/>
<path d="M21.1673 2.23169L4.83203 35.0172H37.5946L21.1673 2.23169ZM21.1903 3.40507L36.7663 34.4651H5.70631L21.1903 3.40507Z" fill="#1E2C51"/>
<path d="M21.1902 19.188L25.4235 11.3425H17.0488L21.1902 19.188ZM21.1902 18.912L17.2559 11.4806H25.2165L21.1902 18.912Z" fill="#1E2C51"/>
<path d="M17.3708 26.8265L21.282 18.981H13.4365L17.3708 26.8265ZM17.3708 26.5504L13.6436 19.119H21.075L17.3708 26.5504Z" fill="#1E2C51"/>
<path d="M25.1247 26.8265L29.036 18.981H21.1904L25.1247 26.8265ZM25.1247 26.5504L21.3745 19.119H28.8059L25.1247 26.5504Z" fill="#1E2C51"/>
<path d="M13.5514 34.5801L17.4627 26.7346H9.61719L13.5514 34.5801ZM13.5514 34.281L9.82425 26.8497H17.2556L13.5514 34.281Z" fill="#1E2C51"/>
<path d="M21.3054 34.5801L25.2166 26.7346H17.3711L21.3054 34.5801ZM21.3054 34.281L17.5782 26.8497H25.0095L21.3054 34.281Z" fill="#1E2C51"/>
<path d="M29.0358 34.5801L32.9471 26.7346H25.1016L29.0358 34.5801ZM29.0358 34.281L25.3086 26.8497H32.74L29.0358 34.281Z" fill="#1E2C51"/>
<path d="M29.0128 34.9022C29.2415 34.9022 29.4269 34.7168 29.4269 34.4881C29.4269 34.2594 29.2415 34.074 29.0128 34.074C28.784 34.074 28.5986 34.2594 28.5986 34.4881C28.5986 34.7168 28.784 34.9022 29.0128 34.9022Z" fill="#1E2C51"/>
<path d="M21.2823 34.9022C21.511 34.9022 21.6964 34.7168 21.6964 34.4881C21.6964 34.2594 21.511 34.074 21.2823 34.074C21.0536 34.074 20.8682 34.2594 20.8682 34.4881C20.8682 34.7168 21.0536 34.9022 21.2823 34.9022Z" fill="#1E2C51"/>
<path d="M13.5518 34.9022C13.7805 34.9022 13.966 34.7168 13.966 34.4881C13.966 34.2594 13.7805 34.074 13.5518 34.074C13.3231 34.074 13.1377 34.2594 13.1377 34.4881C13.1377 34.7168 13.3231 34.9022 13.5518 34.9022Z" fill="#1E2C51"/>
<path d="M17.463 27.1488C17.6917 27.1488 17.8771 26.9634 17.8771 26.7347C17.8771 26.506 17.6917 26.3206 17.463 26.3206C17.2342 26.3206 17.0488 26.506 17.0488 26.7347C17.0488 26.9634 17.2342 27.1488 17.463 27.1488Z" fill="#1E2C51"/>
<path d="M25.1016 27.1488C25.3304 27.1488 25.5158 26.9634 25.5158 26.7347C25.5158 26.506 25.3304 26.3206 25.1016 26.3206C24.8729 26.3206 24.6875 26.506 24.6875 26.7347C24.6875 26.9634 24.8729 27.1488 25.1016 27.1488Z" fill="#1E2C51"/>
<path d="M32.7403 27.1488C32.969 27.1488 33.1544 26.9634 33.1544 26.7347C33.1544 26.506 32.969 26.3206 32.7403 26.3206C32.5116 26.3206 32.3262 26.506 32.3262 26.7347C32.3262 26.9634 32.5116 27.1488 32.7403 27.1488Z" fill="#1E2C51"/>
<path d="M9.61726 27.1488C9.84598 27.1488 10.0314 26.9634 10.0314 26.7347C10.0314 26.506 9.84598 26.3206 9.61726 26.3206C9.38854 26.3206 9.20312 26.506 9.20312 26.7347C9.20312 26.9634 9.38854 27.1488 9.61726 27.1488Z" fill="#1E2C51"/>
<path d="M21.1671 19.4181C21.3958 19.4181 21.5812 19.2327 21.5812 19.004C21.5812 18.7753 21.3958 18.5898 21.1671 18.5898C20.9383 18.5898 20.7529 18.7753 20.7529 19.004C20.7529 19.2327 20.9383 19.4181 21.1671 19.4181Z" fill="#1E2C51"/>
<path d="M13.5518 19.4181C13.7805 19.4181 13.966 19.2327 13.966 19.004C13.966 18.7753 13.7805 18.5898 13.5518 18.5898C13.3231 18.5898 13.1377 18.7753 13.1377 19.004C13.1377 19.2327 13.3231 19.4181 13.5518 19.4181Z" fill="#1E2C51"/>
<path d="M28.8057 19.4181C29.0345 19.4181 29.2199 19.2327 29.2199 19.004C29.2199 18.7753 29.0345 18.5898 28.8057 18.5898C28.577 18.5898 28.3916 18.7753 28.3916 19.004C28.3916 19.2327 28.577 19.4181 28.8057 19.4181Z" fill="#1E2C51"/>
<path d="M122.399 40.1709H1.51855V40.493H122.399V40.1709Z" fill="#1F2E54"/>
<path d="M44.1284 48.8216C44.1284 47.2111 44.1284 46.889 44.1054 46.5669C44.0824 46.2448 43.9904 46.0608 43.6223 45.9917C43.5302 45.9687 43.3462 45.9687 43.3232 45.9687C43.2081 45.9687 43.1621 45.9227 43.1621 45.8767C43.1621 45.8077 43.2311 45.7847 43.3462 45.7847C43.8523 45.7847 44.6116 45.8307 44.6346 45.8307C44.9337 45.8307 45.3478 45.7847 45.808 45.7847C47.6486 45.7847 48.0167 46.797 48.0167 47.3262C48.0167 48.2465 47.5105 48.8216 46.9813 49.2128C47.8096 49.4659 48.8679 50.2021 48.8679 51.4215C48.8679 52.5719 47.9477 53.7222 46.061 53.7222C45.854 53.7222 45.6239 53.6992 45.3018 53.6992C44.9567 53.6762 44.6576 53.6532 44.6116 53.6532C44.2204 53.6532 43.8983 53.6992 43.5072 53.6992C43.3922 53.6992 43.3462 53.6762 43.3462 53.6302C43.3462 53.5842 43.3692 53.5382 43.5072 53.5382C43.5993 53.5382 43.6223 53.5382 43.7373 53.5152C43.9444 53.4691 44.0134 53.2161 44.0594 52.917C44.1284 52.4568 44.1284 51.6285 44.1284 50.6622V48.8216ZM45.0947 49.0517C45.0947 49.1437 45.1177 49.1437 45.1638 49.1668C45.2328 49.1898 45.3708 49.2128 45.785 49.2128C46.4062 49.2128 46.5902 49.1668 46.8203 48.9137C47.0274 48.6836 47.1424 48.3385 47.1424 47.9244C47.1424 47.0731 46.7513 46.1298 45.7159 46.1298C45.6239 46.1298 45.3478 46.1528 45.2558 46.1988C45.1407 46.2218 45.1177 46.2448 45.1177 46.3138V49.0517H45.0947ZM45.0947 50.1101C45.0947 50.8923 45.0947 52.2497 45.1177 52.3418C45.1638 52.894 45.1407 53.055 45.5089 53.1931C45.808 53.3311 46.2911 53.3541 46.4292 53.3541C46.9583 53.3541 47.8786 53.101 47.8786 51.9737C47.8786 51.3525 47.6486 50.3861 46.8203 49.834C46.4522 49.6039 46.2221 49.5809 45.992 49.5579C45.785 49.5349 45.3478 49.5349 45.1868 49.5579C45.1407 49.5579 45.1177 49.5809 45.1177 49.6269V50.1101H45.0947Z" fill="#1D2C51"/>
<path d="M52.2726 50.7084C52.2036 50.7084 52.1806 50.7544 52.1576 50.8004L51.6054 52.3419C51.4904 52.687 51.3983 53.0091 51.3983 53.2162C51.3983 53.4462 51.5364 53.5383 51.8125 53.5383C51.8585 53.5383 51.8585 53.5383 51.9045 53.5383C52.0195 53.5383 52.0425 53.5843 52.0425 53.6303C52.0425 53.6993 51.9505 53.7223 51.8585 53.7223C51.5824 53.7223 51.0302 53.6763 50.8922 53.6763C50.7771 53.6763 50.2249 53.7223 49.7188 53.7223C49.5807 53.7223 49.5117 53.6993 49.5117 53.6303C49.5117 53.5843 49.5577 53.5383 49.6498 53.5383C49.7188 53.5383 49.8108 53.5383 49.9028 53.5153C50.432 53.4692 50.6391 53.0551 50.8461 52.5489L53.3079 46.0609C53.446 45.6927 53.469 45.6467 53.561 45.6467C53.63 45.6467 53.6761 45.6927 53.8141 46.0379C53.9752 46.452 55.6547 50.7314 56.3219 52.2729C56.736 53.2392 57.0811 53.4002 57.2652 53.4692C57.4263 53.5383 57.5873 53.5383 57.6793 53.5383C57.7714 53.5383 57.8174 53.5613 57.8174 53.6303C57.8174 53.6993 57.7714 53.7223 57.6333 53.7223C57.5183 53.7223 56.598 53.7223 55.7697 53.6993C55.5397 53.6763 55.4706 53.6763 55.4706 53.6073C55.4706 53.5613 55.5166 53.5383 55.5627 53.5153C55.6087 53.4922 55.6777 53.4232 55.6087 53.2392L54.6424 50.7544C54.6194 50.7084 54.5964 50.6853 54.5503 50.6853H52.2726V50.7084ZM54.3663 50.2712C54.4123 50.2712 54.4123 50.2252 54.4123 50.2022L53.446 47.4873C53.377 47.3263 53.377 47.3263 53.3079 47.4873L52.3876 50.2022C52.3646 50.2482 52.3876 50.2712 52.4107 50.2712H54.3663Z" fill="#1D2C51"/>
<path d="M58.9915 46.1529C58.9915 45.7618 59.0375 45.6467 59.1295 45.6467C59.2215 45.6467 59.4286 45.8998 59.5206 45.9688C59.6357 46.0839 61.3382 47.8324 63.0638 49.604C64.0301 50.5473 65.2495 51.8127 65.5716 52.1118L65.4335 46.9812C65.4105 46.3139 65.3415 46.0839 65.0194 46.0148C64.8123 45.9688 64.6283 45.9688 64.5362 45.9688C64.4212 45.9688 64.3982 45.9228 64.3982 45.8768C64.3982 45.8078 64.4902 45.8078 64.6283 45.8078C65.1574 45.8078 65.6636 45.8538 65.7786 45.8538C65.8937 45.8538 66.2848 45.8078 66.768 45.8078C66.906 45.8078 66.952 45.8308 66.952 45.8768C66.952 45.9228 66.906 45.9688 66.837 45.9688C66.768 45.9918 66.6759 45.9918 66.5379 46.0148C66.2618 46.0839 66.1698 46.1989 66.1698 46.9351L66.1468 53.1241C66.1468 53.7453 66.1238 53.7913 66.0317 53.7913C65.9397 53.7913 65.8247 53.6993 65.2265 53.1471C65.1805 53.1241 63.4549 51.4216 62.3966 50.3863C61.1082 49.0518 59.8888 47.7864 59.5667 47.4643L59.7277 52.2729C59.7507 53.1241 59.8197 53.4462 60.1418 53.5153C60.3489 53.5613 60.556 53.5613 60.648 53.5613C60.74 53.5613 60.786 53.6073 60.786 53.6533C60.786 53.7223 60.717 53.7453 60.579 53.7453C59.9118 53.7453 59.4746 53.6993 59.3826 53.6993C59.2906 53.6993 58.8304 53.7453 58.3012 53.7453C58.1862 53.7453 58.1172 53.7223 58.1172 53.6533C58.1172 53.6073 58.1632 53.5613 58.2782 53.5613C58.3703 53.5613 58.5083 53.5613 58.6694 53.5153C58.9455 53.4232 58.9915 53.1011 58.9915 52.2038C58.9915 46.2909 58.9915 48.2006 58.9915 46.1529Z" fill="#1D2C51"/>
<path d="M69.7353 52.733C68.6999 51.8127 68.4238 50.6163 68.4238 49.604C68.4238 48.9138 68.6999 47.6944 69.6662 46.7511C70.3334 46.1069 71.3228 45.6467 72.9793 45.6467C73.5545 45.6467 73.9916 45.6927 74.6128 45.7848C75.004 45.8538 75.3951 45.8998 75.6942 45.9228C75.7862 45.9228 75.8092 45.9918 75.8092 46.0379C75.8092 46.1299 75.7632 46.2449 75.7402 46.636C75.7172 46.9812 75.7172 47.6254 75.7172 47.7634C75.6942 47.9245 75.6712 47.9935 75.6252 47.9935C75.5331 47.9935 75.5331 47.9245 75.5331 47.7634C75.5331 47.3953 75.3491 46.9351 75.05 46.6821C74.6819 46.36 73.8076 46.0609 72.8643 46.0609C71.5068 46.0609 70.8626 46.452 70.4945 46.7741C69.6892 47.5103 69.5052 48.3846 69.5052 49.4659C69.5052 51.5136 71.1617 53.3082 73.3244 53.3082C74.1527 53.3082 74.7739 53.2161 75.211 52.802C75.4411 52.5719 75.5561 52.2498 75.6252 51.9047C75.6482 51.7897 75.6942 51.7207 75.7632 51.7207C75.8322 51.7207 75.8322 51.8127 75.8322 51.9047C75.8322 51.9968 75.6712 53.0091 75.5791 53.2622C75.5101 53.4692 75.4641 53.4922 75.303 53.5613C74.8659 53.7453 74.0376 53.8143 73.3474 53.8143C71.7139 53.8373 70.6095 53.4692 69.7353 52.733Z" fill="#1D2C51"/>
<path d="M77.1436 49.742C77.1436 48.1085 78.409 45.6467 81.4459 45.6467C83.8847 45.6467 85.7483 47.0962 85.7483 49.581C85.7483 51.9278 84.0228 53.8604 81.3999 53.8604C78.386 53.8374 77.1436 51.6056 77.1436 49.742ZM84.598 49.8801C84.598 47.3953 83.0795 46.0148 81.3769 46.0148C79.6744 46.0148 78.2939 47.0732 78.2939 49.3969C78.2939 51.8127 79.6284 53.4232 81.699 53.4232C82.5273 53.4232 84.598 53.0091 84.598 49.8801Z" fill="#1D2C51"/>
</svg>
