<svg width="214" height="56" viewBox="0 0 214 56" fill="none" xmlns="http://www.w3.org/2000/svg">
<g clip-path="url(#clip0)">
<path d="M38.0497 34.7301C38.0449 34.7253 38.0449 34.7205 38.0401 34.7157L38.0449 34.7205C38.1362 34.6196 38.2227 34.5187 38.3092 34.4178C38.8714 33.7306 39.2511 32.9809 39.4048 32.1592C40.9859 23.7639 22.475 25.7775 22.2587 20.2607C21.8406 15.979 29.6592 13.5041 42.8985 15.0852L42.9033 13.8309C24.5846 10.7602 12.2921 15.2341 11.8596 19.4245C11.6577 21.366 12.8975 23.0335 17.3475 25.1816C17.7367 25.3642 19.9521 26.4502 21.2207 27.0461C24.056 28.3869 25.2141 30.2274 25.3054 31.7027C25.5553 37.599 12.2296 40.1364 0.186931 38.9734L0.0908203 40.1844C7.93344 40.8284 17.5445 40.8236 25.315 39.6126C25.9494 39.5116 26.5789 39.4107 27.1892 39.2954C27.194 39.2954 27.1988 39.2954 27.2036 39.2906C27.2036 39.2906 27.2036 39.2906 27.2084 39.2906V39.2954C27.2084 39.2954 27.2084 39.2954 27.2036 39.2954H27.1988C27.2565 39.5645 27.3382 39.824 27.4343 40.0787L28.2032 39.9778L33.0952 38.5361L37.4394 36.1189L38.3524 35.2443C38.2659 35.0761 38.1698 34.908 38.0641 34.7494C38.0593 34.7446 38.0545 34.7398 38.0497 34.7301Z" fill="#FAC922"/>
<path d="M70.8667 18.1366L60.1455 39.7615H53.8983L48.8525 18.1366H54.7105L57.9446 33.3221L65.1625 18.1366H70.8667Z" fill="#005C42"/>
<path d="M75.1011 39.7615H69.8486L71.9919 23.4227H77.2395L75.1011 39.7615Z" fill="#005C42"/>
<path d="M77.6093 21.981H72.0156L72.5154 18.1366H78.109L77.6093 21.981Z" fill="#005C42"/>
<path d="M89.4401 35.3116L89.8822 31.9525C89.1709 32.0102 88.4069 32.0871 87.5803 32.188C86.749 32.2889 86.1146 32.4043 85.6773 32.5388C85.1391 32.7022 84.7114 32.9377 84.3991 33.25C84.0867 33.5576 83.8945 33.9709 83.8272 34.4754C83.7839 34.8118 83.7791 35.0809 83.808 35.2924C83.8416 35.499 83.9569 35.7009 84.1636 35.8931C84.3558 36.0853 84.6057 36.2247 84.8988 36.316C85.1968 36.4073 85.6677 36.4553 86.3213 36.4553C86.8355 36.4553 87.3737 36.3496 87.9359 36.1382C88.4886 35.9315 88.9883 35.6576 89.4401 35.3116ZM89.1277 38.0363C88.8201 38.2478 88.4357 38.5073 87.9792 38.8052C87.5226 39.1032 87.0998 39.3386 86.7105 39.5116C86.1675 39.7471 85.6149 39.9153 85.043 40.0258C84.4759 40.1364 83.8656 40.194 83.2073 40.194C81.6599 40.194 80.4249 39.7087 79.507 38.7572C78.5892 37.7961 78.2239 36.5755 78.421 35.0857C78.5796 33.8892 78.9736 32.9233 79.6031 32.1688C80.2327 31.4143 81.064 30.8184 82.102 30.3859C83.1256 29.9486 84.3654 29.6411 85.8215 29.4585C87.2776 29.2759 88.7769 29.1413 90.3291 29.0548L90.3387 28.9683C90.4588 28.0697 90.1705 27.445 89.4785 27.1086C88.7913 26.7626 87.7293 26.5896 86.2972 26.5896C85.4322 26.5896 84.4952 26.7434 83.4764 27.0461C82.4576 27.3537 81.7272 27.5843 81.2803 27.7525H80.7997L81.3187 23.8216C81.8858 23.6774 82.8084 23.5044 84.0723 23.3074C85.3457 23.1104 86.6 23.0095 87.8494 23.0095C90.8192 23.0095 92.9048 23.466 94.1062 24.379C95.3076 25.2921 95.7785 26.7289 95.5239 28.68L94.0726 39.7663H88.9018L89.1277 38.0363Z" fill="#005C42"/>
<path d="M112.762 24.6001C112.834 24.0618 112.786 23.6005 112.613 23.2161C112.44 22.8364 112.104 22.5337 111.594 22.3126C111.239 22.1589 110.816 22.0675 110.321 22.0339C109.826 22.0003 109.249 21.981 108.586 21.981H106.587L105.828 27.7477H107.524C108.408 27.7477 109.148 27.7092 109.758 27.6179C110.364 27.5314 110.888 27.3392 111.33 27.0317C111.753 26.7337 112.075 26.4069 112.301 26.0465C112.531 25.6861 112.685 25.2056 112.762 24.6001ZM119.297 39.2809H112.594L107.899 31.5921H105.39L104.381 39.2809H98.9316L101.704 18.1366H110.849C112.099 18.1366 113.166 18.2087 114.045 18.3481C114.924 18.4922 115.727 18.7998 116.453 19.2707C117.188 19.7417 117.74 20.3568 118.106 21.1064C118.476 21.8609 118.586 22.8028 118.437 23.9417C118.231 25.5035 117.707 26.777 116.847 27.7621C115.996 28.7424 114.852 29.5642 113.425 30.2177L119.297 39.2809Z" fill="#005C42"/>
<path d="M130.21 35.3933C130.599 34.9848 130.912 34.4851 131.162 33.9084C131.407 33.3269 131.594 32.5244 131.729 31.5008C131.854 30.5493 131.873 29.7516 131.782 29.1077C131.69 28.4685 131.517 27.9544 131.263 27.5699C131.008 27.1759 130.676 26.9019 130.263 26.7386C129.855 26.5752 129.398 26.4935 128.898 26.4935C128.398 26.4935 127.947 26.5656 127.538 26.6953C127.135 26.8299 126.726 27.099 126.318 27.5026C125.952 27.8775 125.635 28.3917 125.361 29.0404C125.087 29.694 124.89 30.5157 124.761 31.5008C124.645 32.3802 124.626 33.1491 124.703 33.7931C124.785 34.4418 124.953 34.9608 125.217 35.3549C125.477 35.7297 125.803 36.0036 126.212 36.1718C126.616 36.3448 127.091 36.4313 127.634 36.4313C128.105 36.4313 128.567 36.3544 129.014 36.1958C129.465 36.0324 129.864 35.7681 130.21 35.3933ZM137.096 31.472C136.746 34.1246 135.698 36.2199 133.949 37.748C132.204 39.2762 129.927 40.0402 127.125 40.0402C124.328 40.0402 122.252 39.2714 120.902 37.748C119.556 36.2151 119.057 34.1246 119.398 31.472C119.749 28.7953 120.801 26.6905 122.56 25.1671C124.319 23.6438 126.587 22.8845 129.369 22.8845C132.19 22.8845 134.271 23.6438 135.602 25.1816C136.952 26.7193 137.447 28.8097 137.096 31.472Z" fill="#005C42"/>
<path d="M154.618 39.7615H149.365L150.427 31.6546C150.514 30.9962 150.567 30.3379 150.581 29.6891C150.596 29.0307 150.548 28.555 150.423 28.2426C150.279 27.8822 150.024 27.6179 149.673 27.4545C149.322 27.2911 148.813 27.2095 148.14 27.2095C147.664 27.2095 147.174 27.2863 146.665 27.4449C146.155 27.5987 145.593 27.8486 144.973 28.1898L143.455 39.7711H138.207L140.35 23.4323H145.603L145.367 25.2344C146.386 24.5039 147.357 23.9513 148.265 23.5621C149.173 23.1728 150.149 22.9806 151.196 22.9806C152.96 22.9806 154.272 23.4948 155.132 24.5232C155.987 25.5467 156.281 27.0893 156.016 29.1317L154.618 39.7615Z" fill="#005C42"/>
<path d="M187.684 35.3933C188.073 34.9848 188.391 34.4851 188.636 33.9084C188.881 33.3269 189.068 32.5244 189.203 31.5008C189.328 30.5493 189.347 29.7516 189.256 29.1077C189.164 28.4685 188.996 27.9544 188.737 27.5699C188.477 27.1759 188.15 26.9019 187.737 26.7386C187.329 26.5752 186.872 26.4935 186.372 26.4935C185.873 26.4935 185.426 26.5656 185.017 26.6953C184.614 26.8299 184.2 27.099 183.797 27.5026C183.427 27.8775 183.109 28.3917 182.835 29.0404C182.562 29.694 182.365 30.5157 182.235 31.5008C182.119 32.3802 182.1 33.1491 182.182 33.7931C182.259 34.4418 182.427 34.9608 182.696 35.3549C182.956 35.7297 183.282 36.0036 183.691 36.1718C184.095 36.3448 184.57 36.4313 185.118 36.4313C185.589 36.4313 186.046 36.3544 186.492 36.1958C186.944 36.0324 187.343 35.7681 187.684 35.3933ZM194.575 31.472C194.229 34.1246 193.177 36.2199 191.428 37.748C189.679 39.2762 187.406 40.0402 184.604 40.0402C181.802 40.0402 179.731 39.2714 178.381 37.748C177.03 36.2151 176.531 34.1246 176.877 31.472C177.227 28.7953 178.285 26.6905 180.039 25.1671C181.797 23.6438 184.066 22.8845 186.848 22.8845C189.669 22.8845 191.745 23.6438 193.081 25.1816C194.431 26.7193 194.921 28.8097 194.575 31.472Z" fill="#005C42"/>
<path d="M212.096 39.7615H206.844L207.906 31.6546C207.992 30.9962 208.045 30.3379 208.06 29.6891C208.079 29.0307 208.026 28.555 207.906 28.2426C207.757 27.8822 207.507 27.6179 207.156 27.4545C206.805 27.2911 206.296 27.2095 205.623 27.2095C205.148 27.2095 204.657 27.2863 204.143 27.4449C203.634 27.5987 203.072 27.8486 202.456 28.1898L200.938 39.7711H195.681L197.824 23.4323H203.076L202.841 25.2344C203.864 24.5039 204.83 23.9513 205.739 23.5621C206.647 23.1728 207.627 22.9806 208.67 22.9806C210.434 22.9806 211.741 23.4948 212.601 24.5232C213.456 25.5467 213.749 27.0893 213.485 29.1317L212.096 39.7615Z" fill="#005C42"/>
<path d="M168.948 35.0905C168.511 35.3789 168.016 35.6143 167.463 35.7921C166.915 35.9699 166.406 36.0564 165.935 36.0564C164.729 36.0564 163.897 35.696 163.45 34.98C162.999 34.264 162.874 33.1155 163.085 31.5296C163.282 30.0207 163.777 28.8433 164.565 27.9928C165.358 27.147 166.435 26.7193 167.795 26.7193C168.126 26.7193 168.491 26.7577 168.881 26.8202C169.275 26.8875 169.645 27.0028 169.991 27.1518L168.948 35.0905ZM171.216 18.1366L170.433 24.1051C169.813 23.7831 169.212 23.5236 168.612 23.317C168.016 23.1055 167.228 23.0046 166.252 23.0046C165.315 23.0046 164.349 23.2017 163.359 23.6053C162.369 24.009 161.499 24.5712 160.745 25.2969C159.952 26.0657 159.274 26.9788 158.736 28.0504C158.198 29.1221 157.838 30.3475 157.655 31.7315C157.314 34.3313 157.636 36.3928 158.626 37.921C159.616 39.4539 161.096 40.218 163.08 40.218C164.104 40.218 165.032 40.045 165.858 39.6942C166.685 39.3434 167.598 38.8052 168.597 38.07L168.376 39.7711H173.619L176.454 18.1462H171.216V18.1366Z" fill="#005C42"/>
<path d="M38.0645 34.7493C38.1702 34.9079 38.2663 35.0761 38.3576 35.2491C38.2663 35.0809 38.1702 34.9127 38.0645 34.7493Z" fill="white"/>
<path d="M38.7227 36.1189C38.7467 36.1958 38.7707 36.2727 38.7947 36.3496C38.7707 36.2727 38.7467 36.1958 38.7227 36.1189Z" fill="white"/>
<path d="M38.9244 36.8974C38.9148 36.8542 38.91 36.8061 38.9004 36.7629C38.91 36.8109 38.9148 36.8542 38.9244 36.8974Z" fill="white"/>
<path d="M38.459 35.4653C38.5118 35.5711 38.5599 35.6816 38.6031 35.7921C38.5599 35.6816 38.5118 35.5759 38.459 35.4653Z" fill="white"/>
<path d="M38.9924 37.2771C36.5368 39.2041 32.7212 40.4343 27.8965 41.0782C28.1175 41.4483 28.3866 41.7895 28.6798 42.1018C29.7274 43.2215 31.1979 43.9471 32.851 44C36.0755 44.1057 38.7762 41.6357 39.0213 38.4496C39.0261 38.3631 39.0405 38.2766 39.0453 38.1901C39.0501 37.8778 39.0309 37.575 38.9924 37.2771Z" fill="#19203F"/>
<path d="M38.0454 34.7205C38.007 34.6629 37.9637 34.6148 37.9253 34.562C36.8777 33.0867 35.1861 32.0967 33.2399 32.0342C29.9337 31.9285 27.1705 34.5235 27.0696 37.8297C27.0648 38.0219 27.0744 38.2093 27.0888 38.3968C27.1081 38.7043 27.1465 39.0023 27.209 39.2954V39.3002C32.0962 38.3775 36.0415 36.9071 38.055 34.7398C38.0502 34.7301 38.0454 34.7253 38.0454 34.7205Z" fill="#19203F"/>
<path d="M38.9918 37.277C38.9774 37.1473 38.9438 37.0224 38.9197 36.8974C38.9101 36.8542 38.9053 36.8061 38.8957 36.7629C38.8669 36.6235 38.8284 36.4841 38.79 36.3496C38.766 36.2727 38.7419 36.1958 38.7179 36.1189C38.6795 36.0084 38.641 35.9027 38.5978 35.7969C38.5545 35.6864 38.5065 35.5759 38.4536 35.4702C38.42 35.3981 38.3863 35.326 38.3479 35.2539C38.2566 35.0809 38.1605 34.9175 38.0548 34.7541C38.0499 34.7493 38.0499 34.7397 38.0451 34.7349C36.0364 36.9022 32.0863 38.3727 27.1991 39.2954C27.1991 39.2954 27.1991 39.2954 27.1943 39.2954H27.1895C27.3288 39.9297 27.5739 40.5256 27.8959 41.0782C32.7254 40.4343 36.5362 39.2041 38.9918 37.277Z" fill="white"/>
<path d="M0 40.1748C0.0288332 40.1796 0.0576663 40.1844 0.091305 40.1844V40.1796C0.0624718 40.1796 0.0288332 40.1796 0 40.1748Z" fill="#005C42"/>
<path d="M3.27745 38.9734H0.1875C1.24952 38.9974 2.2779 38.9926 3.27745 38.9734Z" fill="#19203F"/>
<path d="M42.9085 13.8309C22.5764 8.96287 9.909 14.8208 9.44767 19.5542C9.18337 22.3607 11.5717 23.8168 17.2855 26.5319C20.534 28.0793 21.2548 28.7712 22.1439 29.742C23.2059 30.8953 23.2491 32.3706 22.7446 33.4807C21.5432 36.0949 14.2292 38.7523 3.27257 38.9782C2.27302 38.9974 1.24464 39.0022 0.182617 38.9782C12.2349 40.1363 25.5558 37.599 25.3059 31.7026C25.2146 30.2225 24.0565 28.3868 21.2212 27.0461C19.9525 26.4454 17.7372 25.3593 17.348 25.1815C12.898 23.0335 11.6582 21.3659 11.86 19.4245C12.2925 15.2341 24.5851 10.7601 42.9085 13.8309Z" fill="#005C42"/>
<path d="M35.7535 25.4507C31.491 24.0619 25.3928 22.9518 24.8017 20.4914C23.7541 16.1568 32.5386 14.8017 42.8993 15.0852C29.6601 13.5042 21.8415 15.979 22.2644 20.2607C22.4758 25.7823 40.9915 23.7688 39.4105 32.1592C39.2567 32.9858 38.8771 33.7354 38.3148 34.4178C38.2331 34.5187 38.1418 34.6196 38.0505 34.7206L38.0457 34.7158C38.0505 34.7206 38.0505 34.7254 38.0553 34.7302C38.0601 34.735 38.0601 34.7446 38.0649 34.7494C38.1707 34.908 38.2668 35.0762 38.3533 35.2444C38.3533 35.2444 38.3533 35.2492 38.3581 35.2492C38.3965 35.3213 38.4302 35.3933 38.4638 35.4654C38.5167 35.5711 38.5647 35.6817 38.608 35.7922C38.6512 35.8979 38.6897 36.0084 38.7281 36.1142C38.7521 36.1911 38.7762 36.2679 38.8002 36.3448C38.8386 36.4794 38.8771 36.6187 38.9059 36.7581C38.9155 36.8014 38.9203 36.8494 38.9299 36.8927C38.954 37.0176 38.9828 37.1426 39.002 37.2723C39.5402 36.8494 40.0064 36.3929 40.4052 35.9027C41.4769 34.5956 42.0679 33.0482 42.0824 31.2366C42.0968 28.5695 40.1361 26.8828 35.7535 25.4507Z" fill="#005C42"/>
<path d="M27.4343 40.0787C27.3382 39.824 27.2565 39.5645 27.1988 39.2954H27.2036C27.2036 39.2954 27.2036 39.2954 27.2084 39.2954V39.2906C27.2084 39.2906 27.2084 39.2906 27.2036 39.2906C27.1988 39.2906 27.194 39.2906 27.1892 39.2954C26.5789 39.4107 25.9494 39.5164 25.315 39.6125C17.5445 40.8235 7.93344 40.8283 0.0908203 40.1844V40.1892C0.0956258 40.1892 0.0956258 40.1892 0.100431 40.1892C9.93734 41.5155 18.8468 41.9624 25.9109 41.2993C26.5933 41.2368 27.2613 41.1647 27.9052 41.0782C27.7178 40.7562 27.564 40.4247 27.4343 40.0787Z" fill="#005C42"/>
</g>
<defs>
<clipPath id="clip0">
<rect width="213.582" height="32" fill="white" transform="translate(0 12)"/>
</clipPath>
</defs>
</svg>
