<svg width="190" height="56" viewBox="0 0 190 56" fill="none" xmlns="http://www.w3.org/2000/svg">
<path fill-rule="evenodd" clip-rule="evenodd" d="M0.608887 18.5462H37.5023V9.60883H0.608887V18.5462Z" fill="#FDC82F"/>
<path fill-rule="evenodd" clip-rule="evenodd" d="M77.0981 36.7155H65.7092L69.5795 23.1019H80.6934L79.7861 26.258H73.1506L72.586 28.2172H78.2177L77.3105 31.4023H71.6787L71.0658 33.5305H77.9957L77.0981 36.7155ZM0.608887 46.3913H37.5023V23.015H0.608887V46.3913ZM59.2233 32.4543C58.9772 32.4784 58.7359 32.4784 58.4898 32.4784H56.2361L55.0345 36.7155H50.5561L54.4506 23.1019H59.2233H61.0088C64.9274 23.1019 66.2979 24.8874 65.5113 27.6816C64.7295 30.4468 62.6979 32.2371 59.2233 32.4543ZM59.2233 26.2628H57.9975L57.1627 29.2934L59.2185 29.2982C60.1498 29.25 60.9316 28.8108 61.2501 27.7057C61.5928 26.4317 60.2222 26.2628 59.2667 26.2628H59.2233ZM166.907 32.0875H168.325L168.277 27.1893L166.907 29.5878L165.512 32.0827H166.907V32.0875ZM166.907 23.5458L167.201 23.1067H171.757L172.76 36.7203H168.306V34.9299H166.911H163.852L162.824 36.7203H158.712H158.442L158.712 36.3053L166.907 23.5458ZM189.506 27.0446C189.849 24.6703 188.676 22.7351 184.902 22.7351C181.476 22.7351 178.561 24.178 177.75 27.0928C176.259 32.2854 184.506 30.8666 183.922 32.9465C183.754 33.5835 182.895 33.9503 181.794 33.9503C181.355 33.9503 180.911 33.8297 180.617 33.6077C180.298 33.3616 180.125 33.0189 180.178 32.5315H175.892C175.304 34.9782 177.041 37.0871 180.641 37.0871C184.386 37.0871 187.474 35.5428 188.353 32.3867C189.771 27.4403 181.567 28.6902 182.156 26.6585C182.277 26.1711 182.793 25.8767 183.797 25.8767C184.212 25.8767 184.603 25.9491 184.873 26.1228C185.143 26.2917 185.312 26.5861 185.24 27.0542H189.506V27.0446ZM158.703 27.2424C158.751 27.1459 158.775 27.0687 158.799 26.9722C159.094 25.9443 159.094 25.1094 158.703 24.4965C158.114 23.541 156.623 23.1019 153.853 23.1019H152.362H147.415L143.545 36.7155H147.999L149.37 31.9669H150.716C151.546 31.9669 152.062 32.0634 152.357 32.2854C152.82 32.628 152.748 33.265 152.429 34.3412C152.405 34.4377 152.381 34.5149 152.357 34.5873C152.062 35.6635 151.966 36.4501 151.99 36.7203H152.357H156.521L156.618 36.3053C156.102 36.3053 156.324 35.7166 156.84 33.931C157.622 31.1899 156.84 30.8473 155.566 30.3068C157.187 29.887 158.239 28.6853 158.703 27.2424ZM152.362 28.9797C153.51 28.9073 154.224 28.5406 154.466 27.6816C154.736 26.7261 154.099 26.2628 153.071 26.2628H152.362H150.991L150.209 28.9797H151.971C152.115 28.9797 152.241 28.9797 152.362 28.9797ZM135.442 36.6914C138.526 36.5176 140.804 35.4174 141.59 32.628C142.005 31.1369 141.59 29.8628 140.22 29.4913C141.248 28.9508 142.449 27.9229 142.84 26.5282C143.598 23.8113 141.373 23.1019 138.309 23.1019H135.442H131.77L127.9 36.7155H134.559C134.854 36.7155 135.148 36.7155 135.442 36.6914ZM135.442 26.2628H136.909C137.865 26.2628 138.719 26.2869 138.429 27.3631C138.207 28.1448 137.45 28.5406 136.543 28.5406H135.442H134.709L135.346 26.2628H135.442ZM135.442 31.0355C136.837 31.0355 137.865 31.1079 137.522 32.2854C137.252 33.265 136.446 33.5112 135.442 33.5353C135.37 33.5353 135.297 33.5353 135.22 33.5353H133.285L133.995 31.0403H135.413C135.418 31.0355 135.418 31.0355 135.442 31.0355ZM119.478 33.5594C120.801 33.0431 121.684 31.6243 122.171 29.8387C122.712 27.9808 122.514 26.0215 120.53 26.0697C120.14 26.0697 119.797 26.1421 119.478 26.2676C118.084 26.8322 117.225 28.4489 116.834 29.8435C116.318 31.5808 116.245 33.7621 118.378 33.7621C118.769 33.7524 119.136 33.6801 119.478 33.5594ZM119.478 22.9571C120.14 22.8123 120.825 22.7351 121.51 22.7351C126.384 22.7351 127.682 26.2387 126.65 29.8339C125.549 33.6801 122.707 36.1268 119.474 36.8603C118.812 37.005 118.127 37.0823 117.418 37.0823C113.157 37.0823 111.053 34.4377 112.351 29.7856C113.383 26.2145 116.125 23.6906 119.478 22.9571ZM103.785 34.5873C103.809 34.5149 103.833 34.4425 103.857 34.3412C104.176 33.265 104.248 32.628 103.785 32.2854C103.491 32.0634 102.979 31.9669 102.144 31.9669H100.798L99.4754 36.7155H95.5086H94.9971L95.5086 34.9251L98.8626 23.097H103.785H105.276C109.832 23.097 110.956 24.3228 110.223 26.9673C109.759 28.5357 108.702 29.858 106.989 30.2972C108.263 30.8377 109.045 31.1803 108.263 33.9214C107.747 35.7069 107.53 36.2957 108.065 36.2957L107.945 36.7107H103.785H103.418C103.394 36.4501 103.515 35.6635 103.785 34.5873ZM103.785 28.9797C104.933 28.9073 105.648 28.5406 105.889 27.6816C106.159 26.7261 105.522 26.2628 104.494 26.2628H103.785H102.414L101.633 28.9797H103.394C103.539 28.9797 103.664 28.9797 103.785 28.9797ZM95.5086 24.8922L96.025 23.1067H95.5086H83.5116L82.5079 26.6826H86.5229L83.6564 36.7203H88.1106L90.9772 26.6826H94.9923L95.5086 24.8922Z" fill="#008542"/>
<path fill-rule="evenodd" clip-rule="evenodd" d="M37.5022 23.0149V18.5414H0.604004V23.0149H7.70278L3.76974 36.6237H11.824C15.3131 36.6237 15.9212 35.8082 16.6305 35.2146C17.5764 34.4232 18.0831 32.5363 17.6584 31.2188C17.3592 30.2923 16.4809 29.7276 16.3844 29.6987C17.4751 29.192 18.1072 28.082 18.1893 27.9228C18.5947 27.0831 18.9083 25.5581 17.8997 24.3324C17.0649 23.3141 15.4386 23.0342 14.2611 23.0149H22.8848L18.9373 36.6479H22.9331L24.3953 31.4794H26.6779C28.338 31.4794 28.1884 32.5121 28.227 32.9561L28.3573 36.7588H32.0683C32.0683 36.7588 31.8994 32.4928 31.885 32.1791C31.8367 31.0837 31.108 30.5915 30.4903 30.5915C31.6775 30.2681 32.7102 29.192 33.1252 28.5019C33.603 27.7056 33.9601 26.4364 33.4871 25.1721C32.8019 23.3431 31.0453 23.039 29.8147 23.0197H37.5022V23.0149ZM25.983 25.756H28.8881C30.2635 25.756 30.3214 26.6922 30.3214 26.9576C30.3214 27.5801 29.7712 28.8059 28.1015 28.8059H25.1385C25.1385 28.8059 25.9685 25.8332 25.983 25.756ZM9.39664 30.8762H12.0557C13.3586 30.8762 13.431 31.2285 13.6096 31.5325C13.7881 31.8317 13.7061 32.4687 13.5806 32.6859C13.4262 32.9609 13.1608 33.8151 11.4959 33.8151H8.54247C8.5473 33.8199 9.39664 30.881 9.39664 30.8762ZM10.8492 25.7415H13.9233C14.5361 25.7415 15.0863 26.1324 15.0863 26.7791C15.0863 27.6525 14.3914 28.2606 13.4262 28.2606H10.135L10.8492 25.7415Z" fill="white"/>
</svg>
