<svg width="208" height="56" viewBox="0 0 208 56" fill="none" xmlns="http://www.w3.org/2000/svg">
<g clip-path="url(#clip0)">
<path fill-rule="evenodd" clip-rule="evenodd" d="M41.2603 29.1331C39.248 36.8203 45.37 42.4731 54.6381 42.4731C63.796 42.4731 72.957 36.729 74.9473 29.1331L78.9373 13.0124C79.5293 10.7513 77.5548 9.46326 75.1677 9.46326C72.7806 9.46326 70.1416 10.9938 69.5495 13.2549L65.506 28.7741C64.6494 31.6808 60.9522 35.4661 55.9545 35.0945C50.6071 34.6946 50.1474 32.1595 50.5725 28.7741L54.7042 12.9935C55.2963 10.7324 53.2777 9.46641 50.8906 9.46641C48.5035 9.46641 46.0755 10.7324 45.4834 12.9935L41.2603 29.1331Z" fill="#006A5D"/>
<path d="M111.538 9.42864C109.264 9.40345 106.861 10.5151 106.206 13.173L102.204 28.1474L90.7247 11.1229C89.9941 9.93251 88.9234 9.46958 87.27 9.46958C84.9932 9.46958 82.5242 11.0694 81.9605 13.2266L75.4007 37.8879C74.7772 40.4545 76.6258 42.3881 78.9026 42.3881C81.1795 42.3881 84.0043 40.9678 84.6846 38.4453L88.5171 23.7638L99.2936 39.7018C100.345 41.5284 102.241 42.3944 103.52 42.3881C105.797 42.3818 108.077 41.1757 109.069 37.8092L115.247 13.8123C115.89 11.3591 114.967 9.46958 111.538 9.42864Z" fill="#006A5D"/>
<path d="M124.361 9.47272C121.987 9.47272 119.244 10.6852 118.655 12.9337L111.865 38.206C111.276 40.4545 113.106 42.3881 115.48 42.3881C117.855 42.3881 120.428 41.3961 121.278 38.2878L127.699 13.4942C128.288 11.2394 126.736 9.47272 124.361 9.47272Z" fill="#006A5D"/>
<path d="M179 13.3368C178.637 10.9434 176.357 9.42865 173.407 9.42865C170.566 9.42865 167.886 11.104 166.463 13.1951L149.328 37.0597C149.158 37.2864 148.736 37.8312 148.547 38.5587C148.071 40.3726 149.126 42.1393 152.109 42.3787C155.576 42.6558 157.053 40.5395 157.979 39.1318L171.227 18.892L173.52 35.9732L174.024 39.6011C174.474 41.6071 175.97 42.385 178.307 42.385C180.366 42.385 182.731 41.1284 183.276 38.8988C183.355 38.5807 183.415 37.9478 183.27 37.2203L179 13.3368Z" fill="#006A5D"/>
<path d="M157.777 20.054C159.424 13.6863 154.735 9.3877 146.566 9.3877H136.731C133.953 9.3877 131.831 10.745 131.182 13.1636L124.622 38.1241C124.03 40.3884 125.567 42.3818 127.957 42.3849C130.102 42.3881 133.062 41.7646 133.938 38.3634L135.748 31.2274H141.763C149.372 31.2274 156.035 26.7901 157.777 20.054ZM148.074 20.3091C147.489 22.5419 145.215 24.2582 142.333 24.2582H137.673L139.742 16.3632H144.402C147.281 16.3632 148.66 18.0763 148.074 20.3091Z" fill="#006A5D"/>
<path d="M196.711 9.3877L185.771 9.39399C183.705 9.39399 182.303 10.3923 181.632 12.2031C181.04 13.7997 181.352 15.7302 182.939 16.4419C183.166 16.5427 183.645 16.6718 184.256 16.6529L194.695 16.6403C197.766 16.6403 198.585 17.7205 198.068 19.8871C197.687 21.4806 195.527 22.9261 192.97 22.9261L189.461 22.9292C186.832 22.9261 183.903 25.9115 185.84 28.7741L193.59 40.8103C194.352 41.796 195.489 42.492 197.155 42.3818C199.611 42.2212 201.882 40.2246 202.247 38.4453C202.493 37.2392 201.772 36.3542 201.23 35.3591L196.591 28.2923C201.491 27.4956 206.565 24.5983 207.868 19.6194C209.726 12.5117 205.267 9.3877 196.711 9.3877Z" fill="#006A5D"/>
<path d="M33.9419 9.93256C31.8728 3.80108 26.1287 -0.0472352 19.9941 2.72295e-06C18.4825 0.0125995 16.9457 0.258237 15.4372 0.768406C7.79411 3.34759 3.69071 11.63 6.2699 19.2731C6.4431 19.7864 6.6478 20.284 6.87139 20.7658C6.89973 20.8288 6.92493 20.8949 6.95642 20.9547C7.87598 20.391 8.87428 19.9186 9.93871 19.5596C13.1194 18.4858 16.4071 18.5739 19.3516 19.588C22.9449 20.8256 26.0248 23.4457 27.7568 27.0453C30.6698 25.2565 32.8018 22.5293 33.8915 19.4116C34.9244 16.4482 35.022 13.1353 33.9419 9.93256Z" fill="#F07D1A"/>
<path d="M27.4073 12.622C26.0972 11.9386 24.7305 11.4757 23.348 11.2174C23.5275 9.7436 23.4897 8.21624 23.1937 6.67944C22.7024 4.12544 21.5687 1.85487 19.9941 0C18.4825 0.0125968 16.9457 0.258234 15.4372 0.768403C7.7941 3.34759 3.69071 11.63 6.2699 19.2731C6.4431 19.7864 6.6478 20.284 6.87139 20.7658C6.89973 20.8288 6.92493 20.8949 6.95642 20.9547C7.87598 20.391 8.87428 19.9186 9.9387 19.5596C13.1194 18.4858 16.4071 18.5739 19.3516 19.588C22.9449 20.8256 26.0248 23.4457 27.7568 27.0453C30.6698 25.2565 32.8018 22.5293 33.8915 19.4116C32.5814 16.5931 30.3707 14.1714 27.4073 12.622Z" fill="#FAC18E" fill-opacity="0.49" style="mix-blend-mode:overlay"/>
<path d="M7.70878 18.8227C7.37811 19.4588 7.10098 20.1075 6.87109 20.7626C6.89944 20.8256 6.92463 20.8917 6.95612 20.9515C7.87569 20.3878 8.87398 19.9154 9.93841 19.5564C13.1191 18.4826 16.4068 18.5707 19.3513 19.5848C21.5306 17.3268 22.9603 14.3949 23.3508 11.2174C17.1941 10.0616 10.7509 12.9809 7.70878 18.8227Z" fill="#FAC18E" fill-opacity="0.51" style="mix-blend-mode:overlay"/>
<path d="M9.611 41.5977C9.17956 39.7995 9.10398 37.9982 9.33387 36.2693C5.66821 35.0726 2.51902 32.4399 0.742872 28.8088C-0.220781 31.7124 -0.283765 34.9435 0.771214 38.0643C2.63554 43.588 7.479 47.26 12.9082 47.8993C11.3525 46.1609 10.1936 44.0226 9.611 41.5977Z" fill="#006A5D"/>
<path d="M9.33101 36.2661C9.7656 32.9909 11.3056 29.9708 13.6486 27.694C10.7985 26.2894 8.402 23.9622 6.95337 20.9515C3.97424 22.7812 1.80759 25.5966 0.743164 28.8088C2.51931 32.4398 5.6685 35.0725 9.33101 36.2661Z" fill="#00756A"/>
<path d="M18.5206 36.2157C15.4218 37.2612 12.2191 37.2077 9.33129 36.2692C9.1014 37.9981 9.17698 39.7995 9.60842 41.5977C10.191 44.0257 11.3499 46.1609 12.9056 47.9024C14.9872 48.148 17.1539 47.9464 19.2733 47.2316C26.9132 44.6524 31.0166 36.3669 28.4374 28.7269C28.2422 28.1443 28.0123 27.5869 27.7509 27.0484C27.7226 27.0641 27.6942 27.0799 27.6659 27.0988C26.2488 31.24 22.9925 34.7072 18.5206 36.2157Z" fill="#00756A"/>
<path d="M18.5204 36.2157C22.9923 34.7072 26.2485 31.24 27.6688 27.0956C26.7744 27.6342 25.8076 28.0908 24.7747 28.4403C20.9642 29.7252 16.993 29.3473 13.6486 27.7003C11.3056 29.974 9.76564 32.9941 9.33105 36.2724C12.2189 37.2077 15.4216 37.2612 18.5204 36.2157Z" fill="#008177"/>
</g>
<defs>
<clipPath id="clip0">
<rect width="208" height="56" fill="white"/>
</clipPath>
</defs>
</svg>
