<svg width="150" height="50" viewBox="0 0 150 50" fill="none" xmlns="http://www.w3.org/2000/svg">
<path d="M95.4611 20.0963C93.9452 18.5804 91.6549 17.7864 88.8331 17.7864C85.8012 17.7864 83.6521 18.5771 81.7785 19.4303C81.3093 19.6435 81.1452 20.2309 81.4373 20.6574L83.1271 23.1413C83.1402 23.1642 83.1697 23.1708 83.1927 23.161C83.5307 23.0067 86.2048 22.1832 88.5509 22.1832C91.7074 22.1832 92.951 23.6892 92.951 27.666C92.951 26.2978 88.8298 26.0123 88.3737 26.0123C82.4118 26.0123 79.5342 28.8144 79.5342 31.9611V32.03C79.5342 36.4498 83.4847 38.7597 87.3893 38.7597C90.3719 38.7597 91.6943 37.3751 92.8624 36.2102L93.4661 37.5719C93.6827 38.0608 94.1683 38.3758 94.6998 38.3758H97.6693C97.6693 38.3758 97.6693 30.501 97.6693 26.1961C97.6726 21.8124 95.4611 20.0963 95.4611 20.0963ZM92.8985 30.6289C92.8985 32.8076 90.7559 34.4482 87.9176 34.4482C86.2311 34.4482 84.4133 33.6476 84.4133 31.8955V31.8266C84.4133 30.2057 85.9981 29.2377 88.6559 29.2377C90.4113 29.2377 91.8386 29.4969 92.8985 29.7627V30.6289Z" fill="#073875"/>
<path d="M74.0805 30.8389C71.9772 32.8503 70.0348 34.0939 66.8717 34.0939C62.0483 34.0939 58.4095 30.1827 58.4095 24.9984V24.9295C58.4095 19.7846 62.0483 15.9063 66.8717 15.9063C69.5032 15.9063 71.5966 16.8283 73.8737 18.9873C74.3036 19.3975 74.9861 19.3745 75.3897 18.9381L78.0113 16.1228L77.2402 15.3944C74.9303 13.2157 72.0789 11.201 66.9078 11.201C59.3282 11.201 53.3926 17.2614 53.3926 24.9984V25.0673C53.3926 28.7882 54.7444 32.24 57.1988 34.7895C59.6859 37.3718 63.0983 38.7958 66.8028 38.7958C72.1117 38.7958 75.1436 36.4465 77.4109 34.1529L78.1623 33.3884L75.5668 30.8455C75.1567 30.4452 74.4972 30.4419 74.0805 30.8389Z" fill="#073875"/>
<path d="M123.699 17.6748C121.163 17.6748 119.05 18.6165 117.393 20.4769C116.001 18.6559 113.947 17.6748 111.46 17.6748C109.324 17.6748 107.798 18.3835 106.657 19.3351V18.0882C106.657 17.8684 106.476 17.6879 106.256 17.6879H101.813V37.0272C101.813 37.7721 102.417 38.3791 103.165 38.3791H106.66V26.9343C106.66 24.2306 107.595 22.2717 110.656 22.2717C113.796 22.2717 114.266 24.9951 114.266 26.6193V37.0272C114.266 37.7721 114.869 38.3791 115.617 38.3791H119.076V26.8293C119.076 24.1026 120.159 22.2717 123.036 22.2717C126.048 22.2717 126.682 24.6736 126.682 26.6882V37.024C126.682 37.7688 127.285 38.3758 128.033 38.3758H131.528V26.055C131.518 20.9626 128.45 17.6748 123.699 17.6748Z" fill="#073875"/>
<path d="M138.027 15.9882H138.132C139.547 15.9882 140.695 14.8398 140.695 13.4256C140.695 12.0115 139.547 10.863 138.132 10.863H138.027C136.613 10.863 135.465 12.0115 135.465 13.4256C135.465 14.8431 136.613 15.9882 138.027 15.9882Z" fill="#073875"/>
<path d="M148.15 10.7909H144.643V37.0273C144.643 37.7754 145.246 38.3791 145.994 38.3791H149.489V12.1296C149.489 11.7457 149.322 11.3782 149.033 11.1223C148.79 10.909 148.475 10.7909 148.15 10.7909Z" fill="#073875"/>
<path d="M140.505 38.3791H137.001C136.263 38.3791 135.662 37.7787 135.662 37.0404V18.062H139.166C139.905 18.062 140.505 18.6625 140.505 19.4007V38.3791Z" fill="#073875"/>
<path d="M42.8864 25.3167L33.0986 15.8636L33.0887 15.8767C30.9888 14.0786 28.2687 12.986 25.2861 12.986C18.6515 12.986 13.2737 18.3638 13.2737 24.9984C13.2737 31.6329 18.6515 37.0108 25.2861 37.0108C28.5082 37.0108 31.4285 35.7377 33.5842 33.6706L36.7998 30.3959L33.1183 26.8424C32.4817 27.4921 30.0668 29.9661 30.0635 29.9595C28.8232 31.1539 27.1432 31.8954 25.2828 31.8954C21.4733 31.8954 18.3857 28.8078 18.3857 24.9984C18.3857 21.1889 21.4733 18.1013 25.2828 18.1013C27.1137 18.1013 28.774 18.8166 30.0077 19.9782L39.3164 28.9686L39.3197 28.9653C40.583 30.2155 41.3672 31.9512 41.3672 33.8674C41.3672 35.7344 40.6223 37.4275 39.4181 38.6678V38.6711C35.8417 42.3657 30.8313 44.6691 25.2828 44.6691C14.4188 44.6691 5.60881 35.8624 5.60881 24.9951C5.60881 14.1278 14.4155 5.32112 25.2828 5.32112C30.7427 5.32112 35.6809 7.54904 39.2442 11.1387C40.2877 12.3461 40.9209 13.9178 40.9209 15.6404C40.9209 16.7889 40.6289 17.8651 40.1334 18.8134L43.9035 22.4555C45.2423 20.5196 46.0297 18.1735 46.0297 15.6404C46.0297 11.7719 44.1956 8.32996 41.354 6.13485C37.0262 2.45008 31.4186 0.218872 25.2828 0.218872C11.5937 0.218872 0.5 11.3158 0.5 25.0017C0.5 38.6908 11.597 49.7845 25.2828 49.7845C32.1995 49.7845 38.4502 46.9495 42.9454 42.3821C42.9454 42.3821 46.476 39.1305 46.476 33.8707C46.476 30.5206 45.1012 27.4954 42.8864 25.3167Z" fill="#20ABE4"/>
<path d="M42.8864 25.3167L33.0986 15.8636L33.0887 15.8767C30.9888 14.0786 28.2687 12.986 25.2861 12.986C18.6515 12.986 13.2737 18.3638 13.2737 24.9984C13.2737 31.6329 18.6515 37.0108 25.2861 37.0108C28.5082 37.0108 31.4285 35.7377 33.5842 33.6706L36.7998 30.3959L33.1183 26.8424C32.4817 27.4921 30.0668 29.9661 30.0635 29.9595C28.8232 31.1539 27.1432 31.8954 25.2828 31.8954C21.4733 31.8954 18.3857 28.8078 18.3857 24.9984C18.3857 21.1889 21.4733 18.1013 25.2828 18.1013C27.1137 18.1013 28.774 18.8166 30.0077 19.9782L39.3164 28.9686L39.3197 28.9653C40.583 30.2155 41.3672 31.9512 41.3672 33.8674C41.3672 35.7344 40.6223 37.4275 39.4181 38.6678V38.6711C35.8417 42.3657 30.8313 44.6691 25.2828 44.6691C14.4188 44.6691 5.60881 35.8624 5.60881 24.9951C5.60881 14.1278 14.4155 5.32112 25.2828 5.32112C30.7427 5.32112 35.6809 7.54904 39.2442 11.1387C40.2877 12.3461 40.9209 13.9178 40.9209 15.6404C40.9209 16.7889 40.6289 17.8651 40.1334 18.8134L43.9035 22.4555C45.2423 20.5196 46.0297 18.1735 46.0297 15.6404C46.0297 11.7719 44.1956 8.32996 41.354 6.13485C37.0262 2.45008 31.4186 0.218872 25.2828 0.218872C11.5937 0.218872 0.5 11.3158 0.5 25.0017C0.5 38.6908 11.597 49.7845 25.2828 49.7845C32.1995 49.7845 38.4502 46.9495 42.9454 42.3821C42.9454 42.3821 46.476 39.1305 46.476 33.8707C46.476 30.5206 45.1012 27.4954 42.8864 25.3167Z" fill="url(#paint0_linear)" style="mix-blend-mode:multiply"/>
<defs>
<linearGradient id="paint0_linear" x1="0.500492" y1="25.0015" x2="46.4761" y2="25.0015" gradientUnits="userSpaceOnUse">
<stop stop-color="white"/>
<stop offset="0.1702" stop-color="#CCCBDD"/>
<stop offset="0.3969" stop-color="#8D92B7"/>
<stop offset="0.6015" stop-color="#5E6999"/>
<stop offset="0.7765" stop-color="#394E84"/>
<stop offset="0.9151" stop-color="#183E79"/>
<stop offset="1" stop-color="#073875"/>
</linearGradient>
</defs>
</svg>
