<svg width="200" height="56" viewBox="0 0 200 56" fill="none" xmlns="http://www.w3.org/2000/svg">
<path d="M183.546 8C174.592 8 167.405 15.1989 167.405 24C167.405 32.8103 174.592 39.9969 183.546 39.9969C192.501 39.9969 199.688 32.8072 199.688 24C199.688 15.1989 192.501 8 183.546 8ZM183.546 31.448C179.644 31.448 176.775 28.3882 176.775 24C176.775 19.6087 179.644 16.552 183.546 16.552C187.449 16.552 190.318 19.6118 190.318 24C190.318 28.3913 187.449 31.448 183.546 31.448ZM157.801 27.4011L164.342 33.942C161.393 37.6291 156.833 39.9969 151.691 39.9969C142.736 39.9969 135.549 32.8072 135.549 24C135.549 15.1989 142.736 8 151.691 8C156.833 8 161.39 10.3709 164.339 14.058L157.801 20.5989C156.737 18.1111 154.477 16.552 151.691 16.552C147.789 16.552 144.919 19.6118 144.919 24C144.919 28.3882 147.789 31.448 151.691 31.448C154.477 31.448 156.737 29.892 157.801 27.4011ZM52.8372 8.50125H60.5405V17.7974H47.0283V39.5049H37.6583V8.50125H47.0283V14.3256L52.8372 8.50125ZM20.7265 11.4595C18.5431 9.30694 15.794 8 12.7988 8C5.72593 8 0 15.1774 0 24.0031C0 32.8318 5.72593 39.9969 12.7988 39.9969C15.794 39.9969 18.5462 38.6992 20.7265 36.5528V36.5466L23.6879 39.5049H31.1912V8.50125H23.6817L20.7265 11.4595ZM21.8243 28.8403C20.5912 30.5162 18.8568 31.4511 16.5505 31.4511C12.0853 31.4511 9.36998 28.0992 9.36998 24.0031C9.36998 19.9131 12.0853 16.5643 16.5505 16.5643C18.8537 16.5643 20.5912 17.4899 21.8243 19.1659V28.8403ZM83.6072 11.4595C81.4269 9.30694 78.6746 8 75.6794 8C68.6066 8 62.8806 15.1774 62.8806 24.0031C62.8806 32.8318 68.6066 39.9969 75.6794 39.9969C78.6746 39.9969 81.4269 38.6992 83.6072 36.5528V36.5466L86.5685 39.5049H94.0719V8.50125H86.5654L83.6072 11.4595ZM84.705 28.8403C83.4718 30.5162 81.7375 31.4511 79.4311 31.4511C74.966 31.4511 72.2506 28.0992 72.2506 24.0031C72.2506 19.9131 74.966 16.5643 79.4311 16.5643C81.7344 16.5643 83.4718 17.4899 84.705 19.1659V28.8403ZM100.656 32.4198V8.50125H110.026V30.1749H120.094V8.50125H129.464V39.508H107.753L100.656 32.4198Z" fill="#544B45"/>
</svg>
