<svg width="204" height="59" viewBox="0 0 204 59" fill="none" xmlns="http://www.w3.org/2000/svg">
<g clip-path="url(#clip0)">
<path d="M99.8454 22.0722V22.7326C99.8454 23.2515 99.4208 23.6761 98.9019 23.6761H93.9394C93.4252 23.6761 93.0054 23.261 92.9959 22.7468C92.9912 22.2939 92.9818 21.8222 92.9676 21.6901C92.6186 18.0295 89.9816 16.4115 86.0097 16.4115C82.2689 16.4115 79.9716 18.2796 79.9716 20.8457C79.9716 24.3695 83.2831 25.0111 87.7692 26.03L88.2504 26.1385C95.9442 27.8461 100.482 30.5727 100.482 37.3561C100.482 44.8896 94.6045 49.1068 86.6465 49.1068C77.5092 49.1068 71.6362 44.1914 71.6362 35.4315V35.2003C71.6362 34.6814 72.0608 34.2569 72.5797 34.2569H77.6366C78.1555 34.2569 78.58 34.6814 78.58 35.2003V35.2192C78.58 39.8138 81.1981 42.913 86.8588 42.913C91.3968 42.913 93.5384 40.5072 93.5384 37.7335C93.5384 34.4739 90.76 33.4078 85.8446 32.337L85.3634 32.2285C77.6177 30.5208 73.0231 27.8461 73.0231 21.0627C73.0231 14.3831 78.7404 10.2178 86.005 10.2178C94.0243 10.2131 99.8454 14.5954 99.8454 22.0722Z" fill="white"/>
<path d="M106.35 21.8601H111.087C111.605 21.8601 112.03 22.2846 112.03 22.8035V25.6009C112.488 25.6009 112.907 25.3791 113.172 25.0065C114.601 22.9781 116.936 21.1147 121.219 21.1147C127.842 21.1147 133.399 26.9924 133.399 35.1108C133.399 43.2292 127.842 49.1069 121.219 49.1069C116.875 49.1069 114.54 47.1917 113.11 45.1303C112.889 44.8095 112.525 44.6208 112.139 44.6208V58.1027C112.139 58.6216 111.714 59.0462 111.195 59.0462H106.35C105.832 59.0462 105.407 58.6216 105.407 58.1027V22.8035C105.407 22.2799 105.827 21.8601 106.35 21.8601ZM126.668 35.1061C126.668 29.9785 123.46 27.0962 119.403 27.0962C115.238 27.0962 112.139 30.087 112.139 35.1061C112.139 40.13 115.238 43.1207 119.403 43.1207C123.46 43.1207 126.668 40.2338 126.668 35.1061Z" fill="white"/>
<path d="M141.145 9.57153C143.815 9.57153 145.9 11.4396 145.9 14.1661C145.9 16.8927 143.815 18.7607 141.145 18.7607C138.475 18.7607 136.39 16.8927 136.39 14.1661C136.39 11.4396 138.475 9.57153 141.145 9.57153ZM143.57 48.3568H138.725C138.206 48.3568 137.781 47.9322 137.781 47.4133V22.8034C137.781 22.2845 138.206 21.86 138.725 21.86H143.57C144.088 21.86 144.513 22.2845 144.513 22.8034V47.4133C144.513 47.9322 144.088 48.3568 143.57 48.3568Z" fill="white"/>
<path d="M166.542 32.5587L176.59 46.8661C177.029 47.4935 176.581 48.3521 175.817 48.3521H170.33C170.019 48.3521 169.727 48.1964 169.552 47.9417L161.868 36.7052C161.556 36.2476 160.915 36.158 160.486 36.5118L157.566 38.9317C157.349 39.111 157.226 39.3751 157.226 39.6582V47.4086C157.226 47.9275 156.801 48.3521 156.282 48.3521H151.438C150.919 48.3521 150.494 47.9275 150.494 47.4086V11.9066C150.494 11.3877 150.919 10.9631 151.438 10.9631H156.282C156.801 10.9631 157.226 11.3877 157.226 11.9066V30.9407C157.641 30.9407 158.042 30.7945 158.358 30.5256L168.396 22.077C168.566 21.9355 168.783 21.8553 169.005 21.8553H175.453C176.335 21.8553 176.736 22.9591 176.057 23.5252L166.712 31.2898C166.335 31.6058 166.259 32.1577 166.542 32.5587Z" fill="white"/>
<path d="M191.261 21.1096C198.955 21.1096 204.134 26.5062 204.134 34.4642V36.1388C204.134 36.6577 203.71 37.0822 203.191 37.0822H185.945C185.341 37.0822 184.888 37.6389 185.02 38.2285C185.69 41.1815 188.053 43.3326 191.473 43.3326C194.695 43.3326 196.61 41.7853 197.657 40.1626C197.931 39.738 198.488 39.606 198.922 39.8607L202.724 42.0731C203.2 42.3514 203.342 42.9788 203.021 43.4269C201.134 46.0592 197.983 49.0971 191.582 49.0971C183.676 49.0971 177.958 43.1156 177.958 34.8887C177.958 26.8788 183.459 21.1096 191.261 21.1096ZM196.129 32.3838C196.756 32.3838 197.214 31.7753 197.04 31.1715C196.261 28.511 194.247 26.8788 191.209 26.8788C187.907 26.8788 185.987 28.577 185.19 31.1621C185.006 31.7659 185.463 32.3791 186.096 32.3791H196.129V32.3838Z" fill="white"/>
<path fill-rule="evenodd" clip-rule="evenodd" d="M0 16.7698C0 21.4446 1.90105 25.6713 4.97198 28.7139C8.02404 31.7424 9.65149 35.8653 9.49111 40.1627C9.48167 40.3655 9.48167 40.5731 9.48167 40.7759C9.48167 51.0123 18.836 59.3147 30.3744 59.3147C41.9128 59.3147 51.2671 51.0171 51.2671 40.7759C51.2671 40.5731 51.2623 40.3702 51.2576 40.1674C51.102 35.9549 52.819 31.8603 55.8758 28.9545C59.093 25.8977 61.0978 21.5673 61.0978 16.7651C61.0978 7.50986 53.6351 0 44.4223 0C41.7382 0 39.2003 0.636829 36.9549 1.76897C32.9453 3.79267 28.162 3.79267 24.1523 1.76897C21.9022 0.636829 19.3643 0 16.6802 0C7.46741 0 0 7.50986 0 16.7698ZM11.5384 21.2088C11.5384 24.2656 12.7177 27.0299 14.6188 29.0253C16.5528 31.0537 17.4868 33.8935 17.4397 36.771C17.4397 36.8323 17.4397 36.8889 17.4397 36.9503C17.4397 43.6629 23.2608 49.1019 30.4404 49.1019C37.6201 49.1019 43.4412 43.6629 43.4412 36.9503C43.4412 36.8087 43.4364 36.6672 43.4317 36.5304C43.3279 33.7237 44.4837 31.0726 46.3942 29.1149C48.3471 27.1148 49.5594 24.3127 49.5594 21.2088C49.5594 15.1377 44.9129 10.2129 39.1815 10.2129C37.5116 10.2129 35.9313 10.6327 34.535 11.3733C32.0254 12.7083 29.0771 12.7083 26.5676 11.3733C25.1712 10.628 23.591 10.2129 21.9211 10.2129C16.1849 10.2129 11.5384 15.1377 11.5384 21.2088Z" fill="white"/>
</g>
<defs>
<clipPath id="clip0">
<rect width="204" height="59" fill="white"/>
</clipPath>
</defs>
</svg>
