<svg width="547" height="416" viewBox="0 0 547 416" fill="none" xmlns="http://www.w3.org/2000/svg">
<rect x="168.5" y="286.5" width="191" height="129" rx="15.5" fill="#FAFAFA" stroke="#F5F5F5"/>
<rect x="0.5" y="155.5" width="239" height="159" rx="15.5" fill="#F5F5F5" stroke="#EBEBEB"/>
<rect x="307.5" y="198.5" width="239" height="159" rx="15.5" fill="#FAFAFA" stroke="#EBEBEB"/>
<path opacity="0.2" d="M56.2713 248.8V251.02H51.8513V262H49.0913V251.02H44.6513V248.8H56.2713ZM62.0912 255.62C62.0912 255.047 61.9245 254.6 61.5912 254.28C61.2712 253.96 60.8445 253.8 60.3112 253.8C59.8178 253.8 59.3845 253.927 59.0112 254.18C58.6378 254.433 58.3645 254.853 58.1912 255.44L55.8512 254.72C56.0778 253.84 56.5712 253.133 57.3312 252.6C58.1045 252.067 59.1378 251.8 60.4312 251.8C61.3112 251.8 62.0778 251.94 62.7312 252.22C63.3845 252.487 63.8912 252.893 64.2512 253.44C64.6245 253.987 64.8112 254.673 64.8112 255.5V259.56C64.8112 260.067 65.0512 260.32 65.5312 260.32C65.7578 260.32 65.9712 260.287 66.1712 260.22L66.0112 261.92C65.6645 262.093 65.2312 262.18 64.7112 262.18C64.2445 262.18 63.8245 262.1 63.4512 261.94C63.0778 261.78 62.7845 261.54 62.5712 261.22C62.3578 260.887 62.2512 260.473 62.2512 259.98V259.9L62.7312 259.82C62.6512 260.327 62.4312 260.76 62.0712 261.12C61.7112 261.467 61.2712 261.733 60.7512 261.92C60.2445 262.107 59.7178 262.2 59.1712 262.2C58.4912 262.2 57.9045 262.1 57.4112 261.9C56.9178 261.687 56.5378 261.38 56.2712 260.98C56.0045 260.58 55.8712 260.087 55.8712 259.5C55.8712 258.753 56.1112 258.147 56.5912 257.68C57.0712 257.2 57.7578 256.873 58.6512 256.7L62.4112 255.94L62.3912 257.64L59.9912 258.12C59.5378 258.213 59.1912 258.34 58.9512 258.5C58.7245 258.647 58.6112 258.893 58.6112 259.24C58.6112 259.573 58.7312 259.827 58.9712 260C59.2245 260.173 59.5245 260.26 59.8712 260.26C60.1512 260.26 60.4245 260.227 60.6912 260.16C60.9578 260.093 61.1978 259.987 61.4112 259.84C61.6245 259.693 61.7912 259.493 61.9112 259.24C62.0312 258.987 62.0912 258.68 62.0912 258.32V255.62ZM70.0955 252L72.7355 256.38L73.4755 256.36L77.4755 262H74.2955L71.5755 257.52L70.7555 257.44L66.8955 252H70.0955ZM77.4155 252L73.5555 257.38L72.7355 257.32L69.8155 262H66.7155L70.8555 256.32L71.6355 256.42L74.2955 252H77.4155ZM84.8255 255.62C84.8255 255.047 84.6589 254.6 84.3255 254.28C84.0055 253.96 83.5789 253.8 83.0455 253.8C82.5522 253.8 82.1189 253.927 81.7455 254.18C81.3722 254.433 81.0989 254.853 80.9255 255.44L78.5855 254.72C78.8122 253.84 79.3055 253.133 80.0655 252.6C80.8389 252.067 81.8722 251.8 83.1655 251.8C84.0455 251.8 84.8122 251.94 85.4655 252.22C86.1189 252.487 86.6255 252.893 86.9855 253.44C87.3589 253.987 87.5455 254.673 87.5455 255.5V259.56C87.5455 260.067 87.7855 260.32 88.2655 260.32C88.4922 260.32 88.7055 260.287 88.9055 260.22L88.7455 261.92C88.3989 262.093 87.9655 262.18 87.4455 262.18C86.9789 262.18 86.5589 262.1 86.1855 261.94C85.8122 261.78 85.5189 261.54 85.3055 261.22C85.0922 260.887 84.9855 260.473 84.9855 259.98V259.9L85.4655 259.82C85.3855 260.327 85.1655 260.76 84.8055 261.12C84.4455 261.467 84.0055 261.733 83.4855 261.92C82.9789 262.107 82.4522 262.2 81.9055 262.2C81.2255 262.2 80.6389 262.1 80.1455 261.9C79.6522 261.687 79.2722 261.38 79.0055 260.98C78.7389 260.58 78.6055 260.087 78.6055 259.5C78.6055 258.753 78.8455 258.147 79.3255 257.68C79.8055 257.2 80.4922 256.873 81.3855 256.7L85.1455 255.94L85.1255 257.64L82.7255 258.12C82.2722 258.213 81.9255 258.34 81.6855 258.5C81.4589 258.647 81.3455 258.893 81.3455 259.24C81.3455 259.573 81.4655 259.827 81.7055 260C81.9589 260.173 82.2589 260.26 82.6055 260.26C82.8855 260.26 83.1589 260.227 83.4255 260.16C83.6922 260.093 83.9322 259.987 84.1455 259.84C84.3589 259.693 84.5255 259.493 84.6455 259.24C84.7655 258.987 84.8255 258.68 84.8255 258.32V255.62ZM102.27 248.8C103.283 248.8 104.15 248.973 104.87 249.32C105.59 249.653 106.143 250.14 106.53 250.78C106.93 251.407 107.13 252.167 107.13 253.06C107.13 253.953 106.93 254.72 106.53 255.36C106.143 255.987 105.59 256.473 104.87 256.82C104.15 257.153 103.283 257.32 102.27 257.32H99.4898V262H96.7298V248.8H102.27ZM101.85 255.14C102.676 255.14 103.296 254.967 103.71 254.62C104.123 254.26 104.33 253.74 104.33 253.06C104.33 252.367 104.123 251.847 103.71 251.5C103.296 251.153 102.676 250.98 101.85 250.98H99.4898V255.14H101.85ZM113.766 262.2C112.712 262.2 111.792 261.993 111.006 261.58C110.232 261.167 109.632 260.573 109.206 259.8C108.779 259.027 108.566 258.093 108.566 257C108.566 255.907 108.779 254.973 109.206 254.2C109.632 253.427 110.226 252.833 110.986 252.42C111.759 252.007 112.639 251.8 113.626 251.8C114.639 251.8 115.499 252.007 116.206 252.42C116.912 252.82 117.452 253.373 117.826 254.08C118.199 254.773 118.386 255.567 118.386 256.46C118.386 256.727 118.379 256.98 118.366 257.22C118.352 257.46 118.332 257.673 118.306 257.86H110.326V255.96H117.106L115.786 256.44C115.786 255.6 115.592 254.953 115.206 254.5C114.832 254.047 114.299 253.82 113.606 253.82C113.099 253.82 112.659 253.94 112.286 254.18C111.926 254.42 111.652 254.78 111.466 255.26C111.279 255.727 111.186 256.32 111.186 257.04C111.186 257.747 111.286 258.333 111.486 258.8C111.699 259.253 111.992 259.593 112.366 259.82C112.752 260.047 113.212 260.16 113.746 260.16C114.332 260.16 114.806 260.047 115.166 259.82C115.526 259.593 115.806 259.28 116.006 258.88L118.186 259.72C117.972 260.24 117.646 260.687 117.206 261.06C116.779 261.433 116.266 261.72 115.666 261.92C115.079 262.107 114.446 262.2 113.766 262.2ZM120.708 262V252H123.088L123.268 253.96C123.534 253.267 123.921 252.733 124.428 252.36C124.948 251.987 125.594 251.8 126.368 251.8C126.594 251.8 126.801 251.82 126.988 251.86C127.174 251.9 127.328 251.953 127.448 252.02L127.128 254.32C126.994 254.267 126.828 254.227 126.628 254.2C126.441 254.173 126.194 254.16 125.888 254.16C125.488 254.16 125.101 254.26 124.728 254.46C124.354 254.647 124.048 254.94 123.808 255.34C123.568 255.727 123.448 256.22 123.448 256.82V262H120.708ZM132.73 262.2C131.903 262.2 131.163 261.993 130.51 261.58C129.87 261.167 129.363 260.573 128.99 259.8C128.63 259.027 128.45 258.1 128.45 257.02C128.45 255.913 128.643 254.973 129.03 254.2C129.416 253.413 129.936 252.82 130.59 252.42C131.256 252.007 132.003 251.8 132.83 251.8C133.71 251.8 134.436 252.053 135.01 252.56C135.583 253.067 135.956 253.72 136.13 254.52L135.87 254.84V247.62H138.61V262H136.15L135.97 258.96L136.29 259.12C136.21 259.747 136.003 260.293 135.67 260.76C135.336 261.213 134.916 261.567 134.41 261.82C133.903 262.073 133.343 262.2 132.73 262.2ZM133.53 260.1C134.01 260.1 134.423 259.98 134.77 259.74C135.116 259.487 135.383 259.12 135.57 258.64C135.77 258.16 135.87 257.587 135.87 256.92C135.87 256.28 135.776 255.74 135.59 255.3C135.403 254.847 135.136 254.5 134.79 254.26C134.443 254.02 134.036 253.9 133.57 253.9C132.823 253.9 132.236 254.167 131.81 254.7C131.396 255.22 131.19 255.987 131.19 257C131.19 258.013 131.396 258.787 131.81 259.32C132.223 259.84 132.796 260.1 133.53 260.1ZM146.129 262.2C145.075 262.2 144.155 261.993 143.369 261.58C142.595 261.167 141.995 260.573 141.569 259.8C141.142 259.027 140.929 258.093 140.929 257C140.929 255.907 141.142 254.973 141.569 254.2C141.995 253.427 142.589 252.833 143.349 252.42C144.122 252.007 145.002 251.8 145.989 251.8C147.002 251.8 147.862 252.007 148.569 252.42C149.275 252.82 149.815 253.373 150.189 254.08C150.562 254.773 150.749 255.567 150.749 256.46C150.749 256.727 150.742 256.98 150.729 257.22C150.715 257.46 150.695 257.673 150.669 257.86H142.689V255.96H149.469L148.149 256.44C148.149 255.6 147.955 254.953 147.569 254.5C147.195 254.047 146.662 253.82 145.969 253.82C145.462 253.82 145.022 253.94 144.649 254.18C144.289 254.42 144.015 254.78 143.829 255.26C143.642 255.727 143.549 256.32 143.549 257.04C143.549 257.747 143.649 258.333 143.849 258.8C144.062 259.253 144.355 259.593 144.729 259.82C145.115 260.047 145.575 260.16 146.109 260.16C146.695 260.16 147.169 260.047 147.529 259.82C147.889 259.593 148.169 259.28 148.369 258.88L150.549 259.72C150.335 260.24 150.009 260.687 149.569 261.06C149.142 261.433 148.629 261.72 148.029 261.92C147.442 262.107 146.809 262.2 146.129 262.2ZM156.851 262.2C156.024 262.2 155.284 261.993 154.631 261.58C153.991 261.167 153.484 260.573 153.111 259.8C152.751 259.027 152.571 258.1 152.571 257.02C152.571 255.913 152.764 254.973 153.151 254.2C153.538 253.413 154.058 252.82 154.711 252.42C155.378 252.007 156.124 251.8 156.951 251.8C157.831 251.8 158.558 252.053 159.131 252.56C159.704 253.067 160.078 253.72 160.251 254.52L159.991 254.84V247.62H162.731V262H160.271L160.091 258.96L160.411 259.12C160.331 259.747 160.124 260.293 159.791 260.76C159.458 261.213 159.038 261.567 158.531 261.82C158.024 262.073 157.464 262.2 156.851 262.2ZM157.651 260.1C158.131 260.1 158.544 259.98 158.891 259.74C159.238 259.487 159.504 259.12 159.691 258.64C159.891 258.16 159.991 257.587 159.991 256.92C159.991 256.28 159.898 255.74 159.711 255.3C159.524 254.847 159.258 254.5 158.911 254.26C158.564 254.02 158.158 253.9 157.691 253.9C156.944 253.9 156.358 254.167 155.931 254.7C155.518 255.22 155.311 255.987 155.311 257C155.311 258.013 155.518 258.787 155.931 259.32C156.344 259.84 156.918 260.1 157.651 260.1ZM170.17 251.8C171.183 251.8 172.07 252.007 172.83 252.42C173.603 252.833 174.203 253.427 174.63 254.2C175.07 254.973 175.29 255.907 175.29 257C175.29 258.08 175.07 259.013 174.63 259.8C174.203 260.573 173.603 261.167 172.83 261.58C172.07 261.993 171.183 262.2 170.17 262.2C169.17 262.2 168.283 261.993 167.51 261.58C166.737 261.167 166.13 260.573 165.69 259.8C165.263 259.013 165.05 258.08 165.05 257C165.05 255.907 165.263 254.973 165.69 254.2C166.13 253.427 166.737 252.833 167.51 252.42C168.283 252.007 169.17 251.8 170.17 251.8ZM170.17 253.84C169.663 253.84 169.23 253.96 168.87 254.2C168.523 254.427 168.257 254.773 168.07 255.24C167.883 255.707 167.79 256.293 167.79 257C167.79 257.707 167.883 258.293 168.07 258.76C168.257 259.227 168.523 259.58 168.87 259.82C169.23 260.047 169.663 260.16 170.17 260.16C170.663 260.16 171.083 260.047 171.43 259.82C171.79 259.58 172.063 259.227 172.25 258.76C172.437 258.293 172.53 257.707 172.53 257C172.53 256.293 172.437 255.707 172.25 255.24C172.063 254.773 171.79 254.427 171.43 254.2C171.083 253.96 170.663 253.84 170.17 253.84ZM177.583 262V252H179.963L180.143 253.96C180.409 253.267 180.796 252.733 181.303 252.36C181.823 251.987 182.469 251.8 183.243 251.8C183.469 251.8 183.676 251.82 183.863 251.86C184.049 251.9 184.203 251.953 184.323 252.02L184.003 254.32C183.869 254.267 183.703 254.227 183.503 254.2C183.316 254.173 183.069 254.16 182.763 254.16C182.363 254.16 181.976 254.26 181.603 254.46C181.229 254.647 180.923 254.94 180.683 255.34C180.443 255.727 180.323 256.22 180.323 256.82V262H177.583ZM191.544 255.62C191.544 255.047 191.378 254.6 191.044 254.28C190.724 253.96 190.298 253.8 189.764 253.8C189.271 253.8 188.838 253.927 188.464 254.18C188.091 254.433 187.818 254.853 187.644 255.44L185.304 254.72C185.531 253.84 186.024 253.133 186.784 252.6C187.558 252.067 188.591 251.8 189.884 251.8C190.764 251.8 191.531 251.94 192.184 252.22C192.838 252.487 193.344 252.893 193.704 253.44C194.078 253.987 194.264 254.673 194.264 255.5V259.56C194.264 260.067 194.504 260.32 194.984 260.32C195.211 260.32 195.424 260.287 195.624 260.22L195.464 261.92C195.118 262.093 194.684 262.18 194.164 262.18C193.698 262.18 193.278 262.1 192.904 261.94C192.531 261.78 192.238 261.54 192.024 261.22C191.811 260.887 191.704 260.473 191.704 259.98V259.9L192.184 259.82C192.104 260.327 191.884 260.76 191.524 261.12C191.164 261.467 190.724 261.733 190.204 261.92C189.698 262.107 189.171 262.2 188.624 262.2C187.944 262.2 187.358 262.1 186.864 261.9C186.371 261.687 185.991 261.38 185.724 260.98C185.458 260.58 185.324 260.087 185.324 259.5C185.324 258.753 185.564 258.147 186.044 257.68C186.524 257.2 187.211 256.873 188.104 256.7L191.864 255.94L191.844 257.64L189.444 258.12C188.991 258.213 188.644 258.34 188.404 258.5C188.178 258.647 188.064 258.893 188.064 259.24C188.064 259.573 188.184 259.827 188.424 260C188.678 260.173 188.978 260.26 189.324 260.26C189.604 260.26 189.878 260.227 190.144 260.16C190.411 260.093 190.651 259.987 190.864 259.84C191.078 259.693 191.244 259.493 191.364 259.24C191.484 258.987 191.544 258.68 191.544 258.32V255.62ZM95.5884 286.2C94.2684 286.2 93.1418 285.927 92.2084 285.38C91.2884 284.82 90.6551 284.02 90.3084 282.98L92.9084 281.84C93.0018 282.32 93.1551 282.72 93.3684 283.04C93.5818 283.347 93.8684 283.58 94.2284 283.74C94.6018 283.9 95.0418 283.98 95.5484 283.98C96.0018 283.98 96.3818 283.9 96.6884 283.74C97.0084 283.567 97.2551 283.34 97.4284 283.06C97.6018 282.767 97.6884 282.427 97.6884 282.04C97.6884 281.653 97.6084 281.333 97.4484 281.08C97.2884 280.827 97.0551 280.647 96.7484 280.54C96.4551 280.42 96.0751 280.36 95.6084 280.36C95.4351 280.36 95.2684 280.367 95.1084 280.38C94.9618 280.38 94.7951 280.393 94.6084 280.42V278.4C94.7151 278.413 94.8218 278.427 94.9284 278.44C95.0484 278.44 95.1684 278.44 95.2884 278.44C96.0351 278.44 96.5684 278.293 96.8884 278C97.2218 277.693 97.3884 277.207 97.3884 276.54C97.3884 275.993 97.2218 275.573 96.8884 275.28C96.5684 274.973 96.1084 274.82 95.5084 274.82C94.8684 274.82 94.3618 274.98 93.9884 275.3C93.6151 275.607 93.3551 276.08 93.2084 276.72L90.7484 275.8C90.9084 275.133 91.2151 274.56 91.6684 274.08C92.1351 273.6 92.7084 273.233 93.3884 272.98C94.0684 272.713 94.8218 272.58 95.6484 272.58C96.6351 272.58 97.4551 272.733 98.1084 273.04C98.7751 273.347 99.2751 273.767 99.6084 274.3C99.9551 274.833 100.128 275.447 100.128 276.14C100.128 276.687 100.042 277.153 99.8684 277.54C99.7084 277.913 99.4951 278.233 99.2284 278.5C98.9751 278.753 98.7084 278.947 98.4284 279.08C98.1484 279.213 97.8884 279.293 97.6484 279.32V279.38C97.9551 279.393 98.2684 279.46 98.5884 279.58C98.9084 279.687 99.2018 279.853 99.4684 280.08C99.7484 280.307 99.9751 280.6 100.148 280.96C100.322 281.307 100.408 281.72 100.408 282.2C100.408 283 100.195 283.707 99.7684 284.32C99.3551 284.92 98.7884 285.387 98.0684 285.72C97.3484 286.04 96.5218 286.2 95.5884 286.2ZM104.246 282.94C104.779 282.94 105.199 283.087 105.506 283.38C105.826 283.673 105.986 284.067 105.986 284.56C105.986 285.067 105.826 285.467 105.506 285.76C105.199 286.04 104.779 286.18 104.246 286.18C103.712 286.18 103.286 286.04 102.966 285.76C102.659 285.467 102.506 285.067 102.506 284.56C102.506 284.067 102.659 283.673 102.966 283.38C103.286 283.087 103.712 282.94 104.246 282.94ZM113.118 286.2C111.424 286.2 110.118 285.627 109.198 284.48C108.291 283.333 107.838 281.64 107.838 279.4C107.838 277.16 108.291 275.467 109.198 274.32C110.118 273.173 111.424 272.6 113.118 272.6C114.811 272.6 116.111 273.173 117.018 274.32C117.938 275.467 118.398 277.16 118.398 279.4C118.398 281.64 117.938 283.333 117.018 284.48C116.111 285.627 114.811 286.2 113.118 286.2ZM113.118 283.98C113.691 283.98 114.158 283.82 114.518 283.5C114.891 283.167 115.171 282.667 115.358 282C115.544 281.32 115.638 280.453 115.638 279.4C115.638 278.347 115.544 277.487 115.358 276.82C115.171 276.14 114.891 275.64 114.518 275.32C114.158 274.987 113.691 274.82 113.118 274.82C112.544 274.82 112.071 274.987 111.698 275.32C111.324 275.64 111.044 276.14 110.858 276.82C110.684 277.487 110.598 278.347 110.598 279.4C110.598 280.453 110.684 281.32 110.858 282C111.044 282.667 111.324 283.167 111.698 283.5C112.071 283.82 112.544 283.98 113.118 283.98ZM125.833 286.2C124.139 286.2 122.833 285.627 121.913 284.48C121.006 283.333 120.553 281.64 120.553 279.4C120.553 277.16 121.006 275.467 121.913 274.32C122.833 273.173 124.139 272.6 125.833 272.6C127.526 272.6 128.826 273.173 129.733 274.32C130.653 275.467 131.113 277.16 131.113 279.4C131.113 281.64 130.653 283.333 129.733 284.48C128.826 285.627 127.526 286.2 125.833 286.2ZM125.833 283.98C126.406 283.98 126.873 283.82 127.233 283.5C127.606 283.167 127.886 282.667 128.073 282C128.259 281.32 128.353 280.453 128.353 279.4C128.353 278.347 128.259 277.487 128.073 276.82C127.886 276.14 127.606 275.64 127.233 275.32C126.873 274.987 126.406 274.82 125.833 274.82C125.259 274.82 124.786 274.987 124.413 275.32C124.039 275.64 123.759 276.14 123.573 276.82C123.399 277.487 123.313 278.347 123.313 279.4C123.313 280.453 123.399 281.32 123.573 282C123.759 282.667 124.039 283.167 124.413 283.5C124.786 283.82 125.259 283.98 125.833 283.98ZM135.728 286L144.628 272.8H146.828L137.928 286H135.728ZM136.388 272.6C137.108 272.6 137.728 272.753 138.248 273.06C138.781 273.367 139.188 273.8 139.468 274.36C139.761 274.92 139.908 275.573 139.908 276.32C139.908 277.067 139.761 277.72 139.468 278.28C139.188 278.827 138.781 279.26 138.248 279.58C137.728 279.887 137.108 280.04 136.388 280.04C135.681 280.04 135.061 279.887 134.528 279.58C133.994 279.26 133.581 278.827 133.288 278.28C133.008 277.72 132.868 277.067 132.868 276.32C132.868 275.573 133.008 274.92 133.288 274.36C133.581 273.8 133.994 273.367 134.528 273.06C135.061 272.753 135.681 272.6 136.388 272.6ZM136.388 274.5C136.094 274.5 135.841 274.573 135.628 274.72C135.414 274.853 135.254 275.06 135.148 275.34C135.041 275.607 134.988 275.933 134.988 276.32C134.988 276.693 135.041 277.02 135.148 277.3C135.254 277.567 135.414 277.773 135.628 277.92C135.841 278.053 136.094 278.12 136.388 278.12C136.694 278.12 136.948 278.053 137.148 277.92C137.361 277.773 137.521 277.567 137.628 277.3C137.734 277.02 137.788 276.693 137.788 276.32C137.788 275.933 137.734 275.607 137.628 275.34C137.521 275.06 137.361 274.853 137.148 274.72C136.948 274.573 136.694 274.5 136.388 274.5ZM146.148 278.76C146.854 278.76 147.468 278.92 147.988 279.24C148.521 279.547 148.934 279.98 149.228 280.54C149.521 281.087 149.668 281.733 149.668 282.48C149.668 283.227 149.521 283.88 149.228 284.44C148.934 285 148.521 285.433 147.988 285.74C147.468 286.047 146.854 286.2 146.148 286.2C145.441 286.2 144.821 286.047 144.288 285.74C143.754 285.433 143.341 285 143.048 284.44C142.768 283.88 142.628 283.227 142.628 282.48C142.628 281.733 142.768 281.087 143.048 280.54C143.341 279.98 143.754 279.547 144.288 279.24C144.821 278.92 145.441 278.76 146.148 278.76ZM146.148 280.68C145.841 280.68 145.581 280.753 145.368 280.9C145.168 281.033 145.014 281.233 144.908 281.5C144.801 281.767 144.748 282.093 144.748 282.48C144.748 282.853 144.801 283.18 144.908 283.46C145.014 283.74 145.168 283.953 145.368 284.1C145.581 284.233 145.841 284.3 146.148 284.3C146.454 284.3 146.708 284.233 146.908 284.1C147.121 283.953 147.281 283.74 147.388 283.46C147.494 283.18 147.548 282.853 147.548 282.48C147.548 282.093 147.494 281.767 147.388 281.5C147.281 281.233 147.121 281.033 146.908 280.9C146.708 280.753 146.454 280.68 146.148 280.68Z" fill="#364254"/>
<path opacity="0.2" d="M364.271 291.8V294.02H359.851V305H357.091V294.02H352.651V291.8H364.271ZM370.091 298.62C370.091 298.047 369.925 297.6 369.591 297.28C369.271 296.96 368.845 296.8 368.311 296.8C367.818 296.8 367.385 296.927 367.011 297.18C366.638 297.433 366.365 297.853 366.191 298.44L363.851 297.72C364.078 296.84 364.571 296.133 365.331 295.6C366.105 295.067 367.138 294.8 368.431 294.8C369.311 294.8 370.078 294.94 370.731 295.22C371.385 295.487 371.891 295.893 372.251 296.44C372.625 296.987 372.811 297.673 372.811 298.5V302.56C372.811 303.067 373.051 303.32 373.531 303.32C373.758 303.32 373.971 303.287 374.171 303.22L374.011 304.92C373.665 305.093 373.231 305.18 372.711 305.18C372.245 305.18 371.825 305.1 371.451 304.94C371.078 304.78 370.785 304.54 370.571 304.22C370.358 303.887 370.251 303.473 370.251 302.98V302.9L370.731 302.82C370.651 303.327 370.431 303.76 370.071 304.12C369.711 304.467 369.271 304.733 368.751 304.92C368.245 305.107 367.718 305.2 367.171 305.2C366.491 305.2 365.905 305.1 365.411 304.9C364.918 304.687 364.538 304.38 364.271 303.98C364.005 303.58 363.871 303.087 363.871 302.5C363.871 301.753 364.111 301.147 364.591 300.68C365.071 300.2 365.758 299.873 366.651 299.7L370.411 298.94L370.391 300.64L367.991 301.12C367.538 301.213 367.191 301.34 366.951 301.5C366.725 301.647 366.611 301.893 366.611 302.24C366.611 302.573 366.731 302.827 366.971 303C367.225 303.173 367.525 303.26 367.871 303.26C368.151 303.26 368.425 303.227 368.691 303.16C368.958 303.093 369.198 302.987 369.411 302.84C369.625 302.693 369.791 302.493 369.911 302.24C370.031 301.987 370.091 301.68 370.091 301.32V298.62ZM378.096 295L380.736 299.38L381.476 299.36L385.476 305H382.296L379.576 300.52L378.756 300.44L374.896 295H378.096ZM385.416 295L381.556 300.38L380.736 300.32L377.816 305H374.716L378.856 299.32L379.636 299.42L382.296 295H385.416ZM392.826 298.62C392.826 298.047 392.659 297.6 392.326 297.28C392.006 296.96 391.579 296.8 391.046 296.8C390.552 296.8 390.119 296.927 389.746 297.18C389.372 297.433 389.099 297.853 388.926 298.44L386.586 297.72C386.812 296.84 387.306 296.133 388.066 295.6C388.839 295.067 389.872 294.8 391.166 294.8C392.046 294.8 392.812 294.94 393.466 295.22C394.119 295.487 394.626 295.893 394.986 296.44C395.359 296.987 395.546 297.673 395.546 298.5V302.56C395.546 303.067 395.786 303.32 396.266 303.32C396.492 303.32 396.706 303.287 396.906 303.22L396.746 304.92C396.399 305.093 395.966 305.18 395.446 305.18C394.979 305.18 394.559 305.1 394.186 304.94C393.812 304.78 393.519 304.54 393.306 304.22C393.092 303.887 392.986 303.473 392.986 302.98V302.9L393.466 302.82C393.386 303.327 393.166 303.76 392.806 304.12C392.446 304.467 392.006 304.733 391.486 304.92C390.979 305.107 390.452 305.2 389.906 305.2C389.226 305.2 388.639 305.1 388.146 304.9C387.652 304.687 387.272 304.38 387.006 303.98C386.739 303.58 386.606 303.087 386.606 302.5C386.606 301.753 386.846 301.147 387.326 300.68C387.806 300.2 388.492 299.873 389.386 299.7L393.146 298.94L393.126 300.64L390.726 301.12C390.272 301.213 389.926 301.34 389.686 301.5C389.459 301.647 389.346 301.893 389.346 302.24C389.346 302.573 389.466 302.827 389.706 303C389.959 303.173 390.259 303.26 390.606 303.26C390.886 303.26 391.159 303.227 391.426 303.16C391.692 303.093 391.932 302.987 392.146 302.84C392.359 302.693 392.526 302.493 392.646 302.24C392.766 301.987 392.826 301.68 392.826 301.32V298.62ZM410.27 291.8C411.283 291.8 412.15 291.973 412.87 292.32C413.59 292.653 414.143 293.14 414.53 293.78C414.93 294.407 415.13 295.167 415.13 296.06C415.13 296.953 414.93 297.72 414.53 298.36C414.143 298.987 413.59 299.473 412.87 299.82C412.15 300.153 411.283 300.32 410.27 300.32H407.49V305H404.73V291.8H410.27ZM409.85 298.14C410.676 298.14 411.296 297.967 411.71 297.62C412.123 297.26 412.33 296.74 412.33 296.06C412.33 295.367 412.123 294.847 411.71 294.5C411.296 294.153 410.676 293.98 409.85 293.98H407.49V298.14H409.85ZM421.766 305.2C420.712 305.2 419.792 304.993 419.006 304.58C418.232 304.167 417.632 303.573 417.206 302.8C416.779 302.027 416.566 301.093 416.566 300C416.566 298.907 416.779 297.973 417.206 297.2C417.632 296.427 418.226 295.833 418.986 295.42C419.759 295.007 420.639 294.8 421.626 294.8C422.639 294.8 423.499 295.007 424.206 295.42C424.912 295.82 425.452 296.373 425.826 297.08C426.199 297.773 426.386 298.567 426.386 299.46C426.386 299.727 426.379 299.98 426.366 300.22C426.352 300.46 426.332 300.673 426.306 300.86H418.326V298.96H425.106L423.786 299.44C423.786 298.6 423.592 297.953 423.206 297.5C422.832 297.047 422.299 296.82 421.606 296.82C421.099 296.82 420.659 296.94 420.286 297.18C419.926 297.42 419.652 297.78 419.466 298.26C419.279 298.727 419.186 299.32 419.186 300.04C419.186 300.747 419.286 301.333 419.486 301.8C419.699 302.253 419.992 302.593 420.366 302.82C420.752 303.047 421.212 303.16 421.746 303.16C422.332 303.16 422.806 303.047 423.166 302.82C423.526 302.593 423.806 302.28 424.006 301.88L426.186 302.72C425.972 303.24 425.646 303.687 425.206 304.06C424.779 304.433 424.266 304.72 423.666 304.92C423.079 305.107 422.446 305.2 421.766 305.2ZM428.708 305V295H431.088L431.268 296.96C431.534 296.267 431.921 295.733 432.428 295.36C432.948 294.987 433.594 294.8 434.368 294.8C434.594 294.8 434.801 294.82 434.988 294.86C435.174 294.9 435.328 294.953 435.448 295.02L435.128 297.32C434.994 297.267 434.828 297.227 434.628 297.2C434.441 297.173 434.194 297.16 433.888 297.16C433.488 297.16 433.101 297.26 432.728 297.46C432.354 297.647 432.048 297.94 431.808 298.34C431.568 298.727 431.448 299.22 431.448 299.82V305H428.708ZM440.73 305.2C439.903 305.2 439.163 304.993 438.51 304.58C437.87 304.167 437.363 303.573 436.99 302.8C436.63 302.027 436.45 301.1 436.45 300.02C436.45 298.913 436.643 297.973 437.03 297.2C437.416 296.413 437.936 295.82 438.59 295.42C439.256 295.007 440.003 294.8 440.83 294.8C441.71 294.8 442.436 295.053 443.01 295.56C443.583 296.067 443.956 296.72 444.13 297.52L443.87 297.84V290.62H446.61V305H444.15L443.97 301.96L444.29 302.12C444.21 302.747 444.003 303.293 443.67 303.76C443.336 304.213 442.916 304.567 442.41 304.82C441.903 305.073 441.343 305.2 440.73 305.2ZM441.53 303.1C442.01 303.1 442.423 302.98 442.77 302.74C443.116 302.487 443.383 302.12 443.57 301.64C443.77 301.16 443.87 300.587 443.87 299.92C443.87 299.28 443.776 298.74 443.59 298.3C443.403 297.847 443.136 297.5 442.79 297.26C442.443 297.02 442.036 296.9 441.57 296.9C440.823 296.9 440.236 297.167 439.81 297.7C439.396 298.22 439.19 298.987 439.19 300C439.19 301.013 439.396 301.787 439.81 302.32C440.223 302.84 440.796 303.1 441.53 303.1ZM454.129 305.2C453.075 305.2 452.155 304.993 451.369 304.58C450.595 304.167 449.995 303.573 449.569 302.8C449.142 302.027 448.929 301.093 448.929 300C448.929 298.907 449.142 297.973 449.569 297.2C449.995 296.427 450.589 295.833 451.349 295.42C452.122 295.007 453.002 294.8 453.989 294.8C455.002 294.8 455.862 295.007 456.569 295.42C457.275 295.82 457.815 296.373 458.189 297.08C458.562 297.773 458.749 298.567 458.749 299.46C458.749 299.727 458.742 299.98 458.729 300.22C458.715 300.46 458.695 300.673 458.669 300.86H450.689V298.96H457.469L456.149 299.44C456.149 298.6 455.955 297.953 455.569 297.5C455.195 297.047 454.662 296.82 453.969 296.82C453.462 296.82 453.022 296.94 452.649 297.18C452.289 297.42 452.015 297.78 451.829 298.26C451.642 298.727 451.549 299.32 451.549 300.04C451.549 300.747 451.649 301.333 451.849 301.8C452.062 302.253 452.355 302.593 452.729 302.82C453.115 303.047 453.575 303.16 454.109 303.16C454.695 303.16 455.169 303.047 455.529 302.82C455.889 302.593 456.169 302.28 456.369 301.88L458.549 302.72C458.335 303.24 458.009 303.687 457.569 304.06C457.142 304.433 456.629 304.72 456.029 304.92C455.442 305.107 454.809 305.2 454.129 305.2ZM464.851 305.2C464.024 305.2 463.284 304.993 462.631 304.58C461.991 304.167 461.484 303.573 461.111 302.8C460.751 302.027 460.571 301.1 460.571 300.02C460.571 298.913 460.764 297.973 461.151 297.2C461.538 296.413 462.058 295.82 462.711 295.42C463.378 295.007 464.124 294.8 464.951 294.8C465.831 294.8 466.558 295.053 467.131 295.56C467.704 296.067 468.078 296.72 468.251 297.52L467.991 297.84V290.62H470.731V305H468.271L468.091 301.96L468.411 302.12C468.331 302.747 468.124 303.293 467.791 303.76C467.458 304.213 467.038 304.567 466.531 304.82C466.024 305.073 465.464 305.2 464.851 305.2ZM465.651 303.1C466.131 303.1 466.544 302.98 466.891 302.74C467.238 302.487 467.504 302.12 467.691 301.64C467.891 301.16 467.991 300.587 467.991 299.92C467.991 299.28 467.898 298.74 467.711 298.3C467.524 297.847 467.258 297.5 466.911 297.26C466.564 297.02 466.158 296.9 465.691 296.9C464.944 296.9 464.358 297.167 463.931 297.7C463.518 298.22 463.311 298.987 463.311 300C463.311 301.013 463.518 301.787 463.931 302.32C464.344 302.84 464.918 303.1 465.651 303.1ZM478.17 294.8C479.183 294.8 480.07 295.007 480.83 295.42C481.603 295.833 482.203 296.427 482.63 297.2C483.07 297.973 483.29 298.907 483.29 300C483.29 301.08 483.07 302.013 482.63 302.8C482.203 303.573 481.603 304.167 480.83 304.58C480.07 304.993 479.183 305.2 478.17 305.2C477.17 305.2 476.283 304.993 475.51 304.58C474.737 304.167 474.13 303.573 473.69 302.8C473.263 302.013 473.05 301.08 473.05 300C473.05 298.907 473.263 297.973 473.69 297.2C474.13 296.427 474.737 295.833 475.51 295.42C476.283 295.007 477.17 294.8 478.17 294.8ZM478.17 296.84C477.663 296.84 477.23 296.96 476.87 297.2C476.523 297.427 476.257 297.773 476.07 298.24C475.883 298.707 475.79 299.293 475.79 300C475.79 300.707 475.883 301.293 476.07 301.76C476.257 302.227 476.523 302.58 476.87 302.82C477.23 303.047 477.663 303.16 478.17 303.16C478.663 303.16 479.083 303.047 479.43 302.82C479.79 302.58 480.063 302.227 480.25 301.76C480.437 301.293 480.53 300.707 480.53 300C480.53 299.293 480.437 298.707 480.25 298.24C480.063 297.773 479.79 297.427 479.43 297.2C479.083 296.96 478.663 296.84 478.17 296.84ZM485.583 305V295H487.963L488.143 296.96C488.409 296.267 488.796 295.733 489.303 295.36C489.823 294.987 490.469 294.8 491.243 294.8C491.469 294.8 491.676 294.82 491.863 294.86C492.049 294.9 492.203 294.953 492.323 295.02L492.003 297.32C491.869 297.267 491.703 297.227 491.503 297.2C491.316 297.173 491.069 297.16 490.763 297.16C490.363 297.16 489.976 297.26 489.603 297.46C489.229 297.647 488.923 297.94 488.683 298.34C488.443 298.727 488.323 299.22 488.323 299.82V305H485.583ZM499.544 298.62C499.544 298.047 499.378 297.6 499.044 297.28C498.724 296.96 498.298 296.8 497.764 296.8C497.271 296.8 496.838 296.927 496.464 297.18C496.091 297.433 495.818 297.853 495.644 298.44L493.304 297.72C493.531 296.84 494.024 296.133 494.784 295.6C495.558 295.067 496.591 294.8 497.884 294.8C498.764 294.8 499.531 294.94 500.184 295.22C500.838 295.487 501.344 295.893 501.704 296.44C502.078 296.987 502.264 297.673 502.264 298.5V302.56C502.264 303.067 502.504 303.32 502.984 303.32C503.211 303.32 503.424 303.287 503.624 303.22L503.464 304.92C503.118 305.093 502.684 305.18 502.164 305.18C501.698 305.18 501.278 305.1 500.904 304.94C500.531 304.78 500.238 304.54 500.024 304.22C499.811 303.887 499.704 303.473 499.704 302.98V302.9L500.184 302.82C500.104 303.327 499.884 303.76 499.524 304.12C499.164 304.467 498.724 304.733 498.204 304.92C497.698 305.107 497.171 305.2 496.624 305.2C495.944 305.2 495.358 305.1 494.864 304.9C494.371 304.687 493.991 304.38 493.724 303.98C493.458 303.58 493.324 303.087 493.324 302.5C493.324 301.753 493.564 301.147 494.044 300.68C494.524 300.2 495.211 299.873 496.104 299.7L499.864 298.94L499.844 300.64L497.444 301.12C496.991 301.213 496.644 301.34 496.404 301.5C496.178 301.647 496.064 301.893 496.064 302.24C496.064 302.573 496.184 302.827 496.424 303C496.678 303.173 496.978 303.26 497.324 303.26C497.604 303.26 497.878 303.227 498.144 303.16C498.411 303.093 498.651 302.987 498.864 302.84C499.078 302.693 499.244 302.493 499.364 302.24C499.484 301.987 499.544 301.68 499.544 301.32V298.62ZM403.708 329V320.64C403.708 320.333 403.708 320.02 403.708 319.7C403.721 319.367 403.734 319.027 403.748 318.68C403.294 319.093 402.788 319.453 402.228 319.76C401.668 320.067 401.094 320.28 400.508 320.4L400.148 318.08C400.454 318.053 400.794 317.967 401.168 317.82C401.554 317.66 401.941 317.473 402.328 317.26C402.728 317.033 403.088 316.8 403.408 316.56C403.741 316.307 403.994 316.053 404.168 315.8H406.408V329H403.708ZM410.908 325.94C411.441 325.94 411.861 326.087 412.168 326.38C412.488 326.673 412.648 327.067 412.648 327.56C412.648 328.067 412.488 328.467 412.168 328.76C411.861 329.04 411.441 329.18 410.908 329.18C410.375 329.18 409.948 329.04 409.628 328.76C409.321 328.467 409.168 328.067 409.168 327.56C409.168 327.067 409.321 326.673 409.628 326.38C409.948 326.087 410.375 325.94 410.908 325.94ZM419.433 329.2C418.273 329.2 417.293 328.96 416.493 328.48C415.706 328 415.06 327.267 414.553 326.28L417.033 325.04C417.206 325.627 417.48 326.1 417.853 326.46C418.226 326.82 418.773 327 419.493 327C419.986 327 420.406 326.913 420.753 326.74C421.1 326.567 421.366 326.313 421.553 325.98C421.753 325.647 421.853 325.24 421.853 324.76C421.853 324.28 421.76 323.88 421.573 323.56C421.4 323.227 421.146 322.98 420.813 322.82C420.48 322.647 420.06 322.56 419.553 322.56C419.206 322.56 418.88 322.593 418.573 322.66C418.28 322.727 418.013 322.833 417.773 322.98C417.533 323.113 417.32 323.293 417.133 323.52L414.973 323.12L415.793 315.8H423.773V318.02H417.873L417.473 321.24L417.413 321.5H417.453C417.733 321.18 418.113 320.933 418.593 320.76C419.086 320.587 419.646 320.5 420.273 320.5C421.14 320.5 421.88 320.673 422.493 321.02C423.106 321.367 423.58 321.853 423.913 322.48C424.246 323.093 424.413 323.8 424.413 324.6C424.413 325.36 424.286 326.033 424.033 326.62C423.78 327.193 423.42 327.673 422.953 328.06C422.5 328.433 421.973 328.72 421.373 328.92C420.773 329.107 420.126 329.2 419.433 329.2ZM431.714 329.2C430.02 329.2 428.714 328.627 427.794 327.48C426.887 326.333 426.434 324.64 426.434 322.4C426.434 320.16 426.887 318.467 427.794 317.32C428.714 316.173 430.02 315.6 431.714 315.6C433.407 315.6 434.707 316.173 435.614 317.32C436.534 318.467 436.994 320.16 436.994 322.4C436.994 324.64 436.534 326.333 435.614 327.48C434.707 328.627 433.407 329.2 431.714 329.2ZM431.714 326.98C432.287 326.98 432.754 326.82 433.114 326.5C433.487 326.167 433.767 325.667 433.954 325C434.14 324.32 434.234 323.453 434.234 322.4C434.234 321.347 434.14 320.487 433.954 319.82C433.767 319.14 433.487 318.64 433.114 318.32C432.754 317.987 432.287 317.82 431.714 317.82C431.14 317.82 430.667 317.987 430.294 318.32C429.92 318.64 429.64 319.14 429.454 319.82C429.28 320.487 429.194 321.347 429.194 322.4C429.194 323.453 429.28 324.32 429.454 325C429.64 325.667 429.92 326.167 430.294 326.5C430.667 326.82 431.14 326.98 431.714 326.98ZM441.608 329L450.508 315.8H452.708L443.808 329H441.608ZM442.268 315.6C442.988 315.6 443.608 315.753 444.128 316.06C444.662 316.367 445.068 316.8 445.348 317.36C445.642 317.92 445.788 318.573 445.788 319.32C445.788 320.067 445.642 320.72 445.348 321.28C445.068 321.827 444.662 322.26 444.128 322.58C443.608 322.887 442.988 323.04 442.268 323.04C441.562 323.04 440.942 322.887 440.408 322.58C439.875 322.26 439.462 321.827 439.168 321.28C438.888 320.72 438.748 320.067 438.748 319.32C438.748 318.573 438.888 317.92 439.168 317.36C439.462 316.8 439.875 316.367 440.408 316.06C440.942 315.753 441.562 315.6 442.268 315.6ZM442.268 317.5C441.975 317.5 441.722 317.573 441.508 317.72C441.295 317.853 441.135 318.06 441.028 318.34C440.922 318.607 440.868 318.933 440.868 319.32C440.868 319.693 440.922 320.02 441.028 320.3C441.135 320.567 441.295 320.773 441.508 320.92C441.722 321.053 441.975 321.12 442.268 321.12C442.575 321.12 442.828 321.053 443.028 320.92C443.242 320.773 443.402 320.567 443.508 320.3C443.615 320.02 443.668 319.693 443.668 319.32C443.668 318.933 443.615 318.607 443.508 318.34C443.402 318.06 443.242 317.853 443.028 317.72C442.828 317.573 442.575 317.5 442.268 317.5ZM452.028 321.76C452.735 321.76 453.348 321.92 453.868 322.24C454.402 322.547 454.815 322.98 455.108 323.54C455.402 324.087 455.548 324.733 455.548 325.48C455.548 326.227 455.402 326.88 455.108 327.44C454.815 328 454.402 328.433 453.868 328.74C453.348 329.047 452.735 329.2 452.028 329.2C451.322 329.2 450.702 329.047 450.168 328.74C449.635 328.433 449.222 328 448.928 327.44C448.648 326.88 448.508 326.227 448.508 325.48C448.508 324.733 448.648 324.087 448.928 323.54C449.222 322.98 449.635 322.547 450.168 322.24C450.702 321.92 451.322 321.76 452.028 321.76ZM452.028 323.68C451.722 323.68 451.462 323.753 451.248 323.9C451.048 324.033 450.895 324.233 450.788 324.5C450.682 324.767 450.628 325.093 450.628 325.48C450.628 325.853 450.682 326.18 450.788 326.46C450.895 326.74 451.048 326.953 451.248 327.1C451.462 327.233 451.722 327.3 452.028 327.3C452.335 327.3 452.588 327.233 452.788 327.1C453.002 326.953 453.162 326.74 453.268 326.46C453.375 326.18 453.428 325.853 453.428 325.48C453.428 325.093 453.375 324.767 453.268 324.5C453.162 324.233 453.002 324.033 452.788 323.9C452.588 323.753 452.335 323.68 452.028 323.68Z" fill="#364254"/>
<rect opacity="0.5" x="88.5" y="171.5" width="63" height="63" rx="23.5" fill="#EBFFF8" stroke="url(#paint0_radial)"/>
<rect opacity="0.5" x="395.5" y="214.5" width="63" height="63" rx="23.5" fill="#EBFFF8" stroke="url(#paint1_radial)"/>
<rect x="96" y="179" width="48" height="48" rx="16" fill="#FA3838"/>
<rect x="403" y="222" width="48" height="48" rx="16" fill="#FA3838"/>
<rect x="72.5" y="0.5" width="319" height="215" rx="23.5" fill="#EBFFF8" stroke="#00875A"/>
<rect opacity="0.5" x="200.5" y="24.5" width="63" height="63" rx="23.5" fill="#EBFFF8" stroke="url(#paint2_radial)"/>
<rect x="208" y="32" width="48" height="48" rx="16" fill="#00875A"/>
<path d="M229.667 62.6666H227.667C227.313 62.6666 226.974 62.5262 226.724 62.2761C226.474 62.0261 226.333 61.6869 226.333 61.3333V56.6666C226.333 56.313 226.474 55.9739 226.724 55.7238C226.974 55.4738 227.313 55.3333 227.667 55.3333H229.667M234.333 54V51.3333C234.333 50.8029 234.123 50.2942 233.748 49.9191C233.372 49.544 232.864 49.3333 232.333 49.3333L229.667 55.3333V62.6666H237.187C237.508 62.6703 237.82 62.5576 238.065 62.3493C238.31 62.141 238.472 61.8512 238.52 61.5333L239.44 55.5333C239.469 55.3422 239.456 55.1471 239.402 54.9615C239.348 54.7759 239.255 54.6042 239.128 54.4583C239.001 54.3125 238.844 54.1959 238.668 54.1168C238.491 54.0376 238.3 53.9978 238.107 54H234.333Z" stroke="#EBFFF8" stroke-linecap="round" stroke-linejoin="round"/>
<path d="M424.667 239.333H422.667C422.313 239.333 421.974 239.474 421.724 239.724C421.474 239.974 421.333 240.313 421.333 240.667V245.333C421.333 245.687 421.474 246.026 421.724 246.276C421.974 246.526 422.313 246.667 422.667 246.667H424.667M429.333 248V250.667C429.333 251.197 429.123 251.706 428.748 252.081C428.372 252.456 427.864 252.667 427.333 252.667L424.667 246.667V239.333H432.187C432.508 239.33 432.82 239.442 433.065 239.651C433.31 239.859 433.472 240.149 433.52 240.467L434.44 246.467C434.469 246.658 434.456 246.853 434.402 247.039C434.348 247.224 434.255 247.396 434.128 247.542C434.001 247.688 433.844 247.804 433.668 247.883C433.491 247.962 433.3 248.002 433.107 248H429.333Z" stroke="#FFECEC" stroke-linecap="round" stroke-linejoin="round"/>
<g opacity="0.3">
<path opacity="0.2" d="M211.955 365.02V366.833H208.345V375.8H206.091V366.833H202.465V365.02H211.955ZM216.708 370.59C216.708 370.121 216.572 369.757 216.299 369.495C216.038 369.234 215.69 369.103 215.254 369.103C214.851 369.103 214.497 369.207 214.192 369.414C213.888 369.621 213.664 369.964 213.523 370.443L211.612 369.855C211.797 369.136 212.2 368.559 212.82 368.123C213.452 367.688 214.296 367.47 215.352 367.47C216.071 367.47 216.697 367.584 217.23 367.813C217.764 368.031 218.178 368.363 218.472 368.809C218.777 369.256 218.929 369.817 218.929 370.492V373.807C218.929 374.221 219.125 374.428 219.517 374.428C219.702 374.428 219.876 374.401 220.04 374.346L219.909 375.735C219.626 375.876 219.272 375.947 218.847 375.947C218.466 375.947 218.123 375.882 217.818 375.751C217.514 375.62 217.274 375.424 217.1 375.163C216.926 374.891 216.838 374.553 216.838 374.15V374.085L217.23 374.02C217.165 374.433 216.985 374.787 216.691 375.081C216.397 375.364 216.038 375.582 215.613 375.735C215.2 375.887 214.77 375.963 214.323 375.963C213.768 375.963 213.289 375.882 212.886 375.718C212.483 375.544 212.173 375.294 211.955 374.967C211.737 374.64 211.628 374.237 211.628 373.758C211.628 373.149 211.824 372.653 212.216 372.272C212.608 371.88 213.169 371.613 213.898 371.472L216.969 370.851L216.953 372.239L214.993 372.631C214.623 372.708 214.339 372.811 214.143 372.942C213.958 373.061 213.866 373.263 213.866 373.546C213.866 373.818 213.964 374.025 214.16 374.167C214.367 374.308 214.612 374.379 214.895 374.379C215.123 374.379 215.347 374.352 215.564 374.297C215.782 374.243 215.978 374.156 216.152 374.036C216.327 373.916 216.463 373.753 216.561 373.546C216.659 373.339 216.708 373.089 216.708 372.795V370.59ZM223.245 367.633L225.401 371.21L226.005 371.194L229.272 375.8H226.675L224.453 372.141L223.784 372.076L220.631 367.633H223.245ZM229.223 367.633L226.07 372.027L225.401 371.978L223.016 375.8H220.484L223.865 371.161L224.502 371.243L226.675 367.633H229.223ZM235.274 370.59C235.274 370.121 235.138 369.757 234.866 369.495C234.605 369.234 234.256 369.103 233.821 369.103C233.418 369.103 233.064 369.207 232.759 369.414C232.454 369.621 232.231 369.964 232.089 370.443L230.178 369.855C230.363 369.136 230.766 368.559 231.387 368.123C232.018 367.688 232.862 367.47 233.919 367.47C234.637 367.47 235.263 367.584 235.797 367.813C236.33 368.031 236.744 368.363 237.038 368.809C237.343 369.256 237.496 369.817 237.496 370.492V373.807C237.496 374.221 237.692 374.428 238.084 374.428C238.269 374.428 238.443 374.401 238.606 374.346L238.476 375.735C238.192 375.876 237.839 375.947 237.414 375.947C237.033 375.947 236.69 375.882 236.385 375.751C236.08 375.62 235.84 375.424 235.666 375.163C235.492 374.891 235.405 374.553 235.405 374.15V374.085L235.797 374.02C235.732 374.433 235.552 374.787 235.258 375.081C234.964 375.364 234.605 375.582 234.18 375.735C233.766 375.887 233.336 375.963 232.89 375.963C232.334 375.963 231.855 375.882 231.452 375.718C231.049 375.544 230.739 375.294 230.521 374.967C230.303 374.64 230.195 374.237 230.195 373.758C230.195 373.149 230.391 372.653 230.783 372.272C231.175 371.88 231.735 371.613 232.465 371.472L235.536 370.851L235.519 372.239L233.559 372.631C233.189 372.708 232.906 372.811 232.71 372.942C232.525 373.061 232.432 373.263 232.432 373.546C232.432 373.818 232.53 374.025 232.726 374.167C232.933 374.308 233.178 374.379 233.461 374.379C233.69 374.379 233.913 374.352 234.131 374.297C234.349 374.243 234.545 374.156 234.719 374.036C234.893 373.916 235.029 373.753 235.127 373.546C235.225 373.339 235.274 373.089 235.274 372.795V370.59ZM249.52 365.02C250.348 365.02 251.056 365.162 251.644 365.445C252.232 365.717 252.684 366.114 252.999 366.637C253.326 367.149 253.489 367.769 253.489 368.499C253.489 369.229 253.326 369.855 252.999 370.377C252.684 370.889 252.232 371.287 251.644 371.57C251.056 371.842 250.348 371.978 249.52 371.978H247.25V375.8H244.996V365.02H249.52ZM249.177 370.198C249.852 370.198 250.359 370.056 250.696 369.773C251.034 369.479 251.203 369.054 251.203 368.499C251.203 367.933 251.034 367.508 250.696 367.225C250.359 366.942 249.852 366.8 249.177 366.8H247.25V370.198H249.177ZM258.909 375.963C258.048 375.963 257.297 375.795 256.655 375.457C256.023 375.119 255.533 374.635 255.185 374.003C254.836 373.372 254.662 372.61 254.662 371.717C254.662 370.824 254.836 370.062 255.185 369.43C255.533 368.798 256.018 368.314 256.638 367.976C257.27 367.639 257.988 367.47 258.794 367.47C259.622 367.47 260.324 367.639 260.901 367.976C261.478 368.303 261.919 368.755 262.224 369.332C262.529 369.898 262.682 370.546 262.682 371.276C262.682 371.493 262.676 371.7 262.665 371.896C262.654 372.092 262.638 372.267 262.616 372.419H256.099V370.867H261.636L260.558 371.259C260.558 370.573 260.4 370.045 260.085 369.675C259.78 369.305 259.344 369.12 258.778 369.12C258.364 369.12 258.005 369.218 257.7 369.414C257.406 369.61 257.183 369.904 257.03 370.296C256.878 370.677 256.802 371.161 256.802 371.749C256.802 372.326 256.883 372.806 257.047 373.187C257.221 373.557 257.46 373.835 257.765 374.02C258.081 374.205 258.457 374.297 258.892 374.297C259.371 374.297 259.758 374.205 260.052 374.02C260.346 373.835 260.575 373.579 260.738 373.252L262.518 373.938C262.344 374.363 262.077 374.727 261.718 375.032C261.369 375.337 260.95 375.571 260.46 375.735C259.981 375.887 259.464 375.963 258.909 375.963ZM264.578 375.8V367.633H266.522L266.669 369.234C266.886 368.668 267.202 368.232 267.616 367.927C268.041 367.622 268.569 367.47 269.2 367.47C269.385 367.47 269.554 367.486 269.707 367.519C269.859 367.552 269.984 367.595 270.082 367.65L269.821 369.528C269.712 369.484 269.576 369.452 269.413 369.43C269.26 369.408 269.059 369.397 268.808 369.397C268.482 369.397 268.166 369.479 267.861 369.642C267.556 369.795 267.306 370.034 267.11 370.361C266.914 370.677 266.816 371.08 266.816 371.57V375.8H264.578ZM274.396 375.963C273.721 375.963 273.117 375.795 272.583 375.457C272.06 375.119 271.647 374.635 271.342 374.003C271.048 373.372 270.901 372.615 270.901 371.733C270.901 370.829 271.059 370.062 271.374 369.43C271.69 368.788 272.115 368.303 272.648 367.976C273.193 367.639 273.803 367.47 274.478 367.47C275.196 367.47 275.79 367.677 276.258 368.091C276.726 368.504 277.031 369.038 277.173 369.691L276.96 369.953V364.056H279.198V375.8H277.189L277.042 373.317L277.303 373.448C277.238 373.96 277.069 374.406 276.797 374.787C276.525 375.158 276.182 375.446 275.768 375.653C275.354 375.86 274.897 375.963 274.396 375.963ZM275.049 374.248C275.441 374.248 275.779 374.15 276.062 373.954C276.345 373.747 276.563 373.448 276.715 373.056C276.879 372.664 276.96 372.196 276.96 371.651C276.96 371.129 276.884 370.688 276.732 370.328C276.579 369.958 276.361 369.675 276.078 369.479C275.795 369.283 275.463 369.185 275.082 369.185C274.472 369.185 273.993 369.403 273.645 369.838C273.307 370.263 273.138 370.889 273.138 371.717C273.138 372.544 273.307 373.176 273.645 373.611C273.982 374.036 274.45 374.248 275.049 374.248ZM285.339 375.963C284.478 375.963 283.727 375.795 283.085 375.457C282.453 375.119 281.963 374.635 281.615 374.003C281.266 373.372 281.092 372.61 281.092 371.717C281.092 370.824 281.266 370.062 281.615 369.43C281.963 368.798 282.448 368.314 283.068 367.976C283.7 367.639 284.418 367.47 285.224 367.47C286.052 367.47 286.754 367.639 287.331 367.976C287.908 368.303 288.349 368.755 288.654 369.332C288.959 369.898 289.112 370.546 289.112 371.276C289.112 371.493 289.106 371.7 289.095 371.896C289.084 372.092 289.068 372.267 289.046 372.419H282.529V370.867H288.066L286.988 371.259C286.988 370.573 286.83 370.045 286.515 369.675C286.21 369.305 285.774 369.12 285.208 369.12C284.794 369.12 284.435 369.218 284.13 369.414C283.836 369.61 283.613 369.904 283.46 370.296C283.308 370.677 283.232 371.161 283.232 371.749C283.232 372.326 283.313 372.806 283.477 373.187C283.651 373.557 283.89 373.835 284.195 374.02C284.511 374.205 284.887 374.297 285.322 374.297C285.801 374.297 286.188 374.205 286.482 374.02C286.776 373.835 287.005 373.579 287.168 373.252L288.948 373.938C288.774 374.363 288.507 374.727 288.148 375.032C287.799 375.337 287.38 375.571 286.89 375.735C286.411 375.887 285.894 375.963 285.339 375.963ZM294.095 375.963C293.42 375.963 292.815 375.795 292.282 375.457C291.759 375.119 291.345 374.635 291.041 374.003C290.747 373.372 290.6 372.615 290.6 371.733C290.6 370.829 290.757 370.062 291.073 369.43C291.389 368.788 291.814 368.303 292.347 367.976C292.892 367.639 293.501 367.47 294.177 367.47C294.895 367.47 295.489 367.677 295.957 368.091C296.425 368.504 296.73 369.038 296.872 369.691L296.659 369.953V364.056H298.897V375.8H296.888L296.741 373.317L297.002 373.448C296.937 373.96 296.768 374.406 296.496 374.787C296.224 375.158 295.881 375.446 295.467 375.653C295.053 375.86 294.596 375.963 294.095 375.963ZM294.748 374.248C295.14 374.248 295.478 374.15 295.761 373.954C296.044 373.747 296.262 373.448 296.414 373.056C296.578 372.664 296.659 372.196 296.659 371.651C296.659 371.129 296.583 370.688 296.431 370.328C296.278 369.958 296.06 369.675 295.777 369.479C295.494 369.283 295.162 369.185 294.781 369.185C294.171 369.185 293.692 369.403 293.344 369.838C293.006 370.263 292.837 370.889 292.837 371.717C292.837 372.544 293.006 373.176 293.344 373.611C293.681 374.036 294.149 374.248 294.748 374.248ZM304.972 367.47C305.8 367.47 306.524 367.639 307.144 367.976C307.776 368.314 308.266 368.798 308.614 369.43C308.974 370.062 309.153 370.824 309.153 371.717C309.153 372.599 308.974 373.361 308.614 374.003C308.266 374.635 307.776 375.119 307.144 375.457C306.524 375.795 305.8 375.963 304.972 375.963C304.155 375.963 303.431 375.795 302.8 375.457C302.168 375.119 301.673 374.635 301.313 374.003C300.965 373.361 300.791 372.599 300.791 371.717C300.791 370.824 300.965 370.062 301.313 369.43C301.673 368.798 302.168 368.314 302.8 367.976C303.431 367.639 304.155 367.47 304.972 367.47ZM304.972 369.136C304.558 369.136 304.204 369.234 303.91 369.43C303.627 369.615 303.41 369.898 303.257 370.279C303.105 370.66 303.028 371.14 303.028 371.717C303.028 372.294 303.105 372.773 303.257 373.154C303.41 373.535 303.627 373.824 303.91 374.02C304.204 374.205 304.558 374.297 304.972 374.297C305.375 374.297 305.718 374.205 306.001 374.02C306.295 373.824 306.518 373.535 306.671 373.154C306.823 372.773 306.899 372.294 306.899 371.717C306.899 371.14 306.823 370.66 306.671 370.279C306.518 369.898 306.295 369.615 306.001 369.43C305.718 369.234 305.375 369.136 304.972 369.136ZM311.026 375.8V367.633H312.969L313.116 369.234C313.334 368.668 313.65 368.232 314.064 367.927C314.488 367.622 315.017 367.47 315.648 367.47C315.833 367.47 316.002 367.486 316.154 367.519C316.307 367.552 316.432 367.595 316.53 367.65L316.269 369.528C316.16 369.484 316.024 369.452 315.86 369.43C315.708 369.408 315.507 369.397 315.256 369.397C314.929 369.397 314.614 369.479 314.309 369.642C314.004 369.795 313.753 370.034 313.557 370.361C313.361 370.677 313.263 371.08 313.263 371.57V375.8H311.026ZM322.428 370.59C322.428 370.121 322.292 369.757 322.019 369.495C321.758 369.234 321.41 369.103 320.974 369.103C320.571 369.103 320.217 369.207 319.912 369.414C319.608 369.621 319.384 369.964 319.243 370.443L317.332 369.855C317.517 369.136 317.92 368.559 318.54 368.123C319.172 367.688 320.016 367.47 321.072 367.47C321.791 367.47 322.417 367.584 322.95 367.813C323.484 368.031 323.898 368.363 324.192 368.809C324.497 369.256 324.649 369.817 324.649 370.492V373.807C324.649 374.221 324.845 374.428 325.237 374.428C325.422 374.428 325.596 374.401 325.76 374.346L325.629 375.735C325.346 375.876 324.992 375.947 324.567 375.947C324.186 375.947 323.843 375.882 323.538 375.751C323.234 375.62 322.994 375.424 322.82 375.163C322.646 374.891 322.558 374.553 322.558 374.15V374.085L322.95 374.02C322.885 374.433 322.705 374.787 322.411 375.081C322.117 375.364 321.758 375.582 321.333 375.735C320.92 375.887 320.49 375.963 320.043 375.963C319.488 375.963 319.009 375.882 318.606 375.718C318.203 375.544 317.893 375.294 317.675 374.967C317.457 374.64 317.348 374.237 317.348 373.758C317.348 373.149 317.544 372.653 317.936 372.272C318.328 371.88 318.889 371.613 319.618 371.472L322.689 370.851L322.673 372.239L320.713 372.631C320.343 372.708 320.059 372.811 319.863 372.942C319.678 373.061 319.586 373.263 319.586 373.546C319.586 373.818 319.684 374.025 319.88 374.167C320.087 374.308 320.332 374.379 320.615 374.379C320.843 374.379 321.067 374.352 321.284 374.297C321.502 374.243 321.698 374.156 321.872 374.036C322.047 373.916 322.183 373.753 322.281 373.546C322.379 373.339 322.428 373.089 322.428 372.795V370.59ZM240.578 395.8V394.265C241.558 393.611 242.385 393.018 243.06 392.484C243.746 391.94 244.296 391.439 244.71 390.982C245.135 390.513 245.44 390.072 245.625 389.659C245.821 389.245 245.919 388.831 245.919 388.417C245.919 387.916 245.766 387.508 245.461 387.192C245.156 386.866 244.726 386.702 244.171 386.702C243.561 386.702 243.082 386.909 242.734 387.323C242.396 387.737 242.211 388.325 242.178 389.087L240.235 388.352C240.289 387.612 240.485 386.985 240.823 386.474C241.171 385.951 241.639 385.554 242.227 385.281C242.826 384.998 243.518 384.857 244.302 384.857C244.955 384.857 245.521 384.949 246 385.134C246.49 385.319 246.899 385.575 247.225 385.902C247.552 386.218 247.792 386.583 247.944 386.996C248.107 387.41 248.189 387.84 248.189 388.287C248.189 388.984 248.015 389.642 247.666 390.263C247.329 390.884 246.806 391.499 246.098 392.109C245.391 392.718 244.492 393.361 243.403 394.036V394.052C243.567 394.041 243.763 394.031 243.991 394.02C244.231 394.009 244.476 394.003 244.726 394.003C244.977 393.992 245.195 393.987 245.38 393.987H248.352V395.8H240.578ZM251.469 393.301C251.905 393.301 252.248 393.421 252.498 393.66C252.759 393.9 252.89 394.221 252.89 394.624C252.89 395.038 252.759 395.364 252.498 395.604C252.248 395.833 251.905 395.947 251.469 395.947C251.033 395.947 250.685 395.833 250.424 395.604C250.173 395.364 250.048 395.038 250.048 394.624C250.048 394.221 250.173 393.9 250.424 393.66C250.685 393.421 251.033 393.301 251.469 393.301ZM258.431 395.963C257.484 395.963 256.683 395.767 256.03 395.375C255.388 394.983 254.86 394.384 254.446 393.579L256.471 392.566C256.613 393.045 256.836 393.432 257.141 393.726C257.446 394.02 257.892 394.167 258.48 394.167C258.883 394.167 259.226 394.096 259.509 393.954C259.792 393.813 260.01 393.606 260.162 393.334C260.326 393.061 260.407 392.729 260.407 392.337C260.407 391.945 260.331 391.619 260.179 391.357C260.037 391.085 259.83 390.884 259.558 390.753C259.286 390.611 258.943 390.541 258.529 390.541C258.246 390.541 257.979 390.568 257.729 390.622C257.489 390.677 257.271 390.764 257.075 390.884C256.879 390.993 256.705 391.14 256.553 391.325L254.789 390.998L255.458 385.02H261.975V386.833H257.157L256.83 389.463L256.781 389.675H256.814C257.043 389.414 257.353 389.212 257.745 389.071C258.148 388.929 258.605 388.858 259.117 388.858C259.825 388.858 260.429 389 260.93 389.283C261.431 389.566 261.818 389.964 262.09 390.475C262.362 390.976 262.498 391.553 262.498 392.207C262.498 392.827 262.395 393.377 262.188 393.856C261.981 394.325 261.687 394.717 261.306 395.032C260.936 395.337 260.505 395.571 260.015 395.735C259.525 395.887 258.997 395.963 258.431 395.963ZM268.46 395.963C267.077 395.963 266.01 395.495 265.259 394.559C264.519 393.622 264.148 392.239 264.148 390.41C264.148 388.581 264.519 387.198 265.259 386.261C266.01 385.325 267.077 384.857 268.46 384.857C269.843 384.857 270.905 385.325 271.645 386.261C272.397 387.198 272.772 388.581 272.772 390.41C272.772 392.239 272.397 393.622 271.645 394.559C270.905 395.495 269.843 395.963 268.46 395.963ZM268.46 394.15C268.929 394.15 269.31 394.02 269.604 393.758C269.909 393.486 270.137 393.078 270.29 392.533C270.442 391.978 270.518 391.27 270.518 390.41C270.518 389.55 270.442 388.847 270.29 388.303C270.137 387.748 269.909 387.339 269.604 387.078C269.31 386.806 268.929 386.67 268.46 386.67C267.992 386.67 267.606 386.806 267.301 387.078C266.996 387.339 266.767 387.748 266.615 388.303C266.473 388.847 266.402 389.55 266.402 390.41C266.402 391.27 266.473 391.978 266.615 392.533C266.767 393.078 266.996 393.486 267.301 393.758C267.606 394.02 267.992 394.15 268.46 394.15ZM276.541 395.8L283.809 385.02H285.606L278.338 395.8H276.541ZM277.08 384.857C277.668 384.857 278.174 384.982 278.599 385.232C279.035 385.483 279.367 385.837 279.595 386.294C279.835 386.751 279.955 387.285 279.955 387.895C279.955 388.504 279.835 389.038 279.595 389.495C279.367 389.942 279.035 390.296 278.599 390.557C278.174 390.807 277.668 390.933 277.08 390.933C276.503 390.933 275.997 390.807 275.561 390.557C275.126 390.296 274.788 389.942 274.548 389.495C274.32 389.038 274.205 388.504 274.205 387.895C274.205 387.285 274.32 386.751 274.548 386.294C274.788 385.837 275.126 385.483 275.561 385.232C275.997 384.982 276.503 384.857 277.08 384.857ZM277.08 386.408C276.841 386.408 276.634 386.468 276.459 386.588C276.285 386.697 276.155 386.866 276.067 387.094C275.98 387.312 275.937 387.579 275.937 387.895C275.937 388.2 275.98 388.466 276.067 388.695C276.155 388.913 276.285 389.082 276.459 389.201C276.634 389.31 276.841 389.365 277.08 389.365C277.331 389.365 277.537 389.31 277.701 389.201C277.875 389.082 278.006 388.913 278.093 388.695C278.18 388.466 278.223 388.2 278.223 387.895C278.223 387.579 278.18 387.312 278.093 387.094C278.006 386.866 277.875 386.697 277.701 386.588C277.537 386.468 277.331 386.408 277.08 386.408ZM285.051 389.887C285.628 389.887 286.129 390.018 286.553 390.279C286.989 390.53 287.327 390.884 287.566 391.341C287.806 391.787 287.925 392.316 287.925 392.925C287.925 393.535 287.806 394.069 287.566 394.526C287.327 394.983 286.989 395.337 286.553 395.588C286.129 395.838 285.628 395.963 285.051 395.963C284.474 395.963 283.967 395.838 283.532 395.588C283.096 395.337 282.759 394.983 282.519 394.526C282.29 394.069 282.176 393.535 282.176 392.925C282.176 392.316 282.29 391.787 282.519 391.341C282.759 390.884 283.096 390.53 283.532 390.279C283.967 390.018 284.474 389.887 285.051 389.887ZM285.051 391.455C284.8 391.455 284.588 391.515 284.414 391.635C284.25 391.744 284.125 391.907 284.038 392.125C283.951 392.343 283.907 392.61 283.907 392.925C283.907 393.23 283.951 393.497 284.038 393.726C284.125 393.954 284.25 394.129 284.414 394.248C284.588 394.357 284.8 394.412 285.051 394.412C285.301 394.412 285.508 394.357 285.671 394.248C285.846 394.129 285.976 393.954 286.063 393.726C286.151 393.497 286.194 393.23 286.194 392.925C286.194 392.61 286.151 392.343 286.063 392.125C285.976 391.907 285.846 391.744 285.671 391.635C285.508 391.515 285.301 391.455 285.051 391.455Z" fill="#364254"/>
<rect opacity="0.5" x="237.458" y="302.408" width="51.45" height="51.45" rx="19.1917" fill="#EBFFF8" stroke="url(#paint3_radial)" stroke-width="0.816667"/>
<rect x="243.583" y="308.533" width="39.2" height="39.2" rx="13.0667" fill="#FA3838"/>
<g clip-path="url(#clip0)">
<path d="M261.278 322.689H259.644C259.356 322.689 259.079 322.804 258.875 323.008C258.67 323.212 258.556 323.489 258.556 323.778V327.589C258.556 327.878 258.67 328.155 258.875 328.359C259.079 328.563 259.356 328.678 259.644 328.678H261.278M265.089 329.767V331.945C265.089 332.378 264.917 332.793 264.611 333.099C264.304 333.406 263.889 333.578 263.456 333.578L261.278 328.678V322.689H267.419C267.682 322.686 267.937 322.778 268.137 322.948C268.337 323.118 268.469 323.355 268.508 323.615L269.259 328.515C269.283 328.671 269.273 328.83 269.229 328.982C269.184 329.133 269.108 329.273 269.004 329.392C268.901 329.512 268.773 329.607 268.629 329.671C268.485 329.736 268.328 329.769 268.17 329.767H265.089Z" stroke="#FFECEC" stroke-width="0.816667" stroke-linecap="round" stroke-linejoin="round"/>
</g>
</g>
<path d="M167.314 109.8V112.02H162.894V123H160.134V112.02H155.694V109.8H167.314ZM173.134 116.62C173.134 116.047 172.967 115.6 172.634 115.28C172.314 114.96 171.887 114.8 171.354 114.8C170.861 114.8 170.427 114.927 170.054 115.18C169.681 115.433 169.407 115.853 169.234 116.44L166.894 115.72C167.121 114.84 167.614 114.133 168.374 113.6C169.147 113.067 170.181 112.8 171.474 112.8C172.354 112.8 173.121 112.94 173.774 113.22C174.427 113.487 174.934 113.893 175.294 114.44C175.667 114.987 175.854 115.673 175.854 116.5V120.56C175.854 121.067 176.094 121.32 176.574 121.32C176.801 121.32 177.014 121.287 177.214 121.22L177.054 122.92C176.707 123.093 176.274 123.18 175.754 123.18C175.287 123.18 174.867 123.1 174.494 122.94C174.121 122.78 173.827 122.54 173.614 122.22C173.401 121.887 173.294 121.473 173.294 120.98V120.9L173.774 120.82C173.694 121.327 173.474 121.76 173.114 122.12C172.754 122.467 172.314 122.733 171.794 122.92C171.287 123.107 170.761 123.2 170.214 123.2C169.534 123.2 168.947 123.1 168.454 122.9C167.961 122.687 167.581 122.38 167.314 121.98C167.047 121.58 166.914 121.087 166.914 120.5C166.914 119.753 167.154 119.147 167.634 118.68C168.114 118.2 168.801 117.873 169.694 117.7L173.454 116.94L173.434 118.64L171.034 119.12C170.581 119.213 170.234 119.34 169.994 119.5C169.767 119.647 169.654 119.893 169.654 120.24C169.654 120.573 169.774 120.827 170.014 121C170.267 121.173 170.567 121.26 170.914 121.26C171.194 121.26 171.467 121.227 171.734 121.16C172.001 121.093 172.241 120.987 172.454 120.84C172.667 120.693 172.834 120.493 172.954 120.24C173.074 119.987 173.134 119.68 173.134 119.32V116.62ZM181.139 113L183.779 117.38L184.519 117.36L188.519 123H185.339L182.619 118.52L181.799 118.44L177.939 113H181.139ZM188.459 113L184.599 118.38L183.779 118.32L180.859 123H177.759L181.899 117.32L182.679 117.42L185.339 113H188.459ZM195.869 116.62C195.869 116.047 195.702 115.6 195.369 115.28C195.049 114.96 194.622 114.8 194.089 114.8C193.595 114.8 193.162 114.927 192.789 115.18C192.415 115.433 192.142 115.853 191.969 116.44L189.629 115.72C189.855 114.84 190.349 114.133 191.109 113.6C191.882 113.067 192.915 112.8 194.209 112.8C195.089 112.8 195.855 112.94 196.509 113.22C197.162 113.487 197.669 113.893 198.029 114.44C198.402 114.987 198.589 115.673 198.589 116.5V120.56C198.589 121.067 198.829 121.32 199.309 121.32C199.535 121.32 199.749 121.287 199.949 121.22L199.789 122.92C199.442 123.093 199.009 123.18 198.489 123.18C198.022 123.18 197.602 123.1 197.229 122.94C196.855 122.78 196.562 122.54 196.349 122.22C196.135 121.887 196.029 121.473 196.029 120.98V120.9L196.509 120.82C196.429 121.327 196.209 121.76 195.849 122.12C195.489 122.467 195.049 122.733 194.529 122.92C194.022 123.107 193.495 123.2 192.949 123.2C192.269 123.2 191.682 123.1 191.189 122.9C190.695 122.687 190.315 122.38 190.049 121.98C189.782 121.58 189.649 121.087 189.649 120.5C189.649 119.753 189.889 119.147 190.369 118.68C190.849 118.2 191.535 117.873 192.429 117.7L196.189 116.94L196.169 118.64L193.769 119.12C193.315 119.213 192.969 119.34 192.729 119.5C192.502 119.647 192.389 119.893 192.389 120.24C192.389 120.573 192.509 120.827 192.749 121C193.002 121.173 193.302 121.26 193.649 121.26C193.929 121.26 194.202 121.227 194.469 121.16C194.735 121.093 194.975 120.987 195.189 120.84C195.402 120.693 195.569 120.493 195.689 120.24C195.809 119.987 195.869 119.68 195.869 119.32V116.62ZM218.548 109.8L213.748 123H210.528L205.708 109.8H208.628L211.408 118.2L212.168 120.8L212.908 118.22L215.708 109.8H218.548ZM223.832 123.2C222.779 123.2 221.859 122.993 221.072 122.58C220.299 122.167 219.699 121.573 219.272 120.8C218.845 120.027 218.632 119.093 218.632 118C218.632 116.907 218.845 115.973 219.272 115.2C219.699 114.427 220.292 113.833 221.052 113.42C221.825 113.007 222.705 112.8 223.692 112.8C224.705 112.8 225.565 113.007 226.272 113.42C226.979 113.82 227.519 114.373 227.892 115.08C228.265 115.773 228.452 116.567 228.452 117.46C228.452 117.727 228.445 117.98 228.432 118.22C228.419 118.46 228.399 118.673 228.372 118.86H220.392V116.96H227.172L225.852 117.44C225.852 116.6 225.659 115.953 225.272 115.5C224.899 115.047 224.365 114.82 223.672 114.82C223.165 114.82 222.725 114.94 222.352 115.18C221.992 115.42 221.719 115.78 221.532 116.26C221.345 116.727 221.252 117.32 221.252 118.04C221.252 118.747 221.352 119.333 221.552 119.8C221.765 120.253 222.059 120.593 222.432 120.82C222.819 121.047 223.279 121.16 223.812 121.16C224.399 121.16 224.872 121.047 225.232 120.82C225.592 120.593 225.872 120.28 226.072 119.88L228.252 120.72C228.039 121.24 227.712 121.687 227.272 122.06C226.845 122.433 226.332 122.72 225.732 122.92C225.145 123.107 224.512 123.2 223.832 123.2ZM230.774 123V113H233.234L233.394 116L233.054 115.68C233.214 115.027 233.467 114.493 233.814 114.08C234.161 113.653 234.581 113.333 235.074 113.12C235.581 112.907 236.134 112.8 236.734 112.8C237.427 112.8 238.041 112.933 238.574 113.2C239.121 113.467 239.547 113.873 239.854 114.42C240.174 114.953 240.334 115.627 240.334 116.44V123H237.594V117.22C237.594 116.367 237.427 115.78 237.094 115.46C236.761 115.127 236.327 114.96 235.794 114.96C235.421 114.96 235.054 115.053 234.694 115.24C234.347 115.413 234.061 115.7 233.834 116.1C233.621 116.5 233.514 117.033 233.514 117.7V123H230.774ZM247.697 112.8C248.59 112.8 249.343 112.933 249.957 113.2C250.583 113.453 251.083 113.807 251.457 114.26C251.843 114.7 252.117 115.193 252.277 115.74L249.717 116.66C249.583 116.06 249.357 115.607 249.037 115.3C248.717 114.993 248.283 114.84 247.737 114.84C247.23 114.84 246.797 114.96 246.437 115.2C246.077 115.427 245.803 115.78 245.617 116.26C245.43 116.727 245.337 117.313 245.337 118.02C245.337 118.727 245.43 119.313 245.617 119.78C245.817 120.247 246.097 120.593 246.457 120.82C246.83 121.047 247.263 121.16 247.757 121.16C248.157 121.16 248.497 121.093 248.777 120.96C249.057 120.813 249.283 120.607 249.457 120.34C249.643 120.073 249.77 119.753 249.837 119.38L252.317 120.18C252.17 120.78 251.897 121.307 251.497 121.76C251.097 122.213 250.583 122.567 249.957 122.82C249.33 123.073 248.603 123.2 247.777 123.2C246.75 123.2 245.843 122.993 245.057 122.58C244.27 122.167 243.663 121.573 243.237 120.8C242.81 120.027 242.597 119.093 242.597 118C242.597 116.907 242.81 115.973 243.237 115.2C243.663 114.427 244.263 113.833 245.037 113.42C245.81 113.007 246.697 112.8 247.697 112.8ZM259.086 123.2C258.033 123.2 257.113 122.993 256.326 122.58C255.553 122.167 254.953 121.573 254.526 120.8C254.099 120.027 253.886 119.093 253.886 118C253.886 116.907 254.099 115.973 254.526 115.2C254.953 114.427 255.546 113.833 256.306 113.42C257.079 113.007 257.959 112.8 258.946 112.8C259.959 112.8 260.819 113.007 261.526 113.42C262.233 113.82 262.773 114.373 263.146 115.08C263.519 115.773 263.706 116.567 263.706 117.46C263.706 117.727 263.699 117.98 263.686 118.22C263.673 118.46 263.653 118.673 263.626 118.86H255.646V116.96H262.426L261.106 117.44C261.106 116.6 260.913 115.953 260.526 115.5C260.153 115.047 259.619 114.82 258.926 114.82C258.419 114.82 257.979 114.94 257.606 115.18C257.246 115.42 256.973 115.78 256.786 116.26C256.599 116.727 256.506 117.32 256.506 118.04C256.506 118.747 256.606 119.333 256.806 119.8C257.019 120.253 257.313 120.593 257.686 120.82C258.073 121.047 258.533 121.16 259.066 121.16C259.653 121.16 260.126 121.047 260.486 120.82C260.846 120.593 261.126 120.28 261.326 119.88L263.506 120.72C263.293 121.24 262.966 121.687 262.526 122.06C262.099 122.433 261.586 122.72 260.986 122.92C260.399 123.107 259.766 123.2 259.086 123.2ZM269.808 123.2C268.981 123.2 268.241 122.993 267.588 122.58C266.948 122.167 266.441 121.573 266.068 120.8C265.708 120.027 265.528 119.1 265.528 118.02C265.528 116.913 265.721 115.973 266.108 115.2C266.495 114.413 267.015 113.82 267.668 113.42C268.335 113.007 269.081 112.8 269.908 112.8C270.788 112.8 271.515 113.053 272.088 113.56C272.661 114.067 273.035 114.72 273.208 115.52L272.948 115.84V108.62H275.688V123H273.228L273.048 119.96L273.368 120.12C273.288 120.747 273.081 121.293 272.748 121.76C272.415 122.213 271.995 122.567 271.488 122.82C270.981 123.073 270.421 123.2 269.808 123.2ZM270.608 121.1C271.088 121.1 271.501 120.98 271.848 120.74C272.195 120.487 272.461 120.12 272.648 119.64C272.848 119.16 272.948 118.587 272.948 117.92C272.948 117.28 272.855 116.74 272.668 116.3C272.481 115.847 272.215 115.5 271.868 115.26C271.521 115.02 271.115 114.9 270.648 114.9C269.901 114.9 269.315 115.167 268.888 115.7C268.475 116.22 268.268 116.987 268.268 118C268.268 119.013 268.475 119.787 268.888 120.32C269.301 120.84 269.875 121.1 270.608 121.1ZM283.127 112.8C284.14 112.8 285.027 113.007 285.787 113.42C286.56 113.833 287.16 114.427 287.587 115.2C288.027 115.973 288.247 116.907 288.247 118C288.247 119.08 288.027 120.013 287.587 120.8C287.16 121.573 286.56 122.167 285.787 122.58C285.027 122.993 284.14 123.2 283.127 123.2C282.127 123.2 281.24 122.993 280.467 122.58C279.694 122.167 279.087 121.573 278.647 120.8C278.22 120.013 278.007 119.08 278.007 118C278.007 116.907 278.22 115.973 278.647 115.2C279.087 114.427 279.694 113.833 280.467 113.42C281.24 113.007 282.127 112.8 283.127 112.8ZM283.127 114.84C282.62 114.84 282.187 114.96 281.827 115.2C281.48 115.427 281.214 115.773 281.027 116.24C280.84 116.707 280.747 117.293 280.747 118C280.747 118.707 280.84 119.293 281.027 119.76C281.214 120.227 281.48 120.58 281.827 120.82C282.187 121.047 282.62 121.16 283.127 121.16C283.62 121.16 284.04 121.047 284.387 120.82C284.747 120.58 285.02 120.227 285.207 119.76C285.394 119.293 285.487 118.707 285.487 118C285.487 117.293 285.394 116.707 285.207 116.24C285.02 115.773 284.747 115.427 284.387 115.2C284.04 114.96 283.62 114.84 283.127 114.84ZM290.54 123V113H292.92L293.1 114.96C293.366 114.267 293.753 113.733 294.26 113.36C294.78 112.987 295.426 112.8 296.2 112.8C296.426 112.8 296.633 112.82 296.82 112.86C297.006 112.9 297.16 112.953 297.28 113.02L296.96 115.32C296.826 115.267 296.66 115.227 296.46 115.2C296.273 115.173 296.026 115.16 295.72 115.16C295.32 115.16 294.933 115.26 294.56 115.46C294.186 115.647 293.88 115.94 293.64 116.34C293.4 116.727 293.28 117.22 293.28 117.82V123H290.54ZM304.501 116.62C304.501 116.047 304.335 115.6 304.001 115.28C303.681 114.96 303.255 114.8 302.721 114.8C302.228 114.8 301.795 114.927 301.421 115.18C301.048 115.433 300.775 115.853 300.601 116.44L298.261 115.72C298.488 114.84 298.981 114.133 299.741 113.6C300.515 113.067 301.548 112.8 302.841 112.8C303.721 112.8 304.488 112.94 305.141 113.22C305.795 113.487 306.301 113.893 306.661 114.44C307.035 114.987 307.221 115.673 307.221 116.5V120.56C307.221 121.067 307.461 121.32 307.941 121.32C308.168 121.32 308.381 121.287 308.581 121.22L308.421 122.92C308.075 123.093 307.641 123.18 307.121 123.18C306.655 123.18 306.235 123.1 305.861 122.94C305.488 122.78 305.195 122.54 304.981 122.22C304.768 121.887 304.661 121.473 304.661 120.98V120.9L305.141 120.82C305.061 121.327 304.841 121.76 304.481 122.12C304.121 122.467 303.681 122.733 303.161 122.92C302.655 123.107 302.128 123.2 301.581 123.2C300.901 123.2 300.315 123.1 299.821 122.9C299.328 122.687 298.948 122.38 298.681 121.98C298.415 121.58 298.281 121.087 298.281 120.5C298.281 119.753 298.521 119.147 299.001 118.68C299.481 118.2 300.168 117.873 301.061 117.7L304.821 116.94L304.801 118.64L302.401 119.12C301.948 119.213 301.601 119.34 301.361 119.5C301.135 119.647 301.021 119.893 301.021 120.24C301.021 120.573 301.141 120.827 301.381 121C301.635 121.173 301.935 121.26 302.281 121.26C302.561 121.26 302.835 121.227 303.101 121.16C303.368 121.093 303.608 120.987 303.821 120.84C304.035 120.693 304.201 120.493 304.321 120.24C304.441 119.987 304.501 119.68 304.501 119.32V116.62ZM207.852 147.2C206.159 147.2 204.852 146.627 203.932 145.48C203.026 144.333 202.572 142.64 202.572 140.4C202.572 138.16 203.026 136.467 203.932 135.32C204.852 134.173 206.159 133.6 207.852 133.6C209.546 133.6 210.846 134.173 211.752 135.32C212.672 136.467 213.132 138.16 213.132 140.4C213.132 142.64 212.672 144.333 211.752 145.48C210.846 146.627 209.546 147.2 207.852 147.2ZM207.852 144.98C208.426 144.98 208.892 144.82 209.252 144.5C209.626 144.167 209.906 143.667 210.092 143C210.279 142.32 210.372 141.453 210.372 140.4C210.372 139.347 210.279 138.487 210.092 137.82C209.906 137.14 209.626 136.64 209.252 136.32C208.892 135.987 208.426 135.82 207.852 135.82C207.279 135.82 206.806 135.987 206.432 136.32C206.059 136.64 205.779 137.14 205.592 137.82C205.419 138.487 205.332 139.347 205.332 140.4C205.332 141.453 205.419 142.32 205.592 143C205.779 143.667 206.059 144.167 206.432 144.5C206.806 144.82 207.279 144.98 207.852 144.98ZM216.734 143.94C217.267 143.94 217.687 144.087 217.994 144.38C218.314 144.673 218.474 145.067 218.474 145.56C218.474 146.067 218.314 146.467 217.994 146.76C217.687 147.04 217.267 147.18 216.734 147.18C216.201 147.18 215.774 147.04 215.454 146.76C215.147 146.467 214.994 146.067 214.994 145.56C214.994 145.067 215.147 144.673 215.454 144.38C215.774 144.087 216.201 143.94 216.734 143.94ZM225.759 133.64C226.706 133.64 227.526 133.787 228.219 134.08C228.926 134.36 229.466 134.767 229.839 135.3C230.226 135.82 230.419 136.453 230.419 137.2C230.419 137.893 230.246 138.493 229.899 139C229.566 139.507 229.079 139.893 228.439 140.16V140.18C229.212 140.46 229.819 140.867 230.259 141.4C230.699 141.933 230.919 142.607 230.919 143.42C230.919 144.193 230.706 144.86 230.279 145.42C229.866 145.98 229.272 146.42 228.499 146.74C227.739 147.047 226.826 147.2 225.759 147.2C224.706 147.2 223.792 147.047 223.019 146.74C222.259 146.42 221.666 145.98 221.239 145.42C220.826 144.86 220.619 144.193 220.619 143.42C220.619 142.62 220.839 141.953 221.279 141.42C221.719 140.873 222.332 140.46 223.119 140.18V140.16C222.479 139.907 221.986 139.527 221.639 139.02C221.292 138.5 221.119 137.893 221.119 137.2C221.119 136.453 221.306 135.82 221.679 135.3C222.066 134.767 222.612 134.36 223.319 134.08C224.026 133.787 224.839 133.64 225.759 133.64ZM225.779 135.76C225.152 135.76 224.652 135.913 224.279 136.22C223.919 136.527 223.739 136.953 223.739 137.5C223.739 138.047 223.919 138.473 224.279 138.78C224.652 139.087 225.152 139.24 225.779 139.24C226.392 139.24 226.879 139.087 227.239 138.78C227.612 138.473 227.799 138.047 227.799 137.5C227.799 136.953 227.619 136.527 227.259 136.22C226.899 135.913 226.406 135.76 225.779 135.76ZM225.779 145.06C226.286 145.06 226.719 144.987 227.079 144.84C227.439 144.693 227.712 144.473 227.899 144.18C228.099 143.887 228.199 143.54 228.199 143.14C228.199 142.74 228.099 142.393 227.899 142.1C227.712 141.807 227.432 141.587 227.059 141.44C226.699 141.28 226.272 141.2 225.779 141.2C225.286 141.2 224.852 141.28 224.479 141.44C224.106 141.587 223.819 141.807 223.619 142.1C223.419 142.393 223.319 142.74 223.319 143.14C223.319 143.54 223.419 143.887 223.619 144.18C223.819 144.473 224.099 144.693 224.459 144.84C224.832 144.987 225.272 145.06 225.779 145.06ZM237.88 133.6C239.053 133.6 240.04 133.873 240.84 134.42C241.64 134.953 242.24 135.727 242.64 136.74C243.053 137.74 243.26 138.947 243.26 140.36C243.26 141.92 243.04 143.207 242.6 144.22C242.16 145.22 241.533 145.967 240.72 146.46C239.92 146.953 238.98 147.2 237.9 147.2C236.767 147.2 235.787 146.96 234.96 146.48C234.147 146 233.533 145.267 233.12 144.28L235.66 143.2C235.807 143.747 236.06 144.187 236.42 144.52C236.793 144.84 237.307 145 237.96 145C238.48 145 238.92 144.9 239.28 144.7C239.64 144.487 239.927 144.187 240.14 143.8C240.367 143.413 240.527 142.94 240.62 142.38C240.727 141.82 240.78 141.193 240.78 140.5C240.78 140.447 240.78 140.4 240.78 140.36C240.78 140.32 240.78 140.273 240.78 140.22H240.7C240.553 140.687 240.3 141.073 239.94 141.38C239.593 141.673 239.193 141.893 238.74 142.04C238.287 142.173 237.82 142.24 237.34 142.24C236.5 142.24 235.753 142.073 235.1 141.74C234.46 141.393 233.953 140.913 233.58 140.3C233.207 139.673 233.02 138.947 233.02 138.12C233.02 137.187 233.22 136.387 233.62 135.72C234.02 135.04 234.58 134.52 235.3 134.16C236.033 133.787 236.893 133.6 237.88 133.6ZM237.9 135.84C237.193 135.84 236.64 136.04 236.24 136.44C235.853 136.827 235.66 137.373 235.66 138.08C235.66 138.707 235.86 139.2 236.26 139.56C236.673 139.907 237.22 140.08 237.9 140.08C238.34 140.08 238.727 139.993 239.06 139.82C239.407 139.647 239.673 139.4 239.86 139.08C240.047 138.76 240.14 138.393 240.14 137.98C240.14 137.54 240.047 137.16 239.86 136.84C239.673 136.52 239.407 136.273 239.06 136.1C238.727 135.927 238.34 135.84 237.9 135.84ZM247.884 147L256.784 133.8H258.984L250.084 147H247.884ZM248.544 133.6C249.264 133.6 249.884 133.753 250.404 134.06C250.937 134.367 251.344 134.8 251.624 135.36C251.917 135.92 252.064 136.573 252.064 137.32C252.064 138.067 251.917 138.72 251.624 139.28C251.344 139.827 250.937 140.26 250.404 140.58C249.884 140.887 249.264 141.04 248.544 141.04C247.837 141.04 247.217 140.887 246.684 140.58C246.15 140.26 245.737 139.827 245.444 139.28C245.164 138.72 245.024 138.067 245.024 137.32C245.024 136.573 245.164 135.92 245.444 135.36C245.737 134.8 246.15 134.367 246.684 134.06C247.217 133.753 247.837 133.6 248.544 133.6ZM248.544 135.5C248.25 135.5 247.997 135.573 247.784 135.72C247.57 135.853 247.41 136.06 247.304 136.34C247.197 136.607 247.144 136.933 247.144 137.32C247.144 137.693 247.197 138.02 247.304 138.3C247.41 138.567 247.57 138.773 247.784 138.92C247.997 139.053 248.25 139.12 248.544 139.12C248.85 139.12 249.104 139.053 249.304 138.92C249.517 138.773 249.677 138.567 249.784 138.3C249.89 138.02 249.944 137.693 249.944 137.32C249.944 136.933 249.89 136.607 249.784 136.34C249.677 136.06 249.517 135.853 249.304 135.72C249.104 135.573 248.85 135.5 248.544 135.5ZM258.304 139.76C259.01 139.76 259.624 139.92 260.144 140.24C260.677 140.547 261.09 140.98 261.384 141.54C261.677 142.087 261.824 142.733 261.824 143.48C261.824 144.227 261.677 144.88 261.384 145.44C261.09 146 260.677 146.433 260.144 146.74C259.624 147.047 259.01 147.2 258.304 147.2C257.597 147.2 256.977 147.047 256.444 146.74C255.91 146.433 255.497 146 255.204 145.44C254.924 144.88 254.784 144.227 254.784 143.48C254.784 142.733 254.924 142.087 255.204 141.54C255.497 140.98 255.91 140.547 256.444 140.24C256.977 139.92 257.597 139.76 258.304 139.76ZM258.304 141.68C257.997 141.68 257.737 141.753 257.524 141.9C257.324 142.033 257.17 142.233 257.064 142.5C256.957 142.767 256.904 143.093 256.904 143.48C256.904 143.853 256.957 144.18 257.064 144.46C257.17 144.74 257.324 144.953 257.524 145.1C257.737 145.233 257.997 145.3 258.304 145.3C258.61 145.3 258.864 145.233 259.064 145.1C259.277 144.953 259.437 144.74 259.544 144.46C259.65 144.18 259.704 143.853 259.704 143.48C259.704 143.093 259.65 142.767 259.544 142.5C259.437 142.233 259.277 142.033 259.064 141.9C258.864 141.753 258.61 141.68 258.304 141.68Z" fill="#364254"/>
<path opacity="0.3" d="M189.056 185V174.44H192.816C194.064 174.44 194.976 174.701 195.552 175.224C196.128 175.747 196.416 176.456 196.416 177.352C196.416 177.885 196.261 178.371 195.952 178.808C195.643 179.235 195.205 179.507 194.64 179.624V179.64C195.269 179.757 195.765 180.045 196.128 180.504C196.501 180.952 196.688 181.464 196.688 182.04C196.688 182.936 196.352 183.656 195.68 184.2C195.008 184.733 194.048 185 192.8 185H189.056ZM190.336 183.8H193.104C193.861 183.8 194.421 183.645 194.784 183.336C195.157 183.027 195.344 182.595 195.344 182.04C195.344 181.475 195.157 181.043 194.784 180.744C194.421 180.435 193.861 180.28 193.104 180.28H190.336V183.8ZM190.336 179.08H192.832C194.325 179.08 195.072 178.504 195.072 177.352C195.072 176.211 194.325 175.64 192.832 175.64H190.336V179.08ZM203.941 179.832C203.941 179.235 203.781 178.776 203.461 178.456C203.141 178.125 202.688 177.96 202.101 177.96C201.547 177.96 201.077 178.083 200.693 178.328C200.309 178.563 200.027 178.947 199.845 179.48L198.805 178.84C199.019 178.243 199.413 177.763 199.989 177.4C200.565 177.027 201.28 176.84 202.133 176.84C202.709 176.84 203.232 176.941 203.701 177.144C204.171 177.336 204.539 177.635 204.805 178.04C205.083 178.435 205.221 178.947 205.221 179.576V183.448C205.221 183.832 205.424 184.024 205.829 184.024C206.032 184.024 206.229 183.997 206.421 183.944L206.357 184.952C206.144 185.059 205.867 185.112 205.525 185.112C205.216 185.112 204.939 185.053 204.693 184.936C204.448 184.819 204.256 184.643 204.117 184.408C203.979 184.163 203.909 183.859 203.909 183.496V183.336L204.229 183.384C204.101 183.8 203.883 184.141 203.573 184.408C203.264 184.664 202.917 184.856 202.533 184.984C202.149 185.101 201.771 185.16 201.397 185.16C200.928 185.16 200.491 185.08 200.085 184.92C199.68 184.76 199.355 184.52 199.109 184.2C198.875 183.869 198.757 183.464 198.757 182.984C198.757 182.387 198.955 181.896 199.349 181.512C199.755 181.117 200.315 180.851 201.029 180.712L204.197 180.088V181.144L201.621 181.672C201.099 181.779 200.709 181.928 200.453 182.12C200.197 182.312 200.069 182.579 200.069 182.92C200.069 183.251 200.197 183.523 200.453 183.736C200.72 183.939 201.093 184.04 201.573 184.04C201.883 184.04 202.176 184.003 202.453 183.928C202.741 183.843 202.997 183.72 203.221 183.56C203.445 183.389 203.621 183.181 203.749 182.936C203.877 182.68 203.941 182.381 203.941 182.04V179.832ZM208.332 185V177H209.452L209.564 178.792L209.356 178.616C209.526 178.189 209.756 177.848 210.044 177.592C210.332 177.325 210.662 177.133 211.036 177.016C211.42 176.899 211.814 176.84 212.22 176.84C212.796 176.84 213.318 176.952 213.788 177.176C214.257 177.389 214.63 177.72 214.908 178.168C215.196 178.616 215.34 179.187 215.34 179.88V185H214.06V180.328C214.06 179.443 213.868 178.829 213.484 178.488C213.11 178.136 212.646 177.96 212.092 177.96C211.708 177.96 211.324 178.051 210.94 178.232C210.556 178.413 210.236 178.707 209.98 179.112C209.734 179.517 209.612 180.061 209.612 180.744V185H208.332ZM221.55 176.84C222.105 176.84 222.59 176.925 223.006 177.096C223.433 177.267 223.801 177.512 224.11 177.832C224.419 178.152 224.67 178.531 224.862 178.968L223.646 179.544C223.475 179.032 223.214 178.643 222.862 178.376C222.521 178.099 222.073 177.96 221.518 177.96C220.985 177.96 220.526 178.083 220.142 178.328C219.758 178.563 219.465 178.909 219.262 179.368C219.059 179.816 218.958 180.36 218.958 181C218.958 181.629 219.059 182.173 219.262 182.632C219.465 183.091 219.758 183.443 220.142 183.688C220.526 183.923 220.985 184.04 221.518 184.04C221.934 184.04 222.291 183.976 222.59 183.848C222.899 183.72 223.15 183.533 223.342 183.288C223.545 183.043 223.683 182.744 223.758 182.392L224.942 182.808C224.761 183.299 224.51 183.72 224.19 184.072C223.881 184.424 223.502 184.696 223.054 184.888C222.617 185.069 222.115 185.16 221.55 185.16C220.803 185.16 220.137 184.995 219.55 184.664C218.963 184.333 218.505 183.859 218.174 183.24C217.843 182.611 217.678 181.864 217.678 181C217.678 180.136 217.843 179.395 218.174 178.776C218.505 178.147 218.963 177.667 219.55 177.336C220.137 177.005 220.803 176.84 221.55 176.84ZM230.503 176.84C231.26 176.84 231.927 177.005 232.503 177.336C233.09 177.667 233.548 178.147 233.879 178.776C234.21 179.395 234.375 180.136 234.375 181C234.375 181.864 234.21 182.611 233.879 183.24C233.548 183.859 233.09 184.333 232.503 184.664C231.927 184.995 231.26 185.16 230.503 185.16C229.756 185.16 229.09 184.995 228.503 184.664C227.916 184.333 227.458 183.859 227.127 183.24C226.796 182.611 226.631 181.864 226.631 181C226.631 180.136 226.796 179.395 227.127 178.776C227.458 178.147 227.916 177.667 228.503 177.336C229.09 177.005 229.756 176.84 230.503 176.84ZM230.503 177.944C229.959 177.944 229.495 178.067 229.111 178.312C228.727 178.557 228.428 178.909 228.215 179.368C228.012 179.816 227.911 180.36 227.911 181C227.911 181.629 228.012 182.173 228.215 182.632C228.428 183.091 228.727 183.443 229.111 183.688C229.495 183.933 229.959 184.056 230.503 184.056C231.047 184.056 231.511 183.933 231.895 183.688C232.279 183.443 232.572 183.091 232.775 182.632C232.988 182.173 233.095 181.629 233.095 181C233.095 180.36 232.988 179.816 232.775 179.368C232.572 178.909 232.279 178.557 231.895 178.312C231.511 178.067 231.047 177.944 230.503 177.944ZM243.758 174.44V185H242.478V174.44H243.758ZM246.894 185V177H248.014L248.126 178.792L247.918 178.616C248.089 178.189 248.318 177.848 248.606 177.592C248.894 177.325 249.225 177.133 249.598 177.016C249.982 176.899 250.377 176.84 250.782 176.84C251.358 176.84 251.881 176.952 252.35 177.176C252.82 177.389 253.193 177.72 253.47 178.168C253.758 178.616 253.902 179.187 253.902 179.88V185H252.622V180.328C252.622 179.443 252.43 178.829 252.046 178.488C251.673 178.136 251.209 177.96 250.654 177.96C250.27 177.96 249.886 178.051 249.502 178.232C249.118 178.413 248.798 178.707 248.542 179.112C248.297 179.517 248.174 180.061 248.174 180.744V185H246.894ZM258.579 174.728V182.792C258.579 183.187 258.691 183.48 258.915 183.672C259.139 183.864 259.427 183.96 259.779 183.96C260.088 183.96 260.355 183.907 260.579 183.8C260.803 183.693 261.006 183.549 261.187 183.368L261.635 184.44C261.39 184.664 261.096 184.84 260.755 184.968C260.424 185.096 260.04 185.16 259.603 185.16C259.198 185.16 258.819 185.091 258.467 184.952C258.115 184.803 257.832 184.573 257.619 184.264C257.416 183.944 257.31 183.528 257.299 183.016V175.08L258.579 174.728ZM261.491 177V178.104H255.699V177H261.491ZM266.738 185.16C265.981 185.16 265.304 184.995 264.706 184.664C264.12 184.333 263.661 183.859 263.33 183.24C263 182.611 262.834 181.864 262.834 181C262.834 180.136 263 179.395 263.33 178.776C263.661 178.147 264.114 177.667 264.69 177.336C265.266 177.005 265.922 176.84 266.658 176.84C267.405 176.84 268.04 177 268.562 177.32C269.096 177.64 269.501 178.077 269.778 178.632C270.056 179.176 270.194 179.789 270.194 180.472C270.194 180.653 270.189 180.819 270.178 180.968C270.168 181.117 270.152 181.251 270.13 181.368H263.666V180.232H269.57L268.914 180.36C268.914 179.592 268.701 179 268.274 178.584C267.858 178.168 267.309 177.96 266.626 177.96C266.104 177.96 265.65 178.083 265.266 178.328C264.893 178.563 264.6 178.909 264.386 179.368C264.184 179.816 264.082 180.36 264.082 181C264.082 181.629 264.189 182.173 264.402 182.632C264.616 183.091 264.914 183.443 265.298 183.688C265.693 183.923 266.162 184.04 266.706 184.04C267.293 184.04 267.768 183.928 268.13 183.704C268.504 183.48 268.802 183.176 269.026 182.792L270.034 183.384C269.832 183.747 269.57 184.061 269.25 184.328C268.941 184.595 268.573 184.803 268.146 184.952C267.73 185.091 267.261 185.16 266.738 185.16ZM272.629 185V177H273.669L273.845 178.312C274.069 177.821 274.394 177.453 274.821 177.208C275.258 176.963 275.786 176.84 276.405 176.84C276.543 176.84 276.693 176.851 276.853 176.872C277.023 176.893 277.167 176.936 277.285 177L277.061 178.168C276.943 178.125 276.815 178.093 276.677 178.072C276.538 178.051 276.341 178.04 276.085 178.04C275.754 178.04 275.418 178.136 275.077 178.328C274.746 178.52 274.469 178.813 274.245 179.208C274.021 179.592 273.909 180.083 273.909 180.68V185H272.629Z" fill="#364254"/>
<defs>
<radialGradient id="paint0_radial" cx="0" cy="0" r="1" gradientUnits="userSpaceOnUse" gradientTransform="translate(86.6667 169.222) rotate(58.5078) scale(57.8546)">
<stop stop-color="#EA1D2C"/>
<stop offset="1" stop-color="#EA1D2C" stop-opacity="0"/>
</radialGradient>
<radialGradient id="paint1_radial" cx="0" cy="0" r="1" gradientUnits="userSpaceOnUse" gradientTransform="translate(393.667 212.222) rotate(58.5078) scale(57.8546)">
<stop stop-color="#EA1D2C"/>
<stop offset="1" stop-color="#EA1D2C" stop-opacity="0"/>
</radialGradient>
<radialGradient id="paint2_radial" cx="0" cy="0" r="1" gradientUnits="userSpaceOnUse" gradientTransform="translate(198.667 22.2222) rotate(58.5078) scale(57.8546)">
<stop stop-color="#408F4A"/>
<stop offset="1" stop-color="#408F4A" stop-opacity="0"/>
</radialGradient>
<radialGradient id="paint3_radial" cx="0" cy="0" r="1" gradientUnits="userSpaceOnUse" gradientTransform="translate(235.961 300.548) rotate(58.5078) scale(47.248)">
<stop stop-color="#EA1D2C"/>
<stop offset="1" stop-color="#EA1D2C" stop-opacity="0"/>
</radialGradient>
<clipPath id="clip0">
<rect width="13.0667" height="13.0667" fill="white" transform="matrix(1 0 0 -1 256.65 334.667)"/>
</clipPath>
</defs>
</svg>
