<svg width="1328" height="285" viewBox="0 0 1328 285" fill="none" xmlns="http://www.w3.org/2000/svg">
<mask id="mask0" mask-type="alpha" maskUnits="userSpaceOnUse" x="0" y="0" width="1328" height="285">
<rect width="1328" height="285" rx="32" fill="#1E232C"/>
</mask>
<g mask="url(#mask0)">
<rect x="286" y="92" width="330" height="506" fill="#0273E8"/>
<path fill-rule="evenodd" clip-rule="evenodd" d="M286 92.4765C286 117.693 296.267 140.509 312.861 156.911C329.358 173.235 338.126 195.494 337.279 218.675C337.241 219.77 337.222 220.884 337.222 221.998C337.222 277.232 387.732 322 450.067 322C512.383 322 562.913 277.232 562.913 221.998C562.913 220.903 562.894 219.808 562.855 218.713C562.029 195.994 571.296 173.907 587.793 158.236C605.175 141.738 616 118.385 616 92.4765C616 42.5041 575.68 2 525.92 2C511.422 2 497.713 5.43776 485.58 11.5451C463.911 22.4537 438.089 22.4537 416.42 11.5451C404.287 5.43776 390.597 2 376.1 2C326.339 2 286 42.5041 286 92.4765Z" fill="#0273E8"/>
<path fill-rule="evenodd" clip-rule="evenodd" d="M1 117.277C1 140.209 10.334 160.957 25.4188 175.872C40.4162 190.717 48.3868 210.959 47.6177 232.039C47.5828 233.034 47.5653 234.047 47.5653 235.06C47.5653 285.289 93.4838 326 150.152 326C206.803 326 252.739 285.289 252.739 235.06C252.739 234.065 252.722 233.069 252.687 232.074C251.935 211.413 260.36 191.328 275.358 177.077C291.159 162.075 301 140.837 301 117.277C301 71.8335 264.346 35 219.109 35C205.929 35 193.466 38.1262 182.437 43.6801C162.737 53.6001 139.263 53.6001 119.563 43.6801C108.534 38.1262 96.0883 35 82.9088 35C37.6719 35 1 71.8335 1 117.277Z" fill="#009966"/>
<path fill-rule="evenodd" clip-rule="evenodd" d="M587 109.277C587 132.209 596.334 152.957 611.419 167.872C626.416 182.717 634.387 202.959 633.618 224.039C633.583 225.034 633.565 226.047 633.565 227.06C633.565 277.289 679.484 318 736.152 318C792.803 318 838.739 277.289 838.739 227.06C838.739 226.065 838.722 225.069 838.687 224.074C837.935 203.413 846.36 183.328 861.358 169.077C877.159 154.075 887 132.837 887 109.277C887 63.8335 850.346 27 805.109 27C791.929 27 779.466 30.1262 768.437 35.6801C748.737 45.6001 725.263 45.6001 705.563 35.6801C694.534 30.1262 682.088 27 668.909 27C623.672 27 587 63.8335 587 109.277Z" fill="#E3B839"/>
<rect x="587" y="109" width="300" height="355" fill="#E3B839"/>
<path fill-rule="evenodd" clip-rule="evenodd" d="M790 169.994C790 192.847 799.334 213.524 814.419 228.388C829.416 243.182 837.387 263.354 836.618 284.362C836.583 285.354 836.565 286.363 836.565 287.373C836.565 337.429 882.484 378 939.152 378C995.803 378 1041.74 337.429 1041.74 287.373C1041.74 286.381 1041.72 285.389 1041.69 284.397C1040.94 263.807 1049.36 243.791 1064.36 229.589C1080.16 214.638 1090 193.474 1090 169.994C1090 124.707 1053.35 88 1008.11 88C994.929 88 982.466 91.1155 971.437 96.6502C951.737 106.536 928.263 106.536 908.563 96.6502C897.534 91.1155 885.088 88 871.909 88C826.672 88 790 124.707 790 169.994Z" fill="#364254"/>
<rect x="1" y="117" width="300" height="461" fill="#009966"/>
<rect x="790" y="169" width="300" height="461" fill="#364254"/>
<path fill-rule="evenodd" clip-rule="evenodd" d="M302 267.935C302 307.494 318.117 343.286 344.163 369.016C370.059 394.625 383.821 429.544 382.493 465.909C382.433 467.626 382.403 469.374 382.403 471.121C382.403 557.771 461.689 628 559.536 628C657.353 628 736.67 557.771 736.67 471.121C736.67 469.404 736.64 467.687 736.579 465.969C735.281 430.327 749.829 395.68 775.724 371.095C803.008 345.214 820 308.578 820 267.935C820 189.541 756.71 126 678.601 126C655.844 126 634.325 131.393 615.281 140.974C581.267 158.087 540.733 158.087 506.719 140.974C487.675 131.393 466.186 126 443.429 126C365.32 126 302 189.541 302 267.935Z" fill="#CE596D"/>
<rect x="302" y="269" width="518" height="612" fill="#CE596D"/>
<path fill-rule="evenodd" clip-rule="evenodd" d="M1052 146.277C1052 169.209 1061.33 189.957 1076.42 204.872C1091.42 219.717 1099.39 239.959 1098.62 261.039C1098.58 262.034 1098.57 263.047 1098.57 264.06C1098.57 314.289 1144.48 355 1201.15 355C1257.8 355 1303.74 314.289 1303.74 264.06C1303.74 263.065 1303.72 262.069 1303.69 261.074C1302.94 240.413 1311.36 220.328 1326.36 206.077C1342.16 191.075 1352 169.837 1352 146.277C1352 100.833 1315.35 64 1270.11 64C1256.93 64 1244.47 67.1262 1233.44 72.6801C1213.74 82.6001 1190.26 82.6001 1170.56 72.6801C1159.53 67.1262 1147.09 64 1133.91 64C1088.67 64 1052 100.833 1052 146.277Z" fill="#744DA6"/>
<rect x="1052" y="146" width="300" height="461" fill="#744DA6"/>
</g>
</svg>
